<?xml version="1.0" standalone="no"?>
<!DOCTYPE svg PUBLIC "-//W3C//DTD SVG 1.1//EN" "http://www.w3.org/Graphics/SVG/1.1/DTD/svg11.dtd" >
<svg xmlns="http://www.w3.org/2000/svg">
<metadata>
This is a custom SVG webfont generated by Font Squirrel.
Designer    : Mike Weber
Foundry     : PYRS Fontlab Ltd  Made with FontLab
</metadata>
<defs>
<font id="webfontg2UYTwUp" horiz-adv-x="840" >
<font-face units-per-em="1000" ascent="1000" descent="0" />
<missing-glyph horiz-adv-x="250" />
<glyph unicode=" "  horiz-adv-x="250" />
<glyph unicode="&#x09;" horiz-adv-x="250" />
<glyph unicode="&#xa0;" horiz-adv-x="250" />
<glyph unicode="!" horiz-adv-x="617" d="M224 669v-9q0 -11 -1 -24l-4 -40l-6 -48q-4 13 -8 29q-3 14 -5 31q-1 12 -1 25v13q1 27 3.5 48t4.5 35q3 17 6 28q4 -29 6 -42l3 -20q1 -7 1 -11t1 -15zM92 654q-6 -32 -7.5 -53.5t-1.5 -35.5q0 -17 2 -27q-17 45 -17 79v9q3 37 10 58q4 12 11.5 27t15.5 29q9 16 20 33 q-7 -19 -13 -39q-5 -17 -10.5 -38.5t-9.5 -41.5zM303 543q14 13 19 43t8 75q1 9 1 22q0 6 -1 14q0 23 -1 46q-1 26 -3 57q11 -22 20 -43q8 -18 14 -37.5t7 -33.5q0 -12 -3.5 -30.5t-11.5 -38.5t-20 -39.5t-29 -34.5zM530 378q26 -17 42 -49.5t16 -78.5q0 -48 -18 -82 t-45 -51q-26 -17 -53 -22t-47 -5q-19 0 -29 2q-25 -42 -67 -67t-94 -25h-49q-39 0 -72.5 14.5t-59 40t-40 59t-14.5 72.5v278q0 18 31 30.5t78 18.5t101 7h8q50 0 94 -6q47 -7 78 -19t31 -31v-59h11q20 0 46 -5t52 -22zM489 172q13 10 23 26t10 52q0 35 -9 50t-21 24 q-12 8 -28.5 11.5t-31.5 3.5h-11v-153q0 -8 -0.5 -15t-1.5 -15h6q14 0 32 3.5t32 12.5z" />
<glyph unicode="&#x22;" horiz-adv-x="1223" d="M1067 622q54 -36 76 -89.5t22 -128.5q0 -44 -6.5 -79t-19.5 -62.5t-33 -49.5t-48 -40q-56 -35 -102.5 -45.5t-75.5 -10.5q-21 0 -36.5 1.5t-24.5 2.5q-25 -43 -60 -67t-78 -36t-92 -15t-102 -3h-102q-80 0 -150 19.5t-122 58.5t-82.5 98.5t-30.5 139.5v484h873v-122 q5 0 10.5 0.5t11.5 0.5q13 0 31.5 -2t41 -8.5t48 -17.5t51.5 -29zM982 288q28 19 36.5 48.5t8.5 67.5q0 33 -6.5 60.5t-31.5 44.5q-12 9 -26.5 15t-27.5 10t-24 5.5t-16 1.5h-22v-225q0 -31 -6 -61h13q14 0 44 6.5t58 26.5z" />
<glyph unicode="#" horiz-adv-x="1346" d="M709 658q37 0 71.5 -10.5t65 -27t57.5 -38.5t50 -44q53 -53 96 -119h-535q10 66 35 119q10 22 25 44t34.5 38.5t44.5 27t56 10.5zM358 418q-26 0 -48 9.5t-39 26.5t-26.5 39t-9.5 48q0 25 9.5 48t26.5 39.5t39 26.5t48 10q25 0 48 -10t39.5 -26.5t26.5 -39.5t10 -48 q0 -26 -10 -48t-26.5 -39t-39.5 -26.5t-48 -9.5zM1202 621q33 0 56.5 -23.5t23.5 -56.5v-461q0 -33 -23.5 -56.5t-56.5 -23.5t-56.5 23.5t-23.5 56.5v79h-963v-79q0 -33 -23 -56.5t-56 -23.5t-56.5 23.5t-23.5 56.5v640q0 33 23.5 56.5t56.5 23.5t56 -23.5t23 -56.5v-370 h963v191q0 33 23.5 56.5t56.5 23.5z" />
<glyph unicode="$" horiz-adv-x="1149" d="M1087 514q8 -11 8 -19q0 -2 -1 -5q-4 -8 -4 -15l-273 -19v-133v-86v-192q0 -19 -13.5 -32t-32.5 -13t-32 13t-13 32v200l-516 45v-245q0 -19 -13 -32t-32 -13t-32 13t-13 32v253v144l-50 -78q-5 -9 -14 -13.5t-18 -4.5q-11 0 -20 6q-14 8 -17 24q-1 4 -1 8q0 11 6 20 l88 139q9 14 26 17h3h6h526l189 240l28 -93l91 -76l37 -31l34 -32l31 -30q14 -14 22 -24z" />
<glyph unicode="%" horiz-adv-x="945" d="M898 160q2 -13 2 -25q0 -15 -3 -29q-6 -26 -21 -47.5t-37.5 -36.5t-50.5 -20q-14 -2 -27 -2q-40 0 -73 22q-44 30 -58 91q-5 23 -7.5 70.5t-3.5 104.5q-7 35 -18 58t-23 41t-25.5 33.5t-26 36t-23.5 49t-18 71.5q-4 23 -4 45q0 16 2 31q5 37 21.5 66.5t45 50t67.5 27.5 q18 3 35 3q31 0 58 -11q40 -17 69 -47t46 -66t22 -65q3 -18 7 -49t7 -70t5.5 -84t3.5 -91zM830 392q-1 18 -2 48.5t-4 65.5t-9 69.5t-17 60.5q-9 20 -27.5 32t-39.5 18t-41 8t-32 2l-3 21q-2 9 -13 7q-5 -1 -8 -4t-2 -7l4 -20q-11 -4 -29 -12.5t-36 -21.5t-32 -31t-15 -40 v-7q0 -25 12 -55q14 -33 32.5 -65.5t37.5 -59.5t28 -42l27 5q-26 44 -45 84l-16 34q-8 18 -14 34t-9.5 29.5t-2.5 22.5q1 21 11 40.5t22 35t23.5 26.5t16.5 15h2h1q6 -2 20 -7.5t30 -15.5t32 -23t27 -30q4 -6 8 -18.5t8 -29t8 -36t7 -38.5q8 -45 15 -98zM283 797 q40 -7 68 -27.5t44.5 -50t21.5 -66.5q2 -15 2 -31q0 -22 -4 -45q-7 -43 -18 -71.5t-23.5 -49t-25.5 -36t-25.5 -33.5t-23 -41t-17.5 -58q-2 -57 -4.5 -104.5t-7.5 -70.5q-13 -61 -57 -91q-33 -22 -73 -22q-13 0 -27 2q-28 5 -50.5 20t-37.5 36.5t-21 47.5q-4 15 -4 30 q0 12 2 24l28 157q1 46 3.5 91t5.5 84t7 70t7 49q5 29 22 65t46 66t69 47q27 11 58 11q17 0 35 -3zM266 359q9 15 28 42t37.5 59.5t32.5 65.5q12 30 12 55v7q-2 22 -15.5 40t-31.5 31t-36.5 21.5t-28.5 12.5l4 20q2 9 -10 11h-4q-7 0 -9 -7l-3 -21q-12 0 -32 -2t-40.5 -8 t-39 -18t-27.5 -32q-11 -26 -17.5 -60.5t-9.5 -69.5t-4 -65.5t-2 -48.5l26 -3q7 53 15 98q3 19 7 39l8 36q3 16 7 28.5t8 18.5q12 17 28 30t32 23t29.5 15.5t19.5 7.5h1h3q5 -4 16 -15t23 -26.5t21 -35.5q12 -23 12 -43q0 -17 -12 -49q-14 -34 -30 -68q-19 -40 -45 -84z" />
<glyph unicode="&#x26;" horiz-adv-x="400" d="M216 758l4 42q33 -3 61 -17l-19 -38q-18 10 -46 13zM112 778q27 15 61 21l6 -42q-28 -5 -46 -16zM292 724l29 31q11 -11 20.5 -24t16.5 -28l-38 -18q-10 21 -28 39zM36 701q16 27 38 49l29 -31q-9 -8 -16.5 -18t-13.5 -21zM16 659h1h-1zM338 598q0 14 -1.5 26.5 t-3.5 24.5l41 10q3 -14 5 -29.5t2 -31.5h-43zM2 600q3 29 15 59l39 -14q-9 -27 -12 -51zM330 516q2 11 4 23.5t3 28.5l43 -3q-3 -33 -9 -59zM0 554l42 1q1 -11 1.5 -24.5t1.5 -30.5l-42 -3q-1 17 -2 31.5t-1 25.5zM292 430q7 14 13.5 25.5t11.5 24.5l39 -17q-7 -15 -14 -27 l-12 -25zM7 454l42 4l2 -27q1 -14 3 -29l-42 -4q-2 14 -3 28zM263 328q2 18 4.5 32.5t6.5 27.5l41 -12q-7 -20 -10 -51zM18 355l42 6q2 -14 3.5 -28t3.5 -28l-41 -6l-4 28zM267 282l42 6q2 -15 3.5 -29t3.5 -28l-42 -5q-2 13 -3.5 27t-3.5 29zM26 203v57h42v-57h-42z M279 134q1 4 1 7.5t1 7.5v6q0 5 -0.5 13t-1.5 17l42 4q1 -10 1.5 -18.5t0.5 -15.5v-7q0 -5 -0.5 -10.5t-1.5 -10.5zM26 148v13h42v-13q0 -16 7 -35l-40 -15q-9 24 -9 50zM265 30l-25 33q19 16 29 36l38 -18q-15 -31 -41 -51h-1zM59 56l33 26q16 -19 36 -29l-18 -38 q-32 14 -51 41zM157 1l5 42q3 0 6 -0.5t6 -0.5q17 0 35 5l13 -40q-21 -7 -48 -7h-8q-4 0 -9 1z" />
<glyph unicode="'" horiz-adv-x="920" d="M685 800q52 0 89 -23.5t59.5 -57.5t33 -72t10.5 -67q0 -18 -1.5 -48.5t-5 -69t-9 -82t-12.5 -88.5v-158q0 -28 -10.5 -52.5t-28.5 -42.5t-42.5 -28.5t-52.5 -10.5q-57 0 -94.5 36.5t-40.5 97.5v7q0 23 5 63q6 47 14 102q-1 35 -7 59t-15 43.5t-19 37t-19 39.5t-14.5 51.5 t-5.5 72.5q0 39 11 74t32.5 61t52.5 41t70 15zM191 800q40 0 71 -15t52 -41t32 -61t11 -74q0 -43 -5.5 -72.5t-14 -51.5t-19 -39.5t-19 -37t-15 -43.5t-7.5 -59q9 -55 15 -102q4 -40 4 -62v-8q-1 -30 -11.5 -55t-28.5 -42.5t-42 -27t-52 -9.5t-52.5 10.5t-42.5 28.5 t-28.5 42.5t-10.5 52.5v158q-7 45 -12.5 88.5t-9 82t-5 69t-1.5 48.5q0 29 10.5 67t33 72t59 57.5t88.5 23.5z" />
<glyph unicode="(" horiz-adv-x="1646" d="M1267 298q31 0 58 -12t47 -32t31.5 -47t11.5 -58t-11.5 -58t-31.5 -47.5t-47 -32t-58 -11.5t-58 11.5t-47.5 32t-32 47.5t-11.5 58t11.5 58t32 47t47.5 32t58 12zM443 149q0 -31 -12 -58t-32 -47.5t-47 -32t-58 -11.5t-58 11.5t-47.5 32t-32 47.5t-11.5 58t11.5 58t32 47 t47.5 32t58 12t58 -12t47 -32t32 -47t12 -58zM1442 550q17 0 39 -10t41.5 -25t32.5 -33.5t13 -35.5v-217q0 -29 -18.5 -51.5t-46.5 -28.5q0 49 -19 92t-51 75t-74.5 50.5t-91.5 18.5t-92 -18.5t-75 -50.5t-50.5 -75t-18.5 -92v-2h-501v2q0 49 -18.5 92t-50.5 75t-75 50.5 t-92 18.5q-48 0 -91 -18.5t-75 -50t-50.5 -74.5t-19.5 -91q-25 8 -41.5 29t-16.5 49v195q0 28 19 48.5t48.5 34.5t65 22.5t69 13t60 6t38.5 1.5h74q23 33 60 76t75.5 82t70.5 65.5t46 26.5h555q9 0 24 -12.5t32.5 -33t37.5 -46.5t39 -54l34 -55q17 -27 28 -49h66zM948 733 v-169h320l-40 65q-19 31 -34.5 54t-28.5 36.5t-24 13.5h-193zM670 733q-11 0 -28 -14t-38 -37l-46 -54l-53 -64h344v169h-179z" />
<glyph unicode=")" horiz-adv-x="777" d="M740 110h-61v-54q0 -23 -16.5 -39.5t-39.5 -16.5t-39.5 16.5t-16.5 39.5v54h-390v-54q0 -23 -16.5 -39.5t-39.5 -16.5t-39.5 16.5t-16.5 39.5v54h-65v515l13 113q0 13 7 24t17.5 19.5t23.5 13.5t26 5h565q13 0 26.5 -5t24 -13.5t17.5 -19.5t7 -24l13 -115v-513zM282 755 q-10 0 -17 -6.5t-7 -17.5q0 -10 7 -17t17 -7h177q11 0 17.5 7t6.5 17q0 11 -6.5 17.5t-17.5 6.5h-177zM79 365q-1 -17 11.5 -28.5t29.5 -11.5h502q17 0 29.5 11.5t10.5 28.5l-12 249q-1 17 -12.5 28.5t-28.5 11.5h-477q-17 0 -28 -11.5t-12 -28.5zM177 180q15 17 15 38 q0 23 -17 40t-41 17q-23 0 -40 -17t-17 -40v-2q1 -23 17.5 -39.5t39.5 -16.5q13 0 24 5.5t19 14.5zM611 160q23 0 39.5 15.5t17.5 38.5q0 1 0.5 1.5t0.5 2.5q0 23 -17 40t-41 17q-23 0 -40 -17t-17 -40q0 -20 13 -36q8 -10 19 -16t25 -6z" />
<glyph unicode="*" horiz-adv-x="1295" d="M989 216q22 0 41.5 -8.5t34.5 -23t23.5 -34.5t8.5 -42q0 -23 -8.5 -42.5t-23.5 -34t-34.5 -23t-41.5 -8.5q-23 0 -42.5 8.5t-34 23t-23 34t-8.5 42.5q0 22 8.5 42t23 34.5t34 23t42.5 8.5zM305 216q22 0 42 -8.5t34.5 -23t23 -34.5t8.5 -42q0 -23 -8.5 -42.5t-23 -34 t-34.5 -23t-42 -8.5t-41.5 8.5t-34.5 23t-23.5 34t-8.5 42.5q0 22 8.5 42t23.5 34.5t34.5 23t41.5 8.5zM305 270q-49 0 -88.5 -26.5t-58.5 -68.5h-158v267l164 181h272v-420q-22 31 -56 49t-75 18zM101 339h237v195h-146l-91 -109v-86zM1233 175h-97q-19 42 -58.5 68.5 t-88.5 26.5q-50 0 -89 -26.5t-59 -68.5h-326v625h718v-625z" />
<glyph unicode="+" horiz-adv-x="1295" d="M989 216q22 0 41.5 -8.5t34.5 -23t23.5 -34.5t8.5 -42q0 -23 -8.5 -42.5t-23.5 -34t-34.5 -23t-41.5 -8.5q-23 0 -42.5 8.5t-34 23t-23 34t-8.5 42.5q0 22 8.5 42t23 34.5t34 23t42.5 8.5zM305 216q22 0 42 -8.5t34.5 -23t23 -34.5t8.5 -42q0 -23 -8.5 -42.5t-23 -34 t-34.5 -23t-42 -8.5t-41.5 8.5t-34.5 23t-23.5 34t-8.5 42.5q0 22 8.5 42t23.5 34.5t34.5 23t41.5 8.5zM305 270q-49 0 -88.5 -26.5t-58.5 -68.5h-158v267l164 181h272v-420q-22 31 -56 49t-75 18zM1233 175h-97q-19 42 -58.5 68.5t-88.5 26.5q-50 0 -89 -26.5t-59 -68.5 h-326v625h718v-625z" />
<glyph unicode="," horiz-adv-x="2246" d="M1895 216q22 0 41.5 -8.5t34 -23t23 -34.5t8.5 -42q0 -23 -8.5 -42.5t-23 -34t-34 -23t-41.5 -8.5q-23 0 -42.5 8.5t-34 23t-23 34t-8.5 42.5q0 22 8.5 42t23 34.5t34 23t42.5 8.5zM305 216q22 0 42 -8.5t34.5 -23t23 -34.5t8.5 -42q0 -23 -8.5 -42.5t-23 -34t-34.5 -23 t-42 -8.5t-41.5 8.5t-34.5 23t-23.5 34t-8.5 42.5q0 22 8.5 42t23.5 34.5t34.5 23t41.5 8.5zM305 270q-49 0 -88.5 -26.5t-58.5 -68.5h-158v267l164 181h272v-420q-22 31 -56 49t-75 18zM101 339h237v195h-146l-91 -109v-86zM2139 175h-97q-19 42 -58.5 68.5t-88.5 26.5 q-50 0 -89.5 -26.5t-58.5 -68.5h-1232v625h1624v-625z" />
<glyph unicode="-" d="M800 244l-156 -88l-88 -156l-60 61l13 142l-162 162l-215 -356l-61 60l116 456l-169 169q-18 18 -18 43.5t18 44.5q19 18 44.5 18t43.5 -18l169 -169l456 116l61 -61l-357 -215l162 -162l142 13z" />
<glyph unicode="." horiz-adv-x="1445" d="M0 400q0 50 36 106t102 109v-432q-66 53 -102 109.5t-36 107.5zM1376 400q0 -51 -35 -106t-98 -107v422q63 -52 98 -106.5t35 -102.5zM688 800q70 0 136 -10.5t126.5 -28.5t115 -43t101.5 -54v-531q-94 -58 -216.5 -95.5t-262.5 -37.5q-139 0 -259.5 36.5t-214.5 93.5 v539q94 57 214.5 94t259.5 37zM982 514h97v76h-97v102h-76v-102h-95v102h-76v-102h-96v102h-76v-102h-95v102h-76v-102h-91v-76h91v-106h76v106h95v-106h76v106h96v-106h76v106h95v-106h76v106z" />
<glyph unicode="/" d="M402 498l131 -96l-50 -154h-163l-50 154zM795 463q2 -16 3.5 -31.5t1.5 -31.5q0 -81 -30 -153t-83 -126q-66 -67 -156 -99q-64 -22 -131 -22q-34 0 -66.5 5.5t-62.5 15.5q-45 16 -84.5 41t-71.5 57q-54 55 -84.5 127t-30.5 154q0 17 1.5 32.5t3.5 30.5q14 83 58 152 q43 68 110 114.5t149 62.5q40 8 78 8q21 0 41.5 -2t40.5 -6q81 -17 147 -63.5t108 -113.5q45 -71 58 -152zM670 173q39 46 61 104t22 123q0 8 -0.5 15.5t-0.5 15.5l-46 -33l-114 83l44 134h44q-34 44 -80 75.5t-101 48.5l17 -50l-114 -83l-114 83l16 51q-56 -16 -102.5 -48 t-81.5 -77h46l43 -134l-114 -83l-47 34q0 -8 -0.5 -16t-0.5 -16q0 -66 22.5 -124t62.5 -105l7 23h141l43 -134l-4 -4q39 -9 81 -9q44 0 83 10l-4 3l44 134h140z" />
<glyph unicode="0" d="M747 349q31 -31 43 -67q10 -28 10 -57v-15q-4 -37 -22 -73t-49 -66q-30 -31 -66 -49t-73 -22h-15q-29 0 -57 10q-36 12 -66 43q-31 30 -46 68t-16 77q-20 6 -38 16.5t-34 26.5q-42 42 -42 92.5t31 96.5l-171 172q-6 -1 -13 -1q-11 0 -21 3q-18 5 -32 19l-48 48 q-22 22 -22 53t22 54q23 22 54 22t53 -22l48 -48q14 -14 19 -32q3 -10 3 -21q0 -7 -1 -13l172 -171q46 31 96.5 31t92.5 -42q16 -16 26.5 -34t16.5 -38q39 -1 77 -16t68 -45zM496 304q19 20 19 46.5t-19 45.5t-44 19h-5q-25 0 -43 -19q-19 -18 -19 -43q-2 -28 19 -49 q19 -19 45.5 -19t46.5 19z" />
<glyph unicode="1" horiz-adv-x="844" d="M572 745l232 55v-166l-147 -35v-476q0 -26 -12.5 -48t-33.5 -39t-49 -26.5t-60 -9.5t-60.5 10t-49.5 27t-33.5 39.5t-12.5 48.5t12.5 48.5t33.5 39.5t49.5 27t60.5 10q35 0 69 -13v508h1zM287 174q-8 -24 -8 -49q0 -11 1.5 -20.5t3.5 -19.5h-284v89h287zM470 314 q-30 -4 -57 -14t-50 -25h-363v89h470v-50zM470 464h-470v89h470v-89zM470 653h-470v89h470v-89z" />
<glyph unicode="2" horiz-adv-x="841" d="M745 320q0 -17 10 -30t27 -19q8 -6 13.5 -14t5.5 -18q0 -18 -20 -33q-36 -13 -36 -47q0 -13 3.5 -23t16.5 -18l20 -20q14 -14 14 -33t-14 -33l-18 -18q-14 -14 -33 -14t-33 14l-13 12q-13 31 -45 31q-34 0 -48 -36q-15 -20 -32 -20q-18 0 -33 20q-14 36 -48 36t-48 -36 q-13 -20 -32 -20q-18 0 -33 20q-14 36 -48 36t-47 -36q-15 -20 -33 -20t-33 20q-14 36 -48 36q-13 0 -23.5 -4.5t-18.5 -18.5l-20 -20q-14 -14 -33 -14t-33 14l-18 18q-14 14 -14 33t14 33l16 16q15 7 21.5 19t6.5 26q0 16 -9 28.5t-27 18.5q-20 15 -20 33q0 10 5.5 18 t13.5 14q18 6 27.5 19t9.5 30q0 16 -9 28.5t-27 18.5q-20 15 -20 33q0 9 5.5 17.5t13.5 14.5q18 6 27.5 19t9.5 30q0 16 -9 28.5t-27 18.5q-8 7 -14 15.5t-6 17.5t5.5 17.5t13.5 14.5q18 6 27.5 19t9.5 29q0 15 -7 27t-23 19l-14 14q-14 14 -14 33t14 33l18 18q14 14 33 14 t33 -14l22 -22q7 -13 17.5 -16.5t22.5 -3.5q35 0 48 38q7 8 15 13.5t18 5.5q9 0 17 -5.5t15 -13.5q6 -18 19 -28t29 -10q35 0 48 38q7 8 15 13.5t18 5.5q9 0 17 -5.5t15 -13.5q6 -18 19 -28t29 -10q35 0 48 38q7 8 15 13.5t18 5.5q9 0 17 -5.5t15 -13.5q13 -38 48 -38 q31 0 45 29l13 13q14 14 33 14t33 -14l18 -18q14 -14 14 -33t-14 -33l-18 -18q-14 -7 -18 -17.5t-4 -24.5q0 -16 9.5 -29t27.5 -19q8 -6 13.5 -14.5t5.5 -17.5q0 -18 -20 -33q-18 -6 -27 -18.5t-9 -28.5q0 -17 9.5 -29.5t27.5 -18.5q8 -7 13.5 -15t5.5 -18q0 -18 -20 -33 q-18 -6 -27 -18.5t-9 -28.5z" />
<glyph unicode="3" horiz-adv-x="841" d="M781 367q-18 -6 -27 -18.5t-9 -28.5q0 -17 10 -30t27 -19q8 -6 13.5 -14t5.5 -18q0 -18 -20 -33q-36 -13 -36 -47q0 -13 3.5 -23t16.5 -18l20 -20q14 -14 14 -33t-14 -33l-18 -18q-14 -14 -33 -14t-33 14l-13 12q-13 31 -45 31q-34 0 -48 -36q-15 -20 -32 -20 q-18 0 -33 20q-14 36 -48 36t-48 -36q-13 -20 -32 -20q-18 0 -33 20q-14 36 -48 36t-47 -36q-15 -20 -33 -20t-33 20q-14 36 -48 36q-13 0 -23.5 -4.5t-18.5 -18.5l-20 -20q-14 -14 -33 -14t-33 14l-18 18q-14 14 -14 33t14 33l16 16q15 7 21.5 19t6.5 26q0 16 -9 28.5 t-27 18.5q-20 15 -20 33q0 10 5.5 18t13.5 14q18 6 27.5 19t9.5 30q0 16 -9 28.5t-27 18.5q-20 15 -20 33q0 9 5.5 17.5t13.5 14.5q18 6 27.5 19t9.5 30q0 16 -9 28.5t-27 18.5q-20 15 -20 33q0 9 5.5 17.5t13.5 14.5q18 6 27.5 19t9.5 29q0 15 -7 27t-23 19l-14 14 q-14 14 -14 33t14 33l18 18q14 14 33 14t33 -14l22 -22q7 -13 17.5 -16.5t22.5 -3.5q35 0 48 38q7 8 15 13.5t18 5.5q9 0 17 -5.5t15 -13.5q6 -18 19 -28t29 -10q35 0 48 38q7 8 15 13.5t18 5.5q9 0 17 -5.5t15 -13.5q6 -18 19 -28t29 -10q35 0 48 38q7 8 15 13.5t18 5.5 q9 0 17 -5.5t15 -13.5q13 -38 48 -38q31 0 45 29l13 13q14 14 33 14t33 -14l18 -18q14 -14 14 -33t-14 -33l-18 -18q-14 -7 -18 -17.5t-4 -24.5q0 -16 9.5 -29t27.5 -19q8 -6 13.5 -14.5t5.5 -17.5q0 -18 -20 -33q-18 -6 -27 -18.5t-9 -28.5q0 -17 9.5 -29.5t27.5 -18.5 q8 -7 13.5 -15t5.5 -18q0 -18 -20 -33zM422 248q47 5 86.5 24t67.5 46.5t42 62.5q10 27 10 55q0 9 -1 17q-5 37 -26.5 68t-55 52t-75.5 31q-28 6 -58 6q-16 0 -32 -2q-47 -5 -86.5 -24t-67.5 -46.5t-42 -62.5q-10 -26 -10 -53q0 -9 1 -19q5 -40 28.5 -72t60.5 -53v-7 q0 -14 -6 -30q-9 -20 -38 -41q-6 -5 4 -8q6 -2 13.5 -2t17.5 2q20 3 47 15.5t55 41.5q17 -2 36 -2q14 0 29 1z" />
<glyph unicode="4" horiz-adv-x="841" d="M781 367q-18 -6 -27 -18.5t-9 -28.5q0 -17 10 -30t27 -19q8 -6 13.5 -14t5.5 -18q0 -18 -20 -33q-36 -13 -36 -47q0 -13 3.5 -23t16.5 -18l20 -20q14 -14 14 -33t-14 -33l-18 -18q-14 -14 -33 -14t-33 14l-13 12q-13 31 -45 31q-34 0 -48 -36q-15 -20 -32 -20 q-18 0 -33 20q-14 36 -48 36t-48 -36q-13 -20 -32 -20q-18 0 -33 20q-14 36 -48 36t-47 -36q-15 -20 -33 -20t-33 20q-14 36 -48 36q-13 0 -23.5 -4.5t-18.5 -18.5l-20 -20q-14 -14 -33 -14t-33 14l-18 18q-14 14 -14 33t14 33l16 16q15 7 21.5 19t6.5 26q0 16 -9 28.5 t-27 18.5q-20 15 -20 33q0 10 5.5 18t13.5 14q18 6 27.5 19t9.5 30q0 16 -9 28.5t-27 18.5q-20 15 -20 33q0 9 5.5 17.5t13.5 14.5q18 6 27.5 19t9.5 30q0 16 -9 28.5t-27 18.5q-8 7 -14 15.5t-6 17.5t5.5 17.5t13.5 14.5q18 6 27.5 19t9.5 29q0 15 -7 27t-23 19l-14 14 q-14 14 -14 33t14 33l18 18q14 14 33 14t33 -14l22 -22q7 -13 17.5 -16.5t22.5 -3.5q35 0 48 38q7 8 15 13.5t18 5.5q9 0 17 -5.5t15 -13.5q6 -18 19 -28t29 -10q35 0 48 38q7 8 15 13.5t18 5.5q9 0 17 -5.5t15 -13.5q6 -18 19 -28t29 -10q35 0 48 38q7 8 15 13.5t18 5.5 q9 0 17 -5.5t15 -13.5q13 -38 48 -38q31 0 45 29l13 13q14 14 33 14t33 -14l18 -18q14 -14 14 -33t-14 -33l-18 -18q-14 -7 -18 -17.5t-4 -24.5q0 -16 9.5 -29t27.5 -19q8 -6 13.5 -14.5t5.5 -17.5q0 -18 -20 -33q-18 -6 -27 -18.5t-9 -28.5q0 -17 9.5 -29.5t27.5 -18.5 q8 -7 13.5 -15t5.5 -18q0 -18 -20 -33zM185 564q-6 0 -8 -1l160 -137l21 -17l42 -34l42 34l21 17l160 137q-3 1 -8 1h-430zM317 408l-160 136q-1 -3 -1 -9v-271q0 -6 2 -9zM615 235q5 0 8 1l-161 154l-62 -50l-62 50l-161 -154q3 -1 8 -1h430zM644 535q0 2 -0.5 4.5 t-0.5 4.5l-160 -136l159 -153q2 6 2 9v271z" />
<glyph unicode="5" horiz-adv-x="841" d="M781 367q-18 -6 -27 -18.5t-9 -28.5q0 -17 10 -30t27 -19q8 -6 13.5 -14t5.5 -18q0 -18 -20 -33q-36 -13 -36 -47q0 -13 3.5 -23t16.5 -18l20 -20q14 -14 14 -33t-14 -33l-18 -18q-14 -14 -33 -14t-33 14l-12 12q-7 17 -19 24t-27 7q-34 0 -48 -36q-15 -20 -32 -20 q-18 0 -33 20q-14 36 -48 36t-48 -36q-13 -20 -32 -20q-18 0 -33 20q-14 36 -48 36t-47 -36q-15 -20 -33 -20t-33 20q-14 36 -48 36q-13 0 -23.5 -4.5t-18.5 -18.5l-20 -20q-14 -14 -33 -14t-33 14l-18 18q-14 14 -14 33t14 33l16 16q15 7 21.5 19t6.5 26q0 16 -9 28.5 t-27 18.5q-20 15 -20 33q0 10 5.5 18t13.5 14q18 6 27.5 19t9.5 30q0 16 -9 28.5t-27 18.5q-8 7 -14 15.5t-6 17.5t5.5 17.5t13.5 14.5q18 6 27.5 19t9.5 30q0 16 -9 28.5t-27 18.5q-8 7 -14 15.5t-6 17.5t5.5 17.5t13.5 14.5q18 6 27.5 19t9.5 29q0 15 -7 27t-23 19l-14 14 q-14 14 -14 33t14 33l18 18q14 14 33 14t33 -14l22 -22q7 -13 17.5 -16.5t22.5 -3.5q35 0 48 38q7 8 15 13.5t18 5.5q9 0 17 -5.5t15 -13.5q6 -18 19 -28t29 -10q35 0 48 38q7 8 15 13.5t18 5.5q9 0 17 -5.5t15 -13.5q6 -18 19 -28t29 -10q35 0 48 38q7 8 15 13.5t18 5.5 q9 0 17 -5.5t15 -13.5q13 -38 48 -38q31 0 45 29l13 13q14 14 33 14t33 -14l18 -18q14 -14 14 -33t-14 -33l-18 -18q-14 -7 -18 -17.5t-4 -24.5q0 -16 9.5 -29t27.5 -19q8 -6 13.5 -14t5.5 -18q0 -18 -20 -33q-18 -6 -27 -18.5t-9 -28.5q0 -17 9.5 -29.5t27.5 -18.5 q8 -7 13.5 -15t5.5 -18q0 -18 -20 -33zM675 675h-549v-550h549v550z" />
<glyph unicode="6" horiz-adv-x="990" d="M857 683q40 3 86 3v-603q-65 5 -127 5h-20q-30 -1 -63 -3t-65 -7.5t-61.5 -13.5t-53.5 -21q-8 -5 -17 -12t-19 -14t-21.5 -12t-24.5 -5t-24.5 5t-20.5 12l-19 14q-9 7 -17 12q-24 13 -54 21t-61.5 13.5t-64.5 7.5t-63 3h-20q-62 0 -127 -5v603q45 0 86 -3v117 q83 0 143.5 -8t103 -20.5t69.5 -27t42 -27.5t20.5 -22t6.5 -11q1 2 6.5 11t21 22t42 27.5t69.5 27t103.5 20.5t143.5 8v-117zM129 184h4q31 0 70.5 -2t81 -9t82.5 -19t75 -31v520l-10 24q-1 1 -12.5 14.5t-44.5 29t-92 29t-154 16.5v-572zM814 756q-95 -3 -154 -16.5 t-92 -29t-44.5 -29t-12.5 -14.5l-12 -29v-516q34 20 75 32t83 19t81.5 9t71.5 2h4v572z" />
<glyph unicode="7" horiz-adv-x="839" d="M445 271v-54h-281v54h281zM630 381h-466v53h466v-53zM630 545h-466v53h466v-53zM799 800v-800h-799v800h799zM67 67h446l219 218v448h-665v-666z" />
<glyph unicode="8" horiz-adv-x="839" d="M799 800v-800h-799v800h799zM66 67h220l-220 220v-220zM401 46v356h-356z" />
<glyph unicode="9" horiz-adv-x="621" d="M130 203h331v-43h-331v43zM130 317h331v-43h-331v43zM130 431h331v-44h-331v44zM130 544h331v-43h-331v43zM528 746q26 0 45 -19t19 -46v-617q0 -26 -19 -45t-45 -19h-464q-26 0 -45 19t-19 45v617q0 27 19 46t45 19h36v23q0 13 8.5 22t22.5 9q13 0 22 -9t9 -22v-23h102 v23q0 13 9 22t22 9t22 -9t9 -22v-23h104v23q0 13 8.5 22t22.5 9q13 0 22 -9t9 -22v-23h36zM528 677h-36v-22q0 -13 -9 -22t-22 -9q-14 0 -22.5 9t-8.5 22v22h-104v-22q0 -13 -9 -22t-22 -9t-22 9t-9 22v22h-102v-22q0 -13 -9 -22t-22 -9q-14 0 -22.5 9t-8.5 22v22h-37v-607 h465v607z" />
<glyph unicode=":" horiz-adv-x="634" d="M604 700v-700h-604v700h76q9 17 19.5 35t22.5 32.5t25 23.5t25 9h266q13 0 26.5 -9.5t26.5 -24.5t24 -32.5t19 -33.5h74zM206 756q-10 0 -17 -7t-7 -17q0 -9 7 -16t17 -7h188q10 0 17 7t7 16q0 10 -7 17t-17 7h-188zM475 198h-349v-54h349v54zM475 318h-349v-53h349v53z M475 437h-349v-53h349v53zM475 557h-349v-53h349v53z" />
<glyph unicode=";" horiz-adv-x="634" d="M604 700v-700h-604v700h76q9 17 19.5 35t22.5 32.5t25 23.5t25 9h266q13 0 26.5 -9.5t26.5 -24.5t24 -32.5t19 -33.5h74zM206 756q-10 0 -17 -7t-7 -17q0 -9 7 -16t17 -7h188q10 0 17 7t7 16q0 10 -7 17t-17 7h-188zM501 614h-101q5 -11 8 -21t3 -13v-2q0 -8 -8 -14 t-19 -6h-162q-11 0 -18.5 6t-7.5 14v2q0 3 3 13t8 21h-106v-536h400v536z" />
<glyph unicode="&#x3c;" horiz-adv-x="982" d="M800 168h-536v42h536v-42zM800 297h-536v42h536v-42zM800 467h-209v42h209v-42zM800 596h-209v42h209v-42zM515 422h-251v250h251v-250zM903 800q20 0 26.5 -6.5t6.5 -26.5v-734q0 -20 -6.5 -26.5t-26.5 -6.5h-122h-613h-80q-16 0 -32 8.5t-28.5 21.5t-20 28.5t-7.5 29.5 v540q0 20 6.5 26.5t26.5 6.5h103v106q0 20 6.5 26.5t25.5 6.5h735zM880 744h-689v-83v-56v-499h-55v499h-80v-517q1 -8 12.5 -20t19.5 -12h80h613h99v688z" />
<glyph unicode="=" horiz-adv-x="1226" d="M583 527q-28 0 -50 -15.5t-33 -39.5h-451l11 66l11 53l9 48h231q14 28 31 56.5t36.5 51.5t39.5 38t40 15h251q21 0 43 -15.5t42 -39t38 -52t32 -54.5h225l9 -48q5 -23 10 -53l12 -66h-453q-11 24 -33 39.5t-51 15.5zM519 745q-8 0 -14.5 -5.5t-11.5 -13.5t-8 -17.5 t-3 -17.5t3 -17t8 -17t11.5 -13.5t14.5 -5.5h126q7 0 14 5.5t12 13.5t8 17t3 17t-3 17.5t-8 17.5t-12 13.5t-14 5.5h-126zM583 346q30 0 53.5 17t32.5 44h462q10 -60 19 -122t14 -115q3 -42 3 -75v-14q-1 -37 -10 -46t-60.5 -15.5t-131 -11t-178.5 -6.5t-202 -2t-202.5 2 t-179 6.5t-132 11t-61.5 15.5q-9 10 -10 47v13q0 33 4 77q5 52 14 113.5t19 121.5h461q9 -27 32.5 -44t52.5 -17z" />
<glyph unicode="&#x3e;" horiz-adv-x="1089" d="M85 634v-634h-85v634h85zM864 634v-634h-692v634h65q14 29 32 58.5t37.5 53.5t40.5 39t41 15h258q22 0 44.5 -16t43.5 -40.5t39 -53.5t32 -56h59zM580 650q16 0 27 11t11 27t-11 27t-27 11h-129q-16 0 -27 -11t-11 -27t11 -27t27 -11h129zM1037 0h-87v634h87v-634z" />
<glyph unicode="?" horiz-adv-x="693" d="M660 495v-47h-660v47h65l160 305l83 -44l-136 -261h317l-137 261l84 44l159 -305h65zM0 412h660l-47 -412h-566zM442 115h85l28 181h-86zM288 115h82v181h-82v-181zM105 296l28 -181h85l-27 181h-86z" />
<glyph unicode="@" horiz-adv-x="845" d="M192 500q18 19 39 25q7 2 14 2q11 0 19 -7q8 -8 8 -21q0 -5 -2 -11q-4 -21 -22 -40q-18 -20 -39 -26q-7 -2 -14 -2q-11 0 -18 7q-9 8 -9 21q0 5 2 11q4 21 22 41zM452 631q1 0 19 -1.5t45 -9t59 -22.5t61 -43q8 -8 8 -19.5t-8 -19.5t-19 -8t-19 8q-19 19 -41.5 30.5 t-43.5 18.5t-37 9.5t-22 2.5h-4q-11 0 -18.5 8.5t-7.5 19.5q1 11 9 19t19 7zM805 396q0 -78 -37 -144.5t-99 -111.5l11 -92v-5q0 -17 -10 -28q-14 -15 -33 -15h-143q-20 0 -32 15q-11 13 -11 28v6l2 17q-5 -1 -9 -1h-8h-10l2 -17v-5q0 -15 -11 -28q-12 -15 -32 -15h-143 q-20 0 -32 15q-11 11 -11 28v6l10 86q-41 29 -71.5 66t-48.5 82l-41 -4h-5q-16 0 -29 11q-14 12 -14 32v147q0 18 14 32q13 11 29 11h5l41 -4q16 40 42 74.5t61 61.5l-2 106v1v1q0 27 24 41q11 7 25 7q13 0 24 -6l123 -70q24 3 50 3q76 0 142.5 -25.5t117.5 -70.5t80 -105.5 t29 -129.5zM625 175q58 38 92 96t34 125q0 57 -24.5 107t-66.5 88q-43 38 -100.5 60t-123.5 22q-14 0 -26.5 -1t-24.5 -3l-10 -1l-130 74l1 -125l-11 -8q-37 -27 -63 -62t-39 -76l-7 -21l-72 7v-123l73 7l6 -21q31 -92 120 -149l14 -9l-13 -108h119l-9 71l34 -3q9 -2 18 -2 h20q11 0 22.5 0.5t22.5 1.5l34 5l-9 -73h119l-14 112z" />
<glyph unicode="A" horiz-adv-x="841" d="M403 594l-139 -393l-120 186l-79 -73l-21 -20l-44 38l156 145l92 -142l164 465l151 -582l126 397l112 -356l-59 -15l-53 171l-132 -415z" />
<glyph unicode="B" horiz-adv-x="1017" d="M968 800v-800h-968v800h968zM874 706h-780v-612h780v612zM182 332l-37 24l131 95l77 -93l139 303l127 -379l105 258l94 -231l-49 -10l-45 111l-110 -270l-130 387l-117 -256l-101 121l-66 -48z" />
<glyph unicode="C" horiz-adv-x="297" d="M195 530q11 0 26.5 -9.5t29 -25.5t23 -39t9.5 -50v-353q0 -22 -15.5 -37.5t-37.5 -15.5h-177q-22 0 -37.5 15.5t-15.5 37.5v353q0 27 9 49.5t22.5 38.5t28.5 25.5t26 10.5v232q0 16 6.5 27t22.5 11h52q15 0 21.5 -11t6.5 -27v-232z" />
<glyph unicode="D" horiz-adv-x="297" d="M195 530q11 0 26.5 -9.5t29 -25.5t23 -39t9.5 -50v-353q0 -22 -15.5 -37.5t-37.5 -15.5h-177q-22 0 -37.5 15.5t-15.5 37.5v353q0 27 9 49.5t22.5 38.5t28.5 25.5t26 10.5v232q0 16 6.5 27t22.5 11h52q15 0 21.5 -11t6.5 -27v-232zM251 324h-219v-156h219v156z" />
<glyph unicode="E" horiz-adv-x="671" d="M640 800q0 -60 -21 -114t-58 -96t-87.5 -70t-108.5 -37v-358q32 -5 59 -16.5t47 -28t31.5 -37t11.5 -43.5h-388q0 23 11 43.5t31 37t47.5 28t59.5 16.5v358q-59 8 -109 36t-87 70.5t-58 96.5t-21 114h640z" />
<glyph unicode="F" horiz-adv-x="838" d="M798 800q-16 -52 -18 -102q-1 -18 -1 -36q0 -32 3 -64q3 -51 8 -106q2 -33 2 -69q0 -24 -1 -49q-5 -100 -41.5 -166t-92 -105t-123 -55t-134.5 -16q-48 0 -87.5 13t-68.5 30q-33 18 -61 43l-148 -118l-35 51q34 33 60 63l20 25q10 13 16 24.5t7.5 21t-3.5 14.5 q-42 42 -64.5 89.5t-29.5 96.5q-3 25 -3 49t3 48q7 47 21 88.5t34 75t40 53.5q30 30 65 53t81 35t108 13h5q60 0 141 -13q90 -15 147 -15h4q58 1 90 7q38 7 56 21zM671 648q4 3 4 7q0 3 -2 7q-4 5 -9 5q-3 0 -5 -1l-25 -13q-26 -13 -63.5 -35.5t-81.5 -52.5t-81 -65 q-36 -34 -74 -81t-70 -92q-37 -52 -71 -106q-2 -4 -2 -7q0 -4 4 -7q3 -3 7 -3q5 0 8 3l82 75l80 76l89 86l155 150q55 53 55 54z" />
<glyph unicode="G" horiz-adv-x="908" d="M761 235v-14q0 -54 14 -89q16 -39 36 -62q24 -26 54 -38q-68 -11 -136.5 -21t-133.5 -11h-9q-60 0 -116 12q-60 14 -110 51q-75 55 -123.5 108.5t-77.5 104t-41.5 97t-13.5 87.5v15q0 86 42 164l-146 130l59 31q36 -33 66 -57q26 -20 49 -35q16 -9 24 -9q5 0 8 3 q39 40 100 52q27 6 56 6q34 0 70 -8q65 -14 127.5 -52.5t104.5 -98.5q20 -29 38.5 -73t32 -94t20.5 -102q6 -46 6 -86v-11zM687 114q4 4 4 7q0 2 -1 3l-8 17q-7 17 -21 44l-33 61q-18 35 -39.5 70.5t-45.5 69t-48 58.5q-38 39 -74.5 68t-65.5 48q-34 22 -65 37q-2 2 -4 2 q-3 0 -5 -4q-3 -2 -3 -4t2 -5l7 -10q7 -9 25 -30l48 -59l80 -92l86 -99l76 -89l54 -65l21 -26q1 -3 6 -3q1 0 2 0.5t2 0.5z" />
<glyph unicode="H" horiz-adv-x="734" d="M699 138q0 -16 -11 -27t-27 -11h-225q1 -4 1 -12q0 -37 -25.5 -62.5t-62.5 -25.5q-36 0 -61.5 25.5t-25.5 62.5q0 8 1 12h-225q-16 0 -27 11t-11 27l98 95q-1 5 -1 11v12v194q0 41 12.5 78.5t35 68.5t53 54.5t67.5 36.5q-3 12 -3 24q0 37 25.5 62.5t61.5 25.5 q37 0 62.5 -25.5t25.5 -62.5q0 -12 -3 -24q37 -13 68 -36t53.5 -54.5t35 -69t12.5 -78.5v-194q0 -6 -0.5 -12t-1.5 -11zM301 712q0 -4 0.5 -7t1.5 -7q25 5 47 5q21 0 46 -5q1 4 1.5 7t0.5 7q0 20 -14.5 34.5t-34.5 14.5t-34 -14.5t-14 -34.5z" />
<glyph unicode="I" horiz-adv-x="784" d="M698 267q20 0 34.5 -14.5t14.5 -34.5t-14.5 -34t-34.5 -14q-7 0 -11 1l-33 -26q-19 -15 -42 -31q-32 -21 -70 -40.5t-81 -31.5l-17 -10q-11 -7 -24.5 -14t-26 -12.5t-18.5 -5.5q-7 0 -20.5 6t-28.5 14l-26 14q-13 7 -16 9q-42 12 -79.5 31.5t-69.5 39.5l-43 31l-33 26 q-3 -1 -11 -1q-20 0 -34 14t-14 34t14 34.5t34 14.5t34.5 -14.5t14.5 -34.5q0 -5 -1 -7q13 -11 30.5 -20t38.5 -23q30 -20 65 -25.5t73 -5.5l31 144q1 27 2 58q1 26 1.5 59t2.5 67h-129l-51 11q-11 -16 -31 -16q-17 0 -28 11t-11 27t11 27.5t28 11.5q21 0 32 -18h181 q2 29 2.5 53.5t1.5 38.5q-30 9 -50 34.5t-20 58.5q0 40 28 68t69 28q40 0 68 -28t28 -68q0 -32 -19.5 -57.5t-48.5 -34.5q1 -15 1.5 -39.5t1.5 -53.5h181q11 18 32 18q17 0 28 -11.5t11 -27.5t-11 -27t-28 -11q-20 0 -31 16l-50 -11h-130q1 -34 2.5 -67t2.5 -59q1 -31 2 -58 l31 -147q12 -1 24 -1q19 0 36 2q29 3 55 19q29 17 52 32t39 27v5q0 20 14 34.5t34 14.5zM321 704q0 -21 15 -36t37 -15q21 0 36 15t15 36t-15 36t-36 15q-22 0 -37 -15t-15 -36z" />
<glyph unicode="J" d="M159 361q-49 3 -80 17t-48.5 34t-24 42t-6.5 42q0 18 6.5 40t24.5 42.5t49 35.5t79 19v-272zM251 637q53 5 111 16.5t115.5 26.5t111 32t97 33.5t73.5 30.5t41 24v-608q-9 9 -38 23t-72 30.5t-96.5 34t-111.5 33t-117.5 27.5t-113.5 17v280zM124 290q14 -2 28.5 -3.5 t31.5 -1.5q38 0 82 -5.5t90 -14.5l-27 -43l48 -179q0 -18 -12.5 -30.5t-29.5 -12.5h-120q-18 0 -30.5 12.5t-12.5 30.5v179z" />
<glyph unicode="K" horiz-adv-x="751" d="M321 499v32v3h73v-3v-32v-41h238q4 0 8 -1.5t6 -3.5l63 -55q6 -5 6 -13v-1q0 -9 -6 -13l-63 -55q-2 -2 -6 -3.5t-8 -1.5h-552q-8 0 -8 8v131q0 8 8 8h241v41zM321 763v37h73v-37v-42h241q8 0 8 -8v-130q0 -8 -8 -8h-552q-3 0 -7.5 1.5t-6.5 3.5l-63 55q-6 4 -6 12v2 q0 7 6 13l63 54q2 2 6.5 3.5t7.5 1.5h238v42zM321 270h73v-270h-73v270z" />
<glyph unicode="L" horiz-adv-x="712" d="M0 800h70v-800h-70v800zM505 522q0 -5 6.5 -15t18.5 -22l25 -26l29 -28q35 -33 80 -70q-15 -4 -36 -4q-9 0 -18 1q-33 2 -71.5 9t-80.5 17l-82 18q-40 10 -75 17t-59 10q-30 3 -50 3t-33 -1t-19 -3t-8 -3v375h10q26 0 54 -4q29 -5 67.5 -16t81.5 -34t88 -37t89 -19 q19 -2 38 -2q23 0 45 4q40 5 73 21q-49 -42 -87 -79l-31 -32q-16 -17 -28 -32t-19.5 -27.5t-7.5 -20.5z" />
<glyph unicode="M" horiz-adv-x="498" d="M374 718q-66 -66 -98.5 -149t-32.5 -169t32.5 -169t98.5 -149q47 -46 100 -75q-37 -7 -75 -7q-57 0 -114 16q-95 28 -168 101q-59 58 -88 132t-29 151t29 150.5t88 132.5q73 73 168 101q57 16 114 16q38 0 75 -7q-53 -29 -100 -75z" />
<glyph unicode="N" horiz-adv-x="843" d="M803 350q-9 -68 -40 -128t-77.5 -106.5t-106.5 -76.5t-128 -39v350q8 69 38.5 129.5t77 107.5t107 77.5t129.5 39.5v-354zM353 0q-69 9 -129 39t-106.5 76.5t-77.5 106.5t-40 128v354q69 -9 129.5 -39.5t107 -77.5t77 -107.5t38.5 -129.5h1v-350zM401 450 q-26 79 -76.5 143.5t-119.5 108.5q40 39 89.5 64.5t106.5 33.5h1q57 -8 106 -33.5t90 -64.5q-69 -45 -119.5 -109.5t-76.5 -144.5q0 2 -0.5 2.5t-0.5 1.5v-2zM401 452q0 -1 0.5 -1.5t0.5 -2.5v-1q-1 1 -1 3v2z" />
<glyph unicode="O" horiz-adv-x="1387" d="M1054 632q14 -21 31 -36t31 -25v-341q-16 -10 -33.5 -25.5t-31.5 -38.5h-783q-14 23 -31.5 38.5t-33.5 25.5v340q15 10 31.5 25t30.5 37h789zM435 320l-2 6l-56 155l-1 3h-3h-22h-4l-1 -3l-55 -155l-2 -6h6h30h4l1 3l10 31h41l11 -31l2 -3h3h32h6zM585 371q5 17 5 32 q0 16 -5 33q-4 15 -14 26q-8 10 -25 17q-8 3 -17 5t-20 2q-2 0 -5 -0.5t-6 -0.5h-12q-8 0 -12 -1q-8 0 -11 -1h-4v-4v-155v-4h4q2 -1 9 -1l12 -1q8 0 12 -1h10q23 0 39 8q16 6 26 19q11 13 14 27zM783 483h-4h-28h-2l-2 -2l-39 -70l-3 -9l-3 8l-42 71l-1 2h-3h-27h-5v-4 v-155v-4h5h28h5v4v81l32 -55l2 -2h2h10h3l1 2l32 57v-2v-81v-4h4h31h4v4v155v4zM865 483h-5h-30h-4v-4v-155v-4h4h30h5v4v155v4zM1026 483h-4h-121h-4v-4v-27v-5h4h41v-123v-4h5h30h4v4v123h41h4v5v27v4zM547 384l-3 -9q-2 -4 -4 -7q-3 -6 -11 -11q-10 -4 -20 -4h-3l-2 1h-2 h-3v95h3h9q12 0 19 -4q6 -3 11 -10q4 -6 6 -15q1 -5 1.5 -8.5t0.5 -8.5t-0.5 -9.5t-1.5 -9.5zM362 416l9 -29h-20l9 29l1 4zM1228 800q2 -45 16.5 -69.5t31.5 -35.5q20 -13 45 -15v-559q-27 -3 -47 -16q-18 -11 -32.5 -35.5t-14.5 -69.5h-1133q0 45 -15 69.5t-32 35.5 q-21 13 -47 16v559q25 2 45 15q17 11 31.5 35.5t16.5 69.5h1135zM1188 620q-17 9 -33 21q-14 11 -28 26t-23 37h-889q-9 -23 -23 -39t-28 -26q-16 -12 -32 -19v-441q18 -8 34 -19q14 -10 28 -26t22 -40h888q8 24 21.5 40t27.5 26q16 11 35 19v441z" />
<glyph unicode="P" horiz-adv-x="956" d="M322 93q-8 13 -18 21.5t-18 14.5v190q8 5 17 13.5t17 21.5h442q8 -12 17 -20.5t17 -14.5v-190q-9 -5 -18.5 -14t-17.5 -22h-438zM859 447q1 -26 9 -39.5t18 -19.5q11 -7 25 -8v-312q-16 -1 -27 -9q-10 -7 -18 -20.5t-8 -38.5h-633q0 25 -8.5 38.5t-18.5 20.5q-11 8 -26 9 v312q14 1 25 8q10 6 18 19.5t9 39.5h635zM836 347q-9 4 -18 11q-8 6 -16 15t-13 21h-497q-5 -13 -12.5 -22t-15.5 -14q-9 -7 -18 -11v-247q10 -4 19 -10q8 -5 15.5 -14.5t12.5 -22.5h496q5 13 12.5 22.5t15.5 14.5q9 6 19 10v247zM567 680q11 -9 22.5 -14t20.5 -7l55 -160 h-441q-21 0 -35.5 -14.5t-15.5 -35.5q-1 -9 -2.5 -13t-1.5 -5h-1h4q-5 0 -9 -5.5t-8 -12.5l-28 80q6 8 12 19t10 25zM121 380v-159h-9q-4 0 -6 -1q-4 -1 -5 -1l-101 295q13 5 21 16q7 9 11 25q1 5 1 12q0 12 -5 28l600 205q9 -24 21 -34t23 -13q13 -4 27 0l87 -254h-79 l-68 198q-10 1 -21 5q-9 3 -19.5 9t-18.5 16l-471 -161q-1 -14 -5.5 -24.5t-9.5 -18.5q-6 -9 -14 -16l43 -125q-1 -2 -1 -4q0 -1 -1 -1v3z" />
<glyph unicode="Q" horiz-adv-x="813" d="M527 513l50 -136h-376l51 136h275zM497 593h-216l68 179q2 8 7 14q5 5 12 9.5t21 4.5q13 0 20.5 -4.5t12.5 -9.5q5 -6 7 -13zM171 297h436l77 -205h62q12 0 20 -8t8 -20v-36q0 -12 -8 -20t-20 -8h-718q-12 0 -20 8t-8 20v36q0 12 8 20t20 8h66z" />
<glyph unicode="R" horiz-adv-x="824" d="M785 490v-490h-785v490h75l305 305q1 1 2 1q5 4 10 4q6 0 11 -5l305 -304q0 -1 1 -1h76zM121 490h542l-271 271zM676 381h-567v-272h567v272zM632 152h-480v185h480v-185z" />
<glyph unicode="S" horiz-adv-x="705" d="M112 407l185 124l37 -54l127 85l-23 34l116 5l-49 -105l-20 31l-163 -109l-36 54l-150 -101zM672 256h-216l82 -212q5 -12 -0.5 -24.5t-18.5 -17.5q-8 -2 -12 -2q-22 0 -30 21l-91 235h-107l-91 -235q-8 -21 -31 -21q-3 0 -11 2q-13 5 -18.5 17.5t-0.5 24.5l82 212h-209 v462h304v54q0 11 8.5 19.5t19.5 8.5q12 0 20 -8.5t8 -19.5v-54h312v-462zM606 653h-541v-331h541v331z" />
<glyph unicode="T" horiz-adv-x="767" d="M594 476h104v-476h-104v476zM419 382h104v-382h-104v382zM239 285h104v-285h-104v285zM65 190h105v-190h-105v190zM632 642l-256 -255l-85 84l-235 -236l-56 56l291 292l85 -85l200 199l-52 53l207 50l-50 -207z" />
<glyph unicode="U" horiz-adv-x="1894" d="M1600 800q42 0 79 -16t64.5 -43.5t43.5 -64.5t16 -79v-190q0 -9 -6 -15t-15 -6h-91q-9 0 -15.5 6t-6.5 15v190q0 29 -20 49t-49 20h-2h-4q-29 0 -49 -20t-20 -49v-394q0 -42 -16 -79t-43.5 -64.5t-64.5 -43.5t-79 -16h-1h-1h-1h-1h-1h-1q-42 2 -79 18.5t-64.5 43.5 t-43.5 63t-16 78v394q0 29 -20 49t-49 20h-2h-4q-29 0 -49 -20t-20 -49v-394q0 -42 -16 -79t-43.5 -64.5t-64.5 -43.5t-79 -16h-1h-2h-1h-2h-1q-42 2 -78.5 18.5t-64.5 43.5t-44 63t-16 78l1 394q0 29 -20 49t-49 20h-2h-5q-29 0 -48.5 -20t-19.5 -49v-394q0 -42 -16 -79 t-43.5 -64.5t-64.5 -43.5t-79 -16h-1h-2h-1h-2h-1q-42 2 -79 18.5t-64.5 43.5t-43.5 63t-16 78v205q0 9 6.5 15.5t15.5 6.5h90q10 0 16 -6.5t6 -15.5v-205q0 -29 20 -49t49 -20h2h5q29 0 48.5 20t19.5 49v394q0 42 16 78.5t43.5 64t64.5 43.5t79 17h1h2h1h2h1q42 0 79 -16 t64.5 -43.5t43.5 -64.5t16 -79v-394q0 -29 19.5 -49t48.5 -20h3h4q29 0 49 20t20 49v394q0 42 16 78.5t43.5 64t64.5 43.5t79 17h3h2h1q42 0 79 -16t64.5 -43.5t43.5 -64.5t16 -79v-394q0 -29 20 -49t49 -20h2h4q29 0 49 20t20 49v394q0 42 16 78.5t43.5 64t64.5 43.5t79 17 h1h2h1h2z" />
<glyph unicode="V" horiz-adv-x="945" d="M374 302q8 -13 10.5 -22.5t2.5 -11.5q2 -11 -4 -19t-17 -10h-3q-10 0 -17 6t-8 16q0 1 -0.5 1.5t-0.5 2.5q-1 3 -5 11q-4 5 -9 9t-16 4t-24 -4q-10 -4 -19 0.5t-12 14.5q-2 6 -2 8q-3 14 6 25q14 14 19 27t5 26q0 23 -10 42t-14 24q-7 8 -5.5 18.5t9.5 17.5q8 6 18 5 t17 -9q0 -1 5.5 -8.5t12 -20.5t12 -30.5t5.5 -38.5q0 -24 -10 -48q20 -3 33.5 -14t20.5 -22zM672 394q11 2 18.5 -4.5t8.5 -17.5q2 -11 -4.5 -18.5t-17.5 -8.5q-10 -2 -19 -2h-19h-2q-68 0 -110 24.5t-63 58.5q-20 34 -25 65t-5 47v11q1 11 8.5 17.5t18.5 5.5t17.5 -8.5 t5.5 -18.5v-7q0 -12 3.5 -37t19.5 -48q7 -12 18 -23t26.5 -19t37 -13t50.5 -5h16q8 0 17 1zM861 385q18 -21 28.5 -48t10.5 -57q0 -33 -13 -62.5t-35 -51.5t-51.5 -35t-62.5 -13q-28 0 -52 9q-24 -57 -75 -92t-116 -35q-48 0 -88 19.5t-69 52.5q-17 -21 -42 -33t-54 -12 q-26 0 -49.5 10t-40.5 27t-27 40.5t-10 49.5q0 17 5 37q-54 24 -87 73.5t-33 112.5q0 54 25.5 99t67.5 73q-3 10 -3 21q0 24 9 45t25 36.5t37 24.5t45 9q31 0 58 -16q5 28 19 52t35 41.5t47 27.5t55 10q42 0 76.5 -19.5t56.5 -51.5q33 10 73 10q53 0 99.5 -20t81 -54.5 t54.5 -81t20 -99.5t-20 -99zM738 181q42 0 70.5 28.5t28.5 70.5q0 23 -7.5 39t-15.5 25l-25 30l15 35q15 36 15 75q0 40 -15.5 75t-41.5 61t-61 41.5t-75 15.5q-28 0 -55 -8l-45 -13l-25 38q-14 20 -35 32t-46 12q-35 0 -61.5 -22.5t-32.5 -57.5l-16 -89l-78 47q-14 7 -26 7 q-22 0 -37.5 -15.5t-15.5 -37.5q0 -6 1 -10l8 -41l-35 -23q-30 -20 -47.5 -51.5t-17.5 -67.5q0 -42 23 -77t61 -52l50 -23l-16 -52q-3 -11 -3 -19q0 -27 19 -46t46 -19q14 0 27 6t22 17l47 55l48 -54q20 -24 48.5 -37.5t60.5 -13.5q44 0 80 24t53 65l8 19v2q-1 26 -6.5 40 t-11.5 22q-5 7 -9.5 9.5t-5.5 2.5q-9 4 -13.5 13t-1.5 19t12.5 14.5t19.5 1.5l12 -6q11 -6 23 -20q10 -11 18 -30t11 -45l22 -7q17 -5 32 -5z" />
<glyph unicode="W" horiz-adv-x="826" d="M746 82q17 0 29 -12t12 -29t-12 -29t-29 -12t-29 12t-12 29t12 29t29 12zM631 217q32 0 54.5 -22.5t22.5 -54.5t-22.5 -54t-54.5 -22t-54.5 22t-22.5 54t22.5 54.5t54.5 22.5zM631 105q15 0 25.5 10.5t10.5 24.5q0 15 -10.5 25.5t-25.5 10.5t-25.5 -10.5t-10.5 -25.5 q0 -14 10.5 -24.5t25.5 -10.5zM536 512q20 0 34.5 -14t14.5 -34t-14.5 -34.5t-34.5 -14.5t-34 14.5t-14 34.5t14 34t34 14zM364 512q20 0 34.5 -14t14.5 -34t-14.5 -34.5t-34.5 -14.5t-34.5 14.5t-14.5 34.5t14.5 34t34.5 14zM192 512q20 0 34 -14t14 -34t-14 -34.5 t-34 -14.5t-34.5 14.5t-14.5 34.5t14.5 34t34.5 14zM603 243q-24 0 -42 7q-20 -46 -61.5 -75t-94.5 -29q-39 0 -72 16t-56 42q-14 -17 -35 -26.5t-44 -9.5q-44 0 -74 30t-30 74q0 8 1 15t3 15q-44 20 -71 60.5t-27 91.5q0 45 20.5 81t55.5 59q-1 5 -1.5 9t-0.5 9 q0 19 7.5 36.5t20 30t29.5 20t37 7.5q25 0 48 -13q8 46 44 76.5t84 30.5q34 0 62.5 -16t45.5 -42q30 8 60 8q43 0 81 -16.5t66 -44.5t44.5 -66t16.5 -81q0 -45 -16 -81q15 -17 23.5 -39t8.5 -47q0 -27 -10.5 -51t-28.5 -42t-42.5 -28.5t-51.5 -10.5zM532 313l45 -15 q12 -4 26 -4q34 0 58 23.5t24 57.5q0 19 -6.5 32t-13.5 21l-20 24l12 29q12 28 12 61t-12.5 61.5t-34 49.5t-50 33.5t-60.5 12.5q-24 0 -46 -6l-36 -11l-21 32q-11 17 -28 26t-37 9q-29 0 -51 -18t-27 -47l-12 -73l-64 38q-11 6 -22 6q-18 0 -30.5 -12.5t-12.5 -30.5 q0 -5 1 -8l6 -33l-28 -19q-25 -17 -39 -42.5t-14 -55.5q0 -34 18.5 -63t50.5 -43l40 -18l-13 -43q-2 -10 -2 -15q0 -22 15.5 -37.5t37.5 -15.5q24 0 40 19l38 45l39 -45q36 -41 90 -41q35 0 65 20t44 53z" />
<glyph unicode="X" horiz-adv-x="585" d="M405 544q0 48 6.5 84.5t17 63.5t24.5 45.5t28 30.5q33 28 76 32v-800h-100v300q-15 30 -26 68q-10 32 -18 77t-8 99zM239 766h61v-266q-1 -28 -12 -50q-9 -19 -28.5 -34.5t-57.5 -15.5v-400h-102l2 398q-37 0 -57 15.5t-30 35.5q-11 22 -13 51l-2 266h61v-260 q0 -12 8.5 -20t19.5 -8t19.5 8t8.5 20v260h66v-260q0 -12 8.5 -20t19.5 -8t19.5 8t8.5 20v260z" />
<glyph unicode="Y" horiz-adv-x="737" d="M335 603h67v-603h-402v603h61v89h34v-89h91v56h149v-56zM165 301h-101v-100h101v100zM165 502h-101v-100h101v100zM335 301h-101v-100h101v100zM335 502h-101v-100h101v100zM702 800v-800h-229v800h229zM637 301h-100v-100h100v100zM637 502h-100v-100h100v100zM637 703 h-100v-101h100v101z" />
<glyph unicode="Z" horiz-adv-x="1439" d="M1322 384q23 -25 36 -60t13 -84q0 -74 -26.5 -120.5t-70.5 -73t-101 -36.5t-118 -10q-56 0 -105.5 8.5t-88.5 30.5t-64.5 59.5t-32.5 95.5h-157q-9 -59 -38 -96.5t-71.5 -59.5t-95 -30t-108.5 -8q-61 0 -114.5 10t-93.5 37t-63 73.5t-23 119.5q0 49 11.5 84t31.5 60l6 7 l2 2l368 407l181 -104l-43 -76l-121 69l-211 -233q17 1 34 1.5t35 0.5q56 0 109.5 -6t96 -25t71.5 -54t37 -92h155q7 57 32 92t64 54t89.5 25t106.5 6q22 0 43.5 -1t42.5 -3l-212 235l-121 -69l-43 76l181 104zM294 87q79 0 125 13.5t69 35t29 49t6 55.5t-6 52t-29 41.5 t-69 27.5t-125 10q-78 0 -120.5 -10t-61.5 -30l-2 -2q-14 -16 -18.5 -38t-4.5 -51q0 -36 8 -64.5t30.5 -48t63 -30t105.5 -10.5zM1055 87q79 0 124.5 13.5t69 35t29.5 49t6 55.5t-6 52t-29 41.5t-69 27.5t-125 10q-70 0 -111 -8t-62.5 -24t-27.5 -41t-6 -58q0 -36 8 -64.5 t30.5 -48t63 -30t105.5 -10.5z" />
<glyph unicode="[" horiz-adv-x="1287" d="M177 0h-102q-10 6 -11 26.5t-2.5 45.5t-8.5 50.5t-28 43.5l21 250q-20 11 -33 31.5t-13 46.5q0 37 26 62.5t62 25.5q37 0 63 -25.5t26 -62.5v-494zM1201 166q-21 -18 -28 -43.5t-8.5 -50.5t-2.5 -45.5t-11 -26.5h-102v494q0 37 25.5 62.5t62.5 25.5t63 -25.5t26 -62.5 q0 -26 -13 -46.5t-33 -31.5zM985 215v-151h-745v151h745zM240 375h745v-96h-745v96zM240 494q0 45 -24 81.5t-62 55.5q21 26 57 42t80 16q8 0 14.5 -0.5t13.5 -1.5q15 24 47 44.5t73 36t86 24t87 8.5t87 -8.5t86 -24t73 -36t47 -44.5q8 1 15 1.5t15 0.5q44 0 80 -16t57 -42 q-38 -19 -62.5 -55.5t-24.5 -81.5v-50h-745v50z" />
<glyph unicode="\" horiz-adv-x="1475" d="M1202 401q-27 -49 -71 -84q-11 -27 -29.5 -61t-47.5 -69.5t-69 -69t-93.5 -59.5t-122 -42t-154.5 -16q-87 0 -159.5 14.5t-132.5 38.5t-107 54.5t-83 62.5q-84 75 -133 171q62 -27 133 -41q61 -12 138.5 -12t162.5 31q-46 19 -80 50t-56.5 63.5t-33.5 63.5q-10 27 -10 45 q0 22 13 25h3q11 0 32 -20q28 -27 71 -42t92 -21.5t99 -6.5q11 -1 20 -1q39 0 73 2q18 21 36 45v7q0 56 21 105.5t58 86t86 58t105 21.5q54 0 101.5 -19.5t84 -53.5t59 -80t25.5 -99l172 -83zM1021 666q-32 0 -54.5 -22.5t-22.5 -54.5t22.5 -54.5t54.5 -22.5t54.5 22.5 t22.5 54.5t-22.5 54.5t-54.5 22.5z" />
<glyph unicode="]" horiz-adv-x="1311" d="M1249 663l-124 -71q-15 -42 -55 -68t-91 -34q8 -34 8 -67q0 -23 -4 -45q-9 -53 -33 -96.5t-59 -75.5t-74 -47q-30 -12 -48.5 -18t-43.5 -10l3 -111l21 -5l-15 -4l12 -11l-28 9l-17 -9l7 13l3 6l-16 108q-14 -2 -26.5 -3t-24.5 -1l-16 -104l3 -6l7 -13l-17 9l-28 -9l12 11 l-14 4l21 5l2 104q-47 4 -87.5 24t-82 51t-85.5 70l-97 81q-52 43 -116 86t-145 81l-1 1q0 1 21 -3l71 -13l99 -18q55 -9 108.5 -16.5t97.5 -10.5q15 -1 27 -1q24 0 38 4q36 9 74 25l80 35l86 40q44 22 94 42q-2 8 -2 13q-1 8 -1 16q0 26 8 51q10 32 31 57t51 41t65 19 q9 1 18 1q19 0 37 -4q27 -7 49.5 -21t40 -35t27.5 -46zM687 254q39 4 66 18.5t44.5 34t27.5 41t14.5 40t5.5 30.5t1 13q-16 -35 -39 -64q-20 -25 -50.5 -47.5t-74.5 -27.5q-25 -3 -48 -3q-17 0 -32 1q-39 4 -69 9q-35 6 -67 16l-19 -2l23 -11q24 -11 59.5 -23t77.5 -21 q29 -5 55 -5q13 0 25 1zM1018 668q14 0 24.5 10t10.5 24q0 15 -10.5 25t-24.5 10t-24 -10t-10 -25q0 -14 10 -24t24 -10z" />
<glyph unicode="^" d="M400 800q83 0 156 -31.5t127 -85.5t85.5 -127t31.5 -156t-31.5 -156t-85.5 -127t-127 -85.5t-156 -31.5t-156 31.5t-127 85.5t-85.5 127t-31.5 156t31.5 156t85.5 127t127 85.5t156 31.5zM706 428l-75 36q-2 23 -11.5 43t-25.5 35t-36.5 23.5t-43.5 8.5q-24 0 -45.5 -9.5 t-37.5 -25.5t-25.5 -37.5t-9.5 -45.5v-3q-4 -5 -7.5 -10t-8.5 -10q-12 -1 -26 -1h-14q-22 1 -43.5 4t-40 9.5t-30.5 17.5q-15 15 -19.5 6.5t2.5 -27.5t25.5 -41.5t48.5 -35.5q-37 -14 -71 -14t-60 5q-31 6 -58 18q21 -41 58 -74q32 -28 83 -51t127 -23q56 0 95 15t65.5 36 t41.5 45t22 42q20 14 31 36zM539 515q14 0 23.5 -9.5t9.5 -23.5t-9.5 -23.5t-23.5 -9.5t-24 9.5t-10 23.5t10 23.5t24 9.5z" />
<glyph unicode="_" horiz-adv-x="843" d="M802 399q0 -71 -23 -134.5t-63.5 -115t-96 -88t-121.5 -52.5v297h94l5 35q2 16 4 36.5t4 43.5h-107v79q0 9 9.5 18.5t21.5 9.5h76v120h-104q-55 0 -84.5 -18.5t-42.5 -41.5t-15 -45t-2 -28v-94h-68v-115h68v-306q-75 8 -140.5 42.5t-113.5 87.5t-75.5 122t-27.5 147 q0 83 31.5 156t86 127.5t127.5 86t156 31.5t156 -31.5t127.5 -86t86 -127.5t31.5 -156z" />
<glyph unicode="`" d="M400 800q83 0 156 -31.5t127 -85.5t85.5 -127t31.5 -156t-31.5 -156t-85.5 -127t-127 -85.5t-156 -31.5t-156 31.5t-127 85.5t-85.5 127t-31.5 156t31.5 156t85.5 127t127 85.5t156 31.5zM732 401q0 62 -21.5 116.5t-58.5 97.5q-40 -48 -89 -81.5t-103 -56.5 q8 -16 14.5 -33t14.5 -35q23 5 48 7.5t52 2.5q66 0 143 -18zM616 652q-44 38 -99 59t-117 21q-23 0 -45 -3.5t-43 -8.5q21 -26 54.5 -74.5t70.5 -122.5q51 21 97.5 52.5t81.5 76.5zM261 701q-71 -33 -120.5 -94.5t-65.5 -139.5q7 0 16.5 -0.5t22.5 -0.5q23 0 54 1.5t67 6 t75 12.5t79 20q-42 81 -77 129t-51 66zM68 400q0 -66 23.5 -123t65.5 -102q11 18 34 49t60 65q35 31 81.5 60t106.5 48l-13 33l-14 29q-44 -14 -86.5 -23t-81.5 -13.5t-72 -6t-58 -1.5q-15 0 -26.5 0.5t-18.5 0.5q0 -4 -0.5 -8t-0.5 -8zM195 140q42 -34 94.5 -53t110.5 -19 q65 0 126 25q-13 73 -31 136.5t-38 119.5q-59 -18 -104 -47t-77 -59.5t-51.5 -58t-27.5 -40.5zM574 118q61 38 102 98t52 134q-77 18 -139 18q-22 0 -42 -2t-40 -5q20 -54 36.5 -114t30.5 -129z" />
<glyph unicode="a" d="M285 313q-29 -26 -47 -50t-26 -38q-32 35 -50 79t-18 95v12q6 0 15 -0.5t20 -0.5q19 0 45 1.5t56 5t63 10.5t66 18l11 -24q6 -12 11 -25q-47 -14 -83.5 -36.5t-62.5 -46.5zM244 201q6 10 21 31t39.5 44.5t59.5 46t81 36.5q16 -43 29 -92t24 -106q-23 -9 -47.5 -14 t-50.5 -5q-45 0 -85.5 14.5t-72.5 40.5zM400 800q83 0 156 -31.5t127 -85.5t85.5 -127t31.5 -156t-31.5 -156t-85.5 -127t-127 -85.5t-156 -31.5t-156 31.5t-127 85.5t-85.5 127t-31.5 156t31.5 156t85.5 127t127 85.5t156 31.5zM400 89q64 0 120.5 24.5t98.5 66.5 t66.5 98.5t24.5 120.5t-24.5 120.5t-66.5 98.5t-98.5 66t-120.5 24t-120.5 -24t-98.5 -66t-66 -98.5t-24 -120.5t24 -120.5t66 -98.5t98.5 -66.5t120.5 -24.5zM484 368q28 6 63 6q46 0 107 -14q-9 -57 -40 -104t-79 -76q-11 54 -24 100t-27 88zM469 406q-5 14 -11 27t-11 26 q42 17 80 42.5t69 63.5q29 -33 45 -75t16 -90q-29 7 -56.5 10t-53.5 3q-21 0 -40.5 -2t-37.5 -5zM392 481q-62 -20 -119.5 -25.5t-93.5 -5.5h-17q-8 0 -13 1q12 60 50.5 107.5t93.5 73.5q12 -14 39.5 -51.5t59.5 -99.5zM567 594q-27 -35 -62.5 -59t-75.5 -41 q-29 57 -54.5 94.5t-41.5 57.5q16 5 33 7.5t34 2.5q48 0 90.5 -16.5t76.5 -45.5z" />
<glyph unicode="b" d="M400 800q83 0 156 -31.5t127 -85.5t85.5 -127t31.5 -156t-31.5 -156t-85.5 -127t-127 -85.5t-156 -31.5t-156 31.5t-127 85.5t-85.5 127t-31.5 156t31.5 156t85.5 127t127 85.5t156 31.5zM180 227h110l3 14l27 127h35q48 0 69 3q34 5 53 14q22 9 39 27q19 19 30 48 q13 31 13 61q0 33 -17 61q-15 26 -44 37q-26 11 -70 11h-164zM609 397q13 32 13 61q0 33 -17 61q-6 9 -14 17q1 -5 1 -15q0 -38 -15 -74q-14 -35 -37 -58q-24 -24 -49 -35q-13 -5 -28 -9.5t-34 -6.5q-11 -2 -29 -2.5t-45 -0.5h-8l-21 -101l-3 -13l-6 -27h-27h-41l-6 -30h110 l3 14l27 127h35q48 0 69 3q16 2 29 5.5t24 8.5q22 9 39 27q19 19 30 48zM342 463h-3l16 73h41h3q29 0 37 -2q1 -1 2 -1q6 -3 8 -6q3 -3 3 -13q0 -13 -8 -27q-9 -12 -24 -18q-1 0 -2 -0.5t-2 -0.5q-18 -5 -68 -5h-3z" />
<glyph unicode="c" horiz-adv-x="796" d="M426 800q36 0 66 -4t54 -14t43.5 -26.5t33.5 -38.5q27 -47 27 -105q0 -53 -20 -104q-22 -52 -52 -82q-29 -31 -67 -48q-19 -8 -41.5 -13.5t-50.5 -9.5q-17 -3 -46.5 -4t-72.5 -1h-60l-46 -219l-5 -23h-189l145 692h281zM274 513h5h5q42 0 72 2.5t44 6.5q3 0 7 2 q26 10 41 31q14 20 14 46q0 15 -5 22q-2 3 -5.5 5.5t-9.5 4.5q0 1 -2 1q-5 2 -22 3t-42 1h-6h-70zM731 608q28 -44 28 -104q0 -55 -21 -104q-22 -52 -52 -82q-29 -31 -67 -48q-18 -8 -41 -13.5t-51 -9.5q-17 -3 -46.5 -4t-72.5 -1h-60l-46 -219l-5 -23h-189l11 51h70h47 l9 45l5 23l36 174h14q48 0 77.5 1t49.5 4q66 9 107 28q46 21 84 59q20 20 36 45t29 56q25 64 25 126q0 7 -0.5 13.5t-1.5 12.5l14 -14q6 -7 11 -16z" />
<glyph unicode="d" horiz-adv-x="862" d="M132 290q-32 -19 -49.5 -41.5t-25.5 -45.5q-27 46 -42 98.5t-15 109.5q0 86 33 161t90 132q-20 -42 -20 -82q0 -32 12 -62.5t34.5 -54.5t55.5 -38.5t76 -14.5q8 0 17 1l18 2l-8 -19q-3 -9 -3 -23q0 -26 10.5 -42.5t21.5 -31.5q-18 -1 -43 -3t-52.5 -7.5t-56 -14.5 t-53.5 -24zM374 308q31 -22 53 -39t36.5 -33t21.5 -32.5t7 -37.5q0 -51 -40.5 -84t-118.5 -33q-43 0 -78 10t-59.5 27.5t-38 41.5t-13.5 53q0 28 11 48t26 33t30.5 20t24.5 10q17 6 35.5 9t34.5 5t28 2.5t15 0.5h13q6 0 12 -1zM542 800q61 -21 112 -58.5t88 -88.5t58 -112.5 t21 -129.5q0 -85 -32 -160t-87.5 -130.5t-130.5 -88t-160 -32.5q-20 0 -39.5 2t-38.5 5q57 7 100 26.5t72 47t44 60.5t15 67q0 28 -7.5 49.5t-20 39.5t-29 33t-34.5 29l-39 30q-9 7 -18.5 17.5t-9.5 28.5t10 30t21 23q17 13 33 27.5t29 32.5t20.5 40.5t7.5 52.5 q0 31 -8.5 54.5t-20.5 41t-25 29.5l-22 20h66zM432 591q0 -14 -4 -36.5t-23 -41.5q-13 -14 -33 -22t-40 -8q-35 0 -60.5 19.5t-42 49t-24.5 62.5t-8 60q0 21 5 42t19 38q13 17 34 26.5t42 9.5q33 0 58.5 -20t42.5 -50t25.5 -65t8.5 -64z" />
<glyph unicode="e" d="M632 231v113h-175v-176h112l-169 -168l-169 168h113v176h-176v-113l-168 169l168 169v-112h176v175h-113l169 168l169 -168h-112v-175h175v112l168 -169z" />
<glyph unicode="f" d="M85 800l148 -149l93 93v-270h-271l93 93l-148 148zM715 0l-148 149l-93 -93v270h271l-93 -93l148 -148zM56 326h270v-271l-93 93l-148 -148l-85 85l149 148zM651 567l93 -93h-270v271l93 -93l148 148l85 -85z" />
<glyph unicode="g" d="M326 241l-149 -148l94 -93h-271v271l93 -93l148 148zM474 559l149 148l-94 93h271v-271l-93 93l-148 -148zM800 271v-271h-271l93 93l-148 148l85 85l148 -149zM93 623l-93 -94v271h271l-93 -93l148 -148l-85 -85z" />
<glyph unicode="h" horiz-adv-x="841" d="M801 390v-390h-391l135 134l-132 132l122 122l133 -133zM133 545l-133 -135v390h390l-134 -134l132 -132l-122 -122z" />
<glyph unicode="i" d="M656 800q30 0 56 -11.5t45.5 -31t31 -45.5t11.5 -56v-512q0 -30 -11.5 -56t-31 -45.5t-45.5 -31t-56 -11.5h-512q-30 0 -56 11.5t-45.5 31t-31 45.5t-11.5 56v512q0 30 11.5 56t31 45.5t45.5 31t56 11.5h512zM313 565l84 83h-243l-1 -243l84 84l82 -83l77 76zM654 392 l-84 -84l-82 83l-77 -77l83 -82l-84 -83h244v243z" />
<glyph unicode="j" horiz-adv-x="1990" d="M1496 0v268h-1097v-268l-399 400l399 400v-265h1097v265l399 -400z" />
<glyph unicode="k" horiz-adv-x="711" d="M606 660l-216 -217v-294h98l-149 -149l-149 149h100v290l-220 221l-70 -70v210h210l-70 -70l198 -199l198 199l-69 69h209l1 -209z" />
<glyph unicode="l" horiz-adv-x="1391" d="M1187 526l-389 -389l-137 -137l-525 525l-136 -136v410l411 1l-138 -138l388 -388l389 389l-136 136l410 -1v-410z" />
<glyph unicode="m" horiz-adv-x="848" d="M807 187l-187 -187l-188 187h106h3h10v1q0 75 -28.5 140.5t-77.5 114.5t-115 77.5t-141 28.5h-3v-119v-4l-186 187l186 187v-112h3q104 0 195 -39.5t159 -107t107.5 -159t39.5 -194.5v-1h8h3h106z" />
<glyph unicode="n" horiz-adv-x="838" d="M438 352l26 -77l-26 -4v81zM451 364l212 -17l-23 -48zM363 450l-26 77l26 4v-81zM350 438l-212 17l23 48zM38 352l354 41l-41 -354l-78 78l-116 -117l-157 157l117 116zM682 527l78 -79l-354 -41l41 354l78 -78l117 117l157 -157z" />
<glyph unicode="o" horiz-adv-x="1119" d="M778 400l200 -200l-200 -200v133h-512q-55 0 -103.5 21t-84.5 57t-57 84.5t-21 104.5q0 70 34 129l102 -102q-3 -14 -3 -27q0 -28 10.5 -52.5t28.5 -42.5t42.5 -28.5t51.5 -10.5h512v134zM799 666q55 0 104 -21t85 -57t57 -84.5t21 -103.5q0 -35 -8.5 -67.5t-24.5 -61.5 q-8 7 -21 21l-28 28l-30 30l-24 24q2 6 2 12v14q0 27 -10.5 51.5t-28.5 42.5t-42 28.5t-52 10.5h-511v-133l-199 200l199 200v-134h511z" />
<glyph unicode="p" horiz-adv-x="697" d="M0 163h110v419q0 45 17 84.5t46.5 69.5t69.5 47t85 17h4h4q45 0 84.5 -17t69.5 -47t47 -69.5t17 -84.5v-419h110l-164 -163l-163 163h108v419q0 22 -8.5 42t-23.5 35t-35 23.5t-42 8.5h-3h-5q-23 0 -42.5 -8.5t-34.5 -23.5t-23.5 -35t-8.5 -42v-419h108l-163 -163z" />
<glyph unicode="q" horiz-adv-x="533" d="M424 125h84l-125 -125l-126 125h83v150q0 35 -24 59t-59 24h-2h-4q-35 0 -59.5 -24t-24.5 -59v-150h83l-125 -125l-125 125h84v150q0 38 15.5 70t41.5 55q-26 23 -41.5 55t-15.5 70v150h-84l125 125l125 -125h-83v-150q0 -35 24.5 -59t59.5 -24h2h4q35 0 59 24t24 59v150 h-83l126 125l125 -125h-84v-150q0 -38 -15.5 -70t-41.5 -55q26 -23 41.5 -55t15.5 -70v-150z" />
<glyph unicode="r" horiz-adv-x="1110" d="M722 540q-28 0 -71 -27q-23 -15 -48.5 -37.5t-51.5 -49.5l-55 -57l-56 -61q-28 -30 -58 -59t-61 -54q-42 -34 -89.5 -58t-105.5 -25h-126v143h126q14 0 32.5 6.5t41.5 21.5q23 14 49 36.5t52 49.5l55 57l56 60l58 60q29 29 60 54q42 33 89 57.5t104 24.5q29 1 49 1 q10 0 18 -1h45v118l222 -187l-222 -187v114h-112h-1zM546 291q11 11 20 21l20 22q8 -8 16 -15l17 -13q33 -27 61 -40q25 -11 42 -11h3h110v119l222 -187l-222 -187v112h-110q-43 1 -81 15.5t-71 35.5q-23 15 -43.5 32t-40.5 36zM362 564l-27 -28l-26 -29l-22 -24l-22 -23 q-18 18 -33 29q-33 27 -60 39q-25 12 -41 12h-3h-128v142h53q10 1 22 1q24 0 53 -1q43 0 80.5 -14.5t69.5 -36.5q23 -14 43.5 -31t40.5 -36z" />
<glyph unicode="s" horiz-adv-x="1038" d="M989 398l-150 -150l-150 150h59h35v2q0 60 -22.5 112.5t-62 91.5t-92 62t-112.5 23q-73 0 -135 -33.5t-101 -89.5l-46 45l-34 34q55 71 137 113t179 42q83 0 156 -31.5t127 -85.5t85.5 -127t31.5 -156v-2h33h62zM776 185l33 -32q-55 -70 -136.5 -111.5t-178.5 -41.5 q-83 0 -155.5 31t-126.5 85t-86 126.5t-32 155.5h-13h-2h-79l150 150l150 -150h-60h-34q0 -59 23 -111.5t62 -91.5t91.5 -61.5t111.5 -22.5q73 0 134.5 33t100.5 88z" />
<glyph unicode="t" horiz-adv-x="939" d="M689 400q0 60 -23 112.5t-62 91.5t-91.5 62t-112.5 23t-112.5 -23t-91.5 -62t-62 -91.5t-23 -112.5t23 -112.5t62 -91.5t91.5 -62t112.5 -23q73 0 134 33t101 88l47 -47l32 -32q-55 -70 -136 -111.5t-178 -41.5q-83 0 -156 31.5t-127 85.5t-85.5 127t-31.5 156t31.5 156 t85.5 127t127 85.5t156 31.5t156 -31.5t127 -85.5t85.5 -127t31.5 -156v-2h94l-150 -150l-150 150h95v2z" />
<glyph unicode="u" horiz-adv-x="757" d="M721 361q0 -75 -28.5 -141t-77 -114.5t-114 -77t-140.5 -28.5t-141 28.5t-114.5 77t-77 114.5t-28.5 141t28.5 140.5t77 114t114.5 77t141 28.5q16 0 31 -1.5t30 -3.5v84l135 -135l-135 -135v84q-27 7 -61 7q-54 0 -101.5 -20.5t-83 -56t-56 -82.5t-20.5 -101 t20.5 -101.5t56 -83t83 -56t101.5 -20.5t101 20.5t82.5 56t56 83t20.5 101.5h100z" />
<glyph unicode="v" horiz-adv-x="691" d="M658 357v-28q0 -68 -26 -128t-70.5 -104.5t-104.5 -70.5t-128 -26t-128 26t-104.5 70.5t-70.5 104.5t-26 128t26 128t70.5 104.5t104.5 70.5t128 26q6 0 12 -0.5t11 -0.5v76v67l48 -48l150 -149l19 -20l-19 -20l-150 -150l-48 -48v68v84q-5 1 -11 1h-12q-39 0 -74 -15 t-60.5 -40.5t-40.5 -60t-15 -73.5t15 -74t40.5 -60.5t60.5 -40.5t74 -15t73.5 15t60 40.5t40.5 60.5t15 74v28h28h84h28z" />
<glyph unicode="w" horiz-adv-x="874" d="M117 396l-91 -90v259q0 127 127 127h509v108l171 -171l-171 -172v115v6h-483q-16 0 -27 -11t-11 -27v-120zM716 404l90 90v-259q0 -127 -127 -127h-508v-108l-171 171l171 172v-115v-6h483q16 0 27 11t11 27v119z" />
<glyph unicode="x" d="M400 800q83 0 156 -31.5t127 -85.5t85.5 -127t31.5 -156t-31.5 -156t-85.5 -127t-127 -85.5t-156 -31.5t-156 31.5t-127 85.5t-85.5 127t-31.5 156t31.5 156t85.5 127t127 85.5t156 31.5zM627 452l-52 -53l-14 -14v-70q0 -9 -6.5 -15.5t-16.5 -6.5h-281v4v66l-99 -99 l99 -100v63h296q74 0 74 74v151zM643 530l-100 100v-63h-296q-74 0 -74 -74v-151l53 53l14 14v69q0 9 6.5 15.5t15.5 6.5h281v-3v-67z" />
<glyph unicode="y" horiz-adv-x="1343" d="M0 400l594 400v-241q192 -22 343 -89q64 -29 125.5 -70t110 -98.5t78 -132t29.5 -169.5q-30 59 -85 109q-24 21 -55.5 42.5t-73 40.5t-92.5 33t-113 22q-41 5 -104.5 9t-162.5 4v-260z" />
<glyph unicode="z" horiz-adv-x="1120" d="M667 263v174q-66 0 -109 -2.5t-70 -5.5q-85 -11 -138.5 -38t-85.5 -56q-37 -33 -57 -73q0 64 20 114t52 88.5t73.5 66.5t84.5 47q101 45 230 60v162l399 -269zM800 245l133 89v-334h-933v666h417q-4 -2 -8 -3.5t-8 -3.5q-111 -50 -180 -126h-88v-400h667v112z" />
<glyph unicode="{" horiz-adv-x="1143" d="M1088 573l-103 -529l-128 128q-114 -91 -230 -135q-50 -19 -105 -30q-37 -8 -75 -8q-18 0 -35 2q-57 5 -112 29t-106 75q40 -13 86 -13h17q24 1 52.5 6.5t60 17.5t66.5 31.5t72 48.5q25 19 61 51t88 84l-138 139zM530 330l-530 -103l104 529l128 -128q114 90 230 135 q49 19 104 29q38 8 78 8q17 0 34 -2q56 -4 111 -28t106 -75q-40 13 -86 13h-17q-48 -2 -113 -24t-139 -80q-24 -19 -60 -51t-89 -84z" />
<glyph unicode="|" horiz-adv-x="1171" d="M389 454l337 -227l-337 -227v136q-110 12 -195 51q-36 16 -71 39.5t-62.5 56t-44 75t-16.5 96.5q16 -34 48 -62q27 -24 72.5 -47.5t116.5 -31.5q23 -2 59.5 -4.5t92.5 -2.5v148zM726 664q109 -13 194 -51q36 -17 71 -40.5t62.5 -55.5t44.5 -74.5t17 -96.5q-16 34 -48 62 q-27 24 -72.5 47t-116.5 31q-23 3 -59.5 5.5t-92.5 2.5v-148l-337 227l337 227v-136z" />
<glyph unicode="}" horiz-adv-x="1768" d="M1683 0q-30 59 -85 109q-24 21 -55.5 42.5t-72.5 40.5t-92 33t-113 22q-41 5 -104.5 9t-162.5 4v-260l-594 400l594 400v-241q192 -22 342 -89q64 -29 125.5 -70t110 -98.5t78 -132t29.5 -169.5zM359 334l235 -158v-176l-594 400l594 400v-175l-235 -159l-98 -66z" />
<glyph unicode="~" d="M400 800q83 0 156 -31.5t127 -85.5t85.5 -127t31.5 -156t-31.5 -156t-85.5 -127t-127 -85.5t-156 -31.5t-156 31.5t-127 85.5t-85.5 127t-31.5 156t31.5 156t85.5 127t127 85.5t156 31.5zM686 417l-255 171v-102q-83 -10 -147 -39q-27 -12 -53.5 -30t-47 -42.5t-33 -56.5 t-12.5 -72q12 26 36 47q20 18 54.5 35t88.5 24q17 2 45 3.5t70 1.5v-111z" />
<glyph unicode="&#xaa;" d="M285 313q-29 -26 -47 -50t-26 -38q-32 35 -50 79t-18 95v12q6 0 15 -0.5t20 -0.5q19 0 45 1.5t56 5t63 10.5t66 18l11 -24q6 -12 11 -25q-47 -14 -83.5 -36.5t-62.5 -46.5zM244 201q6 10 21 31t39.5 44.5t59.5 46t81 36.5q16 -43 29 -92t24 -106q-23 -9 -47.5 -14 t-50.5 -5q-45 0 -85.5 14.5t-72.5 40.5zM400 800q83 0 156 -31.5t127 -85.5t85.5 -127t31.5 -156t-31.5 -156t-85.5 -127t-127 -85.5t-156 -31.5t-156 31.5t-127 85.5t-85.5 127t-31.5 156t31.5 156t85.5 127t127 85.5t156 31.5zM400 89q64 0 120.5 24.5t98.5 66.5 t66.5 98.5t24.5 120.5t-24.5 120.5t-66.5 98.5t-98.5 66t-120.5 24t-120.5 -24t-98.5 -66t-66 -98.5t-24 -120.5t24 -120.5t66 -98.5t98.5 -66.5t120.5 -24.5zM484 368q28 6 63 6q46 0 107 -14q-9 -57 -40 -104t-79 -76q-11 54 -24 100t-27 88zM469 406q-5 14 -11 27t-11 26 q42 17 80 42.5t69 63.5q29 -33 45 -75t16 -90q-29 7 -56.5 10t-53.5 3q-21 0 -40.5 -2t-37.5 -5zM392 481q-62 -20 -119.5 -25.5t-93.5 -5.5h-17q-8 0 -13 1q12 60 50.5 107.5t93.5 73.5q12 -14 39.5 -51.5t59.5 -99.5zM567 594q-27 -35 -62.5 -59t-75.5 -41 q-29 57 -54.5 94.5t-41.5 57.5q16 5 33 7.5t34 2.5q48 0 90.5 -16.5t76.5 -45.5z" />
<glyph unicode="&#xad;" d="M800 244l-156 -88l-88 -156l-60 61l13 142l-162 162l-215 -356l-61 60l116 456l-169 169q-18 18 -18 43.5t18 44.5q19 18 44.5 18t43.5 -18l169 -169l456 116l61 -61l-357 -215l162 -162l142 13z" />
<glyph unicode="&#xb2;" horiz-adv-x="841" d="M745 320q0 -17 10 -30t27 -19q8 -6 13.5 -14t5.5 -18q0 -18 -20 -33q-36 -13 -36 -47q0 -13 3.5 -23t16.5 -18l20 -20q14 -14 14 -33t-14 -33l-18 -18q-14 -14 -33 -14t-33 14l-13 12q-13 31 -45 31q-34 0 -48 -36q-15 -20 -32 -20q-18 0 -33 20q-14 36 -48 36t-48 -36 q-13 -20 -32 -20q-18 0 -33 20q-14 36 -48 36t-47 -36q-15 -20 -33 -20t-33 20q-14 36 -48 36q-13 0 -23.5 -4.5t-18.5 -18.5l-20 -20q-14 -14 -33 -14t-33 14l-18 18q-14 14 -14 33t14 33l16 16q15 7 21.5 19t6.5 26q0 16 -9 28.5t-27 18.5q-20 15 -20 33q0 10 5.5 18 t13.5 14q18 6 27.5 19t9.5 30q0 16 -9 28.5t-27 18.5q-20 15 -20 33q0 9 5.5 17.5t13.5 14.5q18 6 27.5 19t9.5 30q0 16 -9 28.5t-27 18.5q-8 7 -14 15.5t-6 17.5t5.5 17.5t13.5 14.5q18 6 27.5 19t9.5 29q0 15 -7 27t-23 19l-14 14q-14 14 -14 33t14 33l18 18q14 14 33 14 t33 -14l22 -22q7 -13 17.5 -16.5t22.5 -3.5q35 0 48 38q7 8 15 13.5t18 5.5q9 0 17 -5.5t15 -13.5q6 -18 19 -28t29 -10q35 0 48 38q7 8 15 13.5t18 5.5q9 0 17 -5.5t15 -13.5q6 -18 19 -28t29 -10q35 0 48 38q7 8 15 13.5t18 5.5q9 0 17 -5.5t15 -13.5q13 -38 48 -38 q31 0 45 29l13 13q14 14 33 14t33 -14l18 -18q14 -14 14 -33t-14 -33l-18 -18q-14 -7 -18 -17.5t-4 -24.5q0 -16 9.5 -29t27.5 -19q8 -6 13.5 -14.5t5.5 -17.5q0 -18 -20 -33q-18 -6 -27 -18.5t-9 -28.5q0 -17 9.5 -29.5t27.5 -18.5q8 -7 13.5 -15t5.5 -18q0 -18 -20 -33 q-18 -6 -27 -18.5t-9 -28.5z" />
<glyph unicode="&#xb3;" horiz-adv-x="841" d="M781 367q-18 -6 -27 -18.5t-9 -28.5q0 -17 10 -30t27 -19q8 -6 13.5 -14t5.5 -18q0 -18 -20 -33q-36 -13 -36 -47q0 -13 3.5 -23t16.5 -18l20 -20q14 -14 14 -33t-14 -33l-18 -18q-14 -14 -33 -14t-33 14l-13 12q-13 31 -45 31q-34 0 -48 -36q-15 -20 -32 -20 q-18 0 -33 20q-14 36 -48 36t-48 -36q-13 -20 -32 -20q-18 0 -33 20q-14 36 -48 36t-47 -36q-15 -20 -33 -20t-33 20q-14 36 -48 36q-13 0 -23.5 -4.5t-18.5 -18.5l-20 -20q-14 -14 -33 -14t-33 14l-18 18q-14 14 -14 33t14 33l16 16q15 7 21.5 19t6.5 26q0 16 -9 28.5 t-27 18.5q-20 15 -20 33q0 10 5.5 18t13.5 14q18 6 27.5 19t9.5 30q0 16 -9 28.5t-27 18.5q-20 15 -20 33q0 9 5.5 17.5t13.5 14.5q18 6 27.5 19t9.5 30q0 16 -9 28.5t-27 18.5q-20 15 -20 33q0 9 5.5 17.5t13.5 14.5q18 6 27.5 19t9.5 29q0 15 -7 27t-23 19l-14 14 q-14 14 -14 33t14 33l18 18q14 14 33 14t33 -14l22 -22q7 -13 17.5 -16.5t22.5 -3.5q35 0 48 38q7 8 15 13.5t18 5.5q9 0 17 -5.5t15 -13.5q6 -18 19 -28t29 -10q35 0 48 38q7 8 15 13.5t18 5.5q9 0 17 -5.5t15 -13.5q6 -18 19 -28t29 -10q35 0 48 38q7 8 15 13.5t18 5.5 q9 0 17 -5.5t15 -13.5q13 -38 48 -38q31 0 45 29l13 13q14 14 33 14t33 -14l18 -18q14 -14 14 -33t-14 -33l-18 -18q-14 -7 -18 -17.5t-4 -24.5q0 -16 9.5 -29t27.5 -19q8 -6 13.5 -14.5t5.5 -17.5q0 -18 -20 -33q-18 -6 -27 -18.5t-9 -28.5q0 -17 9.5 -29.5t27.5 -18.5 q8 -7 13.5 -15t5.5 -18q0 -18 -20 -33zM422 248q47 5 86.5 24t67.5 46.5t42 62.5q10 27 10 55q0 9 -1 17q-5 37 -26.5 68t-55 52t-75.5 31q-28 6 -58 6q-16 0 -32 -2q-47 -5 -86.5 -24t-67.5 -46.5t-42 -62.5q-10 -26 -10 -53q0 -9 1 -19q5 -40 28.5 -72t60.5 -53v-7 q0 -14 -6 -30q-9 -20 -38 -41q-6 -5 4 -8q6 -2 13.5 -2t17.5 2q20 3 47 15.5t55 41.5q17 -2 36 -2q14 0 29 1z" />
<glyph unicode="&#xb9;" horiz-adv-x="844" d="M572 745l232 55v-166l-147 -35v-476q0 -26 -12.5 -48t-33.5 -39t-49 -26.5t-60 -9.5t-60.5 10t-49.5 27t-33.5 39.5t-12.5 48.5t12.5 48.5t33.5 39.5t49.5 27t60.5 10q35 0 69 -13v508h1zM287 174q-8 -24 -8 -49q0 -11 1.5 -20.5t3.5 -19.5h-284v89h287zM470 314 q-30 -4 -57 -14t-50 -25h-363v89h470v-50zM470 464h-470v89h470v-89zM470 653h-470v89h470v-89z" />
<glyph unicode="&#xba;" horiz-adv-x="1119" d="M778 400l200 -200l-200 -200v133h-512q-55 0 -103.5 21t-84.5 57t-57 84.5t-21 104.5q0 70 34 129l102 -102q-3 -14 -3 -27q0 -28 10.5 -52.5t28.5 -42.5t42.5 -28.5t51.5 -10.5h512v134zM799 666q55 0 104 -21t85 -57t57 -84.5t21 -103.5q0 -35 -8.5 -67.5t-24.5 -61.5 q-8 7 -21 21l-28 28l-30 30l-24 24q2 6 2 12v14q0 27 -10.5 51.5t-28.5 42.5t-42 28.5t-52 10.5h-511v-133l-199 200l199 200v-134h511z" />
<glyph unicode="&#xc0;" horiz-adv-x="841" d="M436 1660q83 0 156 -31.5t127 -85.5t85.5 -127t31.5 -156t-31.5 -156t-85.5 -127t-127 -85.5t-156 -31.5t-156 31.5t-127 85.5t-85.5 127t-31.5 156t31.5 156t85.5 127t127 85.5t156 31.5zM768 1261q0 62 -21.5 116.5t-58.5 97.5q-40 -48 -89 -81.5t-103 -56.5 q8 -16 14.5 -33t14.5 -35q23 5 48 7.5t52 2.5q66 0 143 -18zM652 1512q-44 38 -99 59t-117 21q-23 0 -45 -3.5t-43 -8.5q21 -26 54.5 -74.5t70.5 -122.5q51 21 97.5 52.5t81.5 76.5zM297 1561q-71 -33 -120.5 -94.5t-65.5 -139.5q7 0 16.5 -0.5t22.5 -0.5q23 0 54 1.5t67 6 t75 12.5t79 20q-42 81 -77 129t-51 66zM104 1260q0 -66 23.5 -123t65.5 -102q11 18 34 49t60 65q35 31 81.5 60t106.5 48l-13 33l-14 29q-44 -14 -86.5 -23t-81.5 -13.5t-72 -6t-58 -1.5q-15 0 -26.5 0.5t-18.5 0.5q0 -4 -0.5 -8t-0.5 -8zM231 1000q42 -34 94.5 -53 t110.5 -19q65 0 126 25q-13 73 -31 136.5t-38 119.5q-59 -18 -104 -47t-77 -59.5t-51.5 -58t-27.5 -40.5zM610 978q61 38 102 98t52 134q-77 18 -139 18q-22 0 -42 -2t-40 -5q20 -54 36.5 -114t30.5 -129zM403 594l-139 -393l-120 186l-79 -73l-21 -20l-44 38l156 145 l92 -142l164 465l151 -582l126 397l112 -356l-59 -15l-53 171l-132 -415z" />
<glyph unicode="&#xc2;" horiz-adv-x="841" d="M532 1660q83 0 156 -31.5t127 -85.5t85.5 -127t31.5 -156t-31.5 -156t-85.5 -127t-127 -85.5t-156 -31.5t-156 31.5t-127 85.5t-85.5 127t-31.5 156t31.5 156t85.5 127t127 85.5t156 31.5zM838 1288l-75 36q-2 23 -11.5 43t-25.5 35t-36.5 23.5t-43.5 8.5 q-24 0 -45.5 -9.5t-37.5 -25.5t-25.5 -37.5t-9.5 -45.5v-3q-4 -5 -7.5 -10t-8.5 -10q-12 -1 -26 -1h-14q-22 1 -43.5 4t-40 9.5t-30.5 17.5q-15 15 -19.5 6.5t2.5 -27.5t25.5 -41.5t48.5 -35.5q-37 -14 -71 -14t-60 5q-31 6 -58 18q21 -41 58 -74q32 -28 83 -51t127 -23 q56 0 95 15t65.5 36t41.5 45t22 42q20 14 31 36zM671 1375q14 0 23.5 -9.5t9.5 -23.5t-9.5 -23.5t-23.5 -9.5t-24 9.5t-10 23.5t10 23.5t24 9.5zM403 594l-139 -393l-120 186l-79 -73l-21 -20l-44 38l156 145l92 -142l164 465l151 -582l126 397l112 -356l-59 -15l-53 171 l-132 -415z" />
<glyph unicode="&#xc3;" horiz-adv-x="841" d="M532 1660q83 0 156 -31.5t127 -85.5t85.5 -127t31.5 -156t-31.5 -156t-85.5 -127t-127 -85.5t-156 -31.5t-156 31.5t-127 85.5t-85.5 127t-31.5 156t31.5 156t85.5 127t127 85.5t156 31.5zM818 1277l-255 171v-102q-83 -10 -147 -39q-27 -12 -53.5 -30t-47 -42.5 t-33 -56.5t-12.5 -72q12 26 36 47q20 18 54.5 35t88.5 24q17 2 45 3.5t70 1.5v-111zM403 594l-139 -393l-120 186l-79 -73l-21 -20l-44 38l156 145l92 -142l164 465l151 -582l126 397l112 -356l-59 -15l-53 171l-132 -415z" />
<glyph unicode="&#xc8;" horiz-adv-x="671" d="M344 1660q83 0 156 -31.5t127 -85.5t85.5 -127t31.5 -156t-31.5 -156t-85.5 -127t-127 -85.5t-156 -31.5t-156 31.5t-127 85.5t-85.5 127t-31.5 156t31.5 156t85.5 127t127 85.5t156 31.5zM676 1261q0 62 -21.5 116.5t-58.5 97.5q-40 -48 -89 -81.5t-103 -56.5 q8 -16 14.5 -33t14.5 -35q23 5 48 7.5t52 2.5q66 0 143 -18zM560 1512q-44 38 -99 59t-117 21q-23 0 -45 -3.5t-43 -8.5q21 -26 54.5 -74.5t70.5 -122.5q51 21 97.5 52.5t81.5 76.5zM205 1561q-71 -33 -120.5 -94.5t-65.5 -139.5q7 0 16.5 -0.5t22.5 -0.5q23 0 54 1.5t67 6 t75 12.5t79 20q-42 81 -77 129t-51 66zM12 1260q0 -66 23.5 -123t65.5 -102q11 18 34 49t60 65q35 31 81.5 60t106.5 48l-13 33l-14 29q-44 -14 -86.5 -23t-81.5 -13.5t-72 -6t-58 -1.5q-15 0 -26.5 0.5t-18.5 0.5q0 -4 -0.5 -8t-0.5 -8zM139 1000q42 -34 94.5 -53 t110.5 -19q65 0 126 25q-13 73 -31 136.5t-38 119.5q-59 -18 -104 -47t-77 -59.5t-51.5 -58t-27.5 -40.5zM518 978q61 38 102 98t52 134q-77 18 -139 18q-22 0 -42 -2t-40 -5q20 -54 36.5 -114t30.5 -129zM640 800q0 -60 -21 -114t-58 -96t-87.5 -70t-108.5 -37v-358 q32 -5 59 -16.5t47 -28t31.5 -37t11.5 -43.5h-388q0 23 11 43.5t31 37t47.5 28t59.5 16.5v358q-59 8 -109 36t-87 70.5t-58 96.5t-21 114h640z" />
<glyph unicode="&#xca;" horiz-adv-x="671" d="M440 1660q83 0 156 -31.5t127 -85.5t85.5 -127t31.5 -156t-31.5 -156t-85.5 -127t-127 -85.5t-156 -31.5t-156 31.5t-127 85.5t-85.5 127t-31.5 156t31.5 156t85.5 127t127 85.5t156 31.5zM746 1288l-75 36q-2 23 -11.5 43t-25.5 35t-36.5 23.5t-43.5 8.5 q-24 0 -45.5 -9.5t-37.5 -25.5t-25.5 -37.5t-9.5 -45.5v-3q-4 -5 -7.5 -10t-8.5 -10q-12 -1 -26 -1h-14q-22 1 -43.5 4t-40 9.5t-30.5 17.5q-15 15 -19.5 6.5t2.5 -27.5t25.5 -41.5t48.5 -35.5q-37 -14 -71 -14t-60 5q-31 6 -58 18q21 -41 58 -74q32 -28 83 -51t127 -23 q56 0 95 15t65.5 36t41.5 45t22 42q20 14 31 36zM579 1375q14 0 23.5 -9.5t9.5 -23.5t-9.5 -23.5t-23.5 -9.5t-24 9.5t-10 23.5t10 23.5t24 9.5zM640 800q0 -60 -21 -114t-58 -96t-87.5 -70t-108.5 -37v-358q32 -5 59 -16.5t47 -28t31.5 -37t11.5 -43.5h-388q0 23 11 43.5 t31 37t47.5 28t59.5 16.5v358q-59 8 -109 36t-87 70.5t-58 96.5t-21 114h640z" />
<glyph unicode="&#xcc;" horiz-adv-x="784" d="M397 1660q83 0 156 -31.5t127 -85.5t85.5 -127t31.5 -156t-31.5 -156t-85.5 -127t-127 -85.5t-156 -31.5t-156 31.5t-127 85.5t-85.5 127t-31.5 156t31.5 156t85.5 127t127 85.5t156 31.5zM729 1261q0 62 -21.5 116.5t-58.5 97.5q-40 -48 -89 -81.5t-103 -56.5 q8 -16 14.5 -33t14.5 -35q23 5 48 7.5t52 2.5q66 0 143 -18zM613 1512q-44 38 -99 59t-117 21q-23 0 -45 -3.5t-43 -8.5q21 -26 54.5 -74.5t70.5 -122.5q51 21 97.5 52.5t81.5 76.5zM258 1561q-71 -33 -120.5 -94.5t-65.5 -139.5q7 0 16.5 -0.5t22.5 -0.5q23 0 54 1.5t67 6 t75 12.5t79 20q-42 81 -77 129t-51 66zM65 1260q0 -66 23.5 -123t65.5 -102q11 18 34 49t60 65q35 31 81.5 60t106.5 48l-13 33l-14 29q-44 -14 -86.5 -23t-81.5 -13.5t-72 -6t-58 -1.5q-15 0 -26.5 0.5t-18.5 0.5q0 -4 -0.5 -8t-0.5 -8zM192 1000q42 -34 94.5 -53 t110.5 -19q65 0 126 25q-13 73 -31 136.5t-38 119.5q-59 -18 -104 -47t-77 -59.5t-51.5 -58t-27.5 -40.5zM571 978q61 38 102 98t52 134q-77 18 -139 18q-22 0 -42 -2t-40 -5q20 -54 36.5 -114t30.5 -129zM698 267q20 0 34.5 -14.5t14.5 -34.5t-14.5 -34t-34.5 -14 q-7 0 -11 1l-33 -26q-19 -15 -42 -31q-32 -21 -70 -40.5t-81 -31.5l-17 -10q-11 -7 -24.5 -14t-26 -12.5t-18.5 -5.5q-7 0 -20.5 6t-28.5 14l-26 14q-13 7 -16 9q-42 12 -79.5 31.5t-69.5 39.5l-43 31l-33 26q-3 -1 -11 -1q-20 0 -34 14t-14 34t14 34.5t34 14.5t34.5 -14.5 t14.5 -34.5q0 -5 -1 -7q13 -11 30.5 -20t38.5 -23q30 -20 65 -25.5t73 -5.5l31 144q1 27 2 58q1 26 1.5 59t2.5 67h-129l-51 11q-11 -16 -31 -16q-17 0 -28 11t-11 27t11 27.5t28 11.5q21 0 32 -18h181q2 29 2.5 53.5t1.5 38.5q-30 9 -50 34.5t-20 58.5q0 40 28 68t69 28 q40 0 68 -28t28 -68q0 -32 -19.5 -57.5t-48.5 -34.5q1 -15 1.5 -39.5t1.5 -53.5h181q11 18 32 18q17 0 28 -11.5t11 -27.5t-11 -27t-28 -11q-20 0 -31 16l-50 -11h-130q1 -34 2.5 -67t2.5 -59q1 -31 2 -58l31 -147q12 -1 24 -1q19 0 36 2q29 3 55 19q29 17 52 32t39 27v5 q0 20 14 34.5t34 14.5zM321 704q0 -21 15 -36t37 -15q21 0 36 15t15 36t-15 36t-36 15q-22 0 -37 -15t-15 -36z" />
<glyph unicode="&#xce;" horiz-adv-x="784" d="M493 1660q83 0 156 -31.5t127 -85.5t85.5 -127t31.5 -156t-31.5 -156t-85.5 -127t-127 -85.5t-156 -31.5t-156 31.5t-127 85.5t-85.5 127t-31.5 156t31.5 156t85.5 127t127 85.5t156 31.5zM799 1288l-75 36q-2 23 -11.5 43t-25.5 35t-36.5 23.5t-43.5 8.5 q-24 0 -45.5 -9.5t-37.5 -25.5t-25.5 -37.5t-9.5 -45.5v-3q-4 -5 -7.5 -10t-8.5 -10q-12 -1 -26 -1h-14q-22 1 -43.5 4t-40 9.5t-30.5 17.5q-15 15 -19.5 6.5t2.5 -27.5t25.5 -41.5t48.5 -35.5q-37 -14 -71 -14t-60 5q-31 6 -58 18q21 -41 58 -74q32 -28 83 -51t127 -23 q56 0 95 15t65.5 36t41.5 45t22 42q20 14 31 36zM632 1375q14 0 23.5 -9.5t9.5 -23.5t-9.5 -23.5t-23.5 -9.5t-24 9.5t-10 23.5t10 23.5t24 9.5zM698 267q20 0 34.5 -14.5t14.5 -34.5t-14.5 -34t-34.5 -14q-7 0 -11 1l-33 -26q-19 -15 -42 -31q-32 -21 -70 -40.5t-81 -31.5 l-17 -10q-11 -7 -24.5 -14t-26 -12.5t-18.5 -5.5q-7 0 -20.5 6t-28.5 14l-26 14q-13 7 -16 9q-42 12 -79.5 31.5t-69.5 39.5l-43 31l-33 26q-3 -1 -11 -1q-20 0 -34 14t-14 34t14 34.5t34 14.5t34.5 -14.5t14.5 -34.5q0 -5 -1 -7q13 -11 30.5 -20t38.5 -23q30 -20 65 -25.5 t73 -5.5l31 144q1 27 2 58q1 26 1.5 59t2.5 67h-129l-51 11q-11 -16 -31 -16q-17 0 -28 11t-11 27t11 27.5t28 11.5q21 0 32 -18h181q2 29 2.5 53.5t1.5 38.5q-30 9 -50 34.5t-20 58.5q0 40 28 68t69 28q40 0 68 -28t28 -68q0 -32 -19.5 -57.5t-48.5 -34.5q1 -15 1.5 -39.5 t1.5 -53.5h181q11 18 32 18q17 0 28 -11.5t11 -27.5t-11 -27t-28 -11q-20 0 -31 16l-50 -11h-130q1 -34 2.5 -67t2.5 -59q1 -31 2 -58l31 -147q12 -1 24 -1q19 0 36 2q29 3 55 19q29 17 52 32t39 27v5q0 20 14 34.5t34 14.5zM321 704q0 -21 15 -36t37 -15q21 0 36 15t15 36 t-15 36t-36 15q-22 0 -37 -15t-15 -36z" />
<glyph unicode="&#xd1;" horiz-adv-x="843" d="M522 1660q83 0 156 -31.5t127 -85.5t85.5 -127t31.5 -156t-31.5 -156t-85.5 -127t-127 -85.5t-156 -31.5t-156 31.5t-127 85.5t-85.5 127t-31.5 156t31.5 156t85.5 127t127 85.5t156 31.5zM808 1277l-255 171v-102q-83 -10 -147 -39q-27 -12 -53.5 -30t-47 -42.5 t-33 -56.5t-12.5 -72q12 26 36 47q20 18 54.5 35t88.5 24q17 2 45 3.5t70 1.5v-111zM803 350q-9 -68 -40 -128t-77.5 -106.5t-106.5 -76.5t-128 -39v350q8 69 38.5 129.5t77 107.5t107 77.5t129.5 39.5v-354zM353 0q-69 9 -129 39t-106.5 76.5t-77.5 106.5t-40 128v354 q69 -9 129.5 -39.5t107 -77.5t77 -107.5t38.5 -129.5h1v-350zM401 450q-26 79 -76.5 143.5t-119.5 108.5q40 39 89.5 64.5t106.5 33.5h1q57 -8 106 -33.5t90 -64.5q-69 -45 -119.5 -109.5t-76.5 -144.5q0 2 -0.5 2.5t-0.5 1.5v-2zM401 452q0 -1 0.5 -1.5t0.5 -2.5v-1 q-1 1 -1 3v2z" />
<glyph unicode="&#xd2;" horiz-adv-x="1387" d="M685 1660q83 0 156 -31.5t127 -85.5t85.5 -127t31.5 -156t-31.5 -156t-85.5 -127t-127 -85.5t-156 -31.5t-156 31.5t-127 85.5t-85.5 127t-31.5 156t31.5 156t85.5 127t127 85.5t156 31.5zM1017 1261q0 62 -21.5 116.5t-58.5 97.5q-40 -48 -89 -81.5t-103 -56.5 q8 -16 14.5 -33t14.5 -35q23 5 48 7.5t52 2.5q66 0 143 -18zM901 1512q-44 38 -99 59t-117 21q-23 0 -45 -3.5t-43 -8.5q21 -26 54.5 -74.5t70.5 -122.5q51 21 97.5 52.5t81.5 76.5zM546 1561q-71 -33 -120.5 -94.5t-65.5 -139.5q7 0 16.5 -0.5t22.5 -0.5q23 0 54 1.5t67 6 t75 12.5t79 20q-42 81 -77 129t-51 66zM353 1260q0 -66 23.5 -123t65.5 -102q11 18 34 49t60 65q35 31 81.5 60t106.5 48l-13 33l-14 29q-44 -14 -86.5 -23t-81.5 -13.5t-72 -6t-58 -1.5q-15 0 -26.5 0.5t-18.5 0.5q0 -4 -0.5 -8t-0.5 -8zM480 1000q42 -34 94.5 -53 t110.5 -19q65 0 126 25q-13 73 -31 136.5t-38 119.5q-59 -18 -104 -47t-77 -59.5t-51.5 -58t-27.5 -40.5zM859 978q61 38 102 98t52 134q-77 18 -139 18q-22 0 -42 -2t-40 -5q20 -54 36.5 -114t30.5 -129zM1054 632q14 -21 31 -36t31 -25v-341q-16 -10 -33.5 -25.5 t-31.5 -38.5h-783q-14 23 -31.5 38.5t-33.5 25.5v340q15 10 31.5 25t30.5 37h789zM435 320l-2 6l-56 155l-1 3h-3h-22h-4l-1 -3l-55 -155l-2 -6h6h30h4l1 3l10 31h41l11 -31l2 -3h3h32h6zM585 371q5 17 5 32q0 16 -5 33q-4 15 -14 26q-8 10 -25 17q-8 3 -17 5t-20 2 q-2 0 -5 -0.5t-6 -0.5h-12q-8 0 -12 -1q-8 0 -11 -1h-4v-4v-155v-4h4q2 -1 9 -1l12 -1q8 0 12 -1h10q23 0 39 8q16 6 26 19q11 13 14 27zM783 483h-4h-28h-2l-2 -2l-39 -70l-3 -9l-3 8l-42 71l-1 2h-3h-27h-5v-4v-155v-4h5h28h5v4v81l32 -55l2 -2h2h10h3l1 2l32 57v-2v-81 v-4h4h31h4v4v155v4zM865 483h-5h-30h-4v-4v-155v-4h4h30h5v4v155v4zM1026 483h-4h-121h-4v-4v-27v-5h4h41v-123v-4h5h30h4v4v123h41h4v5v27v4zM547 384l-3 -9q-2 -4 -4 -7q-3 -6 -11 -11q-10 -4 -20 -4h-3l-2 1h-2h-3v95h3h9q12 0 19 -4q6 -3 11 -10q4 -6 6 -15 q1 -5 1.5 -8.5t0.5 -8.5t-0.5 -9.5t-1.5 -9.5zM362 416l9 -29h-20l9 29l1 4zM1228 800q2 -45 16.5 -69.5t31.5 -35.5q20 -13 45 -15v-559q-27 -3 -47 -16q-18 -11 -32.5 -35.5t-14.5 -69.5h-1133q0 45 -15 69.5t-32 35.5q-21 13 -47 16v559q25 2 45 15q17 11 31.5 35.5 t16.5 69.5h1135zM1188 620q-17 9 -33 21q-14 11 -28 26t-23 37h-889q-9 -23 -23 -39t-28 -26q-16 -12 -32 -19v-441q18 -8 34 -19q14 -10 28 -26t22 -40h888q8 24 21.5 40t27.5 26q16 11 35 19v441z" />
<glyph unicode="&#xd4;" horiz-adv-x="1387" d="M781 1660q83 0 156 -31.5t127 -85.5t85.5 -127t31.5 -156t-31.5 -156t-85.5 -127t-127 -85.5t-156 -31.5t-156 31.5t-127 85.5t-85.5 127t-31.5 156t31.5 156t85.5 127t127 85.5t156 31.5zM1087 1288l-75 36q-2 23 -11.5 43t-25.5 35t-36.5 23.5t-43.5 8.5 q-24 0 -45.5 -9.5t-37.5 -25.5t-25.5 -37.5t-9.5 -45.5v-3q-4 -5 -7.5 -10t-8.5 -10q-12 -1 -26 -1h-14q-22 1 -43.5 4t-40 9.5t-30.5 17.5q-15 15 -19.5 6.5t2.5 -27.5t25.5 -41.5t48.5 -35.5q-37 -14 -71 -14t-60 5q-31 6 -58 18q21 -41 58 -74q32 -28 83 -51t127 -23 q56 0 95 15t65.5 36t41.5 45t22 42q20 14 31 36zM920 1375q14 0 23.5 -9.5t9.5 -23.5t-9.5 -23.5t-23.5 -9.5t-24 9.5t-10 23.5t10 23.5t24 9.5zM1054 632q14 -21 31 -36t31 -25v-341q-16 -10 -33.5 -25.5t-31.5 -38.5h-783q-14 23 -31.5 38.5t-33.5 25.5v340q15 10 31.5 25 t30.5 37h789zM435 320l-2 6l-56 155l-1 3h-3h-22h-4l-1 -3l-55 -155l-2 -6h6h30h4l1 3l10 31h41l11 -31l2 -3h3h32h6zM585 371q5 17 5 32q0 16 -5 33q-4 15 -14 26q-8 10 -25 17q-8 3 -17 5t-20 2q-2 0 -5 -0.5t-6 -0.5h-12q-8 0 -12 -1q-8 0 -11 -1h-4v-4v-155v-4h4 q2 -1 9 -1l12 -1q8 0 12 -1h10q23 0 39 8q16 6 26 19q11 13 14 27zM783 483h-4h-28h-2l-2 -2l-39 -70l-3 -9l-3 8l-42 71l-1 2h-3h-27h-5v-4v-155v-4h5h28h5v4v81l32 -55l2 -2h2h10h3l1 2l32 57v-2v-81v-4h4h31h4v4v155v4zM865 483h-5h-30h-4v-4v-155v-4h4h30h5v4v155v4z M1026 483h-4h-121h-4v-4v-27v-5h4h41v-123v-4h5h30h4v4v123h41h4v5v27v4zM547 384l-3 -9q-2 -4 -4 -7q-3 -6 -11 -11q-10 -4 -20 -4h-3l-2 1h-2h-3v95h3h9q12 0 19 -4q6 -3 11 -10q4 -6 6 -15q1 -5 1.5 -8.5t0.5 -8.5t-0.5 -9.5t-1.5 -9.5zM362 416l9 -29h-20l9 29l1 4z M1228 800q2 -45 16.5 -69.5t31.5 -35.5q20 -13 45 -15v-559q-27 -3 -47 -16q-18 -11 -32.5 -35.5t-14.5 -69.5h-1133q0 45 -15 69.5t-32 35.5q-21 13 -47 16v559q25 2 45 15q17 11 31.5 35.5t16.5 69.5h1135zM1188 620q-17 9 -33 21q-14 11 -28 26t-23 37h-889 q-9 -23 -23 -39t-28 -26q-16 -12 -32 -19v-441q18 -8 34 -19q14 -10 28 -26t22 -40h888q8 24 21.5 40t27.5 26q16 11 35 19v441z" />
<glyph unicode="&#xd5;" horiz-adv-x="1387" d="M781 1660q83 0 156 -31.5t127 -85.5t85.5 -127t31.5 -156t-31.5 -156t-85.5 -127t-127 -85.5t-156 -31.5t-156 31.5t-127 85.5t-85.5 127t-31.5 156t31.5 156t85.5 127t127 85.5t156 31.5zM1067 1277l-255 171v-102q-83 -10 -147 -39q-27 -12 -53.5 -30t-47 -42.5 t-33 -56.5t-12.5 -72q12 26 36 47q20 18 54.5 35t88.5 24q17 2 45 3.5t70 1.5v-111zM1054 632q14 -21 31 -36t31 -25v-341q-16 -10 -33.5 -25.5t-31.5 -38.5h-783q-14 23 -31.5 38.5t-33.5 25.5v340q15 10 31.5 25t30.5 37h789zM435 320l-2 6l-56 155l-1 3h-3h-22h-4l-1 -3 l-55 -155l-2 -6h6h30h4l1 3l10 31h41l11 -31l2 -3h3h32h6zM585 371q5 17 5 32q0 16 -5 33q-4 15 -14 26q-8 10 -25 17q-8 3 -17 5t-20 2q-2 0 -5 -0.5t-6 -0.5h-12q-8 0 -12 -1q-8 0 -11 -1h-4v-4v-155v-4h4q2 -1 9 -1l12 -1q8 0 12 -1h10q23 0 39 8q16 6 26 19q11 13 14 27 zM783 483h-4h-28h-2l-2 -2l-39 -70l-3 -9l-3 8l-42 71l-1 2h-3h-27h-5v-4v-155v-4h5h28h5v4v81l32 -55l2 -2h2h10h3l1 2l32 57v-2v-81v-4h4h31h4v4v155v4zM865 483h-5h-30h-4v-4v-155v-4h4h30h5v4v155v4zM1026 483h-4h-121h-4v-4v-27v-5h4h41v-123v-4h5h30h4v4v123h41h4v5 v27v4zM547 384l-3 -9q-2 -4 -4 -7q-3 -6 -11 -11q-10 -4 -20 -4h-3l-2 1h-2h-3v95h3h9q12 0 19 -4q6 -3 11 -10q4 -6 6 -15q1 -5 1.5 -8.5t0.5 -8.5t-0.5 -9.5t-1.5 -9.5zM362 416l9 -29h-20l9 29l1 4zM1228 800q2 -45 16.5 -69.5t31.5 -35.5q20 -13 45 -15v-559 q-27 -3 -47 -16q-18 -11 -32.5 -35.5t-14.5 -69.5h-1133q0 45 -15 69.5t-32 35.5q-21 13 -47 16v559q25 2 45 15q17 11 31.5 35.5t16.5 69.5h1135zM1188 620q-17 9 -33 21q-14 11 -28 26t-23 37h-889q-9 -23 -23 -39t-28 -26q-16 -12 -32 -19v-441q18 -8 34 -19 q14 -10 28 -26t22 -40h888q8 24 21.5 40t27.5 26q16 11 35 19v441z" />
<glyph unicode="&#xd9;" horiz-adv-x="1894" d="M1065 1660q83 0 156 -31.5t127 -85.5t85.5 -127t31.5 -156t-31.5 -156t-85.5 -127t-127 -85.5t-156 -31.5t-156 31.5t-127 85.5t-85.5 127t-31.5 156t31.5 156t85.5 127t127 85.5t156 31.5zM1397 1261q0 62 -21.5 116.5t-58.5 97.5q-40 -48 -89 -81.5t-103 -56.5 q8 -16 14.5 -33t14.5 -35q23 5 48 7.5t52 2.5q66 0 143 -18zM1281 1512q-44 38 -99 59t-117 21q-23 0 -45 -3.5t-43 -8.5q21 -26 54.5 -74.5t70.5 -122.5q51 21 97.5 52.5t81.5 76.5zM926 1561q-71 -33 -120.5 -94.5t-65.5 -139.5q7 0 16.5 -0.5t22.5 -0.5q23 0 54 1.5t67 6 t75 12.5t79 20q-42 81 -77 129t-51 66zM733 1260q0 -66 23.5 -123t65.5 -102q11 18 34 49t60 65q35 31 81.5 60t106.5 48l-13 33l-14 29q-44 -14 -86.5 -23t-81.5 -13.5t-72 -6t-58 -1.5q-15 0 -26.5 0.5t-18.5 0.5q0 -4 -0.5 -8t-0.5 -8zM860 1000q42 -34 94.5 -53 t110.5 -19q65 0 126 25q-13 73 -31 136.5t-38 119.5q-59 -18 -104 -47t-77 -59.5t-51.5 -58t-27.5 -40.5zM1239 978q61 38 102 98t52 134q-77 18 -139 18q-22 0 -42 -2t-40 -5q20 -54 36.5 -114t30.5 -129zM1600 800q42 0 79 -16t64.5 -43.5t43.5 -64.5t16 -79v-190 q0 -9 -6 -15t-15 -6h-91q-9 0 -15.5 6t-6.5 15v190q0 29 -20 49t-49 20h-2h-4q-29 0 -49 -20t-20 -49v-394q0 -42 -16 -79t-43.5 -64.5t-64.5 -43.5t-79 -16h-1h-1h-1h-1h-1h-1q-42 2 -79 18.5t-64.5 43.5t-43.5 63t-16 78v394q0 29 -20 49t-49 20h-2h-4q-29 0 -49 -20 t-20 -49v-394q0 -42 -16 -79t-43.5 -64.5t-64.5 -43.5t-79 -16h-1h-2h-1h-2h-1q-42 2 -78.5 18.5t-64.5 43.5t-44 63t-16 78l1 394q0 29 -20 49t-49 20h-2h-5q-29 0 -48.5 -20t-19.5 -49v-394q0 -42 -16 -79t-43.5 -64.5t-64.5 -43.5t-79 -16h-1h-2h-1h-2h-1q-42 2 -79 18.5 t-64.5 43.5t-43.5 63t-16 78v205q0 9 6.5 15.5t15.5 6.5h90q10 0 16 -6.5t6 -15.5v-205q0 -29 20 -49t49 -20h2h5q29 0 48.5 20t19.5 49v394q0 42 16 78.5t43.5 64t64.5 43.5t79 17h1h2h1h2h1q42 0 79 -16t64.5 -43.5t43.5 -64.5t16 -79v-394q0 -29 19.5 -49t48.5 -20h3h4 q29 0 49 20t20 49v394q0 42 16 78.5t43.5 64t64.5 43.5t79 17h3h2h1q42 0 79 -16t64.5 -43.5t43.5 -64.5t16 -79v-394q0 -29 20 -49t49 -20h2h4q29 0 49 20t20 49v394q0 42 16 78.5t43.5 64t64.5 43.5t79 17h1h2h1h2z" />
<glyph unicode="&#xdb;" horiz-adv-x="1894" d="M1161 1660q83 0 156 -31.5t127 -85.5t85.5 -127t31.5 -156t-31.5 -156t-85.5 -127t-127 -85.5t-156 -31.5t-156 31.5t-127 85.5t-85.5 127t-31.5 156t31.5 156t85.5 127t127 85.5t156 31.5zM1467 1288l-75 36q-2 23 -11.5 43t-25.5 35t-36.5 23.5t-43.5 8.5 q-24 0 -45.5 -9.5t-37.5 -25.5t-25.5 -37.5t-9.5 -45.5v-3q-4 -5 -7.5 -10t-8.5 -10q-12 -1 -26 -1h-14q-22 1 -43.5 4t-40 9.5t-30.5 17.5q-15 15 -19.5 6.5t2.5 -27.5t25.5 -41.5t48.5 -35.5q-37 -14 -71 -14t-60 5q-31 6 -58 18q21 -41 58 -74q32 -28 83 -51t127 -23 q56 0 95 15t65.5 36t41.5 45t22 42q20 14 31 36zM1300 1375q14 0 23.5 -9.5t9.5 -23.5t-9.5 -23.5t-23.5 -9.5t-24 9.5t-10 23.5t10 23.5t24 9.5zM1600 800q42 0 79 -16t64.5 -43.5t43.5 -64.5t16 -79v-190q0 -9 -6 -15t-15 -6h-91q-9 0 -15.5 6t-6.5 15v190q0 29 -20 49 t-49 20h-2h-4q-29 0 -49 -20t-20 -49v-394q0 -42 -16 -79t-43.5 -64.5t-64.5 -43.5t-79 -16h-1h-1h-1h-1h-1h-1q-42 2 -79 18.5t-64.5 43.5t-43.5 63t-16 78v394q0 29 -20 49t-49 20h-2h-4q-29 0 -49 -20t-20 -49v-394q0 -42 -16 -79t-43.5 -64.5t-64.5 -43.5t-79 -16h-1h-2 h-1h-2h-1q-42 2 -78.5 18.5t-64.5 43.5t-44 63t-16 78l1 394q0 29 -20 49t-49 20h-2h-5q-29 0 -48.5 -20t-19.5 -49v-394q0 -42 -16 -79t-43.5 -64.5t-64.5 -43.5t-79 -16h-1h-2h-1h-2h-1q-42 2 -79 18.5t-64.5 43.5t-43.5 63t-16 78v205q0 9 6.5 15.5t15.5 6.5h90 q10 0 16 -6.5t6 -15.5v-205q0 -29 20 -49t49 -20h2h5q29 0 48.5 20t19.5 49v394q0 42 16 78.5t43.5 64t64.5 43.5t79 17h1h2h1h2h1q42 0 79 -16t64.5 -43.5t43.5 -64.5t16 -79v-394q0 -29 19.5 -49t48.5 -20h3h4q29 0 49 20t20 49v394q0 42 16 78.5t43.5 64t64.5 43.5t79 17 h3h2h1q42 0 79 -16t64.5 -43.5t43.5 -64.5t16 -79v-394q0 -29 20 -49t49 -20h2h4q29 0 49 20t20 49v394q0 42 16 78.5t43.5 64t64.5 43.5t79 17h1h2h1h2z" />
<glyph unicode="&#xe0;" d="M424 1660q83 0 156 -31.5t127 -85.5t85.5 -127t31.5 -156t-31.5 -156t-85.5 -127t-127 -85.5t-156 -31.5t-156 31.5t-127 85.5t-85.5 127t-31.5 156t31.5 156t85.5 127t127 85.5t156 31.5zM756 1261q0 62 -21.5 116.5t-58.5 97.5q-40 -48 -89 -81.5t-103 -56.5 q8 -16 14.5 -33t14.5 -35q23 5 48 7.5t52 2.5q66 0 143 -18zM640 1512q-44 38 -99 59t-117 21q-23 0 -45 -3.5t-43 -8.5q21 -26 54.5 -74.5t70.5 -122.5q51 21 97.5 52.5t81.5 76.5zM285 1561q-71 -33 -120.5 -94.5t-65.5 -139.5q7 0 16.5 -0.5t22.5 -0.5q23 0 54 1.5t67 6 t75 12.5t79 20q-42 81 -77 129t-51 66zM92 1260q0 -66 23.5 -123t65.5 -102q11 18 34 49t60 65q35 31 81.5 60t106.5 48l-13 33l-14 29q-44 -14 -86.5 -23t-81.5 -13.5t-72 -6t-58 -1.5q-15 0 -26.5 0.5t-18.5 0.5q0 -4 -0.5 -8t-0.5 -8zM219 1000q42 -34 94.5 -53 t110.5 -19q65 0 126 25q-13 73 -31 136.5t-38 119.5q-59 -18 -104 -47t-77 -59.5t-51.5 -58t-27.5 -40.5zM598 978q61 38 102 98t52 134q-77 18 -139 18q-22 0 -42 -2t-40 -5q20 -54 36.5 -114t30.5 -129zM285 313q-29 -26 -47 -50t-26 -38q-32 35 -50 79t-18 95v12 q6 0 15 -0.5t20 -0.5q19 0 45 1.5t56 5t63 10.5t66 18l11 -24q6 -12 11 -25q-47 -14 -83.5 -36.5t-62.5 -46.5zM244 201q6 10 21 31t39.5 44.5t59.5 46t81 36.5q16 -43 29 -92t24 -106q-23 -9 -47.5 -14t-50.5 -5q-45 0 -85.5 14.5t-72.5 40.5zM400 800q83 0 156 -31.5 t127 -85.5t85.5 -127t31.5 -156t-31.5 -156t-85.5 -127t-127 -85.5t-156 -31.5t-156 31.5t-127 85.5t-85.5 127t-31.5 156t31.5 156t85.5 127t127 85.5t156 31.5zM400 89q64 0 120.5 24.5t98.5 66.5t66.5 98.5t24.5 120.5t-24.5 120.5t-66.5 98.5t-98.5 66t-120.5 24 t-120.5 -24t-98.5 -66t-66 -98.5t-24 -120.5t24 -120.5t66 -98.5t98.5 -66.5t120.5 -24.5zM484 368q28 6 63 6q46 0 107 -14q-9 -57 -40 -104t-79 -76q-11 54 -24 100t-27 88zM469 406q-5 14 -11 27t-11 26q42 17 80 42.5t69 63.5q29 -33 45 -75t16 -90q-29 7 -56.5 10 t-53.5 3q-21 0 -40.5 -2t-37.5 -5zM392 481q-62 -20 -119.5 -25.5t-93.5 -5.5h-17q-8 0 -13 1q12 60 50.5 107.5t93.5 73.5q12 -14 39.5 -51.5t59.5 -99.5zM567 594q-27 -35 -62.5 -59t-75.5 -41q-29 57 -54.5 94.5t-41.5 57.5q16 5 33 7.5t34 2.5q48 0 90.5 -16.5 t76.5 -45.5z" />
<glyph unicode="&#xe2;" d="M520 1660q83 0 156 -31.5t127 -85.5t85.5 -127t31.5 -156t-31.5 -156t-85.5 -127t-127 -85.5t-156 -31.5t-156 31.5t-127 85.5t-85.5 127t-31.5 156t31.5 156t85.5 127t127 85.5t156 31.5zM826 1288l-75 36q-2 23 -11.5 43t-25.5 35t-36.5 23.5t-43.5 8.5 q-24 0 -45.5 -9.5t-37.5 -25.5t-25.5 -37.5t-9.5 -45.5v-3q-4 -5 -7.5 -10t-8.5 -10q-12 -1 -26 -1h-14q-22 1 -43.5 4t-40 9.5t-30.5 17.5q-15 15 -19.5 6.5t2.5 -27.5t25.5 -41.5t48.5 -35.5q-37 -14 -71 -14t-60 5q-31 6 -58 18q21 -41 58 -74q32 -28 83 -51t127 -23 q56 0 95 15t65.5 36t41.5 45t22 42q20 14 31 36zM659 1375q14 0 23.5 -9.5t9.5 -23.5t-9.5 -23.5t-23.5 -9.5t-24 9.5t-10 23.5t10 23.5t24 9.5zM285 313q-29 -26 -47 -50t-26 -38q-32 35 -50 79t-18 95v12q6 0 15 -0.5t20 -0.5q19 0 45 1.5t56 5t63 10.5t66 18l11 -24 q6 -12 11 -25q-47 -14 -83.5 -36.5t-62.5 -46.5zM244 201q6 10 21 31t39.5 44.5t59.5 46t81 36.5q16 -43 29 -92t24 -106q-23 -9 -47.5 -14t-50.5 -5q-45 0 -85.5 14.5t-72.5 40.5zM400 800q83 0 156 -31.5t127 -85.5t85.5 -127t31.5 -156t-31.5 -156t-85.5 -127t-127 -85.5 t-156 -31.5t-156 31.5t-127 85.5t-85.5 127t-31.5 156t31.5 156t85.5 127t127 85.5t156 31.5zM400 89q64 0 120.5 24.5t98.5 66.5t66.5 98.5t24.5 120.5t-24.5 120.5t-66.5 98.5t-98.5 66t-120.5 24t-120.5 -24t-98.5 -66t-66 -98.5t-24 -120.5t24 -120.5t66 -98.5 t98.5 -66.5t120.5 -24.5zM484 368q28 6 63 6q46 0 107 -14q-9 -57 -40 -104t-79 -76q-11 54 -24 100t-27 88zM469 406q-5 14 -11 27t-11 26q42 17 80 42.5t69 63.5q29 -33 45 -75t16 -90q-29 7 -56.5 10t-53.5 3q-21 0 -40.5 -2t-37.5 -5zM392 481q-62 -20 -119.5 -25.5 t-93.5 -5.5h-17q-8 0 -13 1q12 60 50.5 107.5t93.5 73.5q12 -14 39.5 -51.5t59.5 -99.5zM567 594q-27 -35 -62.5 -59t-75.5 -41q-29 57 -54.5 94.5t-41.5 57.5q16 5 33 7.5t34 2.5q48 0 90.5 -16.5t76.5 -45.5z" />
<glyph unicode="&#xe3;" d="M520 1660q83 0 156 -31.5t127 -85.5t85.5 -127t31.5 -156t-31.5 -156t-85.5 -127t-127 -85.5t-156 -31.5t-156 31.5t-127 85.5t-85.5 127t-31.5 156t31.5 156t85.5 127t127 85.5t156 31.5zM806 1277l-255 171v-102q-83 -10 -147 -39q-27 -12 -53.5 -30t-47 -42.5 t-33 -56.5t-12.5 -72q12 26 36 47q20 18 54.5 35t88.5 24q17 2 45 3.5t70 1.5v-111zM285 313q-29 -26 -47 -50t-26 -38q-32 35 -50 79t-18 95v12q6 0 15 -0.5t20 -0.5q19 0 45 1.5t56 5t63 10.5t66 18l11 -24q6 -12 11 -25q-47 -14 -83.5 -36.5t-62.5 -46.5zM244 201 q6 10 21 31t39.5 44.5t59.5 46t81 36.5q16 -43 29 -92t24 -106q-23 -9 -47.5 -14t-50.5 -5q-45 0 -85.5 14.5t-72.5 40.5zM400 800q83 0 156 -31.5t127 -85.5t85.5 -127t31.5 -156t-31.5 -156t-85.5 -127t-127 -85.5t-156 -31.5t-156 31.5t-127 85.5t-85.5 127t-31.5 156 t31.5 156t85.5 127t127 85.5t156 31.5zM400 89q64 0 120.5 24.5t98.5 66.5t66.5 98.5t24.5 120.5t-24.5 120.5t-66.5 98.5t-98.5 66t-120.5 24t-120.5 -24t-98.5 -66t-66 -98.5t-24 -120.5t24 -120.5t66 -98.5t98.5 -66.5t120.5 -24.5zM484 368q28 6 63 6q46 0 107 -14 q-9 -57 -40 -104t-79 -76q-11 54 -24 100t-27 88zM469 406q-5 14 -11 27t-11 26q42 17 80 42.5t69 63.5q29 -33 45 -75t16 -90q-29 7 -56.5 10t-53.5 3q-21 0 -40.5 -2t-37.5 -5zM392 481q-62 -20 -119.5 -25.5t-93.5 -5.5h-17q-8 0 -13 1q12 60 50.5 107.5t93.5 73.5 q12 -14 39.5 -51.5t59.5 -99.5zM567 594q-27 -35 -62.5 -59t-75.5 -41q-29 57 -54.5 94.5t-41.5 57.5q16 5 33 7.5t34 2.5q48 0 90.5 -16.5t76.5 -45.5z" />
<glyph unicode="&#xe8;" d="M424 1660q83 0 156 -31.5t127 -85.5t85.5 -127t31.5 -156t-31.5 -156t-85.5 -127t-127 -85.5t-156 -31.5t-156 31.5t-127 85.5t-85.5 127t-31.5 156t31.5 156t85.5 127t127 85.5t156 31.5zM756 1261q0 62 -21.5 116.5t-58.5 97.5q-40 -48 -89 -81.5t-103 -56.5 q8 -16 14.5 -33t14.5 -35q23 5 48 7.5t52 2.5q66 0 143 -18zM640 1512q-44 38 -99 59t-117 21q-23 0 -45 -3.5t-43 -8.5q21 -26 54.5 -74.5t70.5 -122.5q51 21 97.5 52.5t81.5 76.5zM285 1561q-71 -33 -120.5 -94.5t-65.5 -139.5q7 0 16.5 -0.5t22.5 -0.5q23 0 54 1.5t67 6 t75 12.5t79 20q-42 81 -77 129t-51 66zM92 1260q0 -66 23.5 -123t65.5 -102q11 18 34 49t60 65q35 31 81.5 60t106.5 48l-13 33l-14 29q-44 -14 -86.5 -23t-81.5 -13.5t-72 -6t-58 -1.5q-15 0 -26.5 0.5t-18.5 0.5q0 -4 -0.5 -8t-0.5 -8zM219 1000q42 -34 94.5 -53 t110.5 -19q65 0 126 25q-13 73 -31 136.5t-38 119.5q-59 -18 -104 -47t-77 -59.5t-51.5 -58t-27.5 -40.5zM598 978q61 38 102 98t52 134q-77 18 -139 18q-22 0 -42 -2t-40 -5q20 -54 36.5 -114t30.5 -129zM632 231v113h-175v-176h112l-169 -168l-169 168h113v176h-176v-113 l-168 169l168 169v-112h176v175h-113l169 168l169 -168h-112v-175h175v112l168 -169z" />
<glyph unicode="&#xea;" d="M520 1660q83 0 156 -31.5t127 -85.5t85.5 -127t31.5 -156t-31.5 -156t-85.5 -127t-127 -85.5t-156 -31.5t-156 31.5t-127 85.5t-85.5 127t-31.5 156t31.5 156t85.5 127t127 85.5t156 31.5zM826 1288l-75 36q-2 23 -11.5 43t-25.5 35t-36.5 23.5t-43.5 8.5 q-24 0 -45.5 -9.5t-37.5 -25.5t-25.5 -37.5t-9.5 -45.5v-3q-4 -5 -7.5 -10t-8.5 -10q-12 -1 -26 -1h-14q-22 1 -43.5 4t-40 9.5t-30.5 17.5q-15 15 -19.5 6.5t2.5 -27.5t25.5 -41.5t48.5 -35.5q-37 -14 -71 -14t-60 5q-31 6 -58 18q21 -41 58 -74q32 -28 83 -51t127 -23 q56 0 95 15t65.5 36t41.5 45t22 42q20 14 31 36zM659 1375q14 0 23.5 -9.5t9.5 -23.5t-9.5 -23.5t-23.5 -9.5t-24 9.5t-10 23.5t10 23.5t24 9.5zM632 231v113h-175v-176h112l-169 -168l-169 168h113v176h-176v-113l-168 169l168 169v-112h176v175h-113l169 168l169 -168 h-112v-175h175v112l168 -169z" />
<glyph unicode="&#xec;" d="M424 1660q83 0 156 -31.5t127 -85.5t85.5 -127t31.5 -156t-31.5 -156t-85.5 -127t-127 -85.5t-156 -31.5t-156 31.5t-127 85.5t-85.5 127t-31.5 156t31.5 156t85.5 127t127 85.5t156 31.5zM756 1261q0 62 -21.5 116.5t-58.5 97.5q-40 -48 -89 -81.5t-103 -56.5 q8 -16 14.5 -33t14.5 -35q23 5 48 7.5t52 2.5q66 0 143 -18zM640 1512q-44 38 -99 59t-117 21q-23 0 -45 -3.5t-43 -8.5q21 -26 54.5 -74.5t70.5 -122.5q51 21 97.5 52.5t81.5 76.5zM285 1561q-71 -33 -120.5 -94.5t-65.5 -139.5q7 0 16.5 -0.5t22.5 -0.5q23 0 54 1.5t67 6 t75 12.5t79 20q-42 81 -77 129t-51 66zM92 1260q0 -66 23.5 -123t65.5 -102q11 18 34 49t60 65q35 31 81.5 60t106.5 48l-13 33l-14 29q-44 -14 -86.5 -23t-81.5 -13.5t-72 -6t-58 -1.5q-15 0 -26.5 0.5t-18.5 0.5q0 -4 -0.5 -8t-0.5 -8zM219 1000q42 -34 94.5 -53 t110.5 -19q65 0 126 25q-13 73 -31 136.5t-38 119.5q-59 -18 -104 -47t-77 -59.5t-51.5 -58t-27.5 -40.5zM598 978q61 38 102 98t52 134q-77 18 -139 18q-22 0 -42 -2t-40 -5q20 -54 36.5 -114t30.5 -129zM656 800q30 0 56 -11.5t45.5 -31t31 -45.5t11.5 -56v-512 q0 -30 -11.5 -56t-31 -45.5t-45.5 -31t-56 -11.5h-512q-30 0 -56 11.5t-45.5 31t-31 45.5t-11.5 56v512q0 30 11.5 56t31 45.5t45.5 31t56 11.5h512zM313 565l84 83h-243l-1 -243l84 84l82 -83l77 76zM654 392l-84 -84l-82 83l-77 -77l83 -82l-84 -83h244v243z" />
<glyph unicode="&#xee;" d="M520 1660q83 0 156 -31.5t127 -85.5t85.5 -127t31.5 -156t-31.5 -156t-85.5 -127t-127 -85.5t-156 -31.5t-156 31.5t-127 85.5t-85.5 127t-31.5 156t31.5 156t85.5 127t127 85.5t156 31.5zM826 1288l-75 36q-2 23 -11.5 43t-25.5 35t-36.5 23.5t-43.5 8.5 q-24 0 -45.5 -9.5t-37.5 -25.5t-25.5 -37.5t-9.5 -45.5v-3q-4 -5 -7.5 -10t-8.5 -10q-12 -1 -26 -1h-14q-22 1 -43.5 4t-40 9.5t-30.5 17.5q-15 15 -19.5 6.5t2.5 -27.5t25.5 -41.5t48.5 -35.5q-37 -14 -71 -14t-60 5q-31 6 -58 18q21 -41 58 -74q32 -28 83 -51t127 -23 q56 0 95 15t65.5 36t41.5 45t22 42q20 14 31 36zM659 1375q14 0 23.5 -9.5t9.5 -23.5t-9.5 -23.5t-23.5 -9.5t-24 9.5t-10 23.5t10 23.5t24 9.5zM656 800q30 0 56 -11.5t45.5 -31t31 -45.5t11.5 -56v-512q0 -30 -11.5 -56t-31 -45.5t-45.5 -31t-56 -11.5h-512 q-30 0 -56 11.5t-45.5 31t-31 45.5t-11.5 56v512q0 30 11.5 56t31 45.5t45.5 31t56 11.5h512zM313 565l84 83h-243l-1 -243l84 84l82 -83l77 76zM654 392l-84 -84l-82 83l-77 -77l83 -82l-84 -83h244v243z" />
<glyph unicode="&#xf1;" horiz-adv-x="838" d="M624 1660q83 0 156 -31.5t127 -85.5t85.5 -127t31.5 -156t-31.5 -156t-85.5 -127t-127 -85.5t-156 -31.5t-156 31.5t-127 85.5t-85.5 127t-31.5 156t31.5 156t85.5 127t127 85.5t156 31.5zM910 1277l-255 171v-102q-83 -10 -147 -39q-27 -12 -53.5 -30t-47 -42.5 t-33 -56.5t-12.5 -72q12 26 36 47q20 18 54.5 35t88.5 24q17 2 45 3.5t70 1.5v-111zM438 352l26 -77l-26 -4v81zM451 364l212 -17l-23 -48zM363 450l-26 77l26 4v-81zM350 438l-212 17l23 48zM38 352l354 41l-41 -354l-78 78l-116 -117l-157 157l117 116zM682 527l78 -79 l-354 -41l41 354l78 -78l117 117l157 -157z" />
<glyph unicode="&#xf2;" horiz-adv-x="1119" d="M312 1660q83 0 156 -31.5t127 -85.5t85.5 -127t31.5 -156t-31.5 -156t-85.5 -127t-127 -85.5t-156 -31.5t-156 31.5t-127 85.5t-85.5 127t-31.5 156t31.5 156t85.5 127t127 85.5t156 31.5zM644 1261q0 62 -21.5 116.5t-58.5 97.5q-40 -48 -89 -81.5t-103 -56.5 q8 -16 14.5 -33t14.5 -35q23 5 48 7.5t52 2.5q66 0 143 -18zM528 1512q-44 38 -99 59t-117 21q-23 0 -45 -3.5t-43 -8.5q21 -26 54.5 -74.5t70.5 -122.5q51 21 97.5 52.5t81.5 76.5zM173 1561q-71 -33 -120.5 -94.5t-65.5 -139.5q7 0 16.5 -0.5t22.5 -0.5q23 0 54 1.5t67 6 t75 12.5t79 20q-42 81 -77 129t-51 66zM-20 1260q0 -66 23.5 -123t65.5 -102q11 18 34 49t60 65q35 31 81.5 60t106.5 48l-13 33l-14 29q-44 -14 -86.5 -23t-81.5 -13.5t-72 -6t-58 -1.5q-15 0 -26.5 0.5t-18.5 0.5q0 -4 -0.5 -8t-0.5 -8zM107 1000q42 -34 94.5 -53 t110.5 -19q65 0 126 25q-13 73 -31 136.5t-38 119.5q-59 -18 -104 -47t-77 -59.5t-51.5 -58t-27.5 -40.5zM486 978q61 38 102 98t52 134q-77 18 -139 18q-22 0 -42 -2t-40 -5q20 -54 36.5 -114t30.5 -129zM778 400l200 -200l-200 -200v133h-512q-55 0 -103.5 21t-84.5 57 t-57 84.5t-21 104.5q0 70 34 129l102 -102q-3 -14 -3 -27q0 -28 10.5 -52.5t28.5 -42.5t42.5 -28.5t51.5 -10.5h512v134zM799 666q55 0 104 -21t85 -57t57 -84.5t21 -103.5q0 -35 -8.5 -67.5t-24.5 -61.5q-8 7 -21 21l-28 28l-30 30l-24 24q2 6 2 12v14q0 27 -10.5 51.5 t-28.5 42.5t-42 28.5t-52 10.5h-511v-133l-199 200l199 200v-134h511z" />
<glyph unicode="&#xf4;" horiz-adv-x="1119" d="M408 1660q83 0 156 -31.5t127 -85.5t85.5 -127t31.5 -156t-31.5 -156t-85.5 -127t-127 -85.5t-156 -31.5t-156 31.5t-127 85.5t-85.5 127t-31.5 156t31.5 156t85.5 127t127 85.5t156 31.5zM714 1288l-75 36q-2 23 -11.5 43t-25.5 35t-36.5 23.5t-43.5 8.5 q-24 0 -45.5 -9.5t-37.5 -25.5t-25.5 -37.5t-9.5 -45.5v-3q-4 -5 -7.5 -10t-8.5 -10q-12 -1 -26 -1h-14q-22 1 -43.5 4t-40 9.5t-30.5 17.5q-15 15 -19.5 6.5t2.5 -27.5t25.5 -41.5t48.5 -35.5q-37 -14 -71 -14t-60 5q-31 6 -58 18q21 -41 58 -74q32 -28 83 -51t127 -23 q56 0 95 15t65.5 36t41.5 45t22 42q20 14 31 36zM547 1375q14 0 23.5 -9.5t9.5 -23.5t-9.5 -23.5t-23.5 -9.5t-24 9.5t-10 23.5t10 23.5t24 9.5zM778 400l200 -200l-200 -200v133h-512q-55 0 -103.5 21t-84.5 57t-57 84.5t-21 104.5q0 70 34 129l102 -102q-3 -14 -3 -27 q0 -28 10.5 -52.5t28.5 -42.5t42.5 -28.5t51.5 -10.5h512v134zM799 666q55 0 104 -21t85 -57t57 -84.5t21 -103.5q0 -35 -8.5 -67.5t-24.5 -61.5q-8 7 -21 21l-28 28l-30 30l-24 24q2 6 2 12v14q0 27 -10.5 51.5t-28.5 42.5t-42 28.5t-52 10.5h-511v-133l-199 200l199 200 v-134h511z" />
<glyph unicode="&#xf5;" horiz-adv-x="1119" d="M408 1660q83 0 156 -31.5t127 -85.5t85.5 -127t31.5 -156t-31.5 -156t-85.5 -127t-127 -85.5t-156 -31.5t-156 31.5t-127 85.5t-85.5 127t-31.5 156t31.5 156t85.5 127t127 85.5t156 31.5zM694 1277l-255 171v-102q-83 -10 -147 -39q-27 -12 -53.5 -30t-47 -42.5 t-33 -56.5t-12.5 -72q12 26 36 47q20 18 54.5 35t88.5 24q17 2 45 3.5t70 1.5v-111zM778 400l200 -200l-200 -200v133h-512q-55 0 -103.5 21t-84.5 57t-57 84.5t-21 104.5q0 70 34 129l102 -102q-3 -14 -3 -27q0 -28 10.5 -52.5t28.5 -42.5t42.5 -28.5t51.5 -10.5h512v134z M799 666q55 0 104 -21t85 -57t57 -84.5t21 -103.5q0 -35 -8.5 -67.5t-24.5 -61.5q-8 7 -21 21l-28 28l-30 30l-24 24q2 6 2 12v14q0 27 -10.5 51.5t-28.5 42.5t-42 28.5t-52 10.5h-511v-133l-199 200l199 200v-134h511z" />
<glyph unicode="&#xf9;" horiz-adv-x="757" d="M446 1660q83 0 156 -31.5t127 -85.5t85.5 -127t31.5 -156t-31.5 -156t-85.5 -127t-127 -85.5t-156 -31.5t-156 31.5t-127 85.5t-85.5 127t-31.5 156t31.5 156t85.5 127t127 85.5t156 31.5zM778 1261q0 62 -21.5 116.5t-58.5 97.5q-40 -48 -89 -81.5t-103 -56.5 q8 -16 14.5 -33t14.5 -35q23 5 48 7.5t52 2.5q66 0 143 -18zM662 1512q-44 38 -99 59t-117 21q-23 0 -45 -3.5t-43 -8.5q21 -26 54.5 -74.5t70.5 -122.5q51 21 97.5 52.5t81.5 76.5zM307 1561q-71 -33 -120.5 -94.5t-65.5 -139.5q7 0 16.5 -0.5t22.5 -0.5q23 0 54 1.5t67 6 t75 12.5t79 20q-42 81 -77 129t-51 66zM114 1260q0 -66 23.5 -123t65.5 -102q11 18 34 49t60 65q35 31 81.5 60t106.5 48l-13 33l-14 29q-44 -14 -86.5 -23t-81.5 -13.5t-72 -6t-58 -1.5q-15 0 -26.5 0.5t-18.5 0.5q0 -4 -0.5 -8t-0.5 -8zM241 1000q42 -34 94.5 -53 t110.5 -19q65 0 126 25q-13 73 -31 136.5t-38 119.5q-59 -18 -104 -47t-77 -59.5t-51.5 -58t-27.5 -40.5zM620 978q61 38 102 98t52 134q-77 18 -139 18q-22 0 -42 -2t-40 -5q20 -54 36.5 -114t30.5 -129zM721 361q0 -75 -28.5 -141t-77 -114.5t-114 -77t-140.5 -28.5 t-141 28.5t-114.5 77t-77 114.5t-28.5 141t28.5 140.5t77 114t114.5 77t141 28.5q16 0 31 -1.5t30 -3.5v84l135 -135l-135 -135v84q-27 7 -61 7q-54 0 -101.5 -20.5t-83 -56t-56 -82.5t-20.5 -101t20.5 -101.5t56 -83t83 -56t101.5 -20.5t101 20.5t82.5 56t56 83t20.5 101.5 h100z" />
<glyph unicode="&#xfb;" horiz-adv-x="757" d="M542 1660q83 0 156 -31.5t127 -85.5t85.5 -127t31.5 -156t-31.5 -156t-85.5 -127t-127 -85.5t-156 -31.5t-156 31.5t-127 85.5t-85.5 127t-31.5 156t31.5 156t85.5 127t127 85.5t156 31.5zM848 1288l-75 36q-2 23 -11.5 43t-25.5 35t-36.5 23.5t-43.5 8.5 q-24 0 -45.5 -9.5t-37.5 -25.5t-25.5 -37.5t-9.5 -45.5v-3q-4 -5 -7.5 -10t-8.5 -10q-12 -1 -26 -1h-14q-22 1 -43.5 4t-40 9.5t-30.5 17.5q-15 15 -19.5 6.5t2.5 -27.5t25.5 -41.5t48.5 -35.5q-37 -14 -71 -14t-60 5q-31 6 -58 18q21 -41 58 -74q32 -28 83 -51t127 -23 q56 0 95 15t65.5 36t41.5 45t22 42q20 14 31 36zM681 1375q14 0 23.5 -9.5t9.5 -23.5t-9.5 -23.5t-23.5 -9.5t-24 9.5t-10 23.5t10 23.5t24 9.5zM721 361q0 -75 -28.5 -141t-77 -114.5t-114 -77t-140.5 -28.5t-141 28.5t-114.5 77t-77 114.5t-28.5 141t28.5 140.5t77 114 t114.5 77t141 28.5q16 0 31 -1.5t30 -3.5v84l135 -135l-135 -135v84q-27 7 -61 7q-54 0 -101.5 -20.5t-83 -56t-56 -82.5t-20.5 -101t20.5 -101.5t56 -83t83 -56t101.5 -20.5t101 20.5t82.5 56t56 83t20.5 101.5h100z" />
<glyph unicode="&#x152;" horiz-adv-x="2058" d="M2027 800q0 -60 -21 -114t-58 -96t-87.5 -70t-108.5 -37v-358q32 -5 59 -16.5t47 -28t31.5 -37t11.5 -43.5h-388q0 23 11 43.5t31 37t47.5 28t59.5 16.5v358q-59 8 -109 36t-87 70.5t-58 96.5t-21 114h640zM1054 632q14 -21 31 -36t31 -25v-341q-16 -10 -33.5 -25.5 t-31.5 -38.5h-783q-14 23 -31.5 38.5t-33.5 25.5v340q15 10 31.5 25t30.5 37h789zM435 320l-2 6l-56 155l-1 3h-3h-22h-4l-1 -3l-55 -155l-2 -6h6h30h4l1 3l10 31h41l11 -31l2 -3h3h32h6zM585 371q5 17 5 32q0 16 -5 33q-4 15 -14 26q-8 10 -25 17q-8 3 -17 5t-20 2 q-2 0 -5 -0.5t-6 -0.5h-12q-8 0 -12 -1q-8 0 -11 -1h-4v-4v-155v-4h4q2 -1 9 -1l12 -1q8 0 12 -1h10q23 0 39 8q16 6 26 19q11 13 14 27zM783 483h-4h-28h-2l-2 -2l-39 -70l-3 -9l-3 8l-42 71l-1 2h-3h-27h-5v-4v-155v-4h5h28h5v4v81l32 -55l2 -2h2h10h3l1 2l32 57v-2v-81 v-4h4h31h4v4v155v4zM865 483h-5h-30h-4v-4v-155v-4h4h30h5v4v155v4zM1026 483h-4h-121h-4v-4v-27v-5h4h41v-123v-4h5h30h4v4v123h41h4v5v27v4zM547 384l-3 -9q-2 -4 -4 -7q-3 -6 -11 -11q-10 -4 -20 -4h-3l-2 1h-2h-3v95h3h9q12 0 19 -4q6 -3 11 -10q4 -6 6 -15 q1 -5 1.5 -8.5t0.5 -8.5t-0.5 -9.5t-1.5 -9.5zM362 416l9 -29h-20l9 29l1 4zM1228 800q2 -45 16.5 -69.5t31.5 -35.5q20 -13 45 -15v-559q-27 -3 -47 -16q-18 -11 -32.5 -35.5t-14.5 -69.5h-1133q0 45 -15 69.5t-32 35.5q-21 13 -47 16v559q25 2 45 15q17 11 31.5 35.5 t16.5 69.5h1135zM1188 620q-17 9 -33 21q-14 11 -28 26t-23 37h-889q-9 -23 -23 -39t-28 -26q-16 -12 -32 -19v-441q18 -8 34 -19q14 -10 28 -26t22 -40h888q8 24 21.5 40t27.5 26q16 11 35 19v441z" />
<glyph unicode="&#x153;" horiz-adv-x="1959" d="M1751 231v113h-175v-176h112l-169 -168l-169 168h113v176h-176v-113l-168 169l168 169v-112h176v175h-113l169 168l169 -168h-112v-175h175v112l168 -169zM778 400l200 -200l-200 -200v133h-512q-55 0 -103.5 21t-84.5 57t-57 84.5t-21 104.5q0 70 34 129l102 -102 q-3 -14 -3 -27q0 -28 10.5 -52.5t28.5 -42.5t42.5 -28.5t51.5 -10.5h512v134zM799 666q55 0 104 -21t85 -57t57 -84.5t21 -103.5q0 -35 -8.5 -67.5t-24.5 -61.5q-8 7 -21 21l-28 28l-30 30l-24 24q2 6 2 12v14q0 27 -10.5 51.5t-28.5 42.5t-42 28.5t-52 10.5h-511v-133 l-199 200l199 200v-134h511z" />
<glyph unicode="&#x2c6;" d="M400 800q83 0 156 -31.5t127 -85.5t85.5 -127t31.5 -156t-31.5 -156t-85.5 -127t-127 -85.5t-156 -31.5t-156 31.5t-127 85.5t-85.5 127t-31.5 156t31.5 156t85.5 127t127 85.5t156 31.5zM706 428l-75 36q-2 23 -11.5 43t-25.5 35t-36.5 23.5t-43.5 8.5q-24 0 -45.5 -9.5 t-37.5 -25.5t-25.5 -37.5t-9.5 -45.5v-3q-4 -5 -7.5 -10t-8.5 -10q-12 -1 -26 -1h-14q-22 1 -43.5 4t-40 9.5t-30.5 17.5q-15 15 -19.5 6.5t2.5 -27.5t25.5 -41.5t48.5 -35.5q-37 -14 -71 -14t-60 5q-31 6 -58 18q21 -41 58 -74q32 -28 83 -51t127 -23q56 0 95 15t65.5 36 t41.5 45t22 42q20 14 31 36zM539 515q14 0 23.5 -9.5t9.5 -23.5t-9.5 -23.5t-23.5 -9.5t-24 9.5t-10 23.5t10 23.5t24 9.5z" />
<glyph unicode="&#x2dc;" horiz-adv-x="250" d="M120 860q83 0 156 -31.5t127 -85.5t85.5 -127t31.5 -156t-31.5 -156t-85.5 -127t-127 -85.5t-156 -31.5t-156 31.5t-127 85.5t-85.5 127t-31.5 156t31.5 156t85.5 127t127 85.5t156 31.5zM406 477l-255 171v-102q-83 -10 -147 -39q-27 -12 -53.5 -30t-47 -42.5t-33 -56.5 t-12.5 -72q12 26 36 47q20 18 54.5 35t88.5 24q17 2 45 3.5t70 1.5v-111z" />
<glyph unicode="&#x2000;" horiz-adv-x="830" />
<glyph unicode="&#x2001;" horiz-adv-x="1660" />
<glyph unicode="&#x2002;" horiz-adv-x="830" />
<glyph unicode="&#x2003;" horiz-adv-x="1660" />
<glyph unicode="&#x2004;" horiz-adv-x="553" />
<glyph unicode="&#x2005;" horiz-adv-x="415" />
<glyph unicode="&#x2006;" horiz-adv-x="276" />
<glyph unicode="&#x2007;" horiz-adv-x="276" />
<glyph unicode="&#x2008;" horiz-adv-x="207" />
<glyph unicode="&#x2009;" horiz-adv-x="332" />
<glyph unicode="&#x200a;" horiz-adv-x="92" />
<glyph unicode="&#x2010;" d="M800 244l-156 -88l-88 -156l-60 61l13 142l-162 162l-215 -356l-61 60l116 456l-169 169q-18 18 -18 43.5t18 44.5q19 18 44.5 18t43.5 -18l169 -169l456 116l61 -61l-357 -215l162 -162l142 13z" />
<glyph unicode="&#x2011;" d="M800 244l-156 -88l-88 -156l-60 61l13 142l-162 162l-215 -356l-61 60l116 456l-169 169q-18 18 -18 43.5t18 44.5q19 18 44.5 18t43.5 -18l169 -169l456 116l61 -61l-357 -215l162 -162l142 13z" />
<glyph unicode="&#x2013;" horiz-adv-x="500" d="M0 0v800h460v-800h-460z" />
<glyph unicode="&#x2014;" horiz-adv-x="1000" d="M0 0v800h960v-800h-960z" />
<glyph unicode="&#x2018;" d="M400 800q83 0 156 -31.5t127 -85.5t85.5 -127t31.5 -156t-31.5 -156t-85.5 -127t-127 -85.5t-156 -31.5t-156 31.5t-127 85.5t-85.5 127t-31.5 156t31.5 156t85.5 127t127 85.5t156 31.5zM732 401q0 62 -21.5 116.5t-58.5 97.5q-40 -48 -89 -81.5t-103 -56.5 q8 -16 14.5 -33t14.5 -35q23 5 48 7.5t52 2.5q66 0 143 -18zM616 652q-44 38 -99 59t-117 21q-23 0 -45 -3.5t-43 -8.5q21 -26 54.5 -74.5t70.5 -122.5q51 21 97.5 52.5t81.5 76.5zM261 701q-71 -33 -120.5 -94.5t-65.5 -139.5q7 0 16.5 -0.5t22.5 -0.5q23 0 54 1.5t67 6 t75 12.5t79 20q-42 81 -77 129t-51 66zM68 400q0 -66 23.5 -123t65.5 -102q11 18 34 49t60 65q35 31 81.5 60t106.5 48l-13 33l-14 29q-44 -14 -86.5 -23t-81.5 -13.5t-72 -6t-58 -1.5q-15 0 -26.5 0.5t-18.5 0.5q0 -4 -0.5 -8t-0.5 -8zM195 140q42 -34 94.5 -53t110.5 -19 q65 0 126 25q-13 73 -31 136.5t-38 119.5q-59 -18 -104 -47t-77 -59.5t-51.5 -58t-27.5 -40.5zM574 118q61 38 102 98t52 134q-77 18 -139 18q-22 0 -42 -2t-40 -5q20 -54 36.5 -114t30.5 -129z" />
<glyph unicode="&#x2019;" horiz-adv-x="920" d="M685 800q52 0 89 -23.5t59.5 -57.5t33 -72t10.5 -67q0 -18 -1.5 -48.5t-5 -69t-9 -82t-12.5 -88.5v-158q0 -28 -10.5 -52.5t-28.5 -42.5t-42.5 -28.5t-52.5 -10.5q-57 0 -94.5 36.5t-40.5 97.5v7q0 23 5 63q6 47 14 102q-1 35 -7 59t-15 43.5t-19 37t-19 39.5t-14.5 51.5 t-5.5 72.5q0 39 11 74t32.5 61t52.5 41t70 15zM191 800q40 0 71 -15t52 -41t32 -61t11 -74q0 -43 -5.5 -72.5t-14 -51.5t-19 -39.5t-19 -37t-15 -43.5t-7.5 -59q9 -55 15 -102q4 -40 4 -62v-8q-1 -30 -11.5 -55t-28.5 -42.5t-42 -27t-52 -9.5t-52.5 10.5t-42.5 28.5 t-28.5 42.5t-10.5 52.5v158q-7 45 -12.5 88.5t-9 82t-5 69t-1.5 48.5q0 29 10.5 67t33 72t59 57.5t88.5 23.5z" />
<glyph unicode="&#x201c;" horiz-adv-x="1223" d="M1067 622q54 -36 76 -89.5t22 -128.5q0 -44 -6.5 -79t-19.5 -62.5t-33 -49.5t-48 -40q-56 -35 -102.5 -45.5t-75.5 -10.5q-21 0 -36.5 1.5t-24.5 2.5q-25 -43 -60 -67t-78 -36t-92 -15t-102 -3h-102q-80 0 -150 19.5t-122 58.5t-82.5 98.5t-30.5 139.5v484h873v-122 q5 0 10.5 0.5t11.5 0.5q13 0 31.5 -2t41 -8.5t48 -17.5t51.5 -29zM982 288q28 19 36.5 48.5t8.5 67.5q0 33 -6.5 60.5t-31.5 44.5q-12 9 -26.5 15t-27.5 10t-24 5.5t-16 1.5h-22v-225q0 -31 -6 -61h13q14 0 44 6.5t58 26.5z" />
<glyph unicode="&#x201d;" horiz-adv-x="1223" d="M1067 622q54 -36 76 -89.5t22 -128.5q0 -44 -6.5 -79t-19.5 -62.5t-33 -49.5t-48 -40q-56 -35 -102.5 -45.5t-75.5 -10.5q-21 0 -36.5 1.5t-24.5 2.5q-25 -43 -60 -67t-78 -36t-92 -15t-102 -3h-102q-80 0 -150 19.5t-122 58.5t-82.5 98.5t-30.5 139.5v484h873v-122 q5 0 10.5 0.5t11.5 0.5q13 0 31.5 -2t41 -8.5t48 -17.5t51.5 -29zM982 288q28 19 36.5 48.5t8.5 67.5q0 33 -6.5 60.5t-31.5 44.5q-12 9 -26.5 15t-27.5 10t-24 5.5t-16 1.5h-22v-225q0 -31 -6 -61h13q14 0 44 6.5t58 26.5z" />
<glyph unicode="&#x2026;" horiz-adv-x="4335" d="M2890 400q0 50 36 106t102 109v-432q-66 53 -102 109.5t-36 107.5zM4266 400q0 -51 -35 -106t-98 -107v422q63 -52 98 -106.5t35 -102.5zM3578 800q70 0 136 -10.5t126.5 -28.5t115 -43t101.5 -54v-531q-94 -58 -216.5 -95.5t-262.5 -37.5q-139 0 -259.5 36.5 t-214.5 93.5v539q94 57 214.5 94t259.5 37zM3872 514h97v76h-97v102h-76v-102h-95v102h-76v-102h-96v102h-76v-102h-95v102h-76v-102h-91v-76h91v-106h76v106h95v-106h76v106h96v-106h76v106h95v-106h76v106zM1445 400q0 50 36 106t102 109v-432q-66 53 -102 109.5 t-36 107.5zM2821 400q0 -51 -35 -106t-98 -107v422q63 -52 98 -106.5t35 -102.5zM2133 800q70 0 136 -10.5t126.5 -28.5t115 -43t101.5 -54v-531q-94 -58 -216.5 -95.5t-262.5 -37.5q-139 0 -259.5 36.5t-214.5 93.5v539q94 57 214.5 94t259.5 37zM2427 514h97v76h-97v102 h-76v-102h-95v102h-76v-102h-96v102h-76v-102h-95v102h-76v-102h-91v-76h91v-106h76v106h95v-106h76v106h96v-106h76v106h95v-106h76v106zM0 400q0 50 36 106t102 109v-432q-66 53 -102 109.5t-36 107.5zM1376 400q0 -51 -35 -106t-98 -107v422q63 -52 98 -106.5t35 -102.5z M688 800q70 0 136 -10.5t126.5 -28.5t115 -43t101.5 -54v-531q-94 -58 -216.5 -95.5t-262.5 -37.5q-139 0 -259.5 36.5t-214.5 93.5v539q94 57 214.5 94t259.5 37zM982 514h97v76h-97v102h-76v-102h-95v102h-76v-102h-96v102h-76v-102h-95v102h-76v-102h-91v-76h91v-106h76 v106h95v-106h76v106h96v-106h76v106h95v-106h76v106z" />
<glyph unicode="&#x202f;" horiz-adv-x="332" />
<glyph unicode="&#x2039;" horiz-adv-x="982" d="M800 168h-536v42h536v-42zM800 297h-536v42h536v-42zM800 467h-209v42h209v-42zM800 596h-209v42h209v-42zM515 422h-251v250h251v-250zM903 800q20 0 26.5 -6.5t6.5 -26.5v-734q0 -20 -6.5 -26.5t-26.5 -6.5h-122h-613h-80q-16 0 -32 8.5t-28.5 21.5t-20 28.5t-7.5 29.5 v540q0 20 6.5 26.5t26.5 6.5h103v106q0 20 6.5 26.5t25.5 6.5h735zM880 744h-689v-83v-56v-499h-55v499h-80v-517q1 -8 12.5 -20t19.5 -12h80h613h99v688z" />
<glyph unicode="&#x203a;" horiz-adv-x="1089" d="M85 634v-634h-85v634h85zM864 634v-634h-692v634h65q14 29 32 58.5t37.5 53.5t40.5 39t41 15h258q22 0 44.5 -16t43.5 -40.5t39 -53.5t32 -56h59zM580 650q16 0 27 11t11 27t-11 27t-27 11h-129q-16 0 -27 -11t-11 -27t11 -27t27 -11h129zM1037 0h-87v634h87v-634z" />
<glyph unicode="&#x205f;" horiz-adv-x="415" />
<glyph unicode="&#x2122;" horiz-adv-x="1265" d="M1141 718q-66 -66 -98.5 -149t-32.5 -169t32.5 -169t98.5 -149q47 -46 100 -75q-37 -7 -75 -7q-57 0 -114 16q-95 28 -168 101q-59 58 -88 132t-29 151t29 150.5t88 132.5q73 73 168 101q57 16 114 16q38 0 75 -7q-53 -29 -100 -75zM594 476h104v-476h-104v476zM419 382 h104v-382h-104v382zM239 285h104v-285h-104v285zM65 190h105v-190h-105v190zM632 642l-256 -255l-85 84l-235 -236l-56 56l291 292l85 -85l200 199l-52 53l207 50l-50 -207z" />
</font>
</defs>
</svg>
