<?xml version="1.0" standalone="no"?>
<!DOCTYPE svg PUBLIC "-//W3C//DTD SVG 1.1//EN" "http://www.w3.org/Graphics/SVG/1.1/DTD/svg11.dtd" >
<svg xmlns="http://www.w3.org/2000/svg">
<metadata>
This is a custom SVG webfont generated by Font Squirrel.
Designer    : Mike Weber
Foundry     : PYRS Fontlab Ltd  Made with FontLab
</metadata>
<defs>
<font id="webfont0mfGi0qe" horiz-adv-x="840" >
<font-face units-per-em="1000" ascent="1000" descent="0" />
<missing-glyph horiz-adv-x="250" />
<glyph unicode=" "  horiz-adv-x="250" />
<glyph unicode="&#x09;" horiz-adv-x="250" />
<glyph unicode="&#xa0;" horiz-adv-x="250" />
<glyph unicode="!" horiz-adv-x="983" d="M936 662v-662h-152h-152h-175h-153h-152v138h-152v523l139 139h341v-138h115h37h152h152zM425 193v552h-231v-139h-139v-413h370zM577 55v552h-79h-18v-469h-273v-83h153h152h65zM729 55v552h-79h-18v-552h97zM881 607h-97v-552h97v552z" />
<glyph unicode="&#x22;" d="M415 494h34v-265h-27h-76h-71v30h137v235h3zM373 298h-174v196h69v69h105v-265zM400 800q83 0 156 -31.5t127 -85.5t85.5 -127t31.5 -156t-31.5 -156t-85.5 -127t-127 -85.5t-156 -31.5t-156 31.5t-127 85.5t-85.5 127t-31.5 156t31.5 156t85.5 127t127 85.5t156 31.5z M640 533h-81h-77h-18h-52v69h-182l-70 -73v-270h76v-69h82h77h87h77h81v343zM602 229h-38v265h38v-265zM492 494h33v-265h-37v265h4z" />
<glyph unicode="#" horiz-adv-x="1066" d="M1015 456v-456h-1015v456h72v217l128 127h313v-99h106h34h140h140v-245h82zM793 651v-195h89v195h-89zM653 651v-195h89v195h-72h-17zM634 289h-254v-127h254v127zM513 651v-195h90v195h-73h-17zM123 456h340v293h-213v-127h-127v-166z" />
<glyph unicode="$" horiz-adv-x="609" d="M126 257h326v-54h-326v54zM316 323h-190v53h190v-53zM126 496h268v-54h-268v54zM580 800v-800h-580v632l167 167v1h413zM513 733h-279v-167h-167v-499h446v666z" />
<glyph unicode="%" horiz-adv-x="609" d="M145 229q12 0 20 -8t8 -20q0 -11 -8 -19t-20 -8q-11 0 -19 8t-8 19q0 12 8 20t19 8zM145 348q12 0 20 -8.5t8 -19.5t-8 -19.5t-20 -8.5q-11 0 -19 8.5t-8 19.5t8 19.5t19 8.5zM145 466q12 0 20 -8.5t8 -19.5t-8 -19.5t-20 -8.5q-11 0 -19 8.5t-8 19.5t8 19.5t19 8.5z M211 229h253v-56h-253v56zM211 348h253v-56h-253v56zM211 466h253v-56h-253v56zM580 800v-800h-580v632l167 167v1h413zM513 733h-279v-167h-167v-499h446v666z" />
<glyph unicode="&#x26;" horiz-adv-x="1067" d="M986 701q13 0 21.5 -8.5t8.5 -21.5v-640q0 -13 -8.5 -22t-21.5 -9h-955q-13 0 -22 9t-9 22v640q0 13 9 21.5t22 8.5h46l35 72q5 11 18 19t26 8h193q12 0 25 -8t19 -19l34 -72h559z" />
<glyph unicode="'" horiz-adv-x="1215" d="M1087 659h-1016v12q0 13 8.5 21.5t21.5 8.5h46l35 72q6 11 19 19t26 8h192q13 0 26 -8t18 -19l35 -72h558q13 0 22 -8.5t9 -21.5v-12zM0 589h1158l-71 -558q0 -13 -9 -22t-22 -9h-955q-13 0 -21.5 9t-8.5 22z" />
<glyph unicode="(" horiz-adv-x="1295" d="M1124 335h-1017v336q0 13 9 21.5t22 8.5h46l35 72q6 11 18.5 19t25.5 8h193q13 0 25.5 -8t18.5 -19l35 -72h558q13 0 22 -8.5t9 -21.5v-336zM0 251h1233l-109 -220q0 -13 -9 -22t-22 -9h-955q-13 0 -22 9t-9 22z" />
<glyph unicode=")" horiz-adv-x="1272" d="M1212 0h-382v287h49v83q0 29 11 54.5t29.5 44t44 29.5t54.5 11h2h1h2q28 0 53.5 -11t44 -29.5t29.5 -44t11 -54.5v-83h51v-287zM1092 370q0 29 -20 49.5t-49 20.5h-2h-3q-29 0 -49 -20.5t-20 -49.5v-83h143v83zM731 0h-700q-13 0 -22 9t-9 22v640q0 13 9 21.5t22 8.5h46 l35 72q5 11 18 19t26 8h193q12 0 25 -8t19 -19l34 -72h559q13 0 21.5 -8.5t8.5 -21.5v-63q-47 0 -88.5 -17.5t-73 -47.5t-51 -70.5t-22.5 -86.5h-50v-99v-287z" />
<glyph unicode="*" horiz-adv-x="1238" d="M1016 290h163v-128h-163v-162h-128v162h-162v128h162v162h128v-162zM807 80v-80h-777q-12 0 -21 9t-9 22v640q0 13 9 21.5t21 8.5h47l35 72q5 11 18 19t26 8h192q13 0 26 -8t18 -19l35 -72h558q13 0 22 -8.5t9 -21.5v-137h-128h-81v-82v-80h-81h-82v-82v-128v-82h82h81z " />
<glyph unicode="+" horiz-adv-x="1238" d="M727 290h452v-128h-452v128zM727 80h289v-49q0 -13 -8.5 -22t-21.5 -9h-955q-13 0 -22 9t-9 22v640q0 13 9 21.5t22 8.5h46l35 72q5 11 18 19t26 8h193q12 0 25 -8t18 -19l35 -72h559q13 0 21.5 -8.5t8.5 -21.5v-299h-289h-82v-82v-128v-82h82z" />
<glyph unicode="," horiz-adv-x="1302" d="M1141 2l-126 126l-125 -126l-99 99l125 126l-125 125l99 99l125 -126l126 126l99 -99l-126 -125l126 -126zM733 43l44 -43h-747q-12 0 -21 9t-9 22v640q0 13 9 21.5t21 8.5h47l35 72q5 11 18 19t26 8h193q12 0 25 -8t18 -19l35 -72h559q13 0 21.5 -8.5t8.5 -21.5v-229 l-1 -1l-67 67l-58 58l-58 -58l-99 -98l-57 -58l57 -58l68 -67l-68 -68l-57 -58z" />
<glyph unicode="-" horiz-adv-x="1067" d="M986 701q13 0 21.5 -8.5t8.5 -21.5v-641q0 -12 -8.5 -21t-21.5 -9h-955q-13 0 -22 9t-9 21v641q0 13 9 21.5t22 8.5h46l35 72q5 11 18 19t26 8h193q12 0 25 -8t19 -19l34 -72h559zM932 617h-505q-24 0 -44.5 12.5t-31.5 34.5l-25 51h-148l-25 -51q-10 -20 -28 -32.5 t-40 -14.5v-532h847v532z" />
<glyph unicode="." horiz-adv-x="970" d="M201 398v64v187l151 151h372v-338v-64v-79h-523v79zM261 380h402v360h-251v-151h-151v-209zM924 333v-333h-924v333l115 129h86v-64h-57l-80 -89v-245h796v245l-80 89h-56v64h84z" />
<glyph unicode="/" horiz-adv-x="897" d="M855 633v-131v-308h-186v-54l-139 -140h-344v194h-186v308v131h186v167h483v-167h186zM688 574v-54h107v54h-107zM241 633h373v111h-373v-111zM474 195h140v135v55h55v-132h69v202h-619v-202h67v114v18h55v-55v-274h233v139z" />
<glyph unicode="0" d="M800 654l-96 -96l-146 146l96 96zM654 508l-438 -438l-216 -70l70 216l438 438zM533 555l-24 24l-362 -362l24 -24z" />
<glyph unicode="1" horiz-adv-x="953" d="M791 800l116 -116l-76 -77l-116 117zM443 219l-172 -56l56 172v1l348 348l117 -116zM695 605l-19 19l-289 -288l20 -19zM567 267l81 81v-240q0 -23 -8.5 -42.5t-23.5 -34t-34.5 -23t-41.5 -8.5h-432q-23 0 -42.5 8.5t-34 23t-23 34t-8.5 42.5v432q0 22 8.5 42t23 34.5 t34 23t42.5 8.5h432q5 0 10.5 -0.5t10.5 -1.5l-79 -79h-374q-11 0 -19 -8t-8 -19v-432q0 -11 8 -19t19 -8h432q11 0 19 8t8 19v159z" />
<glyph unicode="2" d="M400 800q83 0 156 -31.5t127 -85.5t85.5 -127t31.5 -156t-31.5 -156t-85.5 -127t-127 -85.5t-156 -31.5t-156 31.5t-127 85.5t-85.5 127t-31.5 156t31.5 156t85.5 127t127 85.5t156 31.5zM544 458l-82 82l-244 -245l-40 -121l121 40zM625 540l-81 81l-54 -53l82 -82z M260 296l203 202l13 -14l-202 -202z" />
<glyph unicode="3" d="M285 92l-285 -92l92 284v1h1l515 515l192 -192zM261 131l-130 130l-62 -192z" />
<glyph unicode="4" horiz-adv-x="976" d="M787 797l143 -143l-383 -382v-1l-211 -68l68 211zM433 396l-46 -142l142 46zM699 329l100 100v-296q0 -27 -10.5 -51.5t-28.5 -42.5t-42 -28.5t-52 -10.5h-533q-27 0 -51.5 10.5t-42.5 28.5t-28.5 42.5t-10.5 51.5v534q0 27 10.5 51.5t28.5 42.5t42.5 28.5t51.5 10.5h533 q14 0 26 -3l-97 -97h-462q-14 0 -23.5 -9.5t-9.5 -23.5v-534q0 -14 9.5 -23.5t23.5 -9.5h533q14 0 23.5 9.5t9.5 23.5v196z" />
<glyph unicode="5" horiz-adv-x="839" d="M783 649l11 -11q5 -5 5 -6q0 -35 -15 -67.5t-40.5 -57.5t-58 -40.5t-67.5 -15.5q-12 0 -25 4t-27 10l-232 -232q7 -13 11 -26t4 -26q0 -35 -15.5 -67t-40.5 -57.5t-58 -41t-67 -15.5q-1 0 -6 6l-11 10l43 42q14 14 19.5 23t5.5 17v26q0 13 -9.5 30t-24 31t-31 24 t-30.5 10h-26q-9 0 -18 -6t-22 -20l-42 -42q-4 5 -10 10.5t-6 6.5q0 34 15 67t40.5 58t58 40.5t67.5 15.5q13 0 26 -4t27 -11l232 231q-15 27 -15 54q0 34 15 66.5t40.5 58t58 41t67.5 15.5l16 -16l-43 -42q-14 -14 -19.5 -23t-5.5 -17v-26q0 -14 9.5 -30.5t24 -30.5t31 -24 t30.5 -10h25q9 0 18 6t23 20z" />
<glyph unicode="6" d="M400 800q83 0 156 -31.5t127 -85.5t85.5 -127t31.5 -156t-31.5 -156t-85.5 -127t-127 -85.5t-156 -31.5t-156 31.5t-127 85.5t-85.5 127t-31.5 156t31.5 156t85.5 127t127 85.5t156 31.5zM536 432q21 0 41.5 9.5t36 25t25 36t9.5 42.5l-10 10l-27 -27q-10 -10 -17 -15 t-13.5 -6t-16.5 -1q-9 0 -19 6t-19 15t-15 19.5t-6 18.5q0 11 1 17t6 13t14 17l28 27l-10 10q-22 0 -42.5 -9.5t-36 -25.5t-25 -36t-9.5 -42q0 -19 15 -42l-140 -140q-11 7 -21.5 11t-20.5 3q-21 0 -41.5 -9.5t-36.5 -25t-25 -36t-9 -41.5q1 -2 3 -4q5 -5 7 -6l26 27 q10 10 17 15t13 6t17 1q9 0 19.5 -6t19.5 -15t15 -19.5t6 -18.5q0 -11 -1 -17.5t-6 -13t-15 -15.5l-28 -28l7 -6q3 -4 4 -4q21 0 41.5 9.5t36 25.5t25 36t9.5 41q0 20 -14 42l140 140q11 -6 21.5 -10t20.5 -4z" />
<glyph unicode="7" horiz-adv-x="841" d="M619 349q35 0 67.5 -15.5t58 -40.5t41 -58t15.5 -67q0 -1 -6 -6l-11 -11l-37 37q-13 14 -21.5 21t-14.5 9t-15 2q-4 0 -8.5 -0.5t-10.5 -0.5q-14 0 -30.5 -9.5t-31 -24t-24.5 -31t-10 -30.5v-26q0 -8 6 -17t20 -23l42 -42l-16 -16h-2q-35 0 -67 15.5t-57 40.5t-40 57.5 t-15 67.5q0 24 14 52l-232 232q-28 -14 -53 -14q-35 0 -67 15.5t-57.5 40.5t-41 57.5t-15.5 67.5q3 2 6 6q2 2 5 5.5t5 5.5l37 -37q13 -14 21.5 -21t15 -9t15.5 -2q4 0 8.5 0.5t10.5 0.5q13 0 30 9.5t31 24t24 31t10 30.5v26q0 8 -6 17t-20 23l-42 42q5 4 10.5 10t6.5 6h1 q34 0 66.5 -15.5t58 -40.5t40.5 -58t15 -67q0 -13 -4 -26.5t-11 -27.5l232 -231q14 7 27 11t26 4zM798 655l-96 -96l-145 145l95 96zM407 555l100 100l146 -146l-100 -99l-84 83l63 63l-24 24l-63 -63zM390 246l-174 -173l-215 -70l70 215v1l173 173l38 -38l-135 -135 l24 -24l135 135z" />
<glyph unicode="8" horiz-adv-x="842" d="M780 722q22 -22 22 -53t-22 -53l-238 -238q-11 5 -24.5 2t-21.5 -12q-8 -8 -11.5 -21.5t1.5 -24.5l-21 -21q-22 -22 -53 -22t-54 22l-5 6l-185 -185l-19 -50l-103 -72l-46 46l72 103l50 19l185 185l-4 4q-23 22 -23 53t23 54l21 20q11 -5 24.5 -2t21.5 12q9 8 12 22 t-2 25l237 237q23 22 54 22t53 -22z" />
<glyph unicode="9" horiz-adv-x="838" d="M798 110l-109 -110l-40 11l-74 99l-310 310q-32 -16 -59 -16q-39 0 -76 17.5t-66 46t-46.5 66t-17.5 76.5l7 7q8 8 12 11l48 -48q16 -16 25.5 -22.5t19.5 -6.5h29q15 0 34 11t35.5 27.5t27.5 35t11 34.5v29q0 10 -7 20t-23 26l-47 47q2 2 5 5.5t6 6.5l7 7q39 0 76.5 -17 t66 -46t46 -66t17.5 -77q0 -28 -17 -60l310 -310l99 -73zM678 75q20 0 33.5 13.5t13.5 33.5q0 19 -13.5 32.5t-33.5 13.5q-19 0 -32.5 -13.5t-13.5 -32.5q0 -20 13.5 -33.5t32.5 -13.5z" />
<glyph unicode=":" horiz-adv-x="842" d="M779 722q23 -22 23 -53t-23 -53l-237 -238q-6 3 -14 3q-19 0 -32 -13q-8 -8 -11.5 -21.5t1.5 -24.5l-21 -21q-24 -22 -53 -22q-30 0 -54 22l-5 6l-185 -185l-19 -50l-103 -72l-46 46l72 103l50 19l185 185l-4 4q-23 22 -23 53t23 54l21 20q6 -3 15 -3q8 0 17 3.5t14 9.5 q9 8 12 22t-2 25l237 237q22 22 54 22q31 0 53 -22zM271 495q-18 -20 -27 -43l-4 3q-28 -14 -53 -14q-36 0 -69.5 15.5t-59.5 41.5t-41.5 59.5t-16.5 69.5l17 17l43 -44q15 -14 24 -20t18 -6h26q14 0 31 10t32 25t25 32t10 31q0 17 -0.5 26t-6.5 18t-21 23l-42 43l10 11 q6 6 7 6q36 0 69.5 -15.5t59.5 -41.5t41.5 -59.5t15.5 -69.5q0 -17 -8 -39l-3 -2l-23 -23l11 -21l-21 11l-23 -23zM551 324l13 14l135 -135l89 -66l10 -37l-99 -100l-36 10l-67 90l-142 142q24 9 43 28l21 21l22 22l-10 22zM689 152q-17 0 -29.5 -12t-12.5 -30 q0 -17 12.5 -29t29.5 -12t29.5 12t12.5 29q0 18 -12.5 30t-29.5 12z" />
<glyph unicode=";" horiz-adv-x="796" d="M521 800q53 -29 96.5 -71t75 -93.5t48.5 -111.5t17 -124q0 -65 -17 -124.5t-48.5 -111t-75 -93.5t-95.5 -71l-31 60q45 25 81.5 61t62.5 79.5t40.5 94t14.5 105.5t-14.5 105.5t-40.5 94t-62.5 79.5t-81.5 61zM606 400q0 -42 -11 -81.5t-31.5 -73.5t-49 -62t-62.5 -47 l-30 61q52 31 84.5 84t32.5 119q0 65 -32.5 118.5t-84.5 84.5v1l30 60q34 -20 62.5 -47.5t49 -61.5t31.5 -73.5t11 -81.5zM382 527q32 -20 50.5 -53.5t18.5 -73.5t-18.5 -73.5t-49.5 -53.5l-31 61q14 12 22.5 29t8.5 37t-8.5 37t-22.5 29v1zM304 703v-608l-202 202h-102v203 h102z" />
<glyph unicode="&#x3c;" horiz-adv-x="837" d="M797 401q0 -56 -14.5 -107t-41.5 -96t-64 -81.5t-82 -61.5l-41 79q69 41 111.5 111t42.5 156t-42.5 156t-111.5 111v2l40 78q45 -26 82.5 -62.5t64.5 -81t41.5 -96t14.5 -107.5zM503 568q41 -26 65.5 -70t24.5 -97t-24.5 -96.5t-65.5 -70.5l-41 80v1q20 15 31 37.5 t11 48.5t-11 48.5t-31 38.5v1zM400 800v-800l-265 266h-135v267h134z" />
<glyph unicode="=" horiz-adv-x="622" d="M503 568q41 -26 65.5 -70t24.5 -97t-24.5 -96.5t-65.5 -70.5l-41 80v1q20 15 31 37.5t11 48.5t-11 48.5t-31 38.5v1zM400 800v-800l-265 266h-135v267h134z" />
<glyph unicode="&#x3e;" horiz-adv-x="420" d="M134 533l266 267v-800l-265 266h-135v267h134z" />
<glyph unicode="?" d="M400 800q83 0 156 -31.5t127 -85.5t85.5 -127t31.5 -156t-31.5 -156t-85.5 -127t-127 -85.5t-156 -31.5t-156 31.5t-127 85.5t-85.5 127t-31.5 156t31.5 156t85.5 127t127 85.5t156 31.5zM352 595l-134 -134h-67v-134h68l133 -133v401zM403 311q20 14 32.5 36t12.5 48 t-12.5 48t-32.5 36l-20 -40v-1q21 -16 21 -43q0 -26 -21 -44zM449 221q46 26 74 71.5t28 102.5q0 56 -28 102t-74 72l-20 -40q35 -20 56 -55.5t21 -78.5t-21 -78.5t-56 -55.5zM495 131q70 39 113 108.5t43 155.5q0 42 -11.5 81.5t-32 73.5t-49 61.5t-63.5 46.5l-20 -39 q59 -33 95 -92.5t36 -131.5t-36 -131.5t-95 -92.5z" />
<glyph unicode="@" d="M667 263q0 1 2 2q0 -3 -2 -2zM302 373q1 1 1 2h2q-1 -2 -3 -2zM319 399l-1 -1v2zM320 400q3 0 3 -1q-2 0 -3 -0.5t0 1.5zM282 397q0 2 1.5 3t1.5 -2q-1 -1 -3 -1zM278 400q4 0 3 -3h-3q-2 0 0 3zM307 404q1 0 3 -2t2 -3h-12q0 -1 -4 -1t-5 2q2 0 4 -0.5t4 0.5l-2 4 q2 0 4.5 -1t5.5 -1q0 2 -0.5 1t0.5 1zM275 418q5 -1 6.5 -3t5.5 -2q1 -2 3.5 -4t-2.5 -3q-8 0 -11 6q-2 0 -5 1.5t-4 3.5q5 -2 7 1zM259 418q1 -3 4 -1q0 -2 -3.5 -2.5t-2.5 3.5h2zM656 364h4q2 0 2 1q5 0 15 2q0 -5 -3 -8.5t-2 -8.5q-3 0 -2.5 -2t0.5 -3q-2 -2 -3 -3.5 t-3 -2.5q0 -2 -4 -5l-5 -6l-5 -6q-4 -3 -4 -6l-2 -2l-4 -4l-4 -5q-1 -2 0 -2q0 -1 -0.5 -4.5t-1 -7.5t0 -7.5t2.5 -3.5q0 -2 2 -11t0 -9q0 -5 -2 -7.5t-2 -6.5q-5 -2 -5 -3q-3 0 -4 -3.5t-3 -3.5q0 -5 -1 -10t-1 -11q1 0 -1.5 -6t-2.5 -7q-3 -2 -8.5 -7.5t-5.5 -8.5 q-1 -2 -3 -5l-4 -6q-2 0 -10 -1.5t-8 -3.5q-3 0 -7.5 -0.5t-6.5 1.5q0 2 -1 5t-2 7q-1 0 -1 3.5t-2 3.5l-2 4q-1 3 -3 7t-3 7l-1 3q0 2 -0.5 5.5t-1.5 3.5q0 5 -2.5 10t-2.5 10q-2 0 -3.5 7.5t0.5 7.5q0 6 1.5 10.5t2.5 10.5q1 8 0 12.5t-3 9.5q-1 2 -2 3q-2 2 -2 3 q-6 4 -6 14q2 2 3 9t1 10q-5 2 -7 1.5t-7 -0.5q-1 3 -5.5 3.5t-9.5 0.5t-10 -0.5t-7 -0.5q0 -3 -8 -0.5t-9 4.5q-3 0 -7.5 4.5t-4.5 7.5q-3 2 -7 10t-4 11q-3 2 -2.5 5.5t2.5 3.5q0 2 -1 5.5t-2 5.5q0 2 1.5 4t1.5 4q0 5 0.5 8.5t3.5 9.5l2 4l2 4q2 4 3 2.5t3 2.5 q2 1 3.5 3.5t3.5 4.5q1 3 0 4q1 0 2.5 4t1.5 6q3 5 2.5 4t2.5 -1q1 1 2.5 3t3.5 2q1 4 6 4q0 -3 4 -1q2 1 5 2q2 2 7 4t7 2q0 3 9.5 1t11.5 -2v2q3 -1 7 -9.5t4 -10.5h8q0 -3 3.5 -4t5.5 -1q3 0 9.5 1t6.5 5q6 0 5 -6q3 0 13.5 -0.5t9.5 -4.5q2 0 3.5 -2.5t3.5 -2.5 q-1 -3 2 -8t5 -5q0 -7 4 -11q2 -4 5 -9.5t6 -7.5q-2 -3 0.5 -5.5t4.5 -5.5q-1 0 0 -2.5t2 -3.5q0 -3 4.5 -11t7.5 -8q1 -2 -1 -2t3 -1zM553 483q0 -6 -3 -4t-7 3q0 2 1 1t3 -1q3 -2 3.5 -1t2.5 2zM532 497q2 0 1.5 -4.5t-5.5 -2.5v4q0 2 2 2q2 -6 2 1zM532 505q2 -1 -1 -6 q-2 2 -1.5 2.5t-0.5 2.5q3 -2 3 1zM336 517q0 2 4 3q0 -3 -4 -3zM487 537q1 0 1 1h3q0 -1 -1.5 -2t-2.5 1zM472 543q-2 2 -1 3.5t2 3.5q-4 2 0.5 2.5t4.5 2.5q-2 0 -2 3q1 2 1.5 0t2.5 -1q2 0 4 1t0 -4t-4 -8t-8 -3zM487 558q0 3 -0.5 3.5t-1.5 4.5q0 5 2.5 3t4.5 3 q3 0 2 -1.5t-2 -1.5v-4q3 0 3.5 1.5t2.5 1.5q0 -2 -1.5 -3.5t1.5 -3.5q4 -4 3 -6q7 0 5 -10q2 0 2 2q2 0 2 -1.5t-2 -1.5q-2 -4 -6 -4.5t-7 -0.5q0 4 -5 3q-3 -1 -2 2t2 5h4q3 0 0 1q0 8 -7 8zM455 603q0 -2 1 -2.5t-1 -2.5q-3 -2 -10 -2q-1 0 -5.5 -1t-4.5 0q-2 0 -4.5 1 t-5.5 1q0 2 2.5 4t-2.5 2q1 0 3 1l4 2q0 -2 1 -2v-3q0 -1 4 0t5 1q5 1 6.5 2.5t1.5 -3.5q3 -1 3 0t2 2zM400 800q83 0 156 -31.5t127 -85.5t85.5 -127t31.5 -156t-31.5 -156t-85.5 -127t-127 -85.5t-156 -31.5t-156 31.5t-127 85.5t-85.5 127t-31.5 156t31.5 156t85.5 127 t127 85.5t156 31.5zM665 517q0 -1 -2 -5.5t2 -4.5q0 -4 3 -6.5t3 -7.5q0 -4 -1 -7.5t5 -5.5q2 -4 6.5 -5t5.5 4q-5 0 -3 4t0 4q0 2 -1 3t-1 3h2h4q0 2 -2 4t-2 4q-2 0 -3.5 -1.5t-1.5 1.5q0 4 -0.5 4t-2.5 2q-1 0 -2 2.5t0 4.5q2 0 2.5 -0.5t2.5 0.5q2 0 3 1q1 0 1.5 0.5 t-0.5 0.5q-2 3 -2.5 5.5t-5.5 0.5q-3 -1 -5 -3t-5 -2zM662 213q29 39 44.5 86.5t15.5 100.5v14q0 6 -1 13q-8 0 -12 2q-8 0 -15 4.5t-15 1.5q0 1 -1 1q0 1 -1 4t-2.5 5.5t-4 3.5t-3.5 -2q-1 -2 1 -5t4 -4q0 -4 2 -6t0.5 -3t-0.5 -3q3 0 3 1t1 5h1q0 -4 1 -6q3 -5 1 -3t0 -2 q9 0 13 10q2 -2 0.5 -3t0.5 -2q4 -4 3 -5q-1 -2 1.5 -3t1.5 4q5 -2 4.5 -6t-3.5 -6q0 -2 -1.5 -3t-1.5 -3q0 -7 -4 -7q0 -2 -7.5 -5.5t-6.5 -5.5q-2 0 -7.5 -2t-7.5 -5q-2 0 -5.5 -1t-4.5 -3q-8 0 -8.5 6t-4.5 6q1 2 0 2t-2 2q1 0 0 4t-3 9l-4 8q-2 5 -2 6q-2 1 -3.5 4.5 t-1.5 5.5q-4 3 -6 11q-2 1 -5.5 5.5t-4.5 7.5q3 -1 6 -0.5t3 3.5q-2 0 -2 2t2 2q-1 2 0 4l2 4q2 6 2 11h-4l-3 -2q0 -2 -3.5 -0.5t-4.5 1.5q-1 2 -6.5 -0.5t-7.5 2.5q-3 3 -3 5.5t-2 7.5q0 2 -7 4q-5 1 -3.5 -4t1.5 -7q3 0 0 -3t-3 -5q-5 2 -5 6t-4 6q-1 2 -1 3t-2 1 q0 2 0.5 5t-1.5 4q0 1 -3 1.5t-4 1.5q-3 0 -8 7t-7 3q-2 -2 -0.5 -3.5t2.5 -3.5q4 2 5 -3.5t6 -3.5q0 -3 1 -5q4 2 4.5 -0.5t2.5 -2.5q-2 -2 -5 0t-1 -2q0 -5 -4 -8q0 2 -0.5 7t-3.5 5q-2 3 -6 3.5t-6 4.5q-2 0 -3 3.5t-4 4.5q-2 -3 -5 -3q-2 -3 -8 -1.5t-6 0.5 q-1 0 -4 -8.5t-4 -10.5q-1 -3 -2.5 -4t-2.5 -5q-1 -2 -8 -1.5t-7 -1.5q-11 4 -11 13q1 4 1 8v6q0 3 1 5q2 0 2 -2q3 1 8 0.5t5 2.5q5 0 3 -4q2 -1 5.5 -1t3.5 4q-3 0 -3 2q5 5 0.5 9t-4.5 7q-2 0 -4 2.5t0 1.5q2 -2 7 -2.5t2 4.5h1l3 -3q2 -2 2 2q2 0 4 1.5t-2 1.5q1 3 1 6 q5 -3 4.5 0t1.5 5q0 -4 2 -1t4 3q2 3 5.5 2.5t4.5 2.5q-2 1 -2.5 5.5t-0.5 6.5q3 -1 6 1.5t3 -0.5v-3q0 -1 1 -3q5 -2 5 1v4q-2 0 -3.5 3.5t-1.5 6.5q-5 -2 -5 -3q-5 0 -8 1.5t-6 1.5q-2 1 -3 3q-3 3 -2 3q-3 5 0 4.5t4 0.5q0 2 3.5 3t7.5 2t7.5 2.5t3.5 4.5q-5 0 1 6 q3 3 7 6t6 5.5t7 2.5q1 0 6 1.5t10.5 2.5t10 1.5t4.5 -0.5h11q9 0 9 -2q2 0 5.5 -1.5t5.5 -0.5q3 2 10.5 -2t7.5 -7q-5 0 -11.5 -1t-12.5 -1q0 -2 0.5 -1t-0.5 -1q2 0 5 -4t2 -6q4 -1 5.5 1t3.5 2q0 -3 2.5 -3.5t3.5 3.5q-3 0 -2.5 2t1.5 2q2 3 4 2t4 3q-45 53 -108 84 t-138 31q-64 0 -120 -23t-100 -64q1 -1 3.5 1t3.5 2q0 -2 -0.5 -3t0.5 -4q1 0 2.5 -3t1.5 -5q7 2 8 -1h-4q1 -6 -2 -4.5t-6 1.5q0 1 -5 2t-1 -4q1 0 1 -1t3 -3q8 -2 12 -2q3 -1 5 -0.5t4 0.5q0 1 3 2.5t-1 1.5q1 4 -4 4q1 2 5 1.5t6 -0.5q2 3 1 3.5t1 3.5t3.5 2t3.5 2 q4 -2 5 -5q1 -1 3 -3.5t4 -4t3.5 -2t1.5 3.5q2 -1 3.5 -4.5t1.5 -6.5q7 1 7 11q-1 0 -1 3q2 1 3.5 0t1.5 1q1 0 1 -2q3 -1 4.5 -0.5t3.5 -0.5q1 0 0.5 -4t-0.5 -6q-1 -2 -4 -2.5t-3 -1.5q-5 -5 1.5 -7t8.5 -4h-3q-3 0 -3 1q-3 0 -8 -1.5t-7 0.5q6 0 6 10q-7 2 -9 -5 q-2 -5 -4.5 -3t-4.5 -1q-1 -1 -4.5 -2.5t-3.5 -0.5q-7 -1 -6.5 -5.5t0.5 -10.5q2 -2 6 -5.5t4 -5.5q5 -2 8.5 -2t8.5 -1q0 -3 4 -3q0 -4 3 -4h5q0 5 3.5 0t3.5 -7q-1 0 0.5 -2.5t1.5 -4.5q-1 0 -1 -2q8 -2 10 3q-2 0 -2 2v4q-3 2 -2.5 4t2.5 3q0 -2 5 0t0 4q1 3 1.5 6.5 t-1.5 5.5q-1 2 -2 1.5t-2 1.5q3 1 2 5.5t-1 6.5q1 1 3 0t2 0q3 0 7 -2t6 3q5 -2 4 -3.5t4 0.5q0 -2 4 -6t5 -4v-1q0 -1 2 -1q0 -2 -0.5 -1.5t-0.5 -1.5q1 0 3.5 -0.5t2.5 1.5q2 0 4 3t2 5q2 1 4 -5.5t4 -6.5l5 -5q3 -3 3 -5q2 -2 2 -4q2 0 3.5 2.5t1.5 -2.5q5 0 7 -6 q-3 0 -2 -1.5t-1 -1.5q0 -3 -4 -2t-6 1q-2 -8 -10.5 -6t-15.5 0q-4 -2 -9.5 -7.5t-5.5 -10.5q5 0 7 3t7 4q3 0 4.5 1.5t4.5 2.5q0 -1 0.5 -1t0.5 -1q-6 0 -4.5 -2.5t3.5 -5.5q3 -5 7 -5q0 -2 -2 -1.5t-2 -1.5q-3 0 -5 -2q-6 -1 -5 -1t1 2q1 -1 2.5 -0.5t0.5 0.5q0 2 -0.5 2 t0.5 2q-4 0 -6 -1t-5 -1q0 -5 -5 -5q-1 -2 -2.5 -5.5t-3.5 -5.5q0 1 -4 -1.5t-3 -2.5q-2 -2 -2.5 -3t-1.5 -4q-1 0 -2 -3.5t-1 -4.5q-2 -2 -3.5 -7t-6.5 -5q-2 -5 -5.5 -6t-3.5 -8q2 -2 2.5 -7.5t0.5 -7.5q2 -7 -3 -7l-3 6q0 2 -1 5.5t-3 5.5t-4.5 0.5t-4.5 0.5q-1 2 -6 2.5 t-7 0.5q0 -2 1 -2.5t1 -2.5q-2 -1 -3.5 -1.5t-3.5 -0.5q-3 1 -4 2.5t-5 1.5q-13 -2 -13 -16q-1 0 -1 -7.5t1 -7.5q0 -4 1.5 -6.5t1.5 -4.5q3 0 6 -4t5 -4q1 -2 0.5 -3t4.5 0l1 1q2 2 2 3q-3 1 -1 3.5t4 3.5q0 -3 2.5 -1t2.5 3h1q1 0 2 1q1 0 3 1q0 3 1.5 1t-0.5 -3 q-2 0 -2.5 -2.5t-1.5 -2.5q-2 -6 -3 -10q-1 -3 0.5 -4t0.5 -4q3 -1 6.5 -0.5t6.5 0.5q0 2 -1 2q5 0 3.5 -5.5t0.5 -5.5q0 -4 1.5 -6.5t1.5 -4.5q4 -4 3 -8h7q4 0 4 3q7 0 5 -7q8 0 6.5 5.5t2.5 5.5q0 4 2 0q2 -1 3 1t3 3l2 1q2 -1 2 -0.5t1 -0.5q3 0 8 3q3 -1 3.5 -5t6.5 -4 q2 0 5.5 -0.5t5.5 1.5q3 0 3 -3q2 0 2.5 -1t1.5 -1h1q0 -1 1 -1.5t2 -2.5q0 -2 2.5 -2.5t2.5 -1.5q2 -2 0.5 -2t3.5 -2q4 -2 8 -2q1 2 2.5 0.5t3.5 -1.5q1 -2 1 -1t1 -1q4 -3 3 -3t1 -4q2 -1 2.5 -4.5t0.5 -5.5q-1 0 -0.5 -3.5t0.5 -4.5q-2 0 2 -1.5t4 2.5q2 0 4 -2t4 -2 q-2 -2 0.5 -3t2.5 3q4 -1 4 -5t-1 -6q4 0 5 1.5t4 1.5q2 0 3.5 -0.5t2.5 1.5q5 -2 7 -3.5t5 -4.5q5 -5 5.5 -13.5t-4.5 -12.5q0 -1 -3.5 -5.5t-4.5 -4.5v-11q0 -2 -1 -8t-2 -6q0 -5 -2 -6.5t-4 -6.5q-2 -2 -6.5 -4t-6.5 -4q-2 0 -3.5 -1.5t-3.5 -1.5q-1 -2 -2 -3l-2 -2 q-1 -3 -0.5 -8t-1.5 -7q-1 -2 -2 -2t0 -2q-2 0 -1.5 -1t-3.5 -1q-2 0 -5 -3t-3 -5q0 -7 -5 -10q0 -2 -3.5 -2.5t-3.5 -3.5v-8q-5 0 -8 -3q-5 0 -6 -1t-5 -3q0 -4 -1 -4q0 -5 -2.5 -3.5t-4.5 -0.5q1 0 2 -2.5t0 -2.5q0 -3 -2 -4.5t-4 -3.5q-1 -1 -1.5 -3t-1.5 -2 q0 -2 -1 -4.5t-1 -4.5q-1 0 1 -2q1 0 1 1t1 1q0 2 1.5 0t-0.5 -2l-3 -3q-1 -1 -2 -5q-3 0 -5 -4.5t1 -4.5q0 -3 2 -5l-14 4l-12 4q0 7 0.5 21t2.5 14q0 2 1 5t2 3q0 4 0.5 7.5t-0.5 7.5q-2 2 0 5t3 7q2 1 3 6.5t1 11.5t0.5 10.5t2.5 4.5q0 12 1.5 20t-0.5 19q-1 0 -1 1 q-1 1 -1 1.5t-1 1.5l-4 4q-6 0 -9.5 6.5t-3.5 11.5q-1 2 -2 4.5t-1 4.5q1 0 -1 3t-4 6.5t-4 5.5l-2 3q-5 3 -2.5 6.5t3.5 8.5q-5 2 -2 10t5 8q0 4 3 4q1 -4 3.5 -0.5t-1.5 3.5v13q0 4 -2.5 8t-5.5 -4q-3 2 -8.5 2.5t-6.5 5.5q1 2 -2.5 6t-5.5 5q2 4 -4.5 8t-10.5 4 q0 2 -1 1.5t-2 0.5q-4 0 -5.5 3.5t-5.5 3.5q-5 0 -9 2t-9 2q-2 3 -6 3t-6 3q-4 0 -5.5 5t-1.5 7q0 3 -2 10.5t-7 7.5q0 2 -3.5 5.5t-5.5 3.5q-1 1 -2 3l-2 4q0 2 -4 6.5t-6 1.5q0 -2 3.5 -5t3.5 -5q1 0 4 -5l3 -7q4 -8 3.5 -9.5t-3 0t-5.5 5t-3 6.5q-2 1 -4.5 6.5t-2.5 7.5 q-2 0 -4 6q-1 3 -2 5q0 10 -11 10l-6 8q0 2 -2.5 6.5t-4.5 6.5q0 4 -1.5 8.5t-0.5 8.5q0 8 -1 16.5t-8 13.5q-31 -64 -31 -137q0 -67 25.5 -125.5t69 -102t102 -69t125.5 -25.5q80 0 147 35t112 95q-5 -1 -7 4t-2.5 12.5t0.5 14.5t2 9l2 -2q1 -1 3 2q-3 1 -3 2t1 3 q2 -1 6 -2t4 4q-5 0 -2 4.5t3 -0.5q5 0 4 3t1 5q0 -2 0.5 -6t2.5 -5q3 -2 0 -3.5t-3 -3.5q-2 -1 -2 -3v-3h-3q0 -4 -1 -8t-1 -7q-2 0 -2 -6v-9zM597 500q2 -1 1 -4q3 0 13.5 1t10.5 3q1 -2 2 -3q2 -2 2 1q2 0 4 -3q1 -2 3 -2t4 1q0 -1 1 -1t4 2q3 1 2.5 2t-2.5 1 q1 8 -3.5 8.5t-6.5 5.5q-2 0 -3.5 1t-4.5 1q-4 0 -5 -2q-5 -2 -4 0.5t-3 2.5q2 6 -4 6h-4q-2 -6 -5 -10t-2 -11z" />
<glyph unicode="A" d="M400 800q83 0 156 -31.5t127 -85.5t85.5 -127t31.5 -156t-31.5 -156t-85.5 -127t-127 -85.5t-156 -31.5t-156 31.5t-127 85.5t-85.5 127t-31.5 156t31.5 156t85.5 127t127 85.5t156 31.5zM490 542q5 1 5 -3q3 0 7 0.5t6 4.5q2 0 2 1.5t-2 1.5q0 -2 -2 -2q2 10 -5 10 q1 2 -3 6q-3 2 -1.5 3.5t1.5 3.5q-2 0 -2.5 -1.5t-3.5 -1.5v4q1 0 2 1.5t-2 1.5q-2 -5 -4.5 -3t-2.5 -3q1 -4 1.5 -4.5t0.5 -3.5q7 0 7 -8q3 -1 0 -1h-4q-1 -2 -2 -5t2 -2zM488 538q0 -1 -1 -1q1 -2 2.5 -1t1.5 2h-3zM530 496q-2 0 -2 -2v-4q5 -2 5.5 2.5t-1.5 4.5 q0 -7 -2 -1zM529 504q1 -2 0.5 -2.5t1.5 -2.5q3 5 1 6q0 -3 -3 -1zM534 477q-2 0 -11.5 2t-9.5 -1q-2 0 -7 -2t-7 -4q-3 -1 -5 -2q-4 -2 -4 1q-5 0 -6 -4q-2 0 -3.5 -2t-2.5 -3q-3 0 -2.5 1t-2.5 -4q0 -2 -1.5 -6t-2.5 -4q1 -1 0 -4q-2 -2 -3.5 -4.5t-3.5 -3.5 q-2 -4 -3 -2.5t-3 -2.5l-2 -4l-2 -4q-3 -6 -3.5 -9.5t-0.5 -8.5q0 -2 -1.5 -4t-1.5 -4q1 -2 2 -5.5t1 -5.5q-2 0 -2.5 -3.5t2.5 -5.5q0 -3 4 -11t7 -10q0 -3 4.5 -7.5t7.5 -4.5q1 -2 9 -4.5t8 0.5q2 0 7 0.5t10 0.5t9.5 -0.5t5.5 -3.5q5 0 7 0.5t7 -1.5q0 -3 -1 -10t-3 -9 q0 -10 6 -14q0 -1 2 -3q1 -1 2 -3q2 -5 3 -9.5t0 -12.5q-1 -6 -2.5 -10.5t-1.5 -10.5q-2 0 -0.5 -7.5t3.5 -7.5q0 -5 2.5 -10t2.5 -10q1 0 1.5 -3.5t0.5 -5.5l1 -3q1 -3 3 -7t3 -7l2 -4q2 0 2 -3.5t1 -3.5q1 -4 2 -7t1 -5q2 -2 6.5 -1.5t7.5 0.5q0 2 8 3.5t10 1.5l4 6 q2 3 3 5q0 3 5.5 8.5t8.5 7.5q0 1 2.5 7t1.5 6q0 6 1 11t1 10q2 0 3 3.5t4 3.5q0 1 5 3q0 4 2 6.5t2 7.5q2 0 0 9t-2 11q-2 0 -2.5 3.5t0 7.5t1 7.5t0.5 4.5q-1 0 0 2l4 5l4 4l2 2q0 3 4 6l5 6l5 6q4 3 4 5q2 1 3 2.5t3 3.5q0 1 -0.5 3t2.5 2q-1 5 2 8.5t3 8.5 q-10 -2 -15 -2q0 -1 -2 -1h-4q-5 1 -3 1t1 2q-3 0 -7.5 8t-4.5 11q-1 1 -2 3.5t0 2.5q-2 3 -4.5 5.5t-0.5 5.5q-3 2 -6 7.5t-5 9.5q-4 4 -4 11q-2 0 -5 5t-2 8q-2 0 -3.5 2.5t-3.5 2.5q1 4 -9.5 4.5t-13.5 0.5q1 6 -5 6q0 -4 -6.5 -5t-9.5 -1q-2 0 -5.5 1t-3.5 4h-8 q0 2 -4 10.5t-7 9.5v-2zM543 482q4 -1 7 -3t3 4q-2 -1 -2.5 -2t-3.5 1q-2 0 -3 1t-1 -1zM667 263q2 -1 2 2q-2 -1 -2 -2zM472 543q6 0 8 3t4 8t0 4t-4 -1q-2 -1 -2.5 1t-1.5 0q0 -3 2 -3q0 -2 -4.5 -2.5t-0.5 -2.5q-1 -2 -2 -3.5t1 -3.5zM425 603q5 0 2.5 -2t-2.5 -4 q3 0 5.5 -1t4.5 -1q0 -1 4.5 0t5.5 1q7 0 10 2q2 2 1 2.5t-1 2.5q-2 -1 -2 -2t-3 0q0 5 -1.5 3.5t-6.5 -2.5q-1 0 -5 -1t-4 0v3q-1 0 -1 2l-4 -2q-2 -1 -3 -1zM652 248q-1 -2 -2 -9t-1 -14t2 -12t7 -5q1 2 2 3t2 3v9q0 5 2 5q0 3 1 7t1 8h3v3q0 2 2 3q0 2 3 3.5t0 3.5 q-2 1 -2.5 5t-0.5 6q-2 -2 -1 -5t-4 -3q0 5 -3 0.5t2 -4.5q0 -5 -4 -4t-6 2q-1 -2 -1 -3t3 -2q-2 -3 -3 -2zM720 427q-4 51 -23 96.5t-51 83.5q-2 -3 -4 -2.5t-4 -2.5q-1 0 -1.5 -2t2.5 -2q-1 -4 -3.5 -3.5t-2.5 3.5q-2 0 -3.5 -2t-5.5 -1q1 2 -2 6t-5 4q1 2 0.5 1t-0.5 1 q6 0 12.5 1t11.5 1q0 3 -7.5 7t-10.5 2q-2 -1 -5.5 0.5t-5.5 1.5q0 2 -9 2h-11q0 1 -4.5 0.5t-10 -1.5t-10.5 -2.5t-6 -1.5q-5 0 -7 -2.5t-6 -5.5t-7 -6q-6 -6 -1 -6q0 -3 -3.5 -4.5t-7.5 -2.5t-7.5 -2t-3.5 -3q-1 -1 -4 -0.5t0 -4.5q-1 0 2 -3q1 -2 3 -3q3 0 6 -1.5t8 -1.5 q0 1 5 3q0 -3 1.5 -6.5t3.5 -3.5v-4q0 -3 -5 -1q-1 2 -1 3v3q0 3 -3 0.5t-6 -1.5q0 -2 0.5 -6.5t2.5 -5.5q-1 -3 -4.5 -2.5t-5.5 -2.5q-2 0 -4 -3t-2 1q-2 -2 -1.5 -5t-4.5 0q0 -3 -1 -6q4 0 2 -1.5t-4 -1.5q0 -4 -2 -2l-3 3h-1q3 -5 -2 -4.5t-7 2.5q-2 1 0 -1.5t4 -2.5 q0 -3 4.5 -7t-0.5 -9q0 -2 3 -2q0 -4 -3.5 -4t-5.5 1q2 4 -3 4q0 -3 -5 -2.5t-8 -0.5q0 2 -2 2q-1 -2 -1 -5v-6q0 -4 -1 -8q0 -9 11 -13q0 2 7 1.5t8 1.5q1 4 2.5 5t2.5 4q1 2 4 10.5t4 8.5q0 1 6 -0.5t8 1.5q3 0 5 3q3 -1 4 -4.5t3 -3.5q2 -4 6 -4.5t6 -3.5q3 0 3.5 -5 t0.5 -7q4 3 4 8q-2 4 1 2t5 0q-2 0 -2.5 2.5t-4.5 0.5q-1 2 -1 5q-5 -2 -6 3.5t-5 3.5q-1 2 -2.5 3.5t0.5 3.5q2 4 7 -3t8 -7q1 -1 4 -1.5t3 -1.5q2 -1 1.5 -4t-0.5 -5q2 0 2 -1t1 -3q4 -2 4 -6t5 -6q0 2 3 5t0 3q0 2 -1.5 7t3.5 4q7 -2 7 -4q2 -5 2 -7.5t3 -5.5 q2 -5 7.5 -2.5t6.5 0.5q1 0 4.5 -1.5t3.5 0.5l3 2h4q0 -5 -2 -11l-2 -4q-1 -2 0 -4q-2 0 -2 -2t2 -2q0 -3 -3 -3.5t-6 0.5q1 -3 4.5 -7.5t5.5 -5.5q2 -8 6 -11q0 -2 1.5 -5.5t3.5 -4.5q0 -1 2 -6l4 -8q2 -5 3 -9t0 -4q1 -2 2 -2t0 -2q4 0 4.5 -6t8.5 -6q1 2 4.5 3t5.5 1 q2 3 7.5 5t7.5 2q-1 2 6.5 5.5t7.5 5.5q4 0 4 7q0 2 1.5 3t1.5 3q3 2 3.5 6t-4.5 6q1 -5 -1.5 -4t-1.5 3q1 1 -3 5q-2 1 -0.5 2t-0.5 3q-4 -10 -13 -10q-2 4 0 2t-1 3q-1 2 -1 6h-1q-1 -4 -1 -5t-3 -1q-1 2 0.5 3t-0.5 3t-2 6q-2 1 -4 4t-1 5q1 3 3.5 2t4 -3.5t2.5 -5.5 t1 -4q1 0 1 -1q8 3 15 -1.5t15 -4.5q4 -2 11 -2zM181 635q-23 -20 -40.5 -45t-31.5 -53q7 -5 8 -13.5t1 -16.5q-1 -4 0.5 -8.5t1.5 -8.5q2 -2 4.5 -6.5t2.5 -6.5l6 -8q11 0 11 -10q1 -2 2 -5q2 -6 4 -6q0 -2 2.5 -7.5t4.5 -6.5q0 -3 3 -6.5t5.5 -5t3 0t-3.5 9.5l-3 7 q-3 5 -4 5q0 2 -3.5 5t-3.5 5q2 3 6 -1.5t4 -6.5l2 -4q1 -2 2 -3q2 0 5.5 -3.5t3.5 -5.5q5 0 7 -7.5t2 -10.5q0 -2 1.5 -7t5.5 -5q2 -3 6 -3t6 -3q5 0 9 -2t9 -2q4 0 5.5 -3.5t5.5 -3.5q1 -1 2 -0.5t1 -1.5q4 0 10.5 -4t4.5 -8q2 -1 5.5 -5t2.5 -6q1 -5 6.5 -5.5t8.5 -2.5 q3 8 5.5 4t2.5 -8v-13q4 0 1.5 -3.5t-3.5 0.5q-3 0 -3 -4q-2 0 -5 -8t2 -10q-1 -5 -3.5 -8.5t2.5 -6.5l2 -3q2 -2 4 -5.5t4 -6.5t1 -3q0 -2 1 -4.5t2 -4.5q0 -5 3.5 -11.5t9.5 -6.5l4 -4q1 -1 1 -1.5t1 -1.5q0 -1 1 -1q2 -11 0.5 -19t-1.5 -20q-2 0 -2.5 -4.5t-0.5 -10.5 t-1 -11.5t-3 -6.5q-1 -4 -3 -7t0 -5q1 -4 0.5 -7.5t-0.5 -7.5q-1 0 -2 -3t-1 -5q-2 0 -2.5 -13.5t-0.5 -21.5l12 -4l13 -4q0 2 -0.5 2.5t-0.5 2.5q-3 0 -1 4.5t5 4.5q1 4 2 5l3 3q2 0 0.5 2t-1.5 0q-1 0 -1 -1t-1 -1q-2 2 -1 2q0 2 1 4.5t1 4.5q1 0 1.5 2t1.5 3q2 2 4 3.5 t2 4.5q1 0 0 2.5t-2 2.5q2 2 4.5 0.5t2.5 3.5q1 0 1 4q4 2 5 3t6 1q3 3 8 3v8q0 3 3.5 3.5t3.5 2.5q5 3 5 10q0 2 3 5t5 3q4 0 3.5 1t1.5 1q-1 2 0 2t2 2q2 2 1.5 7t0.5 8l2 2q1 1 2 3q2 0 3.5 1.5t3.5 1.5q2 2 6.5 4t6.5 4q2 5 4 6.5t2 6.5q1 0 2 6t1 8v11q1 0 4.5 4.5 t3.5 5.5q5 4 4.5 12.5t-5.5 13.5q-3 3 -5 4.5t-7 3.5q-1 -2 -2.5 -1.5t-3.5 0.5q-3 0 -4 -1.5t-5 -1.5q1 2 1 6t-4 5q0 -4 -2.5 -3t-0.5 3q-2 0 -4 2t-4 2q0 -4 -4 -2.5t-2 1.5q0 1 -0.5 4.5t0.5 3.5q0 2 -0.5 5.5t-2.5 4.5q-2 4 -1 4t-3 3q-1 2 -1 1t-1 1q-2 0 -3.5 1.5 t-2.5 -0.5q-4 0 -8 2q-5 2 -3.5 2t-0.5 2q0 1 -2.5 1.5t-2.5 2.5q-1 2 -2 2.5t-1 1.5h-1q-1 0 -1.5 1t-2.5 1q0 3 -3 3q-2 -2 -5.5 -1.5t-5.5 0.5q-6 0 -6.5 4t-3.5 5q-5 -3 -8 -3q-1 1 -1 0.5t-2 0.5l-2 -1q-2 -1 -3 -3t-3 -1q-2 4 -2 0q-4 0 -2.5 -5.5t-6.5 -5.5q2 7 -5 7 q0 -3 -4 -3h-7q1 4 -3 8q0 2 -1.5 4.5t-1.5 6.5q-2 0 -0.5 5.5t-3.5 5.5q1 0 1 -2q-3 0 -6.5 -0.5t-6.5 0.5q1 3 -0.5 4t-0.5 4q1 4 3 10q1 0 1.5 2.5t2.5 2.5q2 1 0.5 3t-1.5 -1q-2 -1 -3 -1q-1 -1 -2 -1h-1q0 -1 -2.5 -3t-2.5 1q-2 -1 -4 -3.5t1 -3.5q0 -1 -2 -3l-1 -1 q-5 -1 -4.5 0t-0.5 3q-2 0 -5 4t-6 4q0 2 -1.5 4.5t-1.5 6.5q-1 0 -1 7.5t1 7.5q0 14 13 16q4 0 5 -1.5t4 -2.5q2 0 3.5 0.5t3.5 1.5q0 2 -1 2.5t-1 2.5q2 0 7 -0.5t6 -2.5q2 -2 4.5 -0.5t4.5 -0.5t3 -5.5t1 -5.5l3 -6q5 0 3 7q0 2 -0.5 7.5t-2.5 7.5q0 7 3.5 8t5.5 6 q5 0 6.5 5t3.5 7q0 1 1 4.5t2 3.5q1 3 1.5 4t2.5 3q-1 0 3 2.5t4 1.5q2 2 3.5 5.5t2.5 5.5q5 0 5 5q3 0 5 1t6 1q-1 -2 -0.5 -2t0.5 -2q1 0 -0.5 -0.5t-2.5 0.5q0 -2 -1 -2t5 1q2 2 5 2q0 2 2 1.5t2 1.5q-4 0 -7 5q-2 3 -3.5 5.5t4.5 2.5q0 1 -0.5 1t-0.5 1q-3 -1 -4.5 -2.5 t-4.5 -1.5q-5 -1 -7 -4t-7 -3q0 5 5.5 10.5t9.5 7.5q7 2 15.5 0t10.5 6q2 0 6 -1t4 2q2 0 1 1.5t2 1.5q-2 6 -7 6q0 5 -1.5 2.5t-3.5 -2.5q0 2 -2 4q0 2 -3 5l-5 5q-2 0 -4 6.5t-4 5.5q0 -2 -2 -5t-4 -3q0 -2 -2.5 -1.5t-3.5 0.5q0 2 0.5 1.5t0.5 1.5q-2 0 -2 1v1q-1 0 -5 4 t-4 6q-5 -2 -4 -0.5t-4 3.5q-2 -5 -6 -3t-7 2q0 -1 -2 0t-3 0q0 -2 1 -6.5t-2 -5.5q1 -2 2 -1.5t2 -1.5q2 -2 1.5 -5.5t-1.5 -6.5q5 -2 0 -4t-5 0q-2 -1 -2.5 -3t2.5 -4v-4q0 -2 2 -2q-2 -5 -10 -3q0 2 1 2q0 2 -1.5 4.5t-0.5 2.5q0 2 -3.5 7t-3.5 0h-5q-3 0 -3 4q-4 0 -4 3 q-5 1 -8.5 1t-8.5 2q0 2 -4 5.5t-6 5.5q0 6 -0.5 10.5t6.5 5.5q0 -1 3.5 0.5t4.5 2.5q2 3 4.5 1t4.5 3q2 7 9 5q0 -10 -6 -10q2 -2 7 -0.5t8 1.5q0 -1 3 -1h3q-2 2 -8.5 4t-1.5 7q0 1 3 1.5t4 2.5q0 2 0.5 6t-0.5 4q-2 1 -3.5 0.5t-4.5 0.5q0 2 -1 2q0 -2 -1.5 -1t-3.5 0 q0 -3 1 -3q0 -10 -7 -11q0 3 -1.5 6.5t-3.5 4.5q0 -4 -1.5 -3.5t-3.5 2t-4 4t-3 3.5q-1 3 -5 5q-2 -3 -3.5 -2t-3.5 -2t-1 -3.5t-1 -3.5q-2 0 -6 0.5t-5 -1.5q5 0 4 -4q4 0 1 -1.5t-3 -2.5q-2 0 -4 -0.5t-5 0.5q-4 0 -12 2q-3 2 -3 3t-1 1q-4 5 1 4t5 -2q3 0 6 -1.5t2 4.5h4 q-1 3 -8 1q0 2 -1.5 5t-2.5 3q-1 3 -0.5 4t0.5 3q-1 0 -2.5 -1t-3.5 -2zM340 520q-4 -1 -4 -3q4 0 4 3zM323 399q0 1 -3 1q-1 -2 0 -1.5t3 0.5zM312 399q0 1 -2 3t-3 2q-1 -2 -0.5 -1t0.5 -1q-3 0 -5.5 1t-4.5 1l2 -4q-2 -1 -4 -0.5t-4 0.5q1 -2 5 -2t4 1h12zM303 375 q0 -1 -1 -2q2 0 3 2h-2zM277 412q3 -6 11 -6q5 1 2.5 3t-3.5 4q-4 0 -5.5 2t-6.5 3q-2 -3 -7 -1q1 -2 4 -3.5t5 -1.5zM285 398q0 3 -1.5 2t-1.5 -3q2 0 3 1zM281 397q1 3 -3 3q-2 -3 0 -3h3zM263 417q-3 -2 -4 1h-2q-1 -4 2.5 -3.5t3.5 2.5zM319 399l-1 -1v2zM642 498 q5 0 0 -3t-5 -1q-5 -2 -7 1t-4 3q0 -3 -2 -1q-1 1 -2 3q0 -2 -10.5 -3t-13.5 -1q1 3 -1 4q-1 7 2 11t5 10q10 2 8 -6q4 0 3 -2.5t4 -0.5q1 2 5 2q3 0 4.5 -1t3.5 -1q2 -5 6.5 -5.5t3.5 -8.5zM665 507q-3 0 -3 2q0 1 1 3q2 4 2 5q3 0 5 2t5 3q2 1 4 1q1 0 1 -1q1 -3 3 -6 q1 0 0.5 -0.5t-1.5 -0.5q-1 -1 -3 -1q-2 -1 -2.5 -0.5t-2.5 0.5q-1 -2 0 -4.5t2 -2.5q2 -2 2.5 -2t0.5 -4q0 -3 1.5 -1.5t3.5 1.5q0 -2 2 -4t2 -4h-4h-2q0 -2 1 -3t1 -3q2 0 0 -4t3 -4q-1 -4 -4 -4h-1q-5 1 -7 5q-6 2 -5 5.5t1 7.5q0 5 -3 7.5t-3 6.5z" />
<glyph unicode="B" horiz-adv-x="939" d="M517 601v-191l161 -100l-26 -41l-183 114v218h48zM494 800q83 0 156 -31.5t127 -85.5t85.5 -127t31.5 -156t-31.5 -156t-85.5 -127t-127 -85.5t-156 -31.5q-97 0 -178 41.5t-136 111.5l32 32l47 47q40 -55 101 -88t134 -33q60 0 112.5 23t91.5 62t62 91.5t23 112.5 t-23 112.5t-62 91.5t-91.5 62t-112.5 23t-112.5 -23t-91.5 -62t-62 -91.5t-23 -112.5v-2h95l-150 -150l-150 150h94v2q0 83 31.5 156t85.5 127t127 85.5t156 31.5z" />
<glyph unicode="C" d="M594 310q6 -4 7.5 -10.5t-2.5 -11.5l-23 -37q-5 -6 -11 -8h-3q-6 0 -10 3l-184 123q-2 1 -4 3q-5 5 -5 12v217q0 7 5 12t11 5h44q7 0 12 -5t5 -12v-184zM400 800q83 0 156 -31.5t127 -85.5t85.5 -127t31.5 -156t-31.5 -156t-85.5 -127t-127 -85.5t-156 -31.5t-156 31.5 t-127 85.5t-85.5 127t-31.5 156t31.5 156t85.5 127t127 85.5t156 31.5zM400 100q62 0 116.5 23.5t95.5 64.5t64.5 95.5t23.5 116.5t-23.5 116.5t-64.5 95.5t-95.5 64.5t-116.5 23.5t-116.5 -23.5t-95.5 -64.5t-64.5 -95.5t-23.5 -116.5t23.5 -116.5t64.5 -95.5t95.5 -64.5 t116.5 -23.5z" />
<glyph unicode="D" horiz-adv-x="1046" d="M996 115h-427l115 -115h-372l115 115h-427v685h996v-685zM886 689h-775v-463h775v463z" />
<glyph unicode="E" horiz-adv-x="495" d="M471 55h-202l55 -55h-177l55 55h-202v323h226l-202 234h157v188h104v-188h157l-202 -234h231v-323zM412 319h-353v-205h353v205z" />
<glyph unicode="F" d="M279 347h240v-140h-240v140zM400 800q83 0 156 -31.5t127 -85.5t85.5 -127t31.5 -156t-31.5 -156t-85.5 -127t-127 -85.5t-156 -31.5t-156 31.5t-127 85.5t-85.5 127t-31.5 156t31.5 156t85.5 127t127 85.5t156 31.5zM560 387h-158l138 160h-107v128h-71v-128h-107 l138 -160h-155v-220h138l-37 -37h120l-37 37h138v220z" />
<glyph unicode="G" horiz-adv-x="960" d="M896 800q8 0 13.5 -5t5.5 -13v-650q0 -8 -5.5 -13t-13.5 -5h-358v-53l83 -51q7 -5 6 -7.5t-9 -2.5h-319q-17 0 -2 10l80 51v53h-359q-8 0 -13 5t-5 13v650q0 8 5 13t13 5h878zM838 705q0 8 -5 13.5t-13 5.5h-725q-8 0 -13.5 -5.5t-5.5 -13.5v-408q0 -8 5.5 -13t13.5 -5 h725q8 0 13 5t5 13v408z" />
<glyph unicode="H" horiz-adv-x="630" d="M110 561q-9 11 -5.5 18t17.5 7h85h33v181q0 14 9.5 23.5t23.5 9.5h39q14 0 23.5 -9.5t9.5 -23.5v-181h33h85q14 0 17 -7t-5 -18l-161 -192q-9 -11 -22 -11q-12 0 -21 11zM588 525q12 0 12 -12v-426q0 -12 -12 -12h-235v-35l55 -34q4 -2 3.5 -4t-5.5 -2h-209q-5 0 -6 2 t4 4l52 34v35h-235q-12 0 -12 12v426q0 12 12 12h42q2 -2 2.5 -3.5t2.5 -3.5l36 -43h-33q-5 0 -8.5 -3.5t-3.5 -8.5v-268q0 -12 12 -12h476q12 0 12 12v268q0 5 -3.5 8.5t-8.5 3.5h-48l36 43q2 2 2.5 3.5t2.5 3.5h57z" />
<glyph unicode="I" horiz-adv-x="991" d="M943 800v-800h-236v84q0 17 -9 26t-24.5 13.5t-36.5 5t-46 0.5h-119h-120q-24 0 -45 -0.5t-36.5 -5t-24.5 -13.5t-9 -26v-84h-237v800h472h471zM883 739h-826v-528h826v528z" />
<glyph unicode="J" horiz-adv-x="991" d="M116 681h708v-435h-708v435zM943 800v-800h-236v84q0 17 -9 26t-24.5 13.5t-36.5 5t-46 0.5h-119h-120q-24 0 -45 -0.5t-36.5 -5t-24.5 -13.5t-9 -26v-84h-237v800h472h471zM891 748h-419h-420v-696h132v32q0 34 19 57.5t53 32.5q21 6 45.5 7t50.5 1h120h119q26 0 51 -1 t45 -7q35 -9 53.5 -32.5t18.5 -57.5v-32h132v696z" />
<glyph unicode="K" horiz-adv-x="991" d="M943 800v-800h-236v84q0 17 -9 26t-24.5 13.5t-36.5 5t-46 0.5h-119h-120q-24 0 -45 -0.5t-36.5 -5t-24.5 -13.5t-9 -26v-84h-237v800h472h471zM883 739h-826v-528h826v528zM248 429q47 42 104.5 62.5t117 20.5t117 -20.5t105.5 -62.5l-44 -43q-39 32 -85 48t-93.5 16 t-93.5 -16.5t-84 -48.5zM749 487q-60 53 -132.5 79.5t-147.5 26.5t-147 -26.5t-132 -79.5l-43 43q64 61 149 92t174 32h3q87 0 171 -31q85 -31 149 -92zM349 328q53 41 121 41t121 -41l-38 -37q-37 23 -84 23q-46 0 -83 -23z" />
<glyph unicode="L" horiz-adv-x="1496" d="M221 306q105 91 231.5 136.5t258 45.5t258.5 -45.5t233 -136.5l-97 -97q-86 71 -187.5 106.5t-206.5 35.5t-206.5 -35.5t-185.5 -107.5zM0 527q94 91 210 151.5t243 91t259.5 30.5t259.5 -30t243 -90.5t210 -150.5l-97 -97q-88 78 -189.5 130.5t-209 78.5t-219 26 t-219 -26t-208.5 -78.5t-188 -130.5zM896 0q-41 25 -87.5 38.5t-97.5 13.5t-97.5 -13.5t-87.5 -37.5l-81 81q57 45 125 68q65 23 137 23h6q73 0 140.5 -23t124.5 -68z" />
<glyph unicode="M" d="M792 158q8 -5 8 -12q0 -5 -4 -10l-120 -120q-6 -5 -15 -9.5t-17 -5.5h-13q-48 0 -105 19q-28 9 -61.5 25t-72 40t-81 58t-88.5 80t-80 88.5t-58 81t-40 72t-25 61.5q-19 57 -19 105v13q1 8 5.5 17t9.5 15l121 120q4 4 9 4h2q6 -1 10 -8l97 -183q3 -7 1 -16t-7 -14 l-44 -44q-5 -5 -9 -14.5t-4 -17.5q2 -20 15 -48q11 -24 35.5 -59.5t71.5 -81.5q46 -47 81.5 -71.5t59.5 -35.5q28 -13 48 -15q8 0 17.5 4t14.5 9l52 52q5 5 14 7t15 -2z" />
<glyph unicode="N" horiz-adv-x="839" d="M597 376q-4 46 -23.5 87t-51 72.5t-72.5 51t-88 23.5v58q58 -4 109.5 -28t91 -63t63.5 -91t29 -110h-58zM730 376q-5 74 -35 139.5t-79.5 115t-114.5 79.5t-139 34v56q83 -1 159.5 -36.5t135 -94t94 -135t37.5 -158.5h-58zM362 535q63 -8 108 -53q22 -22 34.5 -49 t17.5 -57h-49q-11 40 -40 71q-15 15 -33 24.5t-38 14.5v49zM791 158q8 -5 8 -13q0 -5 -4 -9l-120 -120q-6 -5 -15 -9.5t-17 -5.5h-13q-48 0 -105 19q-28 9 -61.5 25t-71.5 40t-80.5 58t-88.5 80t-80 88.5t-58 80.5t-40 71.5t-25 61.5q-19 57 -19 105v13q1 8 5.5 17t9.5 15 l120 119q5 5 10 5q6 0 11 -8l97 -183q4 -7 2 -15.5t-7 -14.5l-44 -44q-6 -5 -10 -14t-4 -17q2 -21 15 -49q11 -24 36 -59t72 -81q46 -47 81 -71.5t59 -35.5q28 -13 48 -15q8 0 17.5 4t14.5 9l52 52q5 5 14 7t16 -3z" />
<glyph unicode="O" horiz-adv-x="1186" d="M485 81q17 16 38 24.5t43 8.5t43 -8.5t38 -24.5l-81 -81zM1130 564l-72 -71l-2 2q-102 102 -230 153t-262 51t-262 -51t-230 -153h-1l-71 71l1 1q78 78 170 129.5t191 77.5t202 26t202 -26t191 -77.5t170 -129.5zM162 404q84 83 188.5 124.5t213.5 41.5t214 -42t188 -125 l1 -1l-71 -72q0 1 -1 1q-68 69 -154.5 103t-176 34t-176 -34t-154.5 -102zM323 243q50 50 113 75t128.5 25t128.5 -25t113 -75q1 0 1 -0.5t1 -0.5l-72 -72q0 1 -0.5 1t-0.5 1q-35 35 -79.5 52.5t-91 17.5t-91 -17.5t-79.5 -52.5z" />
<glyph unicode="P" horiz-adv-x="1590" d="M970 221h-749v358h346zM1514 241l-113 -45v-196h-1401v800h1401v-196l113 -45v-318zM1268 666h-1134v-532h1134v532z" />
<glyph unicode="Q" horiz-adv-x="1589" d="M604 403l-383 -157l417 314l157 -157l383 157l-418 -314zM1514 559v-318l-113 -44v-197h-1401v800h1401v-197zM1268 666h-1134v-532h1134v532z" />
<glyph unicode="R" horiz-adv-x="1589" d="M1175 221h-954v358h954v-358zM1514 241l-113 -44v-197h-1401v800h1401v-197l113 -44v-318zM1268 666h-1134v-532h1134v532z" />
<glyph unicode="S" horiz-adv-x="2564" d="M0 0l1066 800l399 -400l977 400l-1066 -800l-399 400z" />
<glyph unicode="T" horiz-adv-x="560" d="M344 466h156l-500 -466l234 378l-156 -1l455 423z" />
<glyph unicode="U" horiz-adv-x="1210" d="M1013 437q31 -13 56.5 -34.5t44 -48.5t28.5 -59.5t10 -67.5q0 -47 -17.5 -88.5t-48.5 -72t-72 -48.5t-88 -18q-4 0 -7 0.5t-6 0.5h-680h-1h-1h-2q-48 1 -89.5 19.5t-72.5 50t-49 73t-18 89.5q0 64 31.5 116.5t82.5 82.5q-7 21 -7 48q0 33 12.5 61.5t34 50t50 34 t61.5 12.5q27 0 52 -9t45 -25q21 43 52.5 79.5t71.5 62t87 40t98 14.5q71 0 133.5 -27t109 -73.5t73.5 -109t27 -133.5q0 -5 -0.5 -10t-0.5 -10z" />
<glyph unicode="V" horiz-adv-x="1210" d="M1013 437q31 -13 56.5 -34.5t44 -48.5t28.5 -59.5t10 -67.5q0 -47 -17.5 -88.5t-48.5 -72t-72 -48.5t-88 -18q-4 0 -7 0.5t-6 0.5h-275v223h42h105q17 0 21.5 9t-6.5 23l-200 239q-11 14 -27 14t-27 -14l-200 -239q-11 -14 -6.5 -23t21.5 -9h105h42v-223h-275h-1h-1h-2 q-48 1 -89.5 19.5t-72.5 50t-49 73t-18 89.5q0 64 31.5 116.5t82.5 82.5q-7 21 -7 48q0 33 12.5 61.5t34 50t50 34t61.5 12.5q27 0 52 -9t45 -25q21 43 52.5 79.5t71.5 62t87 40t98 14.5q71 0 133.5 -27t109 -73.5t73.5 -109t27 -133.5q0 -5 -0.5 -10t-0.5 -10z" />
<glyph unicode="W" horiz-adv-x="1104" d="M730 272q11 -12 7 -20.5t-20 -8.5h-96h-38v-205q0 -16 -11 -27t-27 -11h-44q-16 0 -27 11t-11 27v205h-38h-96q-16 0 -20 8.5t7 20.5l183 218q9 12 24 12t24 -12zM924 468q57 -23 92.5 -74.5t35.5 -116.5q0 -43 -16.5 -80.5t-44.5 -65.5t-65.5 -44.5t-80.5 -16.5h-12 h-163v85h47q33 0 59 15.5t40 43.5q9 20 9 41q0 9 -1 17q-5 30 -27 56l-183 219q-17 20 -41 31.5t-50 11.5t-50 -11.5t-42 -31.5l-183 -219q-21 -26 -26 -56q-1 -8 -1 -17q0 -21 9 -41q14 -28 40 -43.5t59 -15.5h47v-85h-163h-1h-1h-2v1q-44 0 -82 17t-66 45.5t-44.5 66.5 t-16.5 82q0 59 28.5 107t75.5 75q-3 11 -5 22t-2 22q0 30 11.5 56t31 45.5t46 31t56.5 11.5q25 0 47.5 -8t40.5 -22q19 39 48 72t65.5 56.5t79 36.5t89.5 13q65 0 122 -24.5t99.5 -67t67 -99.5t24.5 -122v-9q0 -5 -1 -10z" />
<glyph unicode="X" horiz-adv-x="1072" d="M696 252q15 0 19 -8.5t-6 -19.5l-178 -212q-9 -12 -23 -12t-24 12l-177 212q-10 11 -6.5 19.5t19.5 8.5h93h37v199q0 15 10.5 26t26.5 11h42q15 0 26 -11t11 -26v-199h37h93zM897 478q27 -11 50 -30t39.5 -43t25.5 -53t9 -60q0 -42 -16 -78.5t-43 -63.5t-63.5 -43 t-78.5 -16q-2 0 -5 0.5t-6 0.5h-100l65 77q21 26 26 55q1 8 1 16q0 20 -9 40q-13 27 -38.5 42t-57.5 15h-45v114q0 25 -9.5 47.5t-26 39t-39 26t-47.5 9.5h-42q-26 0 -48 -9.5t-38.5 -26t-26 -39t-9.5 -47.5v-114h-45q-33 0 -58.5 -15t-37.5 -42q-10 -20 -10 -41q0 -8 2 -15 q4 -29 25 -55l65 -77h-99q-1 0 -1 -1l-1 1h-2q-42 0 -79 16.5t-64.5 44.5t-43.5 65t-16 79q0 57 28 103.5t73 73.5q-6 19 -6 42q0 29 11 54.5t30 44.5t44.5 30t54.5 11q24 0 46 -7.5t39 -21.5q18 38 46.5 70t64 55t77.5 35.5t87 12.5q63 0 118 -24t96 -65t65 -96.5 t24 -118.5v-9q0 -4 -1 -9z" />
<glyph unicode="Y" horiz-adv-x="1203" d="M1009 441q30 -14 55 -35t43 -48.5t28 -60t10 -67.5q0 -48 -18 -89.5t-49.5 -73t-73 -49.5t-89.5 -18q-3 0 -6.5 0.5t-5.5 0.5h-667h-1h-11q-47 2 -88 21.5t-71 51t-47.5 73.5t-17.5 89q0 63 30 115.5t80 83.5q-5 23 -5 43q0 34 13 63.5t35 51.5t51.5 35t63.5 13 q26 0 48.5 -7.5t42.5 -21.5q21 42 53 76.5t71.5 59.5t85.5 38.5t96 13.5q71 0 134 -27t109.5 -73.5t73.5 -109.5t27 -134v-15zM915 78q31 0 59 12.5t48.5 33t32.5 48t12 58.5q0 47 -25.5 85t-68.5 56l-46 19l3 50v6q1 3 1 10q0 55 -21 103t-57 84t-84.5 57t-103.5 21 q-38 0 -74 -10.5t-67 -30t-56.5 -48t-41.5 -62.5l-38 -79l-69 54q-23 17 -51 17q-18 0 -33.5 -6.5t-27 -18t-18 -27t-6.5 -32.5q0 -14 4 -25l16 -53l-47 -29q-37 -22 -57.5 -57.5t-20.5 -77.5q0 -32 12.5 -60t33.5 -49.5t49 -34t60 -13.5h2h1h667h2h2h5q1 0 1.5 -0.5 t1.5 -0.5z" />
<glyph unicode="Z" horiz-adv-x="818" d="M176 0l158 255h-106l308 284l-128 -225h105zM686 556q42 -19 67.5 -57t25.5 -86q0 -33 -12.5 -61.5t-33.5 -49.5t-49.5 -33.5t-61.5 -12.5q-2 0 -4 0.5t-4 0.5h-68l11 10l46 43h11h1h1h4q1 0 2 -1q21 0 40 8.5t33 22.5t22 33t8 43q0 30 -17 54q-17 26 -46 38l-32 13l2 34 l1 4v7q0 37 -14 70t-39 58t-58 39t-70 14q-52 0 -95.5 -28t-66.5 -75l-26 -54l-47 36q-15 12 -35 12q-24 0 -40.5 -16.5t-17.5 -40.5q0 -10 3 -17l11 -36l-32 -20q-25 -14 -39 -38t-14 -53q0 -22 8.5 -41t22.5 -33.5t33.5 -23.5t40.5 -9h2h1h32l-9 -8l-47 -44q-29 4 -54 18 t-43.5 35t-29 48.5t-10.5 57.5q0 43 20.5 78.5t54.5 56.5q-4 12 -4 29q0 23 9 43t24 35t35 24t43 9q36 0 62 -20q15 28 36.5 52t48.5 40.5t58 26t65 9.5q49 0 91.5 -18.5t74 -50t50 -74.5t18.5 -91v-10z" />
<glyph unicode="[" horiz-adv-x="721" d="M687 724v-469q-1 -23 -12.5 -43.5t-30.5 -36t-45 -24.5t-55 -9q-30 0 -56.5 9t-46 25t-30.5 36.5t-11 44.5t11 45t30.5 36.5t46 24.5t56.5 9q34 0 63 -12v281l-320 -77v-451h-1q0 -24 -11.5 -44.5t-31 -35.5t-45 -24t-55.5 -9t-56 9t-45.5 24.5t-30.5 36.5t-11 45 t11 44.5t30.5 36.5t45.5 25t56 9q17 0 33 -3.5t31 -8.5v468h1l399 95l80 19v-76z" />
<glyph unicode="\" horiz-adv-x="481" d="M458 800v-166l-147 -35v-476q0 -26 -12.5 -48t-33.5 -39t-49 -26.5t-60 -9.5t-60.5 10t-49.5 27t-33.5 39.5t-12.5 48.5t12.5 48.5t33.5 39.5t49.5 27t60.5 10q18 0 35.5 -3.5t32.5 -9.5v508h2z" />
<glyph unicode="]" horiz-adv-x="960" d="M914 0h-914v343l172 457h571l171 -457v-343zM800 343l-114 353h-457l-115 -353h217l53 -104h142l58 104h216z" />
<glyph unicode="^" horiz-adv-x="960" d="M401 800h112v-238h169l-225 -260l-225 260h169v238zM914 0h-914v343l172 457h153v-104h-96l-115 -353h217l53 -104h142l58 104h216l-114 353h-96v104h153l171 -457v-343z" />
<glyph unicode="_" horiz-adv-x="960" d="M682 540h-169v-238h-112v238h-169l225 260zM914 0h-914v343l172 457h191l-75 -104h-60l-114 -353h216l54 -104h142l58 104h216l-114 353h-60l-75 104h192l171 -457v-343z" />
<glyph unicode="`" horiz-adv-x="1713" d="M521 466q-25 3 -63.5 5.5t-98.5 2.5v-157l-359 241l359 242v-145q115 -14 207 -54q39 -17 76 -42t66 -59.5t47 -80t18 -102.5q-18 35 -51 65q-29 26 -77.5 50.5t-123.5 33.5zM1273 317v157q-60 0 -98.5 -2.5t-63.5 -5.5q-75 -9 -124 -33.5t-78 -50.5q-33 -30 -51 -65 q0 57 17.5 102.5t47 80t66.5 59.5t76 42q92 40 208 54v145l359 -242zM714 584q-50 43 -122 75l-9 3l-9 4l2 5h479l2 -5l-9 -4l-9 -3q-35 -16 -65 -35t-56 -40h-204zM1069 393q11 3 23.5 5.5t26.5 4.5q8 1 17 1.5t18 1.5l44 -118l1 -288h-767v287l44 119q10 -1 19.5 -1.5 t17.5 -1.5q14 -2 26 -4.5t23 -4.5l-34 -106h181l45 -88h119l49 88h181z" />
<glyph unicode="a" horiz-adv-x="466" d="M443 222v-3q0 -45 -18 -85t-48 -70t-70 -47t-85 -17t-85 16.5t-70 45.5t-48 68t-19 84v5v407q0 36 13.5 67.5t37.5 55.5t55.5 37.5t67.5 13.5t67.5 -13.5t55.5 -37.5t37.5 -55.5t13.5 -67.5v-193v-209v-3v-3v-2h-1q-1 -25 -11 -46.5t-26.5 -37.5t-38 -25t-46.5 -9t-47 9 t-38.5 25t-26.5 37.5t-11 46.5v4l-1 1l1 1v355h44v-355v-2v-4v2q2 -32 24.5 -53.5t54.5 -21.5t54 21.5t24 53.5v-2v2v1v2v2v1v293v109q0 27 -10 50.5t-27.5 41t-41 27.5t-50.5 10t-50.5 -10t-41 -27.5t-27.5 -41t-10 -50.5v-407q0 -36 14 -67.5t38 -55.5t56.5 -37.5 t68.5 -13.5t68 13.5t56 37.5t38.5 55.5t14.5 67.5v3v354v3l44 -1v-2v-354z" />
<glyph unicode="b" horiz-adv-x="416" d="M198 800q41 0 77.5 -15.5t63.5 -42.5t42.5 -63t15.5 -77v-1l-1 1v-220v-238v-4v-3v-3q-1 -28 -12.5 -52.5t-30.5 -42.5t-44 -28.5t-53 -10.5t-53 10.5t-44 28.5t-30.5 42.5t-12.5 52.5v5v1v1v404h50v-404v-2v-5q0 1 1 2q2 -36 27.5 -60.5t61.5 -24.5t61.5 24.5t27.5 60.5 v-2v3v1v2v2v1v1v334h1v124q0 30 -11.5 57t-31.5 47t-47 31.5t-58 11.5q-30 0 -57 -11.5t-47 -31.5t-31.5 -47t-11.5 -57v-469h-51v468v1q0 41 15.5 77t42.5 63t63 42.5t77 15.5z" />
<glyph unicode="c" horiz-adv-x="379" d="M315 699h46v-518v-1q0 -37 -14 -70t-39 -57.5t-58 -38.5t-70 -14t-69.5 14t-56.5 38t-38.5 56t-15.5 69v1v2v1v488v3q0 27 10 50t27.5 40.5t40.5 27.5t50 10q26 0 49 -10t40.5 -27.5t27.5 -40.5t10 -49v-4v-46v-444v-1v-1q0 -31 -22 -52.5t-53 -21.5q-32 0 -54 21.5 t-22 52.5v2v45v327h46v-327v-45v-2q1 -12 9.5 -20t20.5 -8t20.5 8.5t8.5 19.5v1v2v1v1v42v357v42v46v4q0 34 -24 57.5t-57 23.5q-34 0 -58 -23.5t-24 -57.5v-4v-488v-2v-2q1 -27 11.5 -51t28.5 -41.5t42.5 -28t51.5 -10.5q28 0 52.5 10.5t42.5 28.5t29 42.5t11 51.5 q0 1 -1 2z" />
<glyph unicode="d" d="M453 256v-1v1zM656 800q30 0 56 -11.5t45.5 -31t31 -45.5t11.5 -56v-512q0 -30 -11.5 -56t-31 -45.5t-45.5 -31t-56 -11.5h-512q-30 0 -56 11.5t-45.5 31t-31 45.5t-11.5 56v512q0 30 11.5 56t31 45.5t45.5 31t56 11.5h512zM522 601h-41v-343h5h-5v-2q-1 -34 -24.5 -57.5 t-57.5 -23.5t-57.5 23.5t-24.5 56.5v1v1v1v318h-4h4v3q-1 20 13 33.5t34 13.5t34 -13.5t14 -33.5v-3v-30v-28v-227v-33v-1v-1v-1q-2 -13 -14 -13t-14 13v1v29v248h-41v-248v-29v-1q1 -23 16.5 -38.5t38.5 -15.5q22 0 37.5 14t17.5 34v6v1v-1v1v290v30v3v5q-2 35 -28 59 t-61 24q-37 0 -63 -26t-26 -63v-1v-325v-3h1q1 -24 11 -45t26.5 -36.5t38.5 -24.5t47 -9t47 9t38.5 25t26.5 37.5t11 46.5v349z" />
<glyph unicode="e" d="M400 800q83 0 156 -31.5t127 -85.5t85.5 -127t31.5 -156t-31.5 -156t-85.5 -127t-127 -85.5t-156 -31.5t-156 31.5t-127 85.5t-85.5 127t-31.5 156t31.5 156t85.5 127t127 85.5t156 31.5zM565 150q61 40 98 106t37 144h-300l181 239q-38 29 -84 45t-97 16t-97 -16 t-84 -45l181 -239h-300q0 -78 36.5 -143t96.5 -106l167 249z" />
<glyph unicode="f" d="M400 520q-25 0 -47 -9.5t-38.5 -26t-26 -38.5t-9.5 -47t9.5 -47t26 -38.5t38.5 -26t47 -9.5t46.5 9.5t38 26t26 38.5t9.5 47t-9.5 47t-26 38.5t-38 26t-46.5 9.5zM400 571q35 0 66 -13.5t54.5 -37t37 -54.5t13.5 -67t-13.5 -67t-37 -54.5t-54.5 -37t-66 -13.5 q-36 0 -67 13.5t-54.5 37t-37 54.5t-13.5 67t13.5 67t37 54.5t54.5 37t67 13.5zM399 634q-48 0 -91 -18.5t-75 -50.5t-50.5 -74.5t-18.5 -91.5q0 -48 18.5 -91t50.5 -75t75 -50.5t91 -18.5q49 0 91.5 18.5t74.5 50.5t50.5 75t18.5 91q0 49 -18.5 91.5t-50.5 74.5t-74.5 50.5 t-91.5 18.5zM399 685q59 0 111 -22.5t91 -61.5t61.5 -91t22.5 -111t-22.5 -111t-61.5 -91t-91 -61.5t-111 -22.5t-111 22.5t-91 61.5t-61.5 91t-22.5 111t22.5 111t61.5 91t91 61.5t111 22.5zM400 749q-72 0 -136 -27.5t-111 -74.5t-74.5 -111t-27.5 -136t27.5 -136 t74.5 -111t111 -74.5t136 -27.5t136 27.5t111 74.5t74.5 111t27.5 136t-27.5 136t-74.5 111t-111 74.5t-136 27.5zM400 800q83 0 156 -31.5t127 -85.5t85.5 -127t31.5 -156t-31.5 -156t-85.5 -127t-127 -85.5t-156 -31.5t-156 31.5t-127 85.5t-85.5 127t-31.5 156t31.5 156 t85.5 127t127 85.5t156 31.5zM457 398q0 -23 -17 -40t-40 -17q-24 0 -41 17t-17 40q0 24 17 40.5t41 16.5q23 0 40 -16.5t17 -40.5z" />
<glyph unicode="g" horiz-adv-x="1517" d="M721 506q22 0 42 -8.5t35 -23.5t23.5 -35t8.5 -43t-8.5 -42.5t-23.5 -34.5t-35 -23.5t-42 -8.5q-23 0 -43 8.5t-35 23.5t-23.5 34.5t-8.5 42.5t8.5 43t23.5 35t35 23.5t43 8.5zM723 800q73 0 143 -17t134.5 -45t122.5 -63t108 -72q116 -87 214 -197v-15 q-99 -110 -215 -196q-50 -37 -108 -72t-122.5 -62.5t-134.5 -44t-143 -16.5q-74 0 -144 17t-134.5 44.5t-122.5 63t-107 72.5q-116 86 -214 197v15q99 109 215 195q49 37 107 72t122.5 62.5t134.5 44.5t144 17zM721 155q49 0 93 19t76 51.5t51 76t19 93.5q0 49 -19 93 t-51 76t-76 51t-93 19q-50 0 -93.5 -19t-76 -51t-51.5 -76t-19 -93q0 -50 19 -93.5t51.5 -76t76 -51.5t93.5 -19z" />
<glyph unicode="h" d="M400 800q83 0 156 -31.5t127 -85.5t85.5 -127t31.5 -156q0 -50 -11.5 -95.5t-32.5 -87.5q-28 -54 -70 -97t-95 -72q-43 -23 -91 -35.5t-100 -12.5q-51 0 -97 11.5t-88 33.5q-54 29 -96.5 71t-71.5 96q-23 42 -35 89.5t-12 98.5q0 83 31.5 156t85.5 127t127 85.5t156 31.5 zM343 409q0 -2 -0.5 -4.5t-0.5 -4.5q0 -18 10 -33t27 -23q13 -5 24 -5q17 0 32.5 10t22.5 27q5 13 5 24q0 30 -24 48l-129 203l-21 -8zM309 114q5 20 5 36q0 31 -12 58.5t-32.5 48t-48 32.5t-58.5 12q-11 0 -22 -2t-21 -5q24 -64 73.5 -111.5t115.5 -68.5zM211 621l-26 -27 l64 -64l27 26zM112 453v-37h91v37h-91zM689 453h-92v-37h92v37zM615 594l-26 27l-65 -65l26 -26zM490 153q0 -10 1 -19t4 -19q65 22 114.5 70t72.5 113q-20 6 -42 6q-31 0 -58.5 -12t-47.5 -32t-32 -48t-12 -59zM419 703h-37v-91h37v91z" />
<glyph unicode="i" d="M222 598l65 -64l-26 -27l-65 65zM145 453h92v-37h-92v37zM564 453h92v-37h-92v37zM593 572l-65 -65l-26 27l64 64zM419 578h-37v92h37v-92zM439 448q24 -18 24 -48q0 -11 -5 -24q-7 -17 -22.5 -27t-32.5 -10q-11 0 -24 5q-17 8 -27 23t-10 33q0 2 0.5 4.5t0.5 4.5 l-54 234l21 8zM400 800q83 0 156 -31.5t127 -85.5t85.5 -127t31.5 -156q0 -50 -11.5 -95.5t-32.5 -87.5q-28 -54 -70 -97t-95 -72q-43 -23 -91 -35.5t-100 -12.5q-51 0 -97 11.5t-88 33.5q-54 29 -96.5 71t-71.5 96q-23 42 -35 89.5t-12 98.5q0 83 31.5 156t85.5 127 t127 85.5t156 31.5zM690 323q5 19 7.5 38t2.5 39q0 62 -23.5 116.5t-64.5 95.5t-95.5 64.5t-116.5 23.5t-116.5 -23.5t-95.5 -64.5t-64.5 -95.5t-23.5 -116.5q0 -42 11 -81q2 -7 4.5 -13t4.5 -12q10 3 21 5t22 2q31 0 58.5 -12t48 -32.5t32.5 -48t12 -58.5q0 -16 -5 -36 l12 -3q39 -11 79 -11q44 0 83 12q8 2 11 3q-4 17 -4 38q0 31 12 59t32 48t47.5 32t58.5 12q22 0 42 -6q5 14 8 25z" />
<glyph unicode="j" d="M400 800q83 0 156 -31.5t127 -85.5t85.5 -127t31.5 -156q0 -50 -11.5 -95.5t-32.5 -87.5q-28 -54 -70 -97t-95 -72q-43 -23 -91 -35.5t-100 -12.5q-51 0 -97 11.5t-88 33.5q-54 29 -96.5 71t-71.5 96q-23 42 -35 89.5t-12 98.5q0 83 31.5 156t85.5 127t127 85.5t156 31.5 zM689 453h-92v-37h92v37zM524 556l26 -26l65 64l-26 27zM382 699v-87h37v87v4h-37v-4zM112 416h91v37h-91v-37zM276 556l-65 65l-26 -27l64 -64zM388 100q7 -2 14 -2q9 0 17 3q10 3 18 11q13 12 15 30v5q0 15 -8 27l-27 328h-29l-26 -328q-9 -12 -9 -27q0 -20 15 -35 q8 -7 20 -12z" />
<glyph unicode="k" d="M400 800q83 0 156 -31.5t127 -85.5t85.5 -127t31.5 -156q0 -50 -11.5 -95.5t-32.5 -87.5q-28 -54 -70 -97t-95 -72q-43 -23 -91 -35.5t-100 -12.5q-51 0 -97 11.5t-88 33.5q-54 29 -96.5 71t-71.5 96q-23 42 -35 89.5t-12 98.5q0 83 31.5 156t85.5 127t127 85.5t156 31.5 zM716 237q40 78 40 163q0 73 -28 138t-76.5 113.5t-113.5 76.5t-138 28q-74 0 -138.5 -28t-113 -76.5t-76.5 -113.5t-28 -138q0 -44 11 -86.5t31 -80.5q26 -48 63.5 -85.5t85.5 -62.5q79 -41 165 -41q90 0 170 43q48 26 84.5 64t61.5 86zM211 622l65 -65l-26 -26l-65 64z M112 454h92v-37h-92v37zM598 454h92v-37h-92v37zM615 595l-64 -64l-27 26l65 65zM419 613h-37v87v4h37v-4v-87zM445 174q8 -12 8 -27q0 -20 -15 -34q-8 -8 -18 -11q-8 -3 -16 -3t-16 2q-12 5 -20 12q-14 15 -14 35q0 15 9 27l26 328h28z" />
<glyph unicode="l" horiz-adv-x="1010" d="M0 162h960v-162h-960v162zM962 320h-961l480 480z" />
<glyph unicode="m" d="M241 525l-141 141l35 35l141 -141zM560 276l141 -141l-35 -35l-141 141zM241 275l35 -35l-141 -141l-35 35zM560 524l-35 35l141 141l35 -35zM199 376h-199v50h199v-50zM800 426v-50h-199v50h199zM376 199h50v-199h-50v199zM426 601h-50v199h50v-199zM400 528 q27 0 50.5 -10t41 -27.5t27.5 -41t10 -50.5t-10 -50t-27.5 -40.5t-41 -27.5t-50.5 -10t-50 10t-40.5 27.5t-27.5 40.5t-10 50t10 50.5t27.5 41t40.5 27.5t50 10zM400 315q18 0 33 6.5t26.5 18t18 27t6.5 32.5q0 35 -24.5 59.5t-59.5 24.5q-17 0 -32.5 -6.5t-27 -18 t-18 -26.5t-6.5 -33q0 -35 24.5 -59.5t59.5 -24.5z" />
<glyph unicode="n" d="M180 573l-87 86l49 49l87 -86zM622 229l86 -87l-49 -49l-86 87zM180 227l49 -49l-87 -86l-49 49zM622 571l-49 49l86 87l49 -49zM122 366h-122v70h122v-70zM800 436v-70h-122v70h122zM366 122h70v-122h-70v122zM436 678h-70v122h70v-122zM400 577q37 0 69.5 -14t56.5 -38 t38 -56.5t14 -69.5t-14 -69.5t-38 -56.5t-56.5 -38t-69.5 -14t-69 14t-56 38t-38 56.5t-14 69.5t14 69.5t38 56.5t56 38t69 14zM400 283q24 0 45.5 9t37.5 25t25 37t9 45t-9 45t-25 37t-37.5 25t-45.5 9t-45 -9t-37 -25t-25 -37t-9 -45t9 -45t25 -37t37 -25t45 -9z" />
<glyph unicode="o" horiz-adv-x="688" d="M437 119q-7 0 -12 4.5t-5 12.5v371q0 8 5 13t12 5h21q7 0 12 -5t5 -13v-371q0 -8 -5 -12.5t-12 -4.5h-21zM318 119q-8 0 -13 4.5t-5 12.5v371q0 8 5 13t13 5h20q8 0 13 -5t5 -13v-371q0 -8 -5 -12.5t-13 -4.5h-20zM219 525q8 0 12.5 -5t4.5 -13v-371q0 -17 -17 -17h-21 q-7 0 -12 4.5t-5 12.5v371q0 8 5 13t12 5h21zM653 587q2 -4 2 -7q0 -1 -1 -3q-2 -4 -9 -4h-47v-556q0 -7 -5 -12t-12 -5h-503q-8 0 -12.5 5t-4.5 12v556h-51q-7 0 -10 5v3q0 3 2 6l30 45q5 6 12.5 10t14.5 4h73v65q0 8 3.5 16t8.5 13l48 48q5 5 13.5 8.5t15.5 3.5h212 q7 0 15.5 -3.5t13.5 -8.5l51 -51q5 -5 9 -13.5t4 -16.5v-61h70q7 0 14.5 -4t11.5 -10zM204 646h249q1 2 1 4v28q0 7 -3.5 15.5t-8.5 13.5l-9 9q-5 5 -13.5 8.5t-16.5 3.5h-152q-8 0 -16 -3.5t-13 -8.5l-6 -5q-5 -5 -8.5 -13.5t-3.5 -16.5v-31v-4zM526 556q0 7 -4.5 12 t-11.5 5h-273h-87q-8 0 -13 -5t-5 -12v-467q0 -8 5 -12.5t13 -4.5h359q17 0 17 17v467z" />
<glyph unicode="p" horiz-adv-x="683" d="M414 129h-68l68 386h65zM236 129l-66 386h66l67 -386h-67zM651 755v-52h-651v52h216v45h218v-45h217zM0 645h649l-108 -645h-433zM564 573h-479l84 -501h311z" />
<glyph unicode="q" horiz-adv-x="683" d="M651 755v-52h-651v52h216v45h218v-45h217zM0 645h649l-108 -645h-433zM267 105l-79 434h-66l78 -434h67zM450 105l77 434h-65l-80 -434h68z" />
<glyph unicode="r" horiz-adv-x="876" d="M674 0h-179v238h-155v-238h-185v383h-155l417 417l417 -417h-160v-383z" />
<glyph unicode="s" horiz-adv-x="959" d="M738 0h-196v261h-169v-261h-203v369h-170l457 431l142 -134v134h140v-267l175 -164h-176v-369z" />
<glyph unicode="t" horiz-adv-x="841" d="M655 0l-254 207l-243 -207l95 315l-253 167h312l88 318l89 -318h312l-253 -167z" />
<glyph unicode="u" horiz-adv-x="838" d="M790 497q8 -10 8 -23q0 -11 -3.5 -17t-6.5 -10q-6 -8 -16 -14l-180 -119q-2 -1 -5 -6t-2 -10v-4l79 -232q4 -9 4 -22q0 -5 -1.5 -11t-6.5 -14q-5 -7 -13 -11t-15 -4h-2q-14 1 -21 5t-13 10l-187 151q-2 3 -9 3q-3 0 -5 -1l-4 -2l-177 -150q-6 -6 -13.5 -10.5t-21.5 -5.5 q-8 0 -16.5 4t-13.5 12t-6.5 14t-1.5 11q0 6 1 11t3 10l70 230v4q1 5 -2.5 11t-5.5 7l-181 119q-10 6 -16 14q-3 4 -6.5 10t-3.5 17q0 13 8 23q7 8 16 12q8 3 14 4t12 1h225q5 0 10 4q6 3 8 10l65 233q2 5 3.5 10.5t5.5 10.5q3 5 10.5 11.5t21.5 6.5t21.5 -6.5t10.5 -11.5 q4 -5 6 -10l4 -11l65 -234q0 -4 7 -9q5 -4 11 -4h224q10 0 19 -3l11 -5q6 -2 12 -9z" />
<glyph unicode="v" d="M400 800q83 0 156 -31.5t127 -85.5t85.5 -127t31.5 -156t-31.5 -156t-85.5 -127t-127 -85.5t-156 -31.5t-156 31.5t-127 85.5t-85.5 127t-31.5 156t31.5 156t85.5 127t127 85.5t156 31.5zM648 435q2 2 4 6t2 11q0 9 -5 14q-6 7 -14 9q-4 1 -6.5 1.5t-5.5 0.5h-141 q-3 0 -7 3q-4 2 -4 5l-41 147q-1 5 -6 13q-2 3 -7 7t-13 4t-13 -4t-7 -7q-5 -8 -6 -13l-41 -147q0 -3 -4 -5q-5 -3 -7 -3h-140q-8 0 -17 -3q-2 -2 -5 -3.5t-5 -4.5q-5 -5 -5 -14q0 -7 2.5 -11t4.5 -6q2 -3 4.5 -5t4.5 -4l114 -74q2 -1 3.5 -5t1.5 -7v-2l-44 -144 q-3 -8 -3 -14q0 -8 5 -15q3 -5 8.5 -7.5t10.5 -2.5q9 1 13.5 3.5t8.5 6.5l111 94q2 2 6 2q5 0 5 -2l117 -95l9 -6q5 -2 13 -3h1q5 0 10 2t8 7t4 9t1 7q0 6 -3 14l-49 145q-1 1 -1 3q0 7 5 10l113 74q2 2 5 4t5 5z" />
<glyph unicode="w" horiz-adv-x="960" d="M687 800q43 0 84 -12t73 -39t51 -71t19 -108q0 -46 -18 -86.5t-39 -72.5q-26 -37 -57 -69l-343 -342l-343 342q-32 32 -57 69q-22 32 -39.5 72.5t-17.5 86.5q0 64 19 108t51 71t73 39t85 12q43 0 84.5 -22t73.5 -48q38 -31 71 -70q33 39 71 70q32 26 73.5 48t85.5 22z " />
<glyph unicode="x" d="M400 800q83 0 156 -31.5t127 -85.5t85.5 -127t31.5 -156t-31.5 -156t-85.5 -127t-127 -85.5t-156 -31.5t-156 31.5t-127 85.5t-85.5 127t-31.5 156t31.5 156t85.5 127t127 85.5t156 31.5zM592 342q18 18 32 39q12 18 22 41t10 49q0 36 -10.5 61t-28.5 40t-41 21.5 t-48 6.5t-48 -12.5t-41 -26.5q-21 -18 -40 -39q-19 21 -40 39q-18 14 -41.5 26.5t-48.5 12.5q-24 0 -47 -6.5t-41 -21.5t-29 -40t-11 -61q0 -26 10 -49t22 -41q14 -21 33 -39l193 -192z" />
<glyph unicode="y" horiz-adv-x="1340" d="M1276 741v-685l-359 168v2v-157q0 -29 -20 -49t-48 -20h-780q-29 0 -49 20t-20 49v662q0 29 20 49t49 20h780q28 0 48 -20t20 -49v-160z" />
<glyph unicode="z" d="M656 800q30 0 56 -11.5t45.5 -31t31 -45.5t11.5 -56v-512q0 -30 -11.5 -56t-31 -45.5t-45.5 -31t-56 -11.5h-512q-30 0 -56 11.5t-45.5 31t-31 45.5t-11.5 56v512q0 30 11.5 56t31 45.5t45.5 31t56 11.5h512zM650 534l-140 -66v63q0 11 -7.5 18.5t-18.5 7.5h-305 q-11 0 -18.5 -7.5t-7.5 -18.5v-259q0 -11 7.5 -19t18.5 -8h305q11 0 18.5 8t7.5 19v62v-1l140 -66v267z" />
<glyph unicode="{" d="M400 800q83 0 156 -31.5t127 -85.5t85.5 -127t31.5 -156t-31.5 -156t-85.5 -127t-127 -85.5t-156 -31.5t-156 31.5t-127 85.5t-85.5 127t-31.5 156t31.5 156t85.5 127t127 85.5t156 31.5zM650 529l-140 -66v62q0 11 -8 19t-19 8h-305q-11 0 -19 -8t-8 -19v-259 q0 -11 8 -19t19 -8h305q11 0 19 8t8 19v62v-1l140 -66v268z" />
<glyph unicode="|" horiz-adv-x="1186" d="M1096 705q14 0 24 -10t10 -24v-637q0 -14 -10 -24t-24 -10h-1062q-14 0 -24 10t-10 24v637q0 14 10 24t24 10h234v1l32 64q7 12 21 21t28 9h431q14 0 28.5 -9t20.5 -21l32 -64v-1h235zM564 113q51 0 95.5 19.5t77.5 52.5t52 77.5t19 94.5q0 51 -19 95.5t-52 77.5 t-77.5 52t-95.5 19t-95.5 -19t-77.5 -52t-52 -77.5t-19 -95.5q0 -50 19 -94.5t52 -77.5t77.5 -52.5t95.5 -19.5z" />
<glyph unicode="}" horiz-adv-x="1175" d="M560 531q35 0 66 -13.5t54 -37t36.5 -54.5t13.5 -66t-13.5 -66t-36.5 -54t-54 -36.5t-66 -13.5t-66 13.5t-54 36.5t-36.5 54t-13.5 66t13.5 66t36.5 54.5t54 37t66 13.5zM1085 705q14 0 24 -10t10 -24v-637q0 -14 -10 -24t-24 -10h-1051q-14 0 -24 10t-10 24v637 q0 14 10 24t24 10h234v1l32 64q7 12 21 21t28 9h431q14 0 28 -9t21 -21l32 -64v-1h224zM560 97q55 0 103 20.5t84 56.5t56.5 84t20.5 102q0 55 -20.5 103t-56.5 84t-84 56.5t-103 20.5t-103 -20.5t-84 -56.5t-56.5 -84t-20.5 -103q0 -54 20.5 -102t56.5 -84t84 -56.5 t103 -20.5z" />
<glyph unicode="~" d="M656 800q30 0 56 -11.5t45.5 -31t31 -45.5t11.5 -56v-512q0 -30 -11.5 -56t-31 -45.5t-45.5 -31t-56 -11.5h-512q-30 0 -56 11.5t-45.5 31t-31 45.5t-11.5 56v512q0 30 11.5 56t31 45.5t45.5 31t56 11.5h512zM658 526q0 6 -4.5 10.5t-11.5 4.5h-108v1l-15 29 q-3 6 -9.5 10t-12.5 4h-199q-6 0 -12.5 -4t-9.5 -10l-15 -29v-1h-108q-6 0 -10.5 -4.5t-4.5 -10.5v-294q0 -6 4.5 -10.5t10.5 -4.5h489q7 0 11.5 4.5t4.5 10.5v294zM397 493q23 0 43.5 -9t35.5 -24t24 -35.5t9 -43.5t-9 -43.5t-24 -35.5t-35.5 -24t-43.5 -9t-43.5 9 t-35.5 24t-24 35.5t-9 43.5t9 43.5t24 35.5t35.5 24t43.5 9z" />
<glyph unicode="&#xaa;" horiz-adv-x="466" d="M443 222v-3q0 -45 -18 -85t-48 -70t-70 -47t-85 -17t-85 16.5t-70 45.5t-48 68t-19 84v5v407q0 36 13.5 67.5t37.5 55.5t55.5 37.5t67.5 13.5t67.5 -13.5t55.5 -37.5t37.5 -55.5t13.5 -67.5v-193v-209v-3v-3v-2h-1q-1 -25 -11 -46.5t-26.5 -37.5t-38 -25t-46.5 -9t-47 9 t-38.5 25t-26.5 37.5t-11 46.5v4l-1 1l1 1v355h44v-355v-2v-4v2q2 -32 24.5 -53.5t54.5 -21.5t54 21.5t24 53.5v-2v2v1v2v2v1v293v109q0 27 -10 50.5t-27.5 41t-41 27.5t-50.5 10t-50.5 -10t-41 -27.5t-27.5 -41t-10 -50.5v-407q0 -36 14 -67.5t38 -55.5t56.5 -37.5 t68.5 -13.5t68 13.5t56 37.5t38.5 55.5t14.5 67.5v3v354v3l44 -1v-2v-354z" />
<glyph unicode="&#xad;" horiz-adv-x="1067" d="M986 701q13 0 21.5 -8.5t8.5 -21.5v-641q0 -12 -8.5 -21t-21.5 -9h-955q-13 0 -22 9t-9 21v641q0 13 9 21.5t22 8.5h46l35 72q5 11 18 19t26 8h193q12 0 25 -8t19 -19l34 -72h559zM932 617h-505q-24 0 -44.5 12.5t-31.5 34.5l-25 51h-148l-25 -51q-10 -20 -28 -32.5 t-40 -14.5v-532h847v532z" />
<glyph unicode="&#xb2;" d="M400 800q83 0 156 -31.5t127 -85.5t85.5 -127t31.5 -156t-31.5 -156t-85.5 -127t-127 -85.5t-156 -31.5t-156 31.5t-127 85.5t-85.5 127t-31.5 156t31.5 156t85.5 127t127 85.5t156 31.5zM544 458l-82 82l-244 -245l-40 -121l121 40zM625 540l-81 81l-54 -53l82 -82z M260 296l203 202l13 -14l-202 -202z" />
<glyph unicode="&#xb3;" d="M285 92l-285 -92l92 284v1h1l515 515l192 -192zM261 131l-130 130l-62 -192z" />
<glyph unicode="&#xb9;" horiz-adv-x="953" d="M791 800l116 -116l-76 -77l-116 117zM443 219l-172 -56l56 172v1l348 348l117 -116zM695 605l-19 19l-289 -288l20 -19zM567 267l81 81v-240q0 -23 -8.5 -42.5t-23.5 -34t-34.5 -23t-41.5 -8.5h-432q-23 0 -42.5 8.5t-34 23t-23 34t-8.5 42.5v432q0 22 8.5 42t23 34.5 t34 23t42.5 8.5h432q5 0 10.5 -0.5t10.5 -1.5l-79 -79h-374q-11 0 -19 -8t-8 -19v-432q0 -11 8 -19t19 -8h432q11 0 19 8t8 19v159z" />
<glyph unicode="&#xba;" horiz-adv-x="688" d="M437 119q-7 0 -12 4.5t-5 12.5v371q0 8 5 13t12 5h21q7 0 12 -5t5 -13v-371q0 -8 -5 -12.5t-12 -4.5h-21zM318 119q-8 0 -13 4.5t-5 12.5v371q0 8 5 13t13 5h20q8 0 13 -5t5 -13v-371q0 -8 -5 -12.5t-13 -4.5h-20zM219 525q8 0 12.5 -5t4.5 -13v-371q0 -17 -17 -17h-21 q-7 0 -12 4.5t-5 12.5v371q0 8 5 13t12 5h21zM653 587q2 -4 2 -7q0 -1 -1 -3q-2 -4 -9 -4h-47v-556q0 -7 -5 -12t-12 -5h-503q-8 0 -12.5 5t-4.5 12v556h-51q-7 0 -10 5v3q0 3 2 6l30 45q5 6 12.5 10t14.5 4h73v65q0 8 3.5 16t8.5 13l48 48q5 5 13.5 8.5t15.5 3.5h212 q7 0 15.5 -3.5t13.5 -8.5l51 -51q5 -5 9 -13.5t4 -16.5v-61h70q7 0 14.5 -4t11.5 -10zM204 646h249q1 2 1 4v28q0 7 -3.5 15.5t-8.5 13.5l-9 9q-5 5 -13.5 8.5t-16.5 3.5h-152q-8 0 -16 -3.5t-13 -8.5l-6 -5q-5 -5 -8.5 -13.5t-3.5 -16.5v-31v-4zM526 556q0 7 -4.5 12 t-11.5 5h-273h-87q-8 0 -13 -5t-5 -12v-467q0 -8 5 -12.5t13 -4.5h359q17 0 17 17v467z" />
<glyph unicode="&#xc0;" d="M105 1326q-25 3 -63.5 5.5t-98.5 2.5v-157l-359 241l359 242v-145q115 -14 207 -54q39 -17 76 -42t66 -59.5t47 -80t18 -102.5q-18 35 -51 65q-29 26 -77.5 50.5t-123.5 33.5zM857 1177v157q-60 0 -98.5 -2.5t-63.5 -5.5q-75 -9 -124 -33.5t-78 -50.5q-33 -30 -51 -65 q0 57 17.5 102.5t47 80t66.5 59.5t76 42q92 40 208 54v145l359 -242zM298 1444q-50 43 -122 75l-9 3l-9 4l2 5h479l2 -5l-9 -4l-9 -3q-35 -16 -65 -35t-56 -40h-204zM653 1253q11 3 23.5 5.5t26.5 4.5q8 1 17 1.5t18 1.5l44 -118l1 -288h-767v287l44 119q10 -1 19.5 -1.5 t17.5 -1.5q14 -2 26 -4.5t23 -4.5l-34 -106h181l45 -88h119l49 88h181zM400 800q83 0 156 -31.5t127 -85.5t85.5 -127t31.5 -156t-31.5 -156t-85.5 -127t-127 -85.5t-156 -31.5t-156 31.5t-127 85.5t-85.5 127t-31.5 156t31.5 156t85.5 127t127 85.5t156 31.5zM490 542 q5 1 5 -3q3 0 7 0.5t6 4.5q2 0 2 1.5t-2 1.5q0 -2 -2 -2q2 10 -5 10q1 2 -3 6q-3 2 -1.5 3.5t1.5 3.5q-2 0 -2.5 -1.5t-3.5 -1.5v4q1 0 2 1.5t-2 1.5q-2 -5 -4.5 -3t-2.5 -3q1 -4 1.5 -4.5t0.5 -3.5q7 0 7 -8q3 -1 0 -1h-4q-1 -2 -2 -5t2 -2zM488 538q0 -1 -1 -1 q1 -2 2.5 -1t1.5 2h-3zM530 496q-2 0 -2 -2v-4q5 -2 5.5 2.5t-1.5 4.5q0 -7 -2 -1zM529 504q1 -2 0.5 -2.5t1.5 -2.5q3 5 1 6q0 -3 -3 -1zM534 477q-2 0 -11.5 2t-9.5 -1q-2 0 -7 -2t-7 -4q-3 -1 -5 -2q-4 -2 -4 1q-5 0 -6 -4q-2 0 -3.5 -2t-2.5 -3q-3 0 -2.5 1t-2.5 -4 q0 -2 -1.5 -6t-2.5 -4q1 -1 0 -4q-2 -2 -3.5 -4.5t-3.5 -3.5q-2 -4 -3 -2.5t-3 -2.5l-2 -4l-2 -4q-3 -6 -3.5 -9.5t-0.5 -8.5q0 -2 -1.5 -4t-1.5 -4q1 -2 2 -5.5t1 -5.5q-2 0 -2.5 -3.5t2.5 -5.5q0 -3 4 -11t7 -10q0 -3 4.5 -7.5t7.5 -4.5q1 -2 9 -4.5t8 0.5q2 0 7 0.5 t10 0.5t9.5 -0.5t5.5 -3.5q5 0 7 0.5t7 -1.5q0 -3 -1 -10t-3 -9q0 -10 6 -14q0 -1 2 -3q1 -1 2 -3q2 -5 3 -9.5t0 -12.5q-1 -6 -2.5 -10.5t-1.5 -10.5q-2 0 -0.5 -7.5t3.5 -7.5q0 -5 2.5 -10t2.5 -10q1 0 1.5 -3.5t0.5 -5.5l1 -3q1 -3 3 -7t3 -7l2 -4q2 0 2 -3.5t1 -3.5 q1 -4 2 -7t1 -5q2 -2 6.5 -1.5t7.5 0.5q0 2 8 3.5t10 1.5l4 6q2 3 3 5q0 3 5.5 8.5t8.5 7.5q0 1 2.5 7t1.5 6q0 6 1 11t1 10q2 0 3 3.5t4 3.5q0 1 5 3q0 4 2 6.5t2 7.5q2 0 0 9t-2 11q-2 0 -2.5 3.5t0 7.5t1 7.5t0.5 4.5q-1 0 0 2l4 5l4 4l2 2q0 3 4 6l5 6l5 6q4 3 4 5 q2 1 3 2.5t3 3.5q0 1 -0.5 3t2.5 2q-1 5 2 8.5t3 8.5q-10 -2 -15 -2q0 -1 -2 -1h-4q-5 1 -3 1t1 2q-3 0 -7.5 8t-4.5 11q-1 1 -2 3.5t0 2.5q-2 3 -4.5 5.5t-0.5 5.5q-3 2 -6 7.5t-5 9.5q-4 4 -4 11q-2 0 -5 5t-2 8q-2 0 -3.5 2.5t-3.5 2.5q1 4 -9.5 4.5t-13.5 0.5q1 6 -5 6 q0 -4 -6.5 -5t-9.5 -1q-2 0 -5.5 1t-3.5 4h-8q0 2 -4 10.5t-7 9.5v-2zM543 482q4 -1 7 -3t3 4q-2 -1 -2.5 -2t-3.5 1q-2 0 -3 1t-1 -1zM667 263q2 -1 2 2q-2 -1 -2 -2zM472 543q6 0 8 3t4 8t0 4t-4 -1q-2 -1 -2.5 1t-1.5 0q0 -3 2 -3q0 -2 -4.5 -2.5t-0.5 -2.5 q-1 -2 -2 -3.5t1 -3.5zM425 603q5 0 2.5 -2t-2.5 -4q3 0 5.5 -1t4.5 -1q0 -1 4.5 0t5.5 1q7 0 10 2q2 2 1 2.5t-1 2.5q-2 -1 -2 -2t-3 0q0 5 -1.5 3.5t-6.5 -2.5q-1 0 -5 -1t-4 0v3q-1 0 -1 2l-4 -2q-2 -1 -3 -1zM652 248q-1 -2 -2 -9t-1 -14t2 -12t7 -5q1 2 2 3t2 3v9 q0 5 2 5q0 3 1 7t1 8h3v3q0 2 2 3q0 2 3 3.5t0 3.5q-2 1 -2.5 5t-0.5 6q-2 -2 -1 -5t-4 -3q0 5 -3 0.5t2 -4.5q0 -5 -4 -4t-6 2q-1 -2 -1 -3t3 -2q-2 -3 -3 -2zM720 427q-4 51 -23 96.5t-51 83.5q-2 -3 -4 -2.5t-4 -2.5q-1 0 -1.5 -2t2.5 -2q-1 -4 -3.5 -3.5t-2.5 3.5 q-2 0 -3.5 -2t-5.5 -1q1 2 -2 6t-5 4q1 2 0.5 1t-0.5 1q6 0 12.5 1t11.5 1q0 3 -7.5 7t-10.5 2q-2 -1 -5.5 0.5t-5.5 1.5q0 2 -9 2h-11q0 1 -4.5 0.5t-10 -1.5t-10.5 -2.5t-6 -1.5q-5 0 -7 -2.5t-6 -5.5t-7 -6q-6 -6 -1 -6q0 -3 -3.5 -4.5t-7.5 -2.5t-7.5 -2t-3.5 -3 q-1 -1 -4 -0.5t0 -4.5q-1 0 2 -3q1 -2 3 -3q3 0 6 -1.5t8 -1.5q0 1 5 3q0 -3 1.5 -6.5t3.5 -3.5v-4q0 -3 -5 -1q-1 2 -1 3v3q0 3 -3 0.5t-6 -1.5q0 -2 0.5 -6.5t2.5 -5.5q-1 -3 -4.5 -2.5t-5.5 -2.5q-2 0 -4 -3t-2 1q-2 -2 -1.5 -5t-4.5 0q0 -3 -1 -6q4 0 2 -1.5t-4 -1.5 q0 -4 -2 -2l-3 3h-1q3 -5 -2 -4.5t-7 2.5q-2 1 0 -1.5t4 -2.5q0 -3 4.5 -7t-0.5 -9q0 -2 3 -2q0 -4 -3.5 -4t-5.5 1q2 4 -3 4q0 -3 -5 -2.5t-8 -0.5q0 2 -2 2q-1 -2 -1 -5v-6q0 -4 -1 -8q0 -9 11 -13q0 2 7 1.5t8 1.5q1 4 2.5 5t2.5 4q1 2 4 10.5t4 8.5q0 1 6 -0.5t8 1.5 q3 0 5 3q3 -1 4 -4.5t3 -3.5q2 -4 6 -4.5t6 -3.5q3 0 3.5 -5t0.5 -7q4 3 4 8q-2 4 1 2t5 0q-2 0 -2.5 2.5t-4.5 0.5q-1 2 -1 5q-5 -2 -6 3.5t-5 3.5q-1 2 -2.5 3.5t0.5 3.5q2 4 7 -3t8 -7q1 -1 4 -1.5t3 -1.5q2 -1 1.5 -4t-0.5 -5q2 0 2 -1t1 -3q4 -2 4 -6t5 -6q0 2 3 5t0 3 q0 2 -1.5 7t3.5 4q7 -2 7 -4q2 -5 2 -7.5t3 -5.5q2 -5 7.5 -2.5t6.5 0.5q1 0 4.5 -1.5t3.5 0.5l3 2h4q0 -5 -2 -11l-2 -4q-1 -2 0 -4q-2 0 -2 -2t2 -2q0 -3 -3 -3.5t-6 0.5q1 -3 4.5 -7.5t5.5 -5.5q2 -8 6 -11q0 -2 1.5 -5.5t3.5 -4.5q0 -1 2 -6l4 -8q2 -5 3 -9t0 -4 q1 -2 2 -2t0 -2q4 0 4.5 -6t8.5 -6q1 2 4.5 3t5.5 1q2 3 7.5 5t7.5 2q-1 2 6.5 5.5t7.5 5.5q4 0 4 7q0 2 1.5 3t1.5 3q3 2 3.5 6t-4.5 6q1 -5 -1.5 -4t-1.5 3q1 1 -3 5q-2 1 -0.5 2t-0.5 3q-4 -10 -13 -10q-2 4 0 2t-1 3q-1 2 -1 6h-1q-1 -4 -1 -5t-3 -1q-1 2 0.5 3t-0.5 3 t-2 6q-2 1 -4 4t-1 5q1 3 3.5 2t4 -3.5t2.5 -5.5t1 -4q1 0 1 -1q8 3 15 -1.5t15 -4.5q4 -2 11 -2zM181 635q-23 -20 -40.5 -45t-31.5 -53q7 -5 8 -13.5t1 -16.5q-1 -4 0.5 -8.5t1.5 -8.5q2 -2 4.5 -6.5t2.5 -6.5l6 -8q11 0 11 -10q1 -2 2 -5q2 -6 4 -6q0 -2 2.5 -7.5 t4.5 -6.5q0 -3 3 -6.5t5.5 -5t3 0t-3.5 9.5l-3 7q-3 5 -4 5q0 2 -3.5 5t-3.5 5q2 3 6 -1.5t4 -6.5l2 -4q1 -2 2 -3q2 0 5.5 -3.5t3.5 -5.5q5 0 7 -7.5t2 -10.5q0 -2 1.5 -7t5.5 -5q2 -3 6 -3t6 -3q5 0 9 -2t9 -2q4 0 5.5 -3.5t5.5 -3.5q1 -1 2 -0.5t1 -1.5q4 0 10.5 -4 t4.5 -8q2 -1 5.5 -5t2.5 -6q1 -5 6.5 -5.5t8.5 -2.5q3 8 5.5 4t2.5 -8v-13q4 0 1.5 -3.5t-3.5 0.5q-3 0 -3 -4q-2 0 -5 -8t2 -10q-1 -5 -3.5 -8.5t2.5 -6.5l2 -3q2 -2 4 -5.5t4 -6.5t1 -3q0 -2 1 -4.5t2 -4.5q0 -5 3.5 -11.5t9.5 -6.5l4 -4q1 -1 1 -1.5t1 -1.5q0 -1 1 -1 q2 -11 0.5 -19t-1.5 -20q-2 0 -2.5 -4.5t-0.5 -10.5t-1 -11.5t-3 -6.5q-1 -4 -3 -7t0 -5q1 -4 0.5 -7.5t-0.5 -7.5q-1 0 -2 -3t-1 -5q-2 0 -2.5 -13.5t-0.5 -21.5l12 -4l13 -4q0 2 -0.5 2.5t-0.5 2.5q-3 0 -1 4.5t5 4.5q1 4 2 5l3 3q2 0 0.5 2t-1.5 0q-1 0 -1 -1t-1 -1 q-2 2 -1 2q0 2 1 4.5t1 4.5q1 0 1.5 2t1.5 3q2 2 4 3.5t2 4.5q1 0 0 2.5t-2 2.5q2 2 4.5 0.5t2.5 3.5q1 0 1 4q4 2 5 3t6 1q3 3 8 3v8q0 3 3.5 3.5t3.5 2.5q5 3 5 10q0 2 3 5t5 3q4 0 3.5 1t1.5 1q-1 2 0 2t2 2q2 2 1.5 7t0.5 8l2 2q1 1 2 3q2 0 3.5 1.5t3.5 1.5q2 2 6.5 4 t6.5 4q2 5 4 6.5t2 6.5q1 0 2 6t1 8v11q1 0 4.5 4.5t3.5 5.5q5 4 4.5 12.5t-5.5 13.5q-3 3 -5 4.5t-7 3.5q-1 -2 -2.5 -1.5t-3.5 0.5q-3 0 -4 -1.5t-5 -1.5q1 2 1 6t-4 5q0 -4 -2.5 -3t-0.5 3q-2 0 -4 2t-4 2q0 -4 -4 -2.5t-2 1.5q0 1 -0.5 4.5t0.5 3.5q0 2 -0.5 5.5 t-2.5 4.5q-2 4 -1 4t-3 3q-1 2 -1 1t-1 1q-2 0 -3.5 1.5t-2.5 -0.5q-4 0 -8 2q-5 2 -3.5 2t-0.5 2q0 1 -2.5 1.5t-2.5 2.5q-1 2 -2 2.5t-1 1.5h-1q-1 0 -1.5 1t-2.5 1q0 3 -3 3q-2 -2 -5.5 -1.5t-5.5 0.5q-6 0 -6.5 4t-3.5 5q-5 -3 -8 -3q-1 1 -1 0.5t-2 0.5l-2 -1 q-2 -1 -3 -3t-3 -1q-2 4 -2 0q-4 0 -2.5 -5.5t-6.5 -5.5q2 7 -5 7q0 -3 -4 -3h-7q1 4 -3 8q0 2 -1.5 4.5t-1.5 6.5q-2 0 -0.5 5.5t-3.5 5.5q1 0 1 -2q-3 0 -6.5 -0.5t-6.5 0.5q1 3 -0.5 4t-0.5 4q1 4 3 10q1 0 1.5 2.5t2.5 2.5q2 1 0.5 3t-1.5 -1q-2 -1 -3 -1q-1 -1 -2 -1 h-1q0 -1 -2.5 -3t-2.5 1q-2 -1 -4 -3.5t1 -3.5q0 -1 -2 -3l-1 -1q-5 -1 -4.5 0t-0.5 3q-2 0 -5 4t-6 4q0 2 -1.5 4.5t-1.5 6.5q-1 0 -1 7.5t1 7.5q0 14 13 16q4 0 5 -1.5t4 -2.5q2 0 3.5 0.5t3.5 1.5q0 2 -1 2.5t-1 2.5q2 0 7 -0.5t6 -2.5q2 -2 4.5 -0.5t4.5 -0.5t3 -5.5 t1 -5.5l3 -6q5 0 3 7q0 2 -0.5 7.5t-2.5 7.5q0 7 3.5 8t5.5 6q5 0 6.5 5t3.5 7q0 1 1 4.5t2 3.5q1 3 1.5 4t2.5 3q-1 0 3 2.5t4 1.5q2 2 3.5 5.5t2.5 5.5q5 0 5 5q3 0 5 1t6 1q-1 -2 -0.5 -2t0.5 -2q1 0 -0.5 -0.5t-2.5 0.5q0 -2 -1 -2t5 1q2 2 5 2q0 2 2 1.5t2 1.5 q-4 0 -7 5q-2 3 -3.5 5.5t4.5 2.5q0 1 -0.5 1t-0.5 1q-3 -1 -4.5 -2.5t-4.5 -1.5q-5 -1 -7 -4t-7 -3q0 5 5.5 10.5t9.5 7.5q7 2 15.5 0t10.5 6q2 0 6 -1t4 2q2 0 1 1.5t2 1.5q-2 6 -7 6q0 5 -1.5 2.5t-3.5 -2.5q0 2 -2 4q0 2 -3 5l-5 5q-2 0 -4 6.5t-4 5.5q0 -2 -2 -5t-4 -3 q0 -2 -2.5 -1.5t-3.5 0.5q0 2 0.5 1.5t0.5 1.5q-2 0 -2 1v1q-1 0 -5 4t-4 6q-5 -2 -4 -0.5t-4 3.5q-2 -5 -6 -3t-7 2q0 -1 -2 0t-3 0q0 -2 1 -6.5t-2 -5.5q1 -2 2 -1.5t2 -1.5q2 -2 1.5 -5.5t-1.5 -6.5q5 -2 0 -4t-5 0q-2 -1 -2.5 -3t2.5 -4v-4q0 -2 2 -2q-2 -5 -10 -3 q0 2 1 2q0 2 -1.5 4.5t-0.5 2.5q0 2 -3.5 7t-3.5 0h-5q-3 0 -3 4q-4 0 -4 3q-5 1 -8.5 1t-8.5 2q0 2 -4 5.5t-6 5.5q0 6 -0.5 10.5t6.5 5.5q0 -1 3.5 0.5t4.5 2.5q2 3 4.5 1t4.5 3q2 7 9 5q0 -10 -6 -10q2 -2 7 -0.5t8 1.5q0 -1 3 -1h3q-2 2 -8.5 4t-1.5 7q0 1 3 1.5t4 2.5 q0 2 0.5 6t-0.5 4q-2 1 -3.5 0.5t-4.5 0.5q0 2 -1 2q0 -2 -1.5 -1t-3.5 0q0 -3 1 -3q0 -10 -7 -11q0 3 -1.5 6.5t-3.5 4.5q0 -4 -1.5 -3.5t-3.5 2t-4 4t-3 3.5q-1 3 -5 5q-2 -3 -3.5 -2t-3.5 -2t-1 -3.5t-1 -3.5q-2 0 -6 0.5t-5 -1.5q5 0 4 -4q4 0 1 -1.5t-3 -2.5 q-2 0 -4 -0.5t-5 0.5q-4 0 -12 2q-3 2 -3 3t-1 1q-4 5 1 4t5 -2q3 0 6 -1.5t2 4.5h4q-1 3 -8 1q0 2 -1.5 5t-2.5 3q-1 3 -0.5 4t0.5 3q-1 0 -2.5 -1t-3.5 -2zM340 520q-4 -1 -4 -3q4 0 4 3zM323 399q0 1 -3 1q-1 -2 0 -1.5t3 0.5zM312 399q0 1 -2 3t-3 2q-1 -2 -0.5 -1 t0.5 -1q-3 0 -5.5 1t-4.5 1l2 -4q-2 -1 -4 -0.5t-4 0.5q1 -2 5 -2t4 1h12zM303 375q0 -1 -1 -2q2 0 3 2h-2zM277 412q3 -6 11 -6q5 1 2.5 3t-3.5 4q-4 0 -5.5 2t-6.5 3q-2 -3 -7 -1q1 -2 4 -3.5t5 -1.5zM285 398q0 3 -1.5 2t-1.5 -3q2 0 3 1zM281 397q1 3 -3 3q-2 -3 0 -3h3 zM263 417q-3 -2 -4 1h-2q-1 -4 2.5 -3.5t3.5 2.5zM319 399l-1 -1v2zM642 498q5 0 0 -3t-5 -1q-5 -2 -7 1t-4 3q0 -3 -2 -1q-1 1 -2 3q0 -2 -10.5 -3t-13.5 -1q1 3 -1 4q-1 7 2 11t5 10q10 2 8 -6q4 0 3 -2.5t4 -0.5q1 2 5 2q3 0 4.5 -1t3.5 -1q2 -5 6.5 -5.5t3.5 -8.5z M665 507q-3 0 -3 2q0 1 1 3q2 4 2 5q3 0 5 2t5 3q2 1 4 1q1 0 1 -1q1 -3 3 -6q1 0 0.5 -0.5t-1.5 -0.5q-1 -1 -3 -1q-2 -1 -2.5 -0.5t-2.5 0.5q-1 -2 0 -4.5t2 -2.5q2 -2 2.5 -2t0.5 -4q0 -3 1.5 -1.5t3.5 1.5q0 -2 2 -4t2 -4h-4h-2q0 -2 1 -3t1 -3q2 0 0 -4t3 -4 q-1 -4 -4 -4h-1q-5 1 -7 5q-6 2 -5 5.5t1 7.5q0 5 -3 7.5t-3 6.5z" />
<glyph unicode="&#xc2;" d="M344 1660h112v-238h169l-225 -260l-225 260h169v238zM857 860h-914v343l172 457h153v-104h-96l-115 -353h217l53 -104h142l58 104h216l-114 353h-96v104h153l171 -457v-343zM400 800q83 0 156 -31.5t127 -85.5t85.5 -127t31.5 -156t-31.5 -156t-85.5 -127t-127 -85.5 t-156 -31.5t-156 31.5t-127 85.5t-85.5 127t-31.5 156t31.5 156t85.5 127t127 85.5t156 31.5zM490 542q5 1 5 -3q3 0 7 0.5t6 4.5q2 0 2 1.5t-2 1.5q0 -2 -2 -2q2 10 -5 10q1 2 -3 6q-3 2 -1.5 3.5t1.5 3.5q-2 0 -2.5 -1.5t-3.5 -1.5v4q1 0 2 1.5t-2 1.5q-2 -5 -4.5 -3 t-2.5 -3q1 -4 1.5 -4.5t0.5 -3.5q7 0 7 -8q3 -1 0 -1h-4q-1 -2 -2 -5t2 -2zM488 538q0 -1 -1 -1q1 -2 2.5 -1t1.5 2h-3zM530 496q-2 0 -2 -2v-4q5 -2 5.5 2.5t-1.5 4.5q0 -7 -2 -1zM529 504q1 -2 0.5 -2.5t1.5 -2.5q3 5 1 6q0 -3 -3 -1zM534 477q-2 0 -11.5 2t-9.5 -1 q-2 0 -7 -2t-7 -4q-3 -1 -5 -2q-4 -2 -4 1q-5 0 -6 -4q-2 0 -3.5 -2t-2.5 -3q-3 0 -2.5 1t-2.5 -4q0 -2 -1.5 -6t-2.5 -4q1 -1 0 -4q-2 -2 -3.5 -4.5t-3.5 -3.5q-2 -4 -3 -2.5t-3 -2.5l-2 -4l-2 -4q-3 -6 -3.5 -9.5t-0.5 -8.5q0 -2 -1.5 -4t-1.5 -4q1 -2 2 -5.5t1 -5.5 q-2 0 -2.5 -3.5t2.5 -5.5q0 -3 4 -11t7 -10q0 -3 4.5 -7.5t7.5 -4.5q1 -2 9 -4.5t8 0.5q2 0 7 0.5t10 0.5t9.5 -0.5t5.5 -3.5q5 0 7 0.5t7 -1.5q0 -3 -1 -10t-3 -9q0 -10 6 -14q0 -1 2 -3q1 -1 2 -3q2 -5 3 -9.5t0 -12.5q-1 -6 -2.5 -10.5t-1.5 -10.5q-2 0 -0.5 -7.5 t3.5 -7.5q0 -5 2.5 -10t2.5 -10q1 0 1.5 -3.5t0.5 -5.5l1 -3q1 -3 3 -7t3 -7l2 -4q2 0 2 -3.5t1 -3.5q1 -4 2 -7t1 -5q2 -2 6.5 -1.5t7.5 0.5q0 2 8 3.5t10 1.5l4 6q2 3 3 5q0 3 5.5 8.5t8.5 7.5q0 1 2.5 7t1.5 6q0 6 1 11t1 10q2 0 3 3.5t4 3.5q0 1 5 3q0 4 2 6.5t2 7.5 q2 0 0 9t-2 11q-2 0 -2.5 3.5t0 7.5t1 7.5t0.5 4.5q-1 0 0 2l4 5l4 4l2 2q0 3 4 6l5 6l5 6q4 3 4 5q2 1 3 2.5t3 3.5q0 1 -0.5 3t2.5 2q-1 5 2 8.5t3 8.5q-10 -2 -15 -2q0 -1 -2 -1h-4q-5 1 -3 1t1 2q-3 0 -7.5 8t-4.5 11q-1 1 -2 3.5t0 2.5q-2 3 -4.5 5.5t-0.5 5.5 q-3 2 -6 7.5t-5 9.5q-4 4 -4 11q-2 0 -5 5t-2 8q-2 0 -3.5 2.5t-3.5 2.5q1 4 -9.5 4.5t-13.5 0.5q1 6 -5 6q0 -4 -6.5 -5t-9.5 -1q-2 0 -5.5 1t-3.5 4h-8q0 2 -4 10.5t-7 9.5v-2zM543 482q4 -1 7 -3t3 4q-2 -1 -2.5 -2t-3.5 1q-2 0 -3 1t-1 -1zM667 263q2 -1 2 2 q-2 -1 -2 -2zM472 543q6 0 8 3t4 8t0 4t-4 -1q-2 -1 -2.5 1t-1.5 0q0 -3 2 -3q0 -2 -4.5 -2.5t-0.5 -2.5q-1 -2 -2 -3.5t1 -3.5zM425 603q5 0 2.5 -2t-2.5 -4q3 0 5.5 -1t4.5 -1q0 -1 4.5 0t5.5 1q7 0 10 2q2 2 1 2.5t-1 2.5q-2 -1 -2 -2t-3 0q0 5 -1.5 3.5t-6.5 -2.5 q-1 0 -5 -1t-4 0v3q-1 0 -1 2l-4 -2q-2 -1 -3 -1zM652 248q-1 -2 -2 -9t-1 -14t2 -12t7 -5q1 2 2 3t2 3v9q0 5 2 5q0 3 1 7t1 8h3v3q0 2 2 3q0 2 3 3.5t0 3.5q-2 1 -2.5 5t-0.5 6q-2 -2 -1 -5t-4 -3q0 5 -3 0.5t2 -4.5q0 -5 -4 -4t-6 2q-1 -2 -1 -3t3 -2q-2 -3 -3 -2z M720 427q-4 51 -23 96.5t-51 83.5q-2 -3 -4 -2.5t-4 -2.5q-1 0 -1.5 -2t2.5 -2q-1 -4 -3.5 -3.5t-2.5 3.5q-2 0 -3.5 -2t-5.5 -1q1 2 -2 6t-5 4q1 2 0.5 1t-0.5 1q6 0 12.5 1t11.5 1q0 3 -7.5 7t-10.5 2q-2 -1 -5.5 0.5t-5.5 1.5q0 2 -9 2h-11q0 1 -4.5 0.5t-10 -1.5 t-10.5 -2.5t-6 -1.5q-5 0 -7 -2.5t-6 -5.5t-7 -6q-6 -6 -1 -6q0 -3 -3.5 -4.5t-7.5 -2.5t-7.5 -2t-3.5 -3q-1 -1 -4 -0.5t0 -4.5q-1 0 2 -3q1 -2 3 -3q3 0 6 -1.5t8 -1.5q0 1 5 3q0 -3 1.5 -6.5t3.5 -3.5v-4q0 -3 -5 -1q-1 2 -1 3v3q0 3 -3 0.5t-6 -1.5q0 -2 0.5 -6.5 t2.5 -5.5q-1 -3 -4.5 -2.5t-5.5 -2.5q-2 0 -4 -3t-2 1q-2 -2 -1.5 -5t-4.5 0q0 -3 -1 -6q4 0 2 -1.5t-4 -1.5q0 -4 -2 -2l-3 3h-1q3 -5 -2 -4.5t-7 2.5q-2 1 0 -1.5t4 -2.5q0 -3 4.5 -7t-0.5 -9q0 -2 3 -2q0 -4 -3.5 -4t-5.5 1q2 4 -3 4q0 -3 -5 -2.5t-8 -0.5q0 2 -2 2 q-1 -2 -1 -5v-6q0 -4 -1 -8q0 -9 11 -13q0 2 7 1.5t8 1.5q1 4 2.5 5t2.5 4q1 2 4 10.5t4 8.5q0 1 6 -0.5t8 1.5q3 0 5 3q3 -1 4 -4.5t3 -3.5q2 -4 6 -4.5t6 -3.5q3 0 3.5 -5t0.5 -7q4 3 4 8q-2 4 1 2t5 0q-2 0 -2.5 2.5t-4.5 0.5q-1 2 -1 5q-5 -2 -6 3.5t-5 3.5 q-1 2 -2.5 3.5t0.5 3.5q2 4 7 -3t8 -7q1 -1 4 -1.5t3 -1.5q2 -1 1.5 -4t-0.5 -5q2 0 2 -1t1 -3q4 -2 4 -6t5 -6q0 2 3 5t0 3q0 2 -1.5 7t3.5 4q7 -2 7 -4q2 -5 2 -7.5t3 -5.5q2 -5 7.5 -2.5t6.5 0.5q1 0 4.5 -1.5t3.5 0.5l3 2h4q0 -5 -2 -11l-2 -4q-1 -2 0 -4q-2 0 -2 -2 t2 -2q0 -3 -3 -3.5t-6 0.5q1 -3 4.5 -7.5t5.5 -5.5q2 -8 6 -11q0 -2 1.5 -5.5t3.5 -4.5q0 -1 2 -6l4 -8q2 -5 3 -9t0 -4q1 -2 2 -2t0 -2q4 0 4.5 -6t8.5 -6q1 2 4.5 3t5.5 1q2 3 7.5 5t7.5 2q-1 2 6.5 5.5t7.5 5.5q4 0 4 7q0 2 1.5 3t1.5 3q3 2 3.5 6t-4.5 6q1 -5 -1.5 -4 t-1.5 3q1 1 -3 5q-2 1 -0.5 2t-0.5 3q-4 -10 -13 -10q-2 4 0 2t-1 3q-1 2 -1 6h-1q-1 -4 -1 -5t-3 -1q-1 2 0.5 3t-0.5 3t-2 6q-2 1 -4 4t-1 5q1 3 3.5 2t4 -3.5t2.5 -5.5t1 -4q1 0 1 -1q8 3 15 -1.5t15 -4.5q4 -2 11 -2zM181 635q-23 -20 -40.5 -45t-31.5 -53q7 -5 8 -13.5 t1 -16.5q-1 -4 0.5 -8.5t1.5 -8.5q2 -2 4.5 -6.5t2.5 -6.5l6 -8q11 0 11 -10q1 -2 2 -5q2 -6 4 -6q0 -2 2.5 -7.5t4.5 -6.5q0 -3 3 -6.5t5.5 -5t3 0t-3.5 9.5l-3 7q-3 5 -4 5q0 2 -3.5 5t-3.5 5q2 3 6 -1.5t4 -6.5l2 -4q1 -2 2 -3q2 0 5.5 -3.5t3.5 -5.5q5 0 7 -7.5t2 -10.5 q0 -2 1.5 -7t5.5 -5q2 -3 6 -3t6 -3q5 0 9 -2t9 -2q4 0 5.5 -3.5t5.5 -3.5q1 -1 2 -0.5t1 -1.5q4 0 10.5 -4t4.5 -8q2 -1 5.5 -5t2.5 -6q1 -5 6.5 -5.5t8.5 -2.5q3 8 5.5 4t2.5 -8v-13q4 0 1.5 -3.5t-3.5 0.5q-3 0 -3 -4q-2 0 -5 -8t2 -10q-1 -5 -3.5 -8.5t2.5 -6.5l2 -3 q2 -2 4 -5.5t4 -6.5t1 -3q0 -2 1 -4.5t2 -4.5q0 -5 3.5 -11.5t9.5 -6.5l4 -4q1 -1 1 -1.5t1 -1.5q0 -1 1 -1q2 -11 0.5 -19t-1.5 -20q-2 0 -2.5 -4.5t-0.5 -10.5t-1 -11.5t-3 -6.5q-1 -4 -3 -7t0 -5q1 -4 0.5 -7.5t-0.5 -7.5q-1 0 -2 -3t-1 -5q-2 0 -2.5 -13.5t-0.5 -21.5 l12 -4l13 -4q0 2 -0.5 2.5t-0.5 2.5q-3 0 -1 4.5t5 4.5q1 4 2 5l3 3q2 0 0.5 2t-1.5 0q-1 0 -1 -1t-1 -1q-2 2 -1 2q0 2 1 4.5t1 4.5q1 0 1.5 2t1.5 3q2 2 4 3.5t2 4.5q1 0 0 2.5t-2 2.5q2 2 4.5 0.5t2.5 3.5q1 0 1 4q4 2 5 3t6 1q3 3 8 3v8q0 3 3.5 3.5t3.5 2.5q5 3 5 10 q0 2 3 5t5 3q4 0 3.5 1t1.5 1q-1 2 0 2t2 2q2 2 1.5 7t0.5 8l2 2q1 1 2 3q2 0 3.5 1.5t3.5 1.5q2 2 6.5 4t6.5 4q2 5 4 6.5t2 6.5q1 0 2 6t1 8v11q1 0 4.5 4.5t3.5 5.5q5 4 4.5 12.5t-5.5 13.5q-3 3 -5 4.5t-7 3.5q-1 -2 -2.5 -1.5t-3.5 0.5q-3 0 -4 -1.5t-5 -1.5q1 2 1 6 t-4 5q0 -4 -2.5 -3t-0.5 3q-2 0 -4 2t-4 2q0 -4 -4 -2.5t-2 1.5q0 1 -0.5 4.5t0.5 3.5q0 2 -0.5 5.5t-2.5 4.5q-2 4 -1 4t-3 3q-1 2 -1 1t-1 1q-2 0 -3.5 1.5t-2.5 -0.5q-4 0 -8 2q-5 2 -3.5 2t-0.5 2q0 1 -2.5 1.5t-2.5 2.5q-1 2 -2 2.5t-1 1.5h-1q-1 0 -1.5 1t-2.5 1 q0 3 -3 3q-2 -2 -5.5 -1.5t-5.5 0.5q-6 0 -6.5 4t-3.5 5q-5 -3 -8 -3q-1 1 -1 0.5t-2 0.5l-2 -1q-2 -1 -3 -3t-3 -1q-2 4 -2 0q-4 0 -2.5 -5.5t-6.5 -5.5q2 7 -5 7q0 -3 -4 -3h-7q1 4 -3 8q0 2 -1.5 4.5t-1.5 6.5q-2 0 -0.5 5.5t-3.5 5.5q1 0 1 -2q-3 0 -6.5 -0.5t-6.5 0.5 q1 3 -0.5 4t-0.5 4q1 4 3 10q1 0 1.5 2.5t2.5 2.5q2 1 0.5 3t-1.5 -1q-2 -1 -3 -1q-1 -1 -2 -1h-1q0 -1 -2.5 -3t-2.5 1q-2 -1 -4 -3.5t1 -3.5q0 -1 -2 -3l-1 -1q-5 -1 -4.5 0t-0.5 3q-2 0 -5 4t-6 4q0 2 -1.5 4.5t-1.5 6.5q-1 0 -1 7.5t1 7.5q0 14 13 16q4 0 5 -1.5t4 -2.5 q2 0 3.5 0.5t3.5 1.5q0 2 -1 2.5t-1 2.5q2 0 7 -0.5t6 -2.5q2 -2 4.5 -0.5t4.5 -0.5t3 -5.5t1 -5.5l3 -6q5 0 3 7q0 2 -0.5 7.5t-2.5 7.5q0 7 3.5 8t5.5 6q5 0 6.5 5t3.5 7q0 1 1 4.5t2 3.5q1 3 1.5 4t2.5 3q-1 0 3 2.5t4 1.5q2 2 3.5 5.5t2.5 5.5q5 0 5 5q3 0 5 1t6 1 q-1 -2 -0.5 -2t0.5 -2q1 0 -0.5 -0.5t-2.5 0.5q0 -2 -1 -2t5 1q2 2 5 2q0 2 2 1.5t2 1.5q-4 0 -7 5q-2 3 -3.5 5.5t4.5 2.5q0 1 -0.5 1t-0.5 1q-3 -1 -4.5 -2.5t-4.5 -1.5q-5 -1 -7 -4t-7 -3q0 5 5.5 10.5t9.5 7.5q7 2 15.5 0t10.5 6q2 0 6 -1t4 2q2 0 1 1.5t2 1.5 q-2 6 -7 6q0 5 -1.5 2.5t-3.5 -2.5q0 2 -2 4q0 2 -3 5l-5 5q-2 0 -4 6.5t-4 5.5q0 -2 -2 -5t-4 -3q0 -2 -2.5 -1.5t-3.5 0.5q0 2 0.5 1.5t0.5 1.5q-2 0 -2 1v1q-1 0 -5 4t-4 6q-5 -2 -4 -0.5t-4 3.5q-2 -5 -6 -3t-7 2q0 -1 -2 0t-3 0q0 -2 1 -6.5t-2 -5.5q1 -2 2 -1.5 t2 -1.5q2 -2 1.5 -5.5t-1.5 -6.5q5 -2 0 -4t-5 0q-2 -1 -2.5 -3t2.5 -4v-4q0 -2 2 -2q-2 -5 -10 -3q0 2 1 2q0 2 -1.5 4.5t-0.5 2.5q0 2 -3.5 7t-3.5 0h-5q-3 0 -3 4q-4 0 -4 3q-5 1 -8.5 1t-8.5 2q0 2 -4 5.5t-6 5.5q0 6 -0.5 10.5t6.5 5.5q0 -1 3.5 0.5t4.5 2.5q2 3 4.5 1 t4.5 3q2 7 9 5q0 -10 -6 -10q2 -2 7 -0.5t8 1.5q0 -1 3 -1h3q-2 2 -8.5 4t-1.5 7q0 1 3 1.5t4 2.5q0 2 0.5 6t-0.5 4q-2 1 -3.5 0.5t-4.5 0.5q0 2 -1 2q0 -2 -1.5 -1t-3.5 0q0 -3 1 -3q0 -10 -7 -11q0 3 -1.5 6.5t-3.5 4.5q0 -4 -1.5 -3.5t-3.5 2t-4 4t-3 3.5q-1 3 -5 5 q-2 -3 -3.5 -2t-3.5 -2t-1 -3.5t-1 -3.5q-2 0 -6 0.5t-5 -1.5q5 0 4 -4q4 0 1 -1.5t-3 -2.5q-2 0 -4 -0.5t-5 0.5q-4 0 -12 2q-3 2 -3 3t-1 1q-4 5 1 4t5 -2q3 0 6 -1.5t2 4.5h4q-1 3 -8 1q0 2 -1.5 5t-2.5 3q-1 3 -0.5 4t0.5 3q-1 0 -2.5 -1t-3.5 -2zM340 520q-4 -1 -4 -3 q4 0 4 3zM323 399q0 1 -3 1q-1 -2 0 -1.5t3 0.5zM312 399q0 1 -2 3t-3 2q-1 -2 -0.5 -1t0.5 -1q-3 0 -5.5 1t-4.5 1l2 -4q-2 -1 -4 -0.5t-4 0.5q1 -2 5 -2t4 1h12zM303 375q0 -1 -1 -2q2 0 3 2h-2zM277 412q3 -6 11 -6q5 1 2.5 3t-3.5 4q-4 0 -5.5 2t-6.5 3q-2 -3 -7 -1 q1 -2 4 -3.5t5 -1.5zM285 398q0 3 -1.5 2t-1.5 -3q2 0 3 1zM281 397q1 3 -3 3q-2 -3 0 -3h3zM263 417q-3 -2 -4 1h-2q-1 -4 2.5 -3.5t3.5 2.5zM319 399l-1 -1v2zM642 498q5 0 0 -3t-5 -1q-5 -2 -7 1t-4 3q0 -3 -2 -1q-1 1 -2 3q0 -2 -10.5 -3t-13.5 -1q1 3 -1 4q-1 7 2 11 t5 10q10 2 8 -6q4 0 3 -2.5t4 -0.5q1 2 5 2q3 0 4.5 -1t3.5 -1q2 -5 6.5 -5.5t3.5 -8.5zM665 507q-3 0 -3 2q0 1 1 3q2 4 2 5q3 0 5 2t5 3q2 1 4 1q1 0 1 -1q1 -3 3 -6q1 0 0.5 -0.5t-1.5 -0.5q-1 -1 -3 -1q-2 -1 -2.5 -0.5t-2.5 0.5q-1 -2 0 -4.5t2 -2.5q2 -2 2.5 -2 t0.5 -4q0 -3 1.5 -1.5t3.5 1.5q0 -2 2 -4t2 -4h-4h-2q0 -2 1 -3t1 -3q2 0 0 -4t3 -4q-1 -4 -4 -4h-1q-5 1 -7 5q-6 2 -5 5.5t1 7.5q0 5 -3 7.5t-3 6.5z" />
<glyph unicode="&#xc3;" d="M656 1660q30 0 56 -11.5t45.5 -31t31 -45.5t11.5 -56v-512q0 -30 -11.5 -56t-31 -45.5t-45.5 -31t-56 -11.5h-512q-30 0 -56 11.5t-45.5 31t-31 45.5t-11.5 56v512q0 30 11.5 56t31 45.5t45.5 31t56 11.5h512zM658 1386q0 6 -4.5 10.5t-11.5 4.5h-108v1l-15 29 q-3 6 -9.5 10t-12.5 4h-199q-6 0 -12.5 -4t-9.5 -10l-15 -29v-1h-108q-6 0 -10.5 -4.5t-4.5 -10.5v-294q0 -6 4.5 -10.5t10.5 -4.5h489q7 0 11.5 4.5t4.5 10.5v294zM397 1353q23 0 43.5 -9t35.5 -24t24 -35.5t9 -43.5t-9 -43.5t-24 -35.5t-35.5 -24t-43.5 -9t-43.5 9 t-35.5 24t-24 35.5t-9 43.5t9 43.5t24 35.5t35.5 24t43.5 9zM400 800q83 0 156 -31.5t127 -85.5t85.5 -127t31.5 -156t-31.5 -156t-85.5 -127t-127 -85.5t-156 -31.5t-156 31.5t-127 85.5t-85.5 127t-31.5 156t31.5 156t85.5 127t127 85.5t156 31.5zM490 542q5 1 5 -3 q3 0 7 0.5t6 4.5q2 0 2 1.5t-2 1.5q0 -2 -2 -2q2 10 -5 10q1 2 -3 6q-3 2 -1.5 3.5t1.5 3.5q-2 0 -2.5 -1.5t-3.5 -1.5v4q1 0 2 1.5t-2 1.5q-2 -5 -4.5 -3t-2.5 -3q1 -4 1.5 -4.5t0.5 -3.5q7 0 7 -8q3 -1 0 -1h-4q-1 -2 -2 -5t2 -2zM488 538q0 -1 -1 -1q1 -2 2.5 -1t1.5 2 h-3zM530 496q-2 0 -2 -2v-4q5 -2 5.5 2.5t-1.5 4.5q0 -7 -2 -1zM529 504q1 -2 0.5 -2.5t1.5 -2.5q3 5 1 6q0 -3 -3 -1zM534 477q-2 0 -11.5 2t-9.5 -1q-2 0 -7 -2t-7 -4q-3 -1 -5 -2q-4 -2 -4 1q-5 0 -6 -4q-2 0 -3.5 -2t-2.5 -3q-3 0 -2.5 1t-2.5 -4q0 -2 -1.5 -6t-2.5 -4 q1 -1 0 -4q-2 -2 -3.5 -4.5t-3.5 -3.5q-2 -4 -3 -2.5t-3 -2.5l-2 -4l-2 -4q-3 -6 -3.5 -9.5t-0.5 -8.5q0 -2 -1.5 -4t-1.5 -4q1 -2 2 -5.5t1 -5.5q-2 0 -2.5 -3.5t2.5 -5.5q0 -3 4 -11t7 -10q0 -3 4.5 -7.5t7.5 -4.5q1 -2 9 -4.5t8 0.5q2 0 7 0.5t10 0.5t9.5 -0.5t5.5 -3.5 q5 0 7 0.5t7 -1.5q0 -3 -1 -10t-3 -9q0 -10 6 -14q0 -1 2 -3q1 -1 2 -3q2 -5 3 -9.5t0 -12.5q-1 -6 -2.5 -10.5t-1.5 -10.5q-2 0 -0.5 -7.5t3.5 -7.5q0 -5 2.5 -10t2.5 -10q1 0 1.5 -3.5t0.5 -5.5l1 -3q1 -3 3 -7t3 -7l2 -4q2 0 2 -3.5t1 -3.5q1 -4 2 -7t1 -5q2 -2 6.5 -1.5 t7.5 0.5q0 2 8 3.5t10 1.5l4 6q2 3 3 5q0 3 5.5 8.5t8.5 7.5q0 1 2.5 7t1.5 6q0 6 1 11t1 10q2 0 3 3.5t4 3.5q0 1 5 3q0 4 2 6.5t2 7.5q2 0 0 9t-2 11q-2 0 -2.5 3.5t0 7.5t1 7.5t0.5 4.5q-1 0 0 2l4 5l4 4l2 2q0 3 4 6l5 6l5 6q4 3 4 5q2 1 3 2.5t3 3.5q0 1 -0.5 3t2.5 2 q-1 5 2 8.5t3 8.5q-10 -2 -15 -2q0 -1 -2 -1h-4q-5 1 -3 1t1 2q-3 0 -7.5 8t-4.5 11q-1 1 -2 3.5t0 2.5q-2 3 -4.5 5.5t-0.5 5.5q-3 2 -6 7.5t-5 9.5q-4 4 -4 11q-2 0 -5 5t-2 8q-2 0 -3.5 2.5t-3.5 2.5q1 4 -9.5 4.5t-13.5 0.5q1 6 -5 6q0 -4 -6.5 -5t-9.5 -1q-2 0 -5.5 1 t-3.5 4h-8q0 2 -4 10.5t-7 9.5v-2zM543 482q4 -1 7 -3t3 4q-2 -1 -2.5 -2t-3.5 1q-2 0 -3 1t-1 -1zM667 263q2 -1 2 2q-2 -1 -2 -2zM472 543q6 0 8 3t4 8t0 4t-4 -1q-2 -1 -2.5 1t-1.5 0q0 -3 2 -3q0 -2 -4.5 -2.5t-0.5 -2.5q-1 -2 -2 -3.5t1 -3.5zM425 603q5 0 2.5 -2 t-2.5 -4q3 0 5.5 -1t4.5 -1q0 -1 4.5 0t5.5 1q7 0 10 2q2 2 1 2.5t-1 2.5q-2 -1 -2 -2t-3 0q0 5 -1.5 3.5t-6.5 -2.5q-1 0 -5 -1t-4 0v3q-1 0 -1 2l-4 -2q-2 -1 -3 -1zM652 248q-1 -2 -2 -9t-1 -14t2 -12t7 -5q1 2 2 3t2 3v9q0 5 2 5q0 3 1 7t1 8h3v3q0 2 2 3q0 2 3 3.5 t0 3.5q-2 1 -2.5 5t-0.5 6q-2 -2 -1 -5t-4 -3q0 5 -3 0.5t2 -4.5q0 -5 -4 -4t-6 2q-1 -2 -1 -3t3 -2q-2 -3 -3 -2zM720 427q-4 51 -23 96.5t-51 83.5q-2 -3 -4 -2.5t-4 -2.5q-1 0 -1.5 -2t2.5 -2q-1 -4 -3.5 -3.5t-2.5 3.5q-2 0 -3.5 -2t-5.5 -1q1 2 -2 6t-5 4q1 2 0.5 1 t-0.5 1q6 0 12.5 1t11.5 1q0 3 -7.5 7t-10.5 2q-2 -1 -5.5 0.5t-5.5 1.5q0 2 -9 2h-11q0 1 -4.5 0.5t-10 -1.5t-10.5 -2.5t-6 -1.5q-5 0 -7 -2.5t-6 -5.5t-7 -6q-6 -6 -1 -6q0 -3 -3.5 -4.5t-7.5 -2.5t-7.5 -2t-3.5 -3q-1 -1 -4 -0.5t0 -4.5q-1 0 2 -3q1 -2 3 -3q3 0 6 -1.5 t8 -1.5q0 1 5 3q0 -3 1.5 -6.5t3.5 -3.5v-4q0 -3 -5 -1q-1 2 -1 3v3q0 3 -3 0.5t-6 -1.5q0 -2 0.5 -6.5t2.5 -5.5q-1 -3 -4.5 -2.5t-5.5 -2.5q-2 0 -4 -3t-2 1q-2 -2 -1.5 -5t-4.5 0q0 -3 -1 -6q4 0 2 -1.5t-4 -1.5q0 -4 -2 -2l-3 3h-1q3 -5 -2 -4.5t-7 2.5q-2 1 0 -1.5 t4 -2.5q0 -3 4.5 -7t-0.5 -9q0 -2 3 -2q0 -4 -3.5 -4t-5.5 1q2 4 -3 4q0 -3 -5 -2.5t-8 -0.5q0 2 -2 2q-1 -2 -1 -5v-6q0 -4 -1 -8q0 -9 11 -13q0 2 7 1.5t8 1.5q1 4 2.5 5t2.5 4q1 2 4 10.5t4 8.5q0 1 6 -0.5t8 1.5q3 0 5 3q3 -1 4 -4.5t3 -3.5q2 -4 6 -4.5t6 -3.5 q3 0 3.5 -5t0.5 -7q4 3 4 8q-2 4 1 2t5 0q-2 0 -2.5 2.5t-4.5 0.5q-1 2 -1 5q-5 -2 -6 3.5t-5 3.5q-1 2 -2.5 3.5t0.5 3.5q2 4 7 -3t8 -7q1 -1 4 -1.5t3 -1.5q2 -1 1.5 -4t-0.5 -5q2 0 2 -1t1 -3q4 -2 4 -6t5 -6q0 2 3 5t0 3q0 2 -1.5 7t3.5 4q7 -2 7 -4q2 -5 2 -7.5t3 -5.5 q2 -5 7.5 -2.5t6.5 0.5q1 0 4.5 -1.5t3.5 0.5l3 2h4q0 -5 -2 -11l-2 -4q-1 -2 0 -4q-2 0 -2 -2t2 -2q0 -3 -3 -3.5t-6 0.5q1 -3 4.5 -7.5t5.5 -5.5q2 -8 6 -11q0 -2 1.5 -5.5t3.5 -4.5q0 -1 2 -6l4 -8q2 -5 3 -9t0 -4q1 -2 2 -2t0 -2q4 0 4.5 -6t8.5 -6q1 2 4.5 3t5.5 1 q2 3 7.5 5t7.5 2q-1 2 6.5 5.5t7.5 5.5q4 0 4 7q0 2 1.5 3t1.5 3q3 2 3.5 6t-4.5 6q1 -5 -1.5 -4t-1.5 3q1 1 -3 5q-2 1 -0.5 2t-0.5 3q-4 -10 -13 -10q-2 4 0 2t-1 3q-1 2 -1 6h-1q-1 -4 -1 -5t-3 -1q-1 2 0.5 3t-0.5 3t-2 6q-2 1 -4 4t-1 5q1 3 3.5 2t4 -3.5t2.5 -5.5 t1 -4q1 0 1 -1q8 3 15 -1.5t15 -4.5q4 -2 11 -2zM181 635q-23 -20 -40.5 -45t-31.5 -53q7 -5 8 -13.5t1 -16.5q-1 -4 0.5 -8.5t1.5 -8.5q2 -2 4.5 -6.5t2.5 -6.5l6 -8q11 0 11 -10q1 -2 2 -5q2 -6 4 -6q0 -2 2.5 -7.5t4.5 -6.5q0 -3 3 -6.5t5.5 -5t3 0t-3.5 9.5l-3 7 q-3 5 -4 5q0 2 -3.5 5t-3.5 5q2 3 6 -1.5t4 -6.5l2 -4q1 -2 2 -3q2 0 5.5 -3.5t3.5 -5.5q5 0 7 -7.5t2 -10.5q0 -2 1.5 -7t5.5 -5q2 -3 6 -3t6 -3q5 0 9 -2t9 -2q4 0 5.5 -3.5t5.5 -3.5q1 -1 2 -0.5t1 -1.5q4 0 10.5 -4t4.5 -8q2 -1 5.5 -5t2.5 -6q1 -5 6.5 -5.5t8.5 -2.5 q3 8 5.5 4t2.5 -8v-13q4 0 1.5 -3.5t-3.5 0.5q-3 0 -3 -4q-2 0 -5 -8t2 -10q-1 -5 -3.5 -8.5t2.5 -6.5l2 -3q2 -2 4 -5.5t4 -6.5t1 -3q0 -2 1 -4.5t2 -4.5q0 -5 3.5 -11.5t9.5 -6.5l4 -4q1 -1 1 -1.5t1 -1.5q0 -1 1 -1q2 -11 0.5 -19t-1.5 -20q-2 0 -2.5 -4.5t-0.5 -10.5 t-1 -11.5t-3 -6.5q-1 -4 -3 -7t0 -5q1 -4 0.5 -7.5t-0.5 -7.5q-1 0 -2 -3t-1 -5q-2 0 -2.5 -13.5t-0.5 -21.5l12 -4l13 -4q0 2 -0.5 2.5t-0.5 2.5q-3 0 -1 4.5t5 4.5q1 4 2 5l3 3q2 0 0.5 2t-1.5 0q-1 0 -1 -1t-1 -1q-2 2 -1 2q0 2 1 4.5t1 4.5q1 0 1.5 2t1.5 3q2 2 4 3.5 t2 4.5q1 0 0 2.5t-2 2.5q2 2 4.5 0.5t2.5 3.5q1 0 1 4q4 2 5 3t6 1q3 3 8 3v8q0 3 3.5 3.5t3.5 2.5q5 3 5 10q0 2 3 5t5 3q4 0 3.5 1t1.5 1q-1 2 0 2t2 2q2 2 1.5 7t0.5 8l2 2q1 1 2 3q2 0 3.5 1.5t3.5 1.5q2 2 6.5 4t6.5 4q2 5 4 6.5t2 6.5q1 0 2 6t1 8v11q1 0 4.5 4.5 t3.5 5.5q5 4 4.5 12.5t-5.5 13.5q-3 3 -5 4.5t-7 3.5q-1 -2 -2.5 -1.5t-3.5 0.5q-3 0 -4 -1.5t-5 -1.5q1 2 1 6t-4 5q0 -4 -2.5 -3t-0.5 3q-2 0 -4 2t-4 2q0 -4 -4 -2.5t-2 1.5q0 1 -0.5 4.5t0.5 3.5q0 2 -0.5 5.5t-2.5 4.5q-2 4 -1 4t-3 3q-1 2 -1 1t-1 1q-2 0 -3.5 1.5 t-2.5 -0.5q-4 0 -8 2q-5 2 -3.5 2t-0.5 2q0 1 -2.5 1.5t-2.5 2.5q-1 2 -2 2.5t-1 1.5h-1q-1 0 -1.5 1t-2.5 1q0 3 -3 3q-2 -2 -5.5 -1.5t-5.5 0.5q-6 0 -6.5 4t-3.5 5q-5 -3 -8 -3q-1 1 -1 0.5t-2 0.5l-2 -1q-2 -1 -3 -3t-3 -1q-2 4 -2 0q-4 0 -2.5 -5.5t-6.5 -5.5q2 7 -5 7 q0 -3 -4 -3h-7q1 4 -3 8q0 2 -1.5 4.5t-1.5 6.5q-2 0 -0.5 5.5t-3.5 5.5q1 0 1 -2q-3 0 -6.5 -0.5t-6.5 0.5q1 3 -0.5 4t-0.5 4q1 4 3 10q1 0 1.5 2.5t2.5 2.5q2 1 0.5 3t-1.5 -1q-2 -1 -3 -1q-1 -1 -2 -1h-1q0 -1 -2.5 -3t-2.5 1q-2 -1 -4 -3.5t1 -3.5q0 -1 -2 -3l-1 -1 q-5 -1 -4.5 0t-0.5 3q-2 0 -5 4t-6 4q0 2 -1.5 4.5t-1.5 6.5q-1 0 -1 7.5t1 7.5q0 14 13 16q4 0 5 -1.5t4 -2.5q2 0 3.5 0.5t3.5 1.5q0 2 -1 2.5t-1 2.5q2 0 7 -0.5t6 -2.5q2 -2 4.5 -0.5t4.5 -0.5t3 -5.5t1 -5.5l3 -6q5 0 3 7q0 2 -0.5 7.5t-2.5 7.5q0 7 3.5 8t5.5 6 q5 0 6.5 5t3.5 7q0 1 1 4.5t2 3.5q1 3 1.5 4t2.5 3q-1 0 3 2.5t4 1.5q2 2 3.5 5.5t2.5 5.5q5 0 5 5q3 0 5 1t6 1q-1 -2 -0.5 -2t0.5 -2q1 0 -0.5 -0.5t-2.5 0.5q0 -2 -1 -2t5 1q2 2 5 2q0 2 2 1.5t2 1.5q-4 0 -7 5q-2 3 -3.5 5.5t4.5 2.5q0 1 -0.5 1t-0.5 1q-3 -1 -4.5 -2.5 t-4.5 -1.5q-5 -1 -7 -4t-7 -3q0 5 5.5 10.5t9.5 7.5q7 2 15.5 0t10.5 6q2 0 6 -1t4 2q2 0 1 1.5t2 1.5q-2 6 -7 6q0 5 -1.5 2.5t-3.5 -2.5q0 2 -2 4q0 2 -3 5l-5 5q-2 0 -4 6.5t-4 5.5q0 -2 -2 -5t-4 -3q0 -2 -2.5 -1.5t-3.5 0.5q0 2 0.5 1.5t0.5 1.5q-2 0 -2 1v1q-1 0 -5 4 t-4 6q-5 -2 -4 -0.5t-4 3.5q-2 -5 -6 -3t-7 2q0 -1 -2 0t-3 0q0 -2 1 -6.5t-2 -5.5q1 -2 2 -1.5t2 -1.5q2 -2 1.5 -5.5t-1.5 -6.5q5 -2 0 -4t-5 0q-2 -1 -2.5 -3t2.5 -4v-4q0 -2 2 -2q-2 -5 -10 -3q0 2 1 2q0 2 -1.5 4.5t-0.5 2.5q0 2 -3.5 7t-3.5 0h-5q-3 0 -3 4q-4 0 -4 3 q-5 1 -8.5 1t-8.5 2q0 2 -4 5.5t-6 5.5q0 6 -0.5 10.5t6.5 5.5q0 -1 3.5 0.5t4.5 2.5q2 3 4.5 1t4.5 3q2 7 9 5q0 -10 -6 -10q2 -2 7 -0.5t8 1.5q0 -1 3 -1h3q-2 2 -8.5 4t-1.5 7q0 1 3 1.5t4 2.5q0 2 0.5 6t-0.5 4q-2 1 -3.5 0.5t-4.5 0.5q0 2 -1 2q0 -2 -1.5 -1t-3.5 0 q0 -3 1 -3q0 -10 -7 -11q0 3 -1.5 6.5t-3.5 4.5q0 -4 -1.5 -3.5t-3.5 2t-4 4t-3 3.5q-1 3 -5 5q-2 -3 -3.5 -2t-3.5 -2t-1 -3.5t-1 -3.5q-2 0 -6 0.5t-5 -1.5q5 0 4 -4q4 0 1 -1.5t-3 -2.5q-2 0 -4 -0.5t-5 0.5q-4 0 -12 2q-3 2 -3 3t-1 1q-4 5 1 4t5 -2q3 0 6 -1.5t2 4.5h4 q-1 3 -8 1q0 2 -1.5 5t-2.5 3q-1 3 -0.5 4t0.5 3q-1 0 -2.5 -1t-3.5 -2zM340 520q-4 -1 -4 -3q4 0 4 3zM323 399q0 1 -3 1q-1 -2 0 -1.5t3 0.5zM312 399q0 1 -2 3t-3 2q-1 -2 -0.5 -1t0.5 -1q-3 0 -5.5 1t-4.5 1l2 -4q-2 -1 -4 -0.5t-4 0.5q1 -2 5 -2t4 1h12zM303 375 q0 -1 -1 -2q2 0 3 2h-2zM277 412q3 -6 11 -6q5 1 2.5 3t-3.5 4q-4 0 -5.5 2t-6.5 3q-2 -3 -7 -1q1 -2 4 -3.5t5 -1.5zM285 398q0 3 -1.5 2t-1.5 -3q2 0 3 1zM281 397q1 3 -3 3q-2 -3 0 -3h3zM263 417q-3 -2 -4 1h-2q-1 -4 2.5 -3.5t3.5 2.5zM319 399l-1 -1v2zM642 498 q5 0 0 -3t-5 -1q-5 -2 -7 1t-4 3q0 -3 -2 -1q-1 1 -2 3q0 -2 -10.5 -3t-13.5 -1q1 3 -1 4q-1 7 2 11t5 10q10 2 8 -6q4 0 3 -2.5t4 -0.5q1 2 5 2q3 0 4.5 -1t3.5 -1q2 -5 6.5 -5.5t3.5 -8.5zM665 507q-3 0 -3 2q0 1 1 3q2 4 2 5q3 0 5 2t5 3q2 1 4 1q1 0 1 -1q1 -3 3 -6 q1 0 0.5 -0.5t-1.5 -0.5q-1 -1 -3 -1q-2 -1 -2.5 -0.5t-2.5 0.5q-1 -2 0 -4.5t2 -2.5q2 -2 2.5 -2t0.5 -4q0 -3 1.5 -1.5t3.5 1.5q0 -2 2 -4t2 -4h-4h-2q0 -2 1 -3t1 -3q2 0 0 -4t3 -4q-1 -4 -4 -4h-1q-5 1 -7 5q-6 2 -5 5.5t1 7.5q0 5 -3 7.5t-3 6.5z" />
<glyph unicode="&#xc8;" horiz-adv-x="495" d="M-61 1326q-25 3 -63.5 5.5t-98.5 2.5v-157l-359 241l359 242v-145q115 -14 207 -54q39 -17 76 -42t66 -59.5t47 -80t18 -102.5q-18 35 -51 65q-29 26 -77.5 50.5t-123.5 33.5zM691 1177v157q-60 0 -98.5 -2.5t-63.5 -5.5q-75 -9 -124 -33.5t-78 -50.5q-33 -30 -51 -65 q0 57 17.5 102.5t47 80t66.5 59.5t76 42q92 40 208 54v145l359 -242zM132 1444q-50 43 -122 75l-9 3l-9 4l2 5h479l2 -5l-9 -4l-9 -3q-35 -16 -65 -35t-56 -40h-204zM487 1253q11 3 23.5 5.5t26.5 4.5q8 1 17 1.5t18 1.5l44 -118l1 -288h-767v287l44 119q10 -1 19.5 -1.5 t17.5 -1.5q14 -2 26 -4.5t23 -4.5l-34 -106h181l45 -88h119l49 88h181zM471 55h-202l55 -55h-177l55 55h-202v323h226l-202 234h157v188h104v-188h157l-202 -234h231v-323zM412 319h-353v-205h353v205z" />
<glyph unicode="&#xca;" horiz-adv-x="495" d="M177 1660h112v-238h169l-225 -260l-225 260h169v238zM690 860h-914v343l172 457h153v-104h-96l-115 -353h217l53 -104h142l58 104h216l-114 353h-96v104h153l171 -457v-343zM471 55h-202l55 -55h-177l55 55h-202v323h226l-202 234h157v188h104v-188h157l-202 -234h231 v-323zM412 319h-353v-205h353v205z" />
<glyph unicode="&#xcc;" horiz-adv-x="991" d="M177 1326q-25 3 -63.5 5.5t-98.5 2.5v-157l-359 241l359 242v-145q115 -14 207 -54q39 -17 76 -42t66 -59.5t47 -80t18 -102.5q-18 35 -51 65q-29 26 -77.5 50.5t-123.5 33.5zM929 1177v157q-60 0 -98.5 -2.5t-63.5 -5.5q-75 -9 -124 -33.5t-78 -50.5q-33 -30 -51 -65 q0 57 17.5 102.5t47 80t66.5 59.5t76 42q92 40 208 54v145l359 -242zM370 1444q-50 43 -122 75l-9 3l-9 4l2 5h479l2 -5l-9 -4l-9 -3q-35 -16 -65 -35t-56 -40h-204zM725 1253q11 3 23.5 5.5t26.5 4.5q8 1 17 1.5t18 1.5l44 -118l1 -288h-767v287l44 119q10 -1 19.5 -1.5 t17.5 -1.5q14 -2 26 -4.5t23 -4.5l-34 -106h181l45 -88h119l49 88h181zM943 800v-800h-236v84q0 17 -9 26t-24.5 13.5t-36.5 5t-46 0.5h-119h-120q-24 0 -45 -0.5t-36.5 -5t-24.5 -13.5t-9 -26v-84h-237v800h472h471zM883 739h-826v-528h826v528z" />
<glyph unicode="&#xce;" horiz-adv-x="991" d="M415 1660h112v-238h169l-225 -260l-225 260h169v238zM928 860h-914v343l172 457h153v-104h-96l-115 -353h217l53 -104h142l58 104h216l-114 353h-96v104h153l171 -457v-343zM943 800v-800h-236v84q0 17 -9 26t-24.5 13.5t-36.5 5t-46 0.5h-119h-120q-24 0 -45 -0.5 t-36.5 -5t-24.5 -13.5t-9 -26v-84h-237v800h472h471zM883 739h-826v-528h826v528z" />
<glyph unicode="&#xd1;" horiz-adv-x="839" d="M618 1660q30 0 56 -11.5t45.5 -31t31 -45.5t11.5 -56v-512q0 -30 -11.5 -56t-31 -45.5t-45.5 -31t-56 -11.5h-512q-30 0 -56 11.5t-45.5 31t-31 45.5t-11.5 56v512q0 30 11.5 56t31 45.5t45.5 31t56 11.5h512zM620 1386q0 6 -4.5 10.5t-11.5 4.5h-108v1l-15 29 q-3 6 -9.5 10t-12.5 4h-199q-6 0 -12.5 -4t-9.5 -10l-15 -29v-1h-108q-6 0 -10.5 -4.5t-4.5 -10.5v-294q0 -6 4.5 -10.5t10.5 -4.5h489q7 0 11.5 4.5t4.5 10.5v294zM359 1353q23 0 43.5 -9t35.5 -24t24 -35.5t9 -43.5t-9 -43.5t-24 -35.5t-35.5 -24t-43.5 -9t-43.5 9 t-35.5 24t-24 35.5t-9 43.5t9 43.5t24 35.5t35.5 24t43.5 9zM597 376q-4 46 -23.5 87t-51 72.5t-72.5 51t-88 23.5v58q58 -4 109.5 -28t91 -63t63.5 -91t29 -110h-58zM730 376q-5 74 -35 139.5t-79.5 115t-114.5 79.5t-139 34v56q83 -1 159.5 -36.5t135 -94t94 -135 t37.5 -158.5h-58zM362 535q63 -8 108 -53q22 -22 34.5 -49t17.5 -57h-49q-11 40 -40 71q-15 15 -33 24.5t-38 14.5v49zM791 158q8 -5 8 -13q0 -5 -4 -9l-120 -120q-6 -5 -15 -9.5t-17 -5.5h-13q-48 0 -105 19q-28 9 -61.5 25t-71.5 40t-80.5 58t-88.5 80t-80 88.5t-58 80.5 t-40 71.5t-25 61.5q-19 57 -19 105v13q1 8 5.5 17t9.5 15l120 119q5 5 10 5q6 0 11 -8l97 -183q4 -7 2 -15.5t-7 -14.5l-44 -44q-6 -5 -10 -14t-4 -17q2 -21 15 -49q11 -24 36 -59t72 -81q46 -47 81 -71.5t59 -35.5q28 -13 48 -15q8 0 17.5 4t14.5 9l52 52q5 5 14 7t16 -3z " />
<glyph unicode="&#xd2;" horiz-adv-x="1186" d="M269 1326q-25 3 -63.5 5.5t-98.5 2.5v-157l-359 241l359 242v-145q115 -14 207 -54q39 -17 76 -42t66 -59.5t47 -80t18 -102.5q-18 35 -51 65q-29 26 -77.5 50.5t-123.5 33.5zM1021 1177v157q-60 0 -98.5 -2.5t-63.5 -5.5q-75 -9 -124 -33.5t-78 -50.5q-33 -30 -51 -65 q0 57 17.5 102.5t47 80t66.5 59.5t76 42q92 40 208 54v145l359 -242zM462 1444q-50 43 -122 75l-9 3l-9 4l2 5h479l2 -5l-9 -4l-9 -3q-35 -16 -65 -35t-56 -40h-204zM817 1253q11 3 23.5 5.5t26.5 4.5q8 1 17 1.5t18 1.5l44 -118l1 -288h-767v287l44 119q10 -1 19.5 -1.5 t17.5 -1.5q14 -2 26 -4.5t23 -4.5l-34 -106h181l45 -88h119l49 88h181zM485 81q17 16 38 24.5t43 8.5t43 -8.5t38 -24.5l-81 -81zM1130 564l-72 -71l-2 2q-102 102 -230 153t-262 51t-262 -51t-230 -153h-1l-71 71l1 1q78 78 170 129.5t191 77.5t202 26t202 -26t191 -77.5 t170 -129.5zM162 404q84 83 188.5 124.5t213.5 41.5t214 -42t188 -125l1 -1l-71 -72q0 1 -1 1q-68 69 -154.5 103t-176 34t-176 -34t-154.5 -102zM323 243q50 50 113 75t128.5 25t128.5 -25t113 -75q1 0 1 -0.5t1 -0.5l-72 -72q0 1 -0.5 1t-0.5 1q-35 35 -79.5 52.5 t-91 17.5t-91 -17.5t-79.5 -52.5z" />
<glyph unicode="&#xd4;" horiz-adv-x="1186" d="M508 1660h112v-238h169l-225 -260l-225 260h169v238zM1021 860h-914v343l172 457h153v-104h-96l-115 -353h217l53 -104h142l58 104h216l-114 353h-96v104h153l171 -457v-343zM485 81q17 16 38 24.5t43 8.5t43 -8.5t38 -24.5l-81 -81zM1130 564l-72 -71l-2 2 q-102 102 -230 153t-262 51t-262 -51t-230 -153h-1l-71 71l1 1q78 78 170 129.5t191 77.5t202 26t202 -26t191 -77.5t170 -129.5zM162 404q84 83 188.5 124.5t213.5 41.5t214 -42t188 -125l1 -1l-71 -72q0 1 -1 1q-68 69 -154.5 103t-176 34t-176 -34t-154.5 -102zM323 243 q50 50 113 75t128.5 25t128.5 -25t113 -75q1 0 1 -0.5t1 -0.5l-72 -72q0 1 -0.5 1t-0.5 1q-35 35 -79.5 52.5t-91 17.5t-91 -17.5t-79.5 -52.5z" />
<glyph unicode="&#xd5;" horiz-adv-x="1186" d="M820 1660q30 0 56 -11.5t45.5 -31t31 -45.5t11.5 -56v-512q0 -30 -11.5 -56t-31 -45.5t-45.5 -31t-56 -11.5h-512q-30 0 -56 11.5t-45.5 31t-31 45.5t-11.5 56v512q0 30 11.5 56t31 45.5t45.5 31t56 11.5h512zM822 1386q0 6 -4.5 10.5t-11.5 4.5h-108v1l-15 29 q-3 6 -9.5 10t-12.5 4h-199q-6 0 -12.5 -4t-9.5 -10l-15 -29v-1h-108q-6 0 -10.5 -4.5t-4.5 -10.5v-294q0 -6 4.5 -10.5t10.5 -4.5h489q7 0 11.5 4.5t4.5 10.5v294zM561 1353q23 0 43.5 -9t35.5 -24t24 -35.5t9 -43.5t-9 -43.5t-24 -35.5t-35.5 -24t-43.5 -9t-43.5 9 t-35.5 24t-24 35.5t-9 43.5t9 43.5t24 35.5t35.5 24t43.5 9zM485 81q17 16 38 24.5t43 8.5t43 -8.5t38 -24.5l-81 -81zM1130 564l-72 -71l-2 2q-102 102 -230 153t-262 51t-262 -51t-230 -153h-1l-71 71l1 1q78 78 170 129.5t191 77.5t202 26t202 -26t191 -77.5t170 -129.5z M162 404q84 83 188.5 124.5t213.5 41.5t214 -42t188 -125l1 -1l-71 -72q0 1 -1 1q-68 69 -154.5 103t-176 34t-176 -34t-154.5 -102zM323 243q50 50 113 75t128.5 25t128.5 -25t113 -75q1 0 1 -0.5t1 -0.5l-72 -72q0 1 -0.5 1t-0.5 1q-35 35 -79.5 52.5t-91 17.5t-91 -17.5 t-79.5 -52.5z" />
<glyph unicode="&#xd9;" horiz-adv-x="1210" d="M377 1326q-25 3 -63.5 5.5t-98.5 2.5v-157l-359 241l359 242v-145q115 -14 207 -54q39 -17 76 -42t66 -59.5t47 -80t18 -102.5q-18 35 -51 65q-29 26 -77.5 50.5t-123.5 33.5zM1129 1177v157q-60 0 -98.5 -2.5t-63.5 -5.5q-75 -9 -124 -33.5t-78 -50.5q-33 -30 -51 -65 q0 57 17.5 102.5t47 80t66.5 59.5t76 42q92 40 208 54v145l359 -242zM570 1444q-50 43 -122 75l-9 3l-9 4l2 5h479l2 -5l-9 -4l-9 -3q-35 -16 -65 -35t-56 -40h-204zM925 1253q11 3 23.5 5.5t26.5 4.5q8 1 17 1.5t18 1.5l44 -118l1 -288h-767v287l44 119q10 -1 19.5 -1.5 t17.5 -1.5q14 -2 26 -4.5t23 -4.5l-34 -106h181l45 -88h119l49 88h181zM1013 437q31 -13 56.5 -34.5t44 -48.5t28.5 -59.5t10 -67.5q0 -47 -17.5 -88.5t-48.5 -72t-72 -48.5t-88 -18q-4 0 -7 0.5t-6 0.5h-680h-1h-1h-2q-48 1 -89.5 19.5t-72.5 50t-49 73t-18 89.5 q0 64 31.5 116.5t82.5 82.5q-7 21 -7 48q0 33 12.5 61.5t34 50t50 34t61.5 12.5q27 0 52 -9t45 -25q21 43 52.5 79.5t71.5 62t87 40t98 14.5q71 0 133.5 -27t109 -73.5t73.5 -109t27 -133.5q0 -5 -0.5 -10t-0.5 -10z" />
<glyph unicode="&#xdb;" horiz-adv-x="1210" d="M615 1660h112v-238h169l-225 -260l-225 260h169v238zM1128 860h-914v343l172 457h153v-104h-96l-115 -353h217l53 -104h142l58 104h216l-114 353h-96v104h153l171 -457v-343zM1013 437q31 -13 56.5 -34.5t44 -48.5t28.5 -59.5t10 -67.5q0 -47 -17.5 -88.5t-48.5 -72 t-72 -48.5t-88 -18q-4 0 -7 0.5t-6 0.5h-680h-1h-1h-2q-48 1 -89.5 19.5t-72.5 50t-49 73t-18 89.5q0 64 31.5 116.5t82.5 82.5q-7 21 -7 48q0 33 12.5 61.5t34 50t50 34t61.5 12.5q27 0 52 -9t45 -25q21 43 52.5 79.5t71.5 62t87 40t98 14.5q71 0 133.5 -27t109 -73.5 t73.5 -109t27 -133.5q0 -5 -0.5 -10t-0.5 -10z" />
<glyph unicode="&#xe0;" horiz-adv-x="466" d="M-121 1326q-25 3 -63.5 5.5t-98.5 2.5v-157l-359 241l359 242v-145q115 -14 207 -54q39 -17 76 -42t66 -59.5t47 -80t18 -102.5q-18 35 -51 65q-29 26 -77.5 50.5t-123.5 33.5zM631 1177v157q-60 0 -98.5 -2.5t-63.5 -5.5q-75 -9 -124 -33.5t-78 -50.5q-33 -30 -51 -65 q0 57 17.5 102.5t47 80t66.5 59.5t76 42q92 40 208 54v145l359 -242zM72 1444q-50 43 -122 75l-9 3l-9 4l2 5h479l2 -5l-9 -4l-9 -3q-35 -16 -65 -35t-56 -40h-204zM427 1253q11 3 23.5 5.5t26.5 4.5q8 1 17 1.5t18 1.5l44 -118l1 -288h-767v287l44 119q10 -1 19.5 -1.5 t17.5 -1.5q14 -2 26 -4.5t23 -4.5l-34 -106h181l45 -88h119l49 88h181zM443 222v-3q0 -45 -18 -85t-48 -70t-70 -47t-85 -17t-85 16.5t-70 45.5t-48 68t-19 84v5v407q0 36 13.5 67.5t37.5 55.5t55.5 37.5t67.5 13.5t67.5 -13.5t55.5 -37.5t37.5 -55.5t13.5 -67.5v-193v-209 v-3v-3v-2h-1q-1 -25 -11 -46.5t-26.5 -37.5t-38 -25t-46.5 -9t-47 9t-38.5 25t-26.5 37.5t-11 46.5v4l-1 1l1 1v355h44v-355v-2v-4v2q2 -32 24.5 -53.5t54.5 -21.5t54 21.5t24 53.5v-2v2v1v2v2v1v293v109q0 27 -10 50.5t-27.5 41t-41 27.5t-50.5 10t-50.5 -10t-41 -27.5 t-27.5 -41t-10 -50.5v-407q0 -36 14 -67.5t38 -55.5t56.5 -37.5t68.5 -13.5t68 13.5t56 37.5t38.5 55.5t14.5 67.5v3v354v3l44 -1v-2v-354z" />
<glyph unicode="&#xe2;" horiz-adv-x="466" d="M118 1660h112v-238h169l-225 -260l-225 260h169v238zM631 860h-914v343l172 457h153v-104h-96l-115 -353h217l53 -104h142l58 104h216l-114 353h-96v104h153l171 -457v-343zM443 222v-3q0 -45 -18 -85t-48 -70t-70 -47t-85 -17t-85 16.5t-70 45.5t-48 68t-19 84v5v407 q0 36 13.5 67.5t37.5 55.5t55.5 37.5t67.5 13.5t67.5 -13.5t55.5 -37.5t37.5 -55.5t13.5 -67.5v-193v-209v-3v-3v-2h-1q-1 -25 -11 -46.5t-26.5 -37.5t-38 -25t-46.5 -9t-47 9t-38.5 25t-26.5 37.5t-11 46.5v4l-1 1l1 1v355h44v-355v-2v-4v2q2 -32 24.5 -53.5t54.5 -21.5 t54 21.5t24 53.5v-2v2v1v2v2v1v293v109q0 27 -10 50.5t-27.5 41t-41 27.5t-50.5 10t-50.5 -10t-41 -27.5t-27.5 -41t-10 -50.5v-407q0 -36 14 -67.5t38 -55.5t56.5 -37.5t68.5 -13.5t68 13.5t56 37.5t38.5 55.5t14.5 67.5v3v354v3l44 -1v-2v-354z" />
<glyph unicode="&#xe3;" horiz-adv-x="466" d="M430 1660q30 0 56 -11.5t45.5 -31t31 -45.5t11.5 -56v-512q0 -30 -11.5 -56t-31 -45.5t-45.5 -31t-56 -11.5h-512q-30 0 -56 11.5t-45.5 31t-31 45.5t-11.5 56v512q0 30 11.5 56t31 45.5t45.5 31t56 11.5h512zM432 1386q0 6 -4.5 10.5t-11.5 4.5h-108v1l-15 29 q-3 6 -9.5 10t-12.5 4h-199q-6 0 -12.5 -4t-9.5 -10l-15 -29v-1h-108q-6 0 -10.5 -4.5t-4.5 -10.5v-294q0 -6 4.5 -10.5t10.5 -4.5h489q7 0 11.5 4.5t4.5 10.5v294zM171 1353q23 0 43.5 -9t35.5 -24t24 -35.5t9 -43.5t-9 -43.5t-24 -35.5t-35.5 -24t-43.5 -9t-43.5 9 t-35.5 24t-24 35.5t-9 43.5t9 43.5t24 35.5t35.5 24t43.5 9zM443 222v-3q0 -45 -18 -85t-48 -70t-70 -47t-85 -17t-85 16.5t-70 45.5t-48 68t-19 84v5v407q0 36 13.5 67.5t37.5 55.5t55.5 37.5t67.5 13.5t67.5 -13.5t55.5 -37.5t37.5 -55.5t13.5 -67.5v-193v-209v-3v-3v-2 h-1q-1 -25 -11 -46.5t-26.5 -37.5t-38 -25t-46.5 -9t-47 9t-38.5 25t-26.5 37.5t-11 46.5v4l-1 1l1 1v355h44v-355v-2v-4v2q2 -32 24.5 -53.5t54.5 -21.5t54 21.5t24 53.5v-2v2v1v2v2v1v293v109q0 27 -10 50.5t-27.5 41t-41 27.5t-50.5 10t-50.5 -10t-41 -27.5t-27.5 -41 t-10 -50.5v-407q0 -36 14 -67.5t38 -55.5t56.5 -37.5t68.5 -13.5t68 13.5t56 37.5t38.5 55.5t14.5 67.5v3v354v3l44 -1v-2v-354z" />
<glyph unicode="&#xe8;" d="M105 1326q-25 3 -63.5 5.5t-98.5 2.5v-157l-359 241l359 242v-145q115 -14 207 -54q39 -17 76 -42t66 -59.5t47 -80t18 -102.5q-18 35 -51 65q-29 26 -77.5 50.5t-123.5 33.5zM857 1177v157q-60 0 -98.5 -2.5t-63.5 -5.5q-75 -9 -124 -33.5t-78 -50.5q-33 -30 -51 -65 q0 57 17.5 102.5t47 80t66.5 59.5t76 42q92 40 208 54v145l359 -242zM298 1444q-50 43 -122 75l-9 3l-9 4l2 5h479l2 -5l-9 -4l-9 -3q-35 -16 -65 -35t-56 -40h-204zM653 1253q11 3 23.5 5.5t26.5 4.5q8 1 17 1.5t18 1.5l44 -118l1 -288h-767v287l44 119q10 -1 19.5 -1.5 t17.5 -1.5q14 -2 26 -4.5t23 -4.5l-34 -106h181l45 -88h119l49 88h181zM400 800q83 0 156 -31.5t127 -85.5t85.5 -127t31.5 -156t-31.5 -156t-85.5 -127t-127 -85.5t-156 -31.5t-156 31.5t-127 85.5t-85.5 127t-31.5 156t31.5 156t85.5 127t127 85.5t156 31.5zM565 150 q61 40 98 106t37 144h-300l181 239q-38 29 -84 45t-97 16t-97 -16t-84 -45l181 -239h-300q0 -78 36.5 -143t96.5 -106l167 249z" />
<glyph unicode="&#xea;" d="M344 1660h112v-238h169l-225 -260l-225 260h169v238zM857 860h-914v343l172 457h153v-104h-96l-115 -353h217l53 -104h142l58 104h216l-114 353h-96v104h153l171 -457v-343zM400 800q83 0 156 -31.5t127 -85.5t85.5 -127t31.5 -156t-31.5 -156t-85.5 -127t-127 -85.5 t-156 -31.5t-156 31.5t-127 85.5t-85.5 127t-31.5 156t31.5 156t85.5 127t127 85.5t156 31.5zM565 150q61 40 98 106t37 144h-300l181 239q-38 29 -84 45t-97 16t-97 -16t-84 -45l181 -239h-300q0 -78 36.5 -143t96.5 -106l167 249z" />
<glyph unicode="&#xec;" d="M105 1326q-25 3 -63.5 5.5t-98.5 2.5v-157l-359 241l359 242v-145q115 -14 207 -54q39 -17 76 -42t66 -59.5t47 -80t18 -102.5q-18 35 -51 65q-29 26 -77.5 50.5t-123.5 33.5zM857 1177v157q-60 0 -98.5 -2.5t-63.5 -5.5q-75 -9 -124 -33.5t-78 -50.5q-33 -30 -51 -65 q0 57 17.5 102.5t47 80t66.5 59.5t76 42q92 40 208 54v145l359 -242zM298 1444q-50 43 -122 75l-9 3l-9 4l2 5h479l2 -5l-9 -4l-9 -3q-35 -16 -65 -35t-56 -40h-204zM653 1253q11 3 23.5 5.5t26.5 4.5q8 1 17 1.5t18 1.5l44 -118l1 -288h-767v287l44 119q10 -1 19.5 -1.5 t17.5 -1.5q14 -2 26 -4.5t23 -4.5l-34 -106h181l45 -88h119l49 88h181zM222 598l65 -64l-26 -27l-65 65zM145 453h92v-37h-92v37zM564 453h92v-37h-92v37zM593 572l-65 -65l-26 27l64 64zM419 578h-37v92h37v-92zM439 448q24 -18 24 -48q0 -11 -5 -24q-7 -17 -22.5 -27 t-32.5 -10q-11 0 -24 5q-17 8 -27 23t-10 33q0 2 0.5 4.5t0.5 4.5l-54 234l21 8zM400 800q83 0 156 -31.5t127 -85.5t85.5 -127t31.5 -156q0 -50 -11.5 -95.5t-32.5 -87.5q-28 -54 -70 -97t-95 -72q-43 -23 -91 -35.5t-100 -12.5q-51 0 -97 11.5t-88 33.5q-54 29 -96.5 71 t-71.5 96q-23 42 -35 89.5t-12 98.5q0 83 31.5 156t85.5 127t127 85.5t156 31.5zM690 323q5 19 7.5 38t2.5 39q0 62 -23.5 116.5t-64.5 95.5t-95.5 64.5t-116.5 23.5t-116.5 -23.5t-95.5 -64.5t-64.5 -95.5t-23.5 -116.5q0 -42 11 -81q2 -7 4.5 -13t4.5 -12q10 3 21 5t22 2 q31 0 58.5 -12t48 -32.5t32.5 -48t12 -58.5q0 -16 -5 -36l12 -3q39 -11 79 -11q44 0 83 12q8 2 11 3q-4 17 -4 38q0 31 12 59t32 48t47.5 32t58.5 12q22 0 42 -6q5 14 8 25z" />
<glyph unicode="&#xee;" d="M344 1660h112v-238h169l-225 -260l-225 260h169v238zM857 860h-914v343l172 457h153v-104h-96l-115 -353h217l53 -104h142l58 104h216l-114 353h-96v104h153l171 -457v-343zM222 598l65 -64l-26 -27l-65 65zM145 453h92v-37h-92v37zM564 453h92v-37h-92v37zM593 572 l-65 -65l-26 27l64 64zM419 578h-37v92h37v-92zM439 448q24 -18 24 -48q0 -11 -5 -24q-7 -17 -22.5 -27t-32.5 -10q-11 0 -24 5q-17 8 -27 23t-10 33q0 2 0.5 4.5t0.5 4.5l-54 234l21 8zM400 800q83 0 156 -31.5t127 -85.5t85.5 -127t31.5 -156q0 -50 -11.5 -95.5 t-32.5 -87.5q-28 -54 -70 -97t-95 -72q-43 -23 -91 -35.5t-100 -12.5q-51 0 -97 11.5t-88 33.5q-54 29 -96.5 71t-71.5 96q-23 42 -35 89.5t-12 98.5q0 83 31.5 156t85.5 127t127 85.5t156 31.5zM690 323q5 19 7.5 38t2.5 39q0 62 -23.5 116.5t-64.5 95.5t-95.5 64.5 t-116.5 23.5t-116.5 -23.5t-95.5 -64.5t-64.5 -95.5t-23.5 -116.5q0 -42 11 -81q2 -7 4.5 -13t4.5 -12q10 3 21 5t22 2q31 0 58.5 -12t48 -32.5t32.5 -48t12 -58.5q0 -16 -5 -36l12 -3q39 -11 79 -11q44 0 83 12q8 2 11 3q-4 17 -4 38q0 31 12 59t32 48t47.5 32t58.5 12 q22 0 42 -6q5 14 8 25z" />
<glyph unicode="&#xf1;" d="M656 1660q30 0 56 -11.5t45.5 -31t31 -45.5t11.5 -56v-512q0 -30 -11.5 -56t-31 -45.5t-45.5 -31t-56 -11.5h-512q-30 0 -56 11.5t-45.5 31t-31 45.5t-11.5 56v512q0 30 11.5 56t31 45.5t45.5 31t56 11.5h512zM658 1386q0 6 -4.5 10.5t-11.5 4.5h-108v1l-15 29 q-3 6 -9.5 10t-12.5 4h-199q-6 0 -12.5 -4t-9.5 -10l-15 -29v-1h-108q-6 0 -10.5 -4.5t-4.5 -10.5v-294q0 -6 4.5 -10.5t10.5 -4.5h489q7 0 11.5 4.5t4.5 10.5v294zM397 1353q23 0 43.5 -9t35.5 -24t24 -35.5t9 -43.5t-9 -43.5t-24 -35.5t-35.5 -24t-43.5 -9t-43.5 9 t-35.5 24t-24 35.5t-9 43.5t9 43.5t24 35.5t35.5 24t43.5 9zM180 573l-87 86l49 49l87 -86zM622 229l86 -87l-49 -49l-86 87zM180 227l49 -49l-87 -86l-49 49zM622 571l-49 49l86 87l49 -49zM122 366h-122v70h122v-70zM800 436v-70h-122v70h122zM366 122h70v-122h-70v122z M436 678h-70v122h70v-122zM400 577q37 0 69.5 -14t56.5 -38t38 -56.5t14 -69.5t-14 -69.5t-38 -56.5t-56.5 -38t-69.5 -14t-69 14t-56 38t-38 56.5t-14 69.5t14 69.5t38 56.5t56 38t69 14zM400 283q24 0 45.5 9t37.5 25t25 37t9 45t-9 45t-25 37t-37.5 25t-45.5 9t-45 -9 t-37 -25t-25 -37t-9 -45t9 -45t25 -37t37 -25t45 -9z" />
<glyph unicode="&#xf2;" horiz-adv-x="688" d="M33 1326q-25 3 -63.5 5.5t-98.5 2.5v-157l-359 241l359 242v-145q115 -14 207 -54q39 -17 76 -42t66 -59.5t47 -80t18 -102.5q-18 35 -51 65q-29 26 -77.5 50.5t-123.5 33.5zM785 1177v157q-60 0 -98.5 -2.5t-63.5 -5.5q-75 -9 -124 -33.5t-78 -50.5q-33 -30 -51 -65 q0 57 17.5 102.5t47 80t66.5 59.5t76 42q92 40 208 54v145l359 -242zM226 1444q-50 43 -122 75l-9 3l-9 4l2 5h479l2 -5l-9 -4l-9 -3q-35 -16 -65 -35t-56 -40h-204zM581 1253q11 3 23.5 5.5t26.5 4.5q8 1 17 1.5t18 1.5l44 -118l1 -288h-767v287l44 119q10 -1 19.5 -1.5 t17.5 -1.5q14 -2 26 -4.5t23 -4.5l-34 -106h181l45 -88h119l49 88h181zM437 119q-7 0 -12 4.5t-5 12.5v371q0 8 5 13t12 5h21q7 0 12 -5t5 -13v-371q0 -8 -5 -12.5t-12 -4.5h-21zM318 119q-8 0 -13 4.5t-5 12.5v371q0 8 5 13t13 5h20q8 0 13 -5t5 -13v-371q0 -8 -5 -12.5 t-13 -4.5h-20zM219 525q8 0 12.5 -5t4.5 -13v-371q0 -17 -17 -17h-21q-7 0 -12 4.5t-5 12.5v371q0 8 5 13t12 5h21zM653 587q2 -4 2 -7q0 -1 -1 -3q-2 -4 -9 -4h-47v-556q0 -7 -5 -12t-12 -5h-503q-8 0 -12.5 5t-4.5 12v556h-51q-7 0 -10 5v3q0 3 2 6l30 45q5 6 12.5 10 t14.5 4h73v65q0 8 3.5 16t8.5 13l48 48q5 5 13.5 8.5t15.5 3.5h212q7 0 15.5 -3.5t13.5 -8.5l51 -51q5 -5 9 -13.5t4 -16.5v-61h70q7 0 14.5 -4t11.5 -10zM204 646h249q1 2 1 4v28q0 7 -3.5 15.5t-8.5 13.5l-9 9q-5 5 -13.5 8.5t-16.5 3.5h-152q-8 0 -16 -3.5t-13 -8.5 l-6 -5q-5 -5 -8.5 -13.5t-3.5 -16.5v-31v-4zM526 556q0 7 -4.5 12t-11.5 5h-273h-87q-8 0 -13 -5t-5 -12v-467q0 -8 5 -12.5t13 -4.5h359q17 0 17 17v467z" />
<glyph unicode="&#xf4;" horiz-adv-x="688" d="M271 1660h112v-238h169l-225 -260l-225 260h169v238zM784 860h-914v343l172 457h153v-104h-96l-115 -353h217l53 -104h142l58 104h216l-114 353h-96v104h153l171 -457v-343zM437 119q-7 0 -12 4.5t-5 12.5v371q0 8 5 13t12 5h21q7 0 12 -5t5 -13v-371q0 -8 -5 -12.5 t-12 -4.5h-21zM318 119q-8 0 -13 4.5t-5 12.5v371q0 8 5 13t13 5h20q8 0 13 -5t5 -13v-371q0 -8 -5 -12.5t-13 -4.5h-20zM219 525q8 0 12.5 -5t4.5 -13v-371q0 -17 -17 -17h-21q-7 0 -12 4.5t-5 12.5v371q0 8 5 13t12 5h21zM653 587q2 -4 2 -7q0 -1 -1 -3q-2 -4 -9 -4h-47 v-556q0 -7 -5 -12t-12 -5h-503q-8 0 -12.5 5t-4.5 12v556h-51q-7 0 -10 5v3q0 3 2 6l30 45q5 6 12.5 10t14.5 4h73v65q0 8 3.5 16t8.5 13l48 48q5 5 13.5 8.5t15.5 3.5h212q7 0 15.5 -3.5t13.5 -8.5l51 -51q5 -5 9 -13.5t4 -16.5v-61h70q7 0 14.5 -4t11.5 -10zM204 646h249 q1 2 1 4v28q0 7 -3.5 15.5t-8.5 13.5l-9 9q-5 5 -13.5 8.5t-16.5 3.5h-152q-8 0 -16 -3.5t-13 -8.5l-6 -5q-5 -5 -8.5 -13.5t-3.5 -16.5v-31v-4zM526 556q0 7 -4.5 12t-11.5 5h-273h-87q-8 0 -13 -5t-5 -12v-467q0 -8 5 -12.5t13 -4.5h359q17 0 17 17v467z" />
<glyph unicode="&#xf5;" horiz-adv-x="688" d="M583 1660q30 0 56 -11.5t45.5 -31t31 -45.5t11.5 -56v-512q0 -30 -11.5 -56t-31 -45.5t-45.5 -31t-56 -11.5h-512q-30 0 -56 11.5t-45.5 31t-31 45.5t-11.5 56v512q0 30 11.5 56t31 45.5t45.5 31t56 11.5h512zM585 1386q0 6 -4.5 10.5t-11.5 4.5h-108v1l-15 29 q-3 6 -9.5 10t-12.5 4h-199q-6 0 -12.5 -4t-9.5 -10l-15 -29v-1h-108q-6 0 -10.5 -4.5t-4.5 -10.5v-294q0 -6 4.5 -10.5t10.5 -4.5h489q7 0 11.5 4.5t4.5 10.5v294zM324 1353q23 0 43.5 -9t35.5 -24t24 -35.5t9 -43.5t-9 -43.5t-24 -35.5t-35.5 -24t-43.5 -9t-43.5 9 t-35.5 24t-24 35.5t-9 43.5t9 43.5t24 35.5t35.5 24t43.5 9zM437 119q-7 0 -12 4.5t-5 12.5v371q0 8 5 13t12 5h21q7 0 12 -5t5 -13v-371q0 -8 -5 -12.5t-12 -4.5h-21zM318 119q-8 0 -13 4.5t-5 12.5v371q0 8 5 13t13 5h20q8 0 13 -5t5 -13v-371q0 -8 -5 -12.5t-13 -4.5h-20 zM219 525q8 0 12.5 -5t4.5 -13v-371q0 -17 -17 -17h-21q-7 0 -12 4.5t-5 12.5v371q0 8 5 13t12 5h21zM653 587q2 -4 2 -7q0 -1 -1 -3q-2 -4 -9 -4h-47v-556q0 -7 -5 -12t-12 -5h-503q-8 0 -12.5 5t-4.5 12v556h-51q-7 0 -10 5v3q0 3 2 6l30 45q5 6 12.5 10t14.5 4h73v65 q0 8 3.5 16t8.5 13l48 48q5 5 13.5 8.5t15.5 3.5h212q7 0 15.5 -3.5t13.5 -8.5l51 -51q5 -5 9 -13.5t4 -16.5v-61h70q7 0 14.5 -4t11.5 -10zM204 646h249q1 2 1 4v28q0 7 -3.5 15.5t-8.5 13.5l-9 9q-5 5 -13.5 8.5t-16.5 3.5h-152q-8 0 -16 -3.5t-13 -8.5l-6 -5 q-5 -5 -8.5 -13.5t-3.5 -16.5v-31v-4zM526 556q0 7 -4.5 12t-11.5 5h-273h-87q-8 0 -13 -5t-5 -12v-467q0 -8 5 -12.5t13 -4.5h359q17 0 17 17v467z" />
<glyph unicode="&#xf9;" horiz-adv-x="838" d="M105 1326q-25 3 -63.5 5.5t-98.5 2.5v-157l-359 241l359 242v-145q115 -14 207 -54q39 -17 76 -42t66 -59.5t47 -80t18 -102.5q-18 35 -51 65q-29 26 -77.5 50.5t-123.5 33.5zM857 1177v157q-60 0 -98.5 -2.5t-63.5 -5.5q-75 -9 -124 -33.5t-78 -50.5q-33 -30 -51 -65 q0 57 17.5 102.5t47 80t66.5 59.5t76 42q92 40 208 54v145l359 -242zM298 1444q-50 43 -122 75l-9 3l-9 4l2 5h479l2 -5l-9 -4l-9 -3q-35 -16 -65 -35t-56 -40h-204zM653 1253q11 3 23.5 5.5t26.5 4.5q8 1 17 1.5t18 1.5l44 -118l1 -288h-767v287l44 119q10 -1 19.5 -1.5 t17.5 -1.5q14 -2 26 -4.5t23 -4.5l-34 -106h181l45 -88h119l49 88h181zM790 497q8 -10 8 -23q0 -11 -3.5 -17t-6.5 -10q-6 -8 -16 -14l-180 -119q-2 -1 -5 -6t-2 -10v-4l79 -232q4 -9 4 -22q0 -5 -1.5 -11t-6.5 -14q-5 -7 -13 -11t-15 -4h-2q-14 1 -21 5t-13 10l-187 151 q-2 3 -9 3q-3 0 -5 -1l-4 -2l-177 -150q-6 -6 -13.5 -10.5t-21.5 -5.5q-8 0 -16.5 4t-13.5 12t-6.5 14t-1.5 11q0 6 1 11t3 10l70 230v4q1 5 -2.5 11t-5.5 7l-181 119q-10 6 -16 14q-3 4 -6.5 10t-3.5 17q0 13 8 23q7 8 16 12q8 3 14 4t12 1h225q5 0 10 4q6 3 8 10l65 233 q2 5 3.5 10.5t5.5 10.5q3 5 10.5 11.5t21.5 6.5t21.5 -6.5t10.5 -11.5q4 -5 6 -10l4 -11l65 -234q0 -4 7 -9q5 -4 11 -4h224q10 0 19 -3l11 -5q6 -2 12 -9z" />
<glyph unicode="&#xfb;" horiz-adv-x="838" d="M343 1660h112v-238h169l-225 -260l-225 260h169v238zM856 860h-914v343l172 457h153v-104h-96l-115 -353h217l53 -104h142l58 104h216l-114 353h-96v104h153l171 -457v-343zM790 497q8 -10 8 -23q0 -11 -3.5 -17t-6.5 -10q-6 -8 -16 -14l-180 -119q-2 -1 -5 -6t-2 -10v-4 l79 -232q4 -9 4 -22q0 -5 -1.5 -11t-6.5 -14q-5 -7 -13 -11t-15 -4h-2q-14 1 -21 5t-13 10l-187 151q-2 3 -9 3q-3 0 -5 -1l-4 -2l-177 -150q-6 -6 -13.5 -10.5t-21.5 -5.5q-8 0 -16.5 4t-13.5 12t-6.5 14t-1.5 11q0 6 1 11t3 10l70 230v4q1 5 -2.5 11t-5.5 7l-181 119 q-10 6 -16 14q-3 4 -6.5 10t-3.5 17q0 13 8 23q7 8 16 12q8 3 14 4t12 1h225q5 0 10 4q6 3 8 10l65 233q2 5 3.5 10.5t5.5 10.5q3 5 10.5 11.5t21.5 6.5t21.5 -6.5t10.5 -11.5q4 -5 6 -10l4 -11l65 -234q0 -4 7 -9q5 -4 11 -4h224q10 0 19 -3l11 -5q6 -2 12 -9z" />
<glyph unicode="&#x152;" horiz-adv-x="1681" d="M1657 55h-202l55 -55h-177l55 55h-202v323h226l-202 234h157v188h104v-188h157l-202 -234h231v-323zM1598 319h-353v-205h353v205zM485 81q17 16 38 24.5t43 8.5t43 -8.5t38 -24.5l-81 -81zM1130 564l-72 -71l-2 2q-102 102 -230 153t-262 51t-262 -51t-230 -153h-1 l-71 71l1 1q78 78 170 129.5t191 77.5t202 26t202 -26t191 -77.5t170 -129.5zM162 404q84 83 188.5 124.5t213.5 41.5t214 -42t188 -125l1 -1l-71 -72q0 1 -1 1q-68 69 -154.5 103t-176 34t-176 -34t-154.5 -102zM323 243q50 50 113 75t128.5 25t128.5 -25t113 -75 q1 0 1 -0.5t1 -0.5l-72 -72q0 1 -0.5 1t-0.5 1q-35 35 -79.5 52.5t-91 17.5t-91 -17.5t-79.5 -52.5z" />
<glyph unicode="&#x153;" horiz-adv-x="1528" d="M1088 800q83 0 156 -31.5t127 -85.5t85.5 -127t31.5 -156t-31.5 -156t-85.5 -127t-127 -85.5t-156 -31.5t-156 31.5t-127 85.5t-85.5 127t-31.5 156t31.5 156t85.5 127t127 85.5t156 31.5zM1253 150q61 40 98 106t37 144h-300l181 239q-38 29 -84 45t-97 16t-97 -16 t-84 -45l181 -239h-300q0 -78 36.5 -143t96.5 -106l167 249zM437 119q-7 0 -12 4.5t-5 12.5v371q0 8 5 13t12 5h21q7 0 12 -5t5 -13v-371q0 -8 -5 -12.5t-12 -4.5h-21zM318 119q-8 0 -13 4.5t-5 12.5v371q0 8 5 13t13 5h20q8 0 13 -5t5 -13v-371q0 -8 -5 -12.5t-13 -4.5h-20 zM219 525q8 0 12.5 -5t4.5 -13v-371q0 -17 -17 -17h-21q-7 0 -12 4.5t-5 12.5v371q0 8 5 13t12 5h21zM653 587q2 -4 2 -7q0 -1 -1 -3q-2 -4 -9 -4h-47v-556q0 -7 -5 -12t-12 -5h-503q-8 0 -12.5 5t-4.5 12v556h-51q-7 0 -10 5v3q0 3 2 6l30 45q5 6 12.5 10t14.5 4h73v65 q0 8 3.5 16t8.5 13l48 48q5 5 13.5 8.5t15.5 3.5h212q7 0 15.5 -3.5t13.5 -8.5l51 -51q5 -5 9 -13.5t4 -16.5v-61h70q7 0 14.5 -4t11.5 -10zM204 646h249q1 2 1 4v28q0 7 -3.5 15.5t-8.5 13.5l-9 9q-5 5 -13.5 8.5t-16.5 3.5h-152q-8 0 -16 -3.5t-13 -8.5l-6 -5 q-5 -5 -8.5 -13.5t-3.5 -16.5v-31v-4zM526 556q0 7 -4.5 12t-11.5 5h-273h-87q-8 0 -13 -5t-5 -12v-467q0 -8 5 -12.5t13 -4.5h359q17 0 17 17v467z" />
<glyph unicode="&#x2c6;" horiz-adv-x="960" d="M401 800h112v-238h169l-225 -260l-225 260h169v238zM914 0h-914v343l172 457h153v-104h-96l-115 -353h217l53 -104h142l58 104h216l-114 353h-96v104h153l171 -457v-343z" />
<glyph unicode="&#x2dc;" horiz-adv-x="250" d="M256 860q30 0 56 -11.5t45.5 -31t31 -45.5t11.5 -56v-512q0 -30 -11.5 -56t-31 -45.5t-45.5 -31t-56 -11.5h-512q-30 0 -56 11.5t-45.5 31t-31 45.5t-11.5 56v512q0 30 11.5 56t31 45.5t45.5 31t56 11.5h512zM258 586q0 6 -4.5 10.5t-11.5 4.5h-108v1l-15 29 q-3 6 -9.5 10t-12.5 4h-199q-6 0 -12.5 -4t-9.5 -10l-15 -29v-1h-108q-6 0 -10.5 -4.5t-4.5 -10.5v-294q0 -6 4.5 -10.5t10.5 -4.5h489q7 0 11.5 4.5t4.5 10.5v294zM-3 553q23 0 43.5 -9t35.5 -24t24 -35.5t9 -43.5t-9 -43.5t-24 -35.5t-35.5 -24t-43.5 -9t-43.5 9t-35.5 24 t-24 35.5t-9 43.5t9 43.5t24 35.5t35.5 24t43.5 9z" />
<glyph unicode="&#x2000;" horiz-adv-x="830" />
<glyph unicode="&#x2001;" horiz-adv-x="1660" />
<glyph unicode="&#x2002;" horiz-adv-x="830" />
<glyph unicode="&#x2003;" horiz-adv-x="1660" />
<glyph unicode="&#x2004;" horiz-adv-x="553" />
<glyph unicode="&#x2005;" horiz-adv-x="415" />
<glyph unicode="&#x2006;" horiz-adv-x="276" />
<glyph unicode="&#x2007;" horiz-adv-x="276" />
<glyph unicode="&#x2008;" horiz-adv-x="207" />
<glyph unicode="&#x2009;" horiz-adv-x="332" />
<glyph unicode="&#x200a;" horiz-adv-x="92" />
<glyph unicode="&#x2010;" horiz-adv-x="1067" d="M986 701q13 0 21.5 -8.5t8.5 -21.5v-641q0 -12 -8.5 -21t-21.5 -9h-955q-13 0 -22 9t-9 21v641q0 13 9 21.5t22 8.5h46l35 72q5 11 18 19t26 8h193q12 0 25 -8t19 -19l34 -72h559zM932 617h-505q-24 0 -44.5 12.5t-31.5 34.5l-25 51h-148l-25 -51q-10 -20 -28 -32.5 t-40 -14.5v-532h847v532z" />
<glyph unicode="&#x2011;" horiz-adv-x="1067" d="M986 701q13 0 21.5 -8.5t8.5 -21.5v-641q0 -12 -8.5 -21t-21.5 -9h-955q-13 0 -22 9t-9 21v641q0 13 9 21.5t22 8.5h46l35 72q5 11 18 19t26 8h193q12 0 25 -8t19 -19l34 -72h559zM932 617h-505q-24 0 -44.5 12.5t-31.5 34.5l-25 51h-148l-25 -51q-10 -20 -28 -32.5 t-40 -14.5v-532h847v532z" />
<glyph unicode="&#x2013;" horiz-adv-x="500" d="M0 0v800h449v-800h-449z" />
<glyph unicode="&#x2014;" horiz-adv-x="1000" d="M0 0v800h949v-800h-949z" />
<glyph unicode="&#x2018;" horiz-adv-x="1713" d="M521 466q-25 3 -63.5 5.5t-98.5 2.5v-157l-359 241l359 242v-145q115 -14 207 -54q39 -17 76 -42t66 -59.5t47 -80t18 -102.5q-18 35 -51 65q-29 26 -77.5 50.5t-123.5 33.5zM1273 317v157q-60 0 -98.5 -2.5t-63.5 -5.5q-75 -9 -124 -33.5t-78 -50.5q-33 -30 -51 -65 q0 57 17.5 102.5t47 80t66.5 59.5t76 42q92 40 208 54v145l359 -242zM714 584q-50 43 -122 75l-9 3l-9 4l2 5h479l2 -5l-9 -4l-9 -3q-35 -16 -65 -35t-56 -40h-204zM1069 393q11 3 23.5 5.5t26.5 4.5q8 1 17 1.5t18 1.5l44 -118l1 -288h-767v287l44 119q10 -1 19.5 -1.5 t17.5 -1.5q14 -2 26 -4.5t23 -4.5l-34 -106h181l45 -88h119l49 88h181z" />
<glyph unicode="&#x2019;" horiz-adv-x="1215" d="M1087 659h-1016v12q0 13 8.5 21.5t21.5 8.5h46l35 72q6 11 19 19t26 8h192q13 0 26 -8t18 -19l35 -72h558q13 0 22 -8.5t9 -21.5v-12zM0 589h1158l-71 -558q0 -13 -9 -22t-22 -9h-955q-13 0 -21.5 9t-8.5 22z" />
<glyph unicode="&#x201c;" d="M415 494h34v-265h-27h-76h-71v30h137v235h3zM373 298h-174v196h69v69h105v-265zM400 800q83 0 156 -31.5t127 -85.5t85.5 -127t31.5 -156t-31.5 -156t-85.5 -127t-127 -85.5t-156 -31.5t-156 31.5t-127 85.5t-85.5 127t-31.5 156t31.5 156t85.5 127t127 85.5t156 31.5z M640 533h-81h-77h-18h-52v69h-182l-70 -73v-270h76v-69h82h77h87h77h81v343zM602 229h-38v265h38v-265zM492 494h33v-265h-37v265h4z" />
<glyph unicode="&#x201d;" d="M415 494h34v-265h-27h-76h-71v30h137v235h3zM373 298h-174v196h69v69h105v-265zM400 800q83 0 156 -31.5t127 -85.5t85.5 -127t31.5 -156t-31.5 -156t-85.5 -127t-127 -85.5t-156 -31.5t-156 31.5t-127 85.5t-85.5 127t-31.5 156t31.5 156t85.5 127t127 85.5t156 31.5z M640 533h-81h-77h-18h-52v69h-182l-70 -73v-270h76v-69h82h77h87h77h81v343zM602 229h-38v265h38v-265zM492 494h33v-265h-37v265h4z" />
<glyph unicode="&#x2026;" horiz-adv-x="2910" d="M2141 398v64v187l151 151h372v-338v-64v-79h-523v79zM2201 380h402v360h-251v-151h-151v-209zM2864 333v-333h-924v333l115 129h86v-64h-57l-80 -89v-245h796v245l-80 89h-56v64h84zM1171 398v64v187l151 151h372v-338v-64v-79h-523v79zM1231 380h402v360h-251v-151h-151 v-209zM1894 333v-333h-924v333l115 129h86v-64h-57l-80 -89v-245h796v245l-80 89h-56v64h84zM201 398v64v187l151 151h372v-338v-64v-79h-523v79zM261 380h402v360h-251v-151h-151v-209zM924 333v-333h-924v333l115 129h86v-64h-57l-80 -89v-245h796v245l-80 89h-56v64h84z " />
<glyph unicode="&#x202f;" horiz-adv-x="332" />
<glyph unicode="&#x2039;" horiz-adv-x="837" d="M797 401q0 -56 -14.5 -107t-41.5 -96t-64 -81.5t-82 -61.5l-41 79q69 41 111.5 111t42.5 156t-42.5 156t-111.5 111v2l40 78q45 -26 82.5 -62.5t64.5 -81t41.5 -96t14.5 -107.5zM503 568q41 -26 65.5 -70t24.5 -97t-24.5 -96.5t-65.5 -70.5l-41 80v1q20 15 31 37.5 t11 48.5t-11 48.5t-31 38.5v1zM400 800v-800l-265 266h-135v267h134z" />
<glyph unicode="&#x203a;" horiz-adv-x="420" d="M134 533l266 267v-800l-265 266h-135v267h134z" />
<glyph unicode="&#x205f;" horiz-adv-x="415" />
<glyph unicode="&#x2122;" horiz-adv-x="1400" d="M1352 158q8 -5 8 -12q0 -5 -4 -10l-120 -120q-6 -5 -15 -9.5t-17 -5.5h-13q-48 0 -105 19q-28 9 -61.5 25t-72 40t-81 58t-88.5 80t-80 88.5t-58 81t-40 72t-25 61.5q-19 57 -19 105v13q1 8 5.5 17t9.5 15l121 120q4 4 9 4h2q6 -1 10 -8l97 -183q3 -7 1 -16t-7 -14 l-44 -44q-5 -5 -9 -14.5t-4 -17.5q2 -20 15 -48q11 -24 35.5 -59.5t71.5 -81.5q46 -47 81.5 -71.5t59.5 -35.5q28 -13 48 -15q8 0 17.5 4t14.5 9l52 52q5 5 14 7t15 -2zM344 466h156l-500 -466l234 378l-156 -1l455 423z" />
</font>
</defs>
</svg>
