<?xml version="1.0" standalone="no"?>
<!DOCTYPE svg PUBLIC "-//W3C//DTD SVG 1.1//EN" "http://www.w3.org/Graphics/SVG/1.1/DTD/svg11.dtd" >
<svg xmlns="http://www.w3.org/2000/svg">
<metadata>
This is a custom SVG webfont generated by Font Squirrel.
Designer    : Mike Weber
Foundry     : PYRS Fontlab Ltd  Made with FontLab
</metadata>
<defs>
<font id="webfontU2E3isTo" horiz-adv-x="840" >
<font-face units-per-em="1000" ascent="1000" descent="0" />
<missing-glyph horiz-adv-x="250" />
<glyph unicode=" "  horiz-adv-x="250" />
<glyph unicode="&#x09;" horiz-adv-x="250" />
<glyph unicode="&#xa0;" horiz-adv-x="250" />
<glyph unicode="!" horiz-adv-x="950" d="M442 250h-442v300h442v250l463 -400l-463 -400v250z" />
<glyph unicode="&#x22;" horiz-adv-x="842" d="M611 276v-120h-271v-38v-97q0 -16 -9 -20q-3 -1 -5 -1q-7 0 -16 7l-220 185q-12 10 -12 24t12 25l220 184q12 10 21 6t9 -20v-97v-38h271zM763 276q16 0 27.5 -11t11.5 -27v-44q0 -16 -11.5 -27t-27.5 -11h-74v120h74zM110 524h-72q-16 0 -27 11t-11 27v44q0 16 11 27 t27 11h72v-120zM188 524v120h274v38v97q0 16 8 20q3 1 6 1q6 0 15 -7l221 -185q12 -10 12 -24t-12 -25l-221 -184q-9 -7 -15 -7q-3 0 -6 1q-8 4 -8 20v97v38h-274z" />
<glyph unicode="#" horiz-adv-x="1519" d="M722 0l-722 800h1447z" />
<glyph unicode="$" d="M400 800q83 0 156 -31.5t127 -85.5t85.5 -127t31.5 -156t-31.5 -156t-85.5 -127t-127 -85.5t-156 -31.5t-156 31.5t-127 85.5t-85.5 127t-31.5 156t31.5 156t85.5 127t127 85.5t156 31.5zM566 534l-164 163l-163 -163h108v-418h109v418h110z" />
<glyph unicode="%" horiz-adv-x="1493" d="M1023 268h-1023v267h1023v265l399 -400l-399 -400v268z" />
<glyph unicode="&#x26;" horiz-adv-x="743" d="M442 391v-391h-177v391h-265l354 409l353 -409h-265z" />
<glyph unicode="'" horiz-adv-x="717" d="M671 433q12 -14 12 -25q0 -4 -1 -8q-7 -13 -32 -13h-153h-61v-327q0 -25 -17.5 -42.5t-42.5 -17.5h-70q-25 0 -42.5 17.5t-17.5 42.5v327h-60h-153q-25 0 -31 13q-2 4 -2 8q0 11 11 25l292 348q16 19 38.5 19t38.5 -19z" />
<glyph unicode="(" horiz-adv-x="689" d="M656 399l-656 -399v800z" />
<glyph unicode=")" d="M400 800q83 0 156 -31.5t127 -85.5t85.5 -127t31.5 -156t-31.5 -156t-85.5 -127t-127 -85.5t-156 -31.5t-156 31.5t-127 85.5t-85.5 127t-31.5 156t31.5 156t85.5 127t127 85.5t156 31.5zM611 403l-329 201v-401z" />
<glyph unicode="*" d="M400 800q83 0 156 -31.5t127 -85.5t85.5 -127t31.5 -156t-31.5 -156t-85.5 -127t-127 -85.5t-156 -31.5t-156 31.5t-127 85.5t-85.5 127t-31.5 156t31.5 156t85.5 127t127 85.5t156 31.5zM620 401h-165v244h-110v-244h-166l221 -255z" />
<glyph unicode="+" d="M800 399l-800 -399v800z" />
<glyph unicode="," d="M400 800q83 0 156 -31.5t127 -85.5t85.5 -127t31.5 -156t-31.5 -156t-85.5 -127t-127 -85.5t-156 -31.5t-156 31.5t-127 85.5t-85.5 127t-31.5 156t31.5 156t85.5 127t127 85.5t156 31.5zM656 399l-411 206v-411z" />
<glyph unicode="-" horiz-adv-x="1470" d="M800 399l-200 -100l-600 -299v800l600 -300zM600 0v299l200 100l-200 101v300l800 -401z" />
<glyph unicode="." d="M800 800v-800h-300v800h300zM0 800h300v-800h-300v800z" />
<glyph unicode="/" d="M800 0h-800v800h800v-800z" />
<glyph unicode="0" d="M800 400q0 -83 -31.5 -156t-85.5 -127t-127 -85.5t-156 -31.5t-156 31.5t-127 85.5t-85.5 127t-31.5 156t31.5 156t85.5 127t127 85.5t156 31.5t156 -31.5t127 -85.5t85.5 -127t31.5 -156z" />
<glyph unicode="1" d="M407 604q42 0 78.5 -16t63.5 -43t42.5 -63.5t15.5 -77.5q0 -42 -15.5 -78.5t-42.5 -63.5t-63.5 -42.5t-78.5 -15.5q-41 0 -77.5 15.5t-63.5 42.5t-43 63.5t-16 78.5q0 41 16 77.5t43 63.5t63.5 43t77.5 16zM400 800q83 0 156 -31.5t127 -85.5t85.5 -127t31.5 -156 t-31.5 -156t-85.5 -127t-127 -85.5t-156 -31.5t-156 31.5t-127 85.5t-85.5 127t-31.5 156t31.5 156t85.5 127t127 85.5t156 31.5zM400 100q62 0 116.5 23.5t95.5 64.5t64.5 95.5t23.5 116.5t-23.5 116.5t-64.5 95.5t-95.5 64.5t-116.5 23.5t-116.5 -23.5t-95.5 -64.5 t-64.5 -95.5t-23.5 -116.5t23.5 -116.5t64.5 -95.5t95.5 -64.5t116.5 -23.5z" />
<glyph unicode="2" d="M800 513v-226h-287v-287h-226v287h-287v226h287v287h226v-287h287z" />
<glyph unicode="3" horiz-adv-x="2970" d="M0 0v800h2828v-800h-2828z" />
<glyph unicode="4" d="M576 400l224 -224l-176 -176l-224 224l-224 -224l-176 176l224 224l-224 224l176 176l224 -224l224 224l176 -176z" />
<glyph unicode="5" d="M400 800q83 0 156 -31.5t127 -85.5t85.5 -127t31.5 -156t-31.5 -156t-85.5 -127t-127 -85.5t-156 -31.5t-156 31.5t-127 85.5t-85.5 127t-31.5 156t31.5 156t85.5 127t127 85.5t156 31.5zM512 400l140 140l-110 110l-140 -139l-140 139l-110 -110l140 -140l-140 -139 l110 -111l140 140l140 -140l110 111z" />
<glyph unicode="6" d="M742 491q24 0 41 -17t17 -41v-66q0 -24 -17 -41t-41 -17h-193q-24 0 -41 -17t-17 -41v-193q0 -24 -17 -41t-41 -17h-66q-24 0 -41 17t-17 41v193q0 24 -17 41t-41 17h-193q-24 0 -41 17t-17 41v66q0 24 17 41t41 17h193q24 0 41 17t17 41v193q0 24 17 41t41 17h66 q24 0 41 -17t17 -41v-193q0 -24 17 -41t41 -17h193z" />
<glyph unicode="7" d="M400 800q83 0 156 -31.5t127 -85.5t85.5 -127t31.5 -156t-31.5 -156t-85.5 -127t-127 -85.5t-156 -31.5t-156 31.5t-127 85.5t-85.5 127t-31.5 156t31.5 156t85.5 127t127 85.5t156 31.5zM637 420q0 14 -10 24.5t-25 10.5h-114q-15 0 -25 10.5t-10 24.5v115 q0 14 -10.5 24t-24.5 10h-39q-14 0 -24.5 -10t-10.5 -24v-115q0 -14 -10.5 -24.5t-24.5 -10.5h-115q-14 0 -24 -10.5t-10 -24.5v-39q0 -14 10 -24.5t24 -10.5h115q14 0 24.5 -10t10.5 -25v-114q0 -14 10.5 -24.5t24.5 -10.5h39q14 0 24.5 10.5t10.5 24.5v114q0 15 10 25 t25 10h114q15 0 25 10.5t10 24.5v39z" />
<glyph unicode="8" horiz-adv-x="2970" d="M283 0q-59 0 -110.5 22.5t-89.5 60.5t-60.5 89.5t-22.5 110.5v234q0 58 22.5 110t60.5 90t89.5 60.5t110.5 22.5h2262q58 0 110 -22.5t90 -60.5t60.5 -90t22.5 -110v-234q0 -59 -22.5 -110.5t-60.5 -89.5t-90 -60.5t-110 -22.5h-2262z" />
<glyph unicode="9" d="M400 800q83 0 156 -31.5t127 -85.5t85.5 -127t31.5 -156t-31.5 -156t-85.5 -127t-127 -85.5t-156 -31.5t-156 31.5t-127 85.5t-85.5 127t-31.5 156t31.5 156t85.5 127t127 85.5t156 31.5zM622 419q0 19 -13 32t-32 13h-357q-19 0 -32 -13t-13 -32v-37q0 -18 13 -31 t32 -13h357q19 0 32 13t13 31v37z" />
<glyph unicode=":" d="M595 447q-20 -20 -20 -47t20 -47l185 -186q20 -20 20 -47.5t-20 -47.5l-52 -52q-20 -20 -47.5 -20t-47.5 20l-186 185q-20 20 -47 20t-47 -20l-186 -185q-20 -20 -47.5 -20t-47.5 20l-52 52q-20 20 -20 47.5t20 47.5l185 186q20 20 20 47t-20 47l-185 186 q-20 20 -20 47.5t20 47.5l52 52q20 20 47.5 20t47.5 -20l186 -185q20 -20 47 -20t47 20l186 185q20 20 47.5 20t47.5 -20l52 -52q20 -20 20 -47.5t-20 -47.5z" />
<glyph unicode=";" d="M400 800q83 0 156 -31.5t127 -85.5t85.5 -127t31.5 -156t-31.5 -156t-85.5 -127t-127 -85.5t-156 -31.5t-156 31.5t-127 85.5t-85.5 127t-31.5 156t31.5 156t85.5 127t127 85.5t156 31.5zM510 374q-11 11 -11 26.5t11 26.5l104 104q11 11 11 26.5t-11 26.5l-30 30 q-11 11 -26.5 11t-26.5 -11l-104 -104q-11 -11 -26.5 -11t-26.5 11l-104 104q-11 11 -26.5 11t-26.5 -11l-29 -30q-11 -11 -11 -26.5t11 -26.5l104 -104q11 -11 11 -26.5t-11 -26.5l-104 -104q-11 -11 -11 -26.5t11 -26.5l29 -29q11 -11 26.5 -11t26.5 11l104 104 q11 11 26.5 11t26.5 -11l104 -104q11 -11 26.5 -11t26.5 11l30 29q11 11 11 26.5t-11 26.5z" />
<glyph unicode="&#x3c;" d="M400 800q83 0 156 -31.5t127 -85.5t85.5 -127t31.5 -156t-31.5 -156t-85.5 -127t-127 -85.5t-156 -31.5t-156 31.5t-127 85.5t-85.5 127t-31.5 156t31.5 156t85.5 127t127 85.5t156 31.5zM700 400q0 62 -23.5 116.5t-64.5 95.5t-95.5 64.5t-116.5 23.5q-49 0 -93 -15 t-81 -41l418 -418q26 37 41 81t15 93zM100 400q0 -62 23.5 -116.5t64.5 -95.5t95.5 -64.5t116.5 -23.5q49 0 93 15t82 41l-419 419q-26 -38 -41 -82t-15 -93z" />
<glyph unicode="=" d="M683 683q58 -59 87.5 -132.5t29.5 -150.5t-29.5 -151t-87.5 -132q-59 -59 -132.5 -88t-150.5 -29t-151 29t-132 88q-59 58 -88 132t-29 151t29 150.5t88 132.5q58 58 132 87.5t151 29.5t150.5 -29.5t132.5 -87.5zM696 340q2 12 3 28t1 32.5t-1 32.5t-3 28h-592 q-2 -12 -3 -28t-1 -32.5t1 -32.5t3 -28h592z" />
<glyph unicode="&#x3e;" d="M800 571v-342l-229 -229h-342l-229 229v342l228 229h343zM498 401l126 125l-99 99l-126 -125l-125 125l-99 -99l125 -125l-125 -126l99 -99l125 126l126 -126l99 99z" />
<glyph unicode="?" d="M568 495l-94 -95l94 -94l-74 -75l-95 95l-94 -95l-75 75l95 94l-95 95l75 74l94 -94l95 94zM800 571v-342l-229 -229h-342l-229 229v342l228 229h343zM700 530l-170 170h-260l-170 -170v-260l170 -170h260l170 170v260z" />
<glyph unicode="@" horiz-adv-x="960" d="M0 457h229l114 -228l343 571h228l-457 -800h-229z" />
<glyph unicode="A" horiz-adv-x="1141" d="M13 308q-13 13 -13 31t13 31l108 108q13 13 31 13t31 -12l176 -177q13 -12 31 -12t31 13l483 484q13 13 31 13t31 -13l108 -107q13 -13 13 -30.5t-13 -30.5l-586 -588q-13 -13 -34.5 -22t-39.5 -9h-51q-18 0 -39.5 9t-34.5 22z" />
<glyph unicode="B" d="M656 800q30 0 56 -11.5t45.5 -31t31 -45.5t11.5 -56v-512q0 -30 -11.5 -56t-31 -45.5t-45.5 -31t-56 -11.5h-512q-30 0 -56 11.5t-45.5 31t-31 45.5t-11.5 56v512q0 30 11.5 56t31 45.5t45.5 31t56 11.5h512zM653 503q6 6 6 14.5t-6 14.5l-51 51q-6 6 -14.5 6t-14.5 -6 l-228 -229q-6 -6 -15 -6t-15 6l-83 83q-6 6 -14.5 6t-14.5 -6l-51 -51q-6 -6 -6 -14.5t6 -14.5l130 -131q6 -6 16.5 -10.5t18.5 -4.5h24q8 0 18.5 4.5t16.5 10.5z" />
<glyph unicode="C" d="M649 531q6 -6 6 -14.5t-6 -14.5l-276 -277q-6 -6 -16.5 -10.5t-18.5 -4.5h-24q-8 0 -18.5 4.5t-16.5 10.5l-130 131q-6 6 -6 14.5t6 14.5l51 51q6 6 14.5 6t14.5 -6l83 -83q6 -6 14.5 -6t14.5 6l228 228q6 6 14.5 6t14.5 -6zM44 184q0 -35 17 -66l-39 -22v1v1q-1 0 -1 1 q-6 11 -10 22.5t-7 24.5v1q0 1 -1 1v1v1v1v1v1v1h-1v1v1v1v1v1v1l-1 1v1v1v1v1v1v1v1v1v1h-1v1v1v1v1v1v1v1v1v1v1v1v1v1v1v42h44v-42zM175 755q-52 -3 -90 -41l-32 31q20 20 46 34l4 2h1v1h1h1v1h1q1 0 1 1h1h1v1h1h1q28 12 60 15zM394 756h-134v44h134v-44zM616 756h-133 v44h133v-44zM44 537h-44v79v1v1v1v1v1v1v1v1v1v1v1v1v1v1h1v1v1v1v1v1v1v2q2 8 3.5 15.5t3.5 15.5l42 -13q-6 -20 -6 -40v-79zM44 315h-44v133h44v-133zM704 76q41 33 50 86l44 -7l-2 -10q-1 -5 -3 -10v-1v-1v-1h-1v-1v-1v-1h-1v-1v-1v-1h-1v-1v-1q-6 -17 -15.5 -33 t-21.5 -30h-1v-1h-1l-3 -3v-1l-1 -1q-1 0 -1 -1h-1v-1l-1 -1h-1v-1h-1v-1h-1v-1h-1v-1h-1q0 -1 -1 -1v-1h-1v-1h-1l-1 -1l-1 -1q-1 0 -1 -0.5t-1 -0.5zM756 377h44v-133h-44v133zM800 599v-133h-44v133h44zM298 44h133v-44h-133v44zM107 68q17 -11 36.5 -17.5t40.5 -6.5h25 v-44h-25h-1h-1h-1h-1h-1h-1h-1h-1h-1h-1h-1h-1h-1h-1v1h-1h-1h-1h-1h-1h-1h-1h-1h-1q-1 0 -1 1h-1h-1h-1h-1h-1h-1v1h-1h-1h-1h-1h-1l-1 1h-1h-1h-2l-1 1q-20 4 -41 14l-1 1q-1 0 -1 1h-1h-1v1h-1h-1v1h-1q-1 0 -1 1h-1v1h-1h-1v1h-1q-2 2 -4 2.5t-4 2.5zM616 44q14 0 28 3 l9 -43h-1v-1h-1h-1h-1h-1h-1q-1 0 -1 -1h-1h-1h-1h-1h-1h-1l-1 -1h-1h-1h-1h-1h-1h-1h-1h-1h-1v-1h-1h-1h-1h-1h-1h-1h-1h-1h-1h-1h-1h-1h-1h-1h-96v44h96zM745 669q-20 49 -68 72l20 40q6 -3 12 -6.5t12 -7.5l1 -1h1v-1h1v-1h1l2 -2h1v-1h1h1v-1h1v-1h1v-1h1v-1h1l1 -1h1 v-1h1v-1h1v-1h1v-1h1v-1h1v-1h1v-1h1v-1h1v-1h1q0 -1 1 -1v-1h1v-1h1v-1h1v-1h1v-1h1v-1h1v-1h1v-1h1v-1h1v-1h1v-1l1 -1l1 -1v-1h1v-1h1v-1q1 0 1 -1v-1l3 -3v-1h1v-1q13 -16 21 -37z" />
<glyph unicode="D" d="M400 800q83 0 156 -31.5t127 -85.5t85.5 -127t31.5 -156t-31.5 -156t-85.5 -127t-127 -85.5t-156 -31.5t-156 31.5t-127 85.5t-85.5 127t-31.5 156t31.5 156t85.5 127t127 85.5t156 31.5zM656 505q6 6 6 15t-7 15l-51 51q-6 6 -15 6t-15 -6l-231 -232q-6 -6 -15 -6t-15 6 l-84 84q-6 6 -15 6t-15 -6l-52 -52q-6 -6 -6 -14.5t6 -14.5l132 -133q6 -6 16.5 -10.5t19.5 -4.5h24q9 0 19.5 4.5t16.5 10.5z" />
<glyph unicode="E" horiz-adv-x="839" d="M674 0l-235 236q-32 -17 -67 -26t-73 -9q-62 0 -116.5 23.5t-95 64t-64 95.5t-23.5 117t23.5 116.5t64 95t95 64t116.5 23.5t117 -23.5t95.5 -64t64 -95t23.5 -116.5q0 -38 -9.5 -73.5t-26.5 -67.5l236 -236zM100 501q0 -41 15.5 -77.5t42.5 -63.5t63.5 -43t77.5 -16 t77.5 16t63.5 43t43 63.5t16 77.5t-16 77.5t-43 63.5t-63.5 42.5t-77.5 15.5t-77.5 -15.5t-63.5 -42.5t-42.5 -63.5t-15.5 -77.5z" />
<glyph unicode="F" horiz-adv-x="841" d="M783 89q18 -17 18 -41q0 -20 -14 -34t-34 -14h-3q-22 1 -39 17l-237 238q-37 -26 -81 -40.5t-93 -14.5q-62 0 -117 23.5t-95.5 64t-64 95.5t-23.5 117t23.5 117t64 95.5t95.5 64t117 23.5t117 -23.5t95.5 -64t64 -95.5t23.5 -117q0 -48 -14.5 -92t-40.5 -81zM100 500 q0 -41 16 -77.5t43 -63.5t63.5 -43t77.5 -16t77.5 16t63.5 43t43 63.5t16 77.5t-16 77.5t-43 63.5t-63.5 43t-77.5 16t-77.5 -16t-63.5 -43t-43 -63.5t-16 -77.5z" />
<glyph unicode="G" d="M400 800q83 0 156 -31.5t127 -85.5t85.5 -127t31.5 -156t-31.5 -156t-85.5 -127t-127 -85.5t-156 -31.5t-156 31.5t-127 85.5t-85.5 127t-31.5 156t31.5 156t85.5 127t127 85.5t156 31.5zM611 188q11 11 11 27q0 17 -13 29l-119 120q12 20 19 42.5t7 47.5q0 35 -13.5 66 t-36.5 54t-54 36.5t-66 13.5t-66 -13.5t-54 -36.5t-36.5 -54t-13.5 -66t13.5 -66t36.5 -54t54 -36.5t66 -13.5q50 0 90 26l120 -120q12 -12 29 -12q16 0 26 10zM346 549q19 0 36.5 -7.5t30.5 -20.5t20.5 -30.5t7.5 -36.5q0 -20 -7.5 -37t-20.5 -30t-30.5 -20.5t-36.5 -7.5 q-20 0 -37.5 7.5t-30 20.5t-20 30t-7.5 37q0 19 7.5 36.5t20 30.5t30 20.5t37.5 7.5z" />
<glyph unicode="H" horiz-adv-x="841" d="M778 119q11 -11 16.5 -25t6.5 -28q0 -27 -20 -47q-18 -19 -46 -19q-31 0 -53 22l-215 215q-35 -23 -76 -35t-86 -12q-63 0 -118.5 24t-97 65t-65.5 97t-24 119t24 118.5t65.5 97t97 65.5t118.5 24t119 -24t97 -65.5t65 -97t24 -118.5q0 -45 -12 -86t-34 -76zM475 495 q0 35 -13.5 66t-36.5 54t-54 36.5t-66 13.5t-66 -13.5t-54 -36.5t-36.5 -54t-13.5 -66t13.5 -66t36.5 -54t54 -36.5t66 -13.5t66 13.5t54 36.5t36.5 54t13.5 66z" />
<glyph unicode="I" horiz-adv-x="486" d="M401 749q61 -51 61 -136v-5q0 -28 -3.5 -51t-11.5 -43q-15 -39 -38 -64q-20 -24 -48 -46q-12 -8 -22.5 -17.5t-20.5 -20.5q-20 -20 -33 -45q-12 -23 -12 -63v-18h-133h-16l-2 16q-1 10 -1 19v17q0 37 7 62q13 43 31 71q19 28 45 51l22 20q10 9 21 18q9 9 17 18t14 18 q10 14 10 39q0 29 -15 46q-6 6 -20.5 11t-38.5 5q-17 0 -32 -4q-16 -3 -35 -9q-9 -4 -17.5 -7t-16.5 -8t-15 -8.5t-13 -8.5l-17 -11l-68 131l13 9q42 28 95 46q54 19 129 19q104 0 164 -51zM202 194q47 0 74 -26q15 -14 22 -32t7 -38q0 -43 -28 -71q-29 -27 -75 -27 q-44 0 -72 27t-28 71q0 43 28 70q29 26 72 26z" />
<glyph unicode="J" d="M400 800q83 0 156 -31.5t127 -85.5t85.5 -127t31.5 -156t-31.5 -156t-85.5 -127t-127 -85.5t-156 -31.5t-156 31.5t-127 85.5t-85.5 127t-31.5 156t31.5 156t85.5 127t127 85.5t156 31.5zM427 161q17 17 17 44t-18 45q-17 16 -46 16t-46 -16q-17 -19 -17 -45 q0 -27 17 -44q19 -17 45 -17h1q14 0 26 4t21 13zM534 467q9 24 9 59q0 55 -38 88q-38 32 -103 32q-49 0 -81 -11q-35 -12 -60 -30l-8 -5l43 -83l10 8q4 2 8.5 5t9.5 5q10 6 21 9q10 4 22 6q5 2 10 2t10 1q28 0 37 -11q10 -10 10 -28q0 -13 -7 -25l-9 -11q-4 -6 -10 -11 l-27 -24q-15 -12 -28 -32q-7 -10 -11.5 -21t-8.5 -23q-4 -16 -4 -40v-11q0 -5 1 -11l1 -10h10h83v11q0 24 8 40q10 18 20 28q6 7 13 13t15 11q15 11 30 29q14 17 24 40z" />
<glyph unicode="K" horiz-adv-x="327" d="M312 148l-4 -5q-30 -34 -63 -60.5t-63.5 -45t-55.5 -28t-40 -9.5q-10 0 -19.5 3t-16.5 11q-15 16 -15 50q0 14 2 39t7 45l59 254q5 23 5 29q-4 -2 -13.5 -8t-21 -14l-23.5 -17l-19 -15l-8 -6l-23 63l4 4q31 28 64 53t64 44t57 30t43 11q20 0 31 -17q8 -15 8 -41 q0 -14 -1.5 -38t-6.5 -42l-65 -263q-2 -9 -3 -16t-1 -11q0 -6 1 -7q3 0 11 6l21 15l25 18q14 11 25 21l7 6l24 -54zM213 629q-32 0 -51 21.5t-19 56.5q0 15 5.5 31.5t17.5 30t30 22.5t41 9q34 0 54 -23q9 -11 13 -24.5t4 -27.5q0 -18 -7 -35.5t-19.5 -31t-29.5 -21.5t-38 -8 h-1z" />
<glyph unicode="L" d="M400 800q83 0 156 -31.5t127 -85.5t85.5 -127t31.5 -156t-31.5 -156t-85.5 -127t-127 -85.5t-156 -31.5t-156 31.5t-127 85.5t-85.5 127t-31.5 156t31.5 156t85.5 127t127 85.5t156 31.5zM451 676q-16 0 -28 -6t-20 -15.5t-12 -20.5t-4 -21q0 -24 13 -39t35 -15h1 q28 0 46 20t18 46q0 21 -12 35q-13 16 -37 16zM503 231l-3 4l-16 36l-5 -4q-16 -14 -34.5 -27t-21.5 -14q-1 1 -1 5q0 6 3 18l44 180q3 12 4.5 28.5t1.5 25.5q0 17 -6 28q-6 12 -21 12q-12 0 -29.5 -7.5t-38.5 -20t-43.5 -30t-43.5 -36.5l-3 -3l15 -43l6 4q6 4 13.5 10 t15.5 11l14 10q6 5 9 6q0 -5 -3 -20l-40 -173q-3 -14 -5 -31t-2 -26q0 -22 11 -35q5 -5 11.5 -7t12.5 -2h1q10 0 27 6.5t37.5 19t43 31t43.5 41.5z" />
<glyph unicode="M" horiz-adv-x="321" d="M228 152q0 -31 2 -48.5t10 -27.5t23 -14t42 -7v-55h-305v55q26 3 41 6.5t23 13.5t10 27.5t2 49.5v237q0 29 -2 45.5t-9 25.5t-20 13t-34 7v51q54 7 110 18t107 25v-422zM142 633q-17 0 -32 6.5t-26.5 18t-18.5 27t-7 32.5q0 18 7 33t18.5 26t27 17.5t32.5 6.5 q36 0 60.5 -24t24.5 -59t-24.5 -59.5t-61.5 -24.5z" />
<glyph unicode="N" d="M400 800q83 0 156 -31.5t127 -85.5t85.5 -127t31.5 -156t-31.5 -156t-85.5 -127t-127 -85.5t-156 -31.5t-156 31.5t-127 85.5t-85.5 127t-31.5 156t31.5 156t85.5 127t127 85.5t156 31.5zM396 667q-23 0 -40 -16t-17 -40q0 -23 16.5 -39.5t39.5 -16.5q25 0 41.5 16.5 t16.5 39.5q0 24 -16.5 40t-40.5 16zM505 165q-18 3 -28.5 5.5t-15.5 9.5t-6.5 18.5t-1.5 32.5v284q-34 -10 -72 -17t-74 -12v-34q14 -3 23 -5.5t13.5 -8.5t6 -17t1.5 -31v-159q0 -21 -1.5 -33.5t-7 -19t-15.5 -9t-27 -4.5v-37h205v37z" />
<glyph unicode="O" horiz-adv-x="1485" d="M1 799h1412l-706 -520zM975 379l439 323v-646zM439 379l-439 -323v647zM754 216l155 114l448 -330h-1300l448 330l156 -114l46 -34zM1 799l-1 1h1414l-1 -1h-1412z" />
<glyph unicode="P" d="M250 800v-100h-100zM294 800h356v-458l-135 -100h-229l-136 100v313h100h44v45v100zM105 375l-104 78l104 76v-154zM248 214l-248 -182v365l106 -78zM800 452l-106 -78v155l105 -77h1zM694 319l106 78v-365l-248 182zM514 187l254 -187h-736l254 187l19 14h190zM799 452 h1h-1z" />
<glyph unicode="Q" horiz-adv-x="900" d="M857 484v1v-1zM857 484v-60v-390l-265 196l265 195l-79 59v1l-349 256l-346 -256l-1 -1l-81 -59l265 -195l-266 -196v391v59l429 316l428 -315v-1zM552 200l271 -200h-789l272 200l21 15h204z" />
<glyph unicode="R" horiz-adv-x="1244" d="M390 419l-386 -371q-2 6 -3 11.5t-1 11.5v658q0 6 1 11.5t3 10.5zM71 0q-10 0 -19 3l390 374l151 -122l150 123l390 -375q-9 -3 -19 -3h-1043zM491 422l-52 42l-388 333q9 3 20 3h1043q11 0 20 -3l-388 -333l-52 -41l-101 -83zM795 420l386 331q4 -9 4 -22v-658 q0 -12 -4 -23z" />
<glyph unicode="S" horiz-adv-x="695" d="M150 562q-9 11 -5.5 18t17.5 7h84h33v180q0 14 9.5 23.5t23.5 9.5h39q14 0 23.5 -9.5t9.5 -23.5v-180h33h84q14 0 17.5 -7t-5.5 -18l-160 -192q-9 -10 -21 -10q-13 0 -22 10zM218 234l-216 -207q-2 8 -2 13v367q0 4 2 12zM415 211l218 -209q-3 -1 -5.5 -1.5t-5.5 -0.5 h-582q-5 0 -11 2l218 209l84 -69zM245 259l-217 186q8 2 12 2h159l83 -100q21 -24 50 -24q28 0 49 24l83 100h158q3 0 5.5 -0.5t5.5 -1.5l-217 -186l-28 -23l-57 -46l-57 46zM659 419q3 -6 3 -12v-367q0 -7 -3 -13l-215 207z" />
<glyph unicode="T" horiz-adv-x="1244" d="M439 464l-388 333q9 3 20 3h1043q9 0 20 -3l-388 -332l-52 -42l-102 -83l-101 83zM1181 751q2 -5 3 -10.5t1 -11.5v-658q0 -10 -5 -22q-7 -21 -25.5 -35t-41.5 -14h-1042q-26 0 -45.5 17t-24.5 42q0 3 -0.5 6t-0.5 6v658q0 6 1 11.5t3 10.5l364 -313l224 -183l226 185z " />
<glyph unicode="U" horiz-adv-x="841" d="M107 214q22 0 41.5 -8.5t34 -23t23 -34t8.5 -41.5t-8.5 -41.5t-23 -34t-34 -23t-41.5 -8.5t-41.5 8.5t-34 23t-23 34t-8.5 41.5t8.5 41.5t23 34t34 23t41.5 8.5zM0 800q110 0 212 -28.5t191 -80.5t162 -125t125.5 -162t81 -191.5t29.5 -212.5h-154q-1 134 -52.5 251.5 t-139 205.5t-205 138.5t-250.5 50.5v154zM0 527q109 0 204.5 -41.5t167.5 -113t114 -167.5t43 -205h-155q-1 75 -28.5 142t-80.5 121q-54 54 -122 82t-143 28v154z" />
<glyph unicode="V" d="M656 800q30 0 56 -11.5t45.5 -31t31 -45.5t11.5 -56v-512q0 -30 -11.5 -56t-31 -45.5t-45.5 -31t-56 -11.5h-512q-30 0 -56 11.5t-45.5 31t-31 45.5t-11.5 56v512q0 30 11.5 56t31 45.5t45.5 31t56 11.5h512zM229 167q26 0 44 18.5t18 44.5t-18 44t-44 18t-44.5 -18 t-18.5 -44t18.5 -44.5t44.5 -18.5zM476 167q0 64 -25 120t-67 98t-98 66.5t-120 24.5v-90q45 0 84.5 -16.5t71.5 -48.5q31 -31 47 -70.5t17 -83.5h90zM636 167q0 97 -37.5 182.5t-101 149t-149 100.5t-182.5 37v-90q78 0 147 -30t120.5 -81.5t81.5 -120.5t31 -147h90z" />
<glyph unicode="W" d="M400 800q83 0 156 -31.5t127 -85.5t85.5 -127t31.5 -156t-31.5 -156t-85.5 -127t-127 -85.5t-156 -31.5t-156 31.5t-127 85.5t-85.5 127t-31.5 156t31.5 156t85.5 127t127 85.5t156 31.5zM253 197q23 0 38.5 15.5t15.5 38.5q0 22 -15.5 37.5t-38.5 15.5 q-22 0 -37.5 -15.5t-15.5 -37.5q0 -23 15.5 -38.5t37.5 -15.5zM464 197q0 54 -21 102t-57 84t-84 56.5t-102 20.5v-77q38 0 72 -14t60 -41q26 -26 40.5 -59.5t14.5 -71.5h77zM600 197q0 83 -32 156t-86 127t-127 85.5t-155 31.5v-77q67 0 125.5 -25.5t102.5 -69.5 t69.5 -102.5t25.5 -125.5h77z" />
<glyph unicode="X" horiz-adv-x="843" d="M0 552q110 -8 207 -53.5t171 -119.5t120 -171t54 -208h-109q-8 88 -45.5 165.5t-96.5 136.5t-136 95.5t-165 44.5v110zM694 0q-9 140 -66 263t-150 216t-216 150t-262 65v106q104 -1 203 -32.5t187.5 -85.5t163.5 -128.5t129.5 -163t86 -187.5t33.5 -203h-109zM0 299 q57 -7 108.5 -31.5t93.5 -66.5t66.5 -93t31.5 -108h-300v299z" />
<glyph unicode="Y" horiz-adv-x="1787" d="M159 452q13 -1 23 -1.5t19 -1t19 -0.5h23q58 0 90.5 31.5t32.5 83.5q0 105 -117 105q-22 0 -42.5 -0.5t-47.5 -2.5v-214zM0 788q59 5 122.5 8.5t141.5 3.5q63 0 113.5 -16.5t86 -44.5t54.5 -65t19 -77q0 -35 -11 -64t-30.5 -52.5t-45.5 -41.5t-56 -31v-2q21 -11 37 -23 t28.5 -30t23 -45t21.5 -68q17 -63 33.5 -118t36.5 -110h-169q-17 51 -33 110l-29 118q-19 85 -97 85h-21q-9 0 -18 -0.5t-20.5 -1t-27.5 -1.5v-310h-159v776zM901 800q45 0 91 -7t81 -22l-18 -130q-38 14 -80.5 21t-81.5 7q-42 0 -66.5 -19t-24.5 -47q0 -19 4 -33.5 t17 -27.5t35.5 -27t60.5 -33q109 -55 157.5 -113.5t48.5 -134.5q0 -54 -23 -97.5t-63 -74t-93 -46.5t-113 -16q-48 0 -102.5 6.5t-99.5 20.5l18 131q48 -14 91 -20.5t100 -6.5q56 0 85 25.5t29 64.5q0 16 -4.5 30.5t-16.5 29t-33 28.5t-53 30q-55 28 -95.5 54.5t-67.5 56 t-40 63.5t-13 76q0 47 18 86t52.5 66.5t84.5 43t115 15.5zM1478 800q45 0 91 -7t81 -22l-18 -130q-38 14 -80.5 21t-82.5 7q-42 0 -66 -19t-24 -47q0 -19 4 -33.5t17 -27.5t35.5 -27t60.5 -33q109 -55 157.5 -113.5t48.5 -134.5q0 -54 -23 -97.5t-63 -74t-93 -46.5t-113 -16 q-48 0 -103 6.5t-99 20.5l18 131q48 -14 91 -20.5t100 -6.5q56 0 85 25.5t29 64.5q0 16 -4.5 30.5t-16.5 29t-33 28.5t-53 30q-55 28 -95.5 54.5t-67.5 56t-40 63.5t-13 76q0 47 18 86t52.5 66.5t84.5 43t115 15.5z" />
<glyph unicode="Z" horiz-adv-x="1942" d="M1004 524q47 0 79 -35t32 -97q0 -61 -32 -96t-79 -35t-79.5 35t-32.5 96q0 62 32.5 97t79.5 35zM358 503q5 -29 12.5 -55.5t16.5 -55.5l7 -19h-74q2 5 3 8.5t2 5.5q1 3 2 5q10 29 17.5 55.5t12.5 55.5h1zM1679 800q35 0 66 -13.5t54.5 -37t37 -54.5t13.5 -66v-458 q0 -35 -13.5 -66.5t-37 -54.5t-54.5 -36.5t-66 -13.5h-1508q-35 0 -66.5 13.5t-54.5 36.5t-36.5 54.5t-13.5 66.5v458q0 35 13.5 66t36.5 54.5t54.5 37t66.5 13.5h1508zM531 204l-132 377h-78l-133 -377h76l11 33l11 33q7 19 13 39h115l35 -105h82zM808 581h-319v-63h121 v-314h77v314h121v63zM1004 198q44 0 80 15.5t61.5 42t39.5 61.5t14 75t-14 75.5t-39.5 62t-61.5 42t-80 15.5t-80 -15.5t-61.5 -42t-39.5 -62t-14 -75.5t14 -75t39.5 -61.5t61.5 -42t80 -15.5zM1658 204l-3 377h-111l-63 -189q-7 -20 -13.5 -44.5t-13.5 -57.5h-1 q-6 33 -13 58l-13 44l-62 189h-112l-2 -377h71l1 226q1 11 1 24v14q-1 21 -3 38h1q2 -17 7 -38t11 -38l71 -212h79l72 212q5 17 10.5 38.5t8.5 39.5h1q-2 -19 -2.5 -40t-0.5 -38l2 -226h77z" />
<glyph unicode="[" horiz-adv-x="1538" d="M399 548q64 0 64 -58q0 -29 -18 -46.5t-50 -17.5h-23q-9 0 -23 2v118q14 2 25 2h25zM1269 800q40 0 76 -15.5t62.5 -42t42 -62.5t15.5 -76v-408q0 -41 -15.5 -76.5t-42 -62t-62.5 -42t-76 -15.5h-1073q-41 0 -76.5 15.5t-62 42t-42 62t-15.5 76.5v408q0 40 15.5 76 t42 62.5t62 42t76.5 15.5h1073zM579 183q-11 31 -20.5 61.5t-18.5 65.5q-6 22 -11.5 37t-13 25.5t-16 17t-20.5 12.5v1q33 14 56 40.5t23 64.5q0 22 -10.5 42.5t-30 36.5t-47.5 25t-63 9q-43 0 -78.5 -2t-68.5 -5v-431h89v172l26 1q9 1 22 1q42 0 54 -47l17 -65 q8 -33 17 -62h94zM723 176q33 0 62.5 9t51.5 26t35 41t13 54q0 42 -26.5 74.5t-87.5 63.5q-21 10 -34 18t-19.5 15.5t-9 15t-2.5 18.5q0 16 13.5 26.5t36.5 10.5q22 0 45.5 -4t44.5 -12l10 73q-20 8 -45 12t-50 4q-72 0 -111 -32.5t-39 -85.5q0 -47 29.5 -77t90.5 -61 q35 -18 47 -33t12 -33q0 -22 -16 -36t-47 -14q-32 0 -56 3.5t-50 11.5l-10 -72q24 -8 55 -12t57 -4zM1043 176q33 0 63 9t52 26t35 41t13 54q0 42 -27 74.5t-88 63.5q-21 10 -33.5 18t-19.5 15.5t-9.5 15t-2.5 18.5q0 16 13.5 26.5t36.5 10.5q22 0 45.5 -4t45.5 -12l10 73 q-20 8 -45.5 12t-50.5 4q-72 0 -111 -32.5t-39 -85.5q0 -47 29.5 -77t90.5 -61q36 -18 48 -33t12 -33q0 -22 -16.5 -36t-47.5 -14q-32 0 -55.5 3.5t-50.5 11.5l-10 -72q25 -8 55.5 -12t56.5 -4z" />
<glyph unicode="\" horiz-adv-x="1879" d="M1618 800q35 0 66 -13.5t54.5 -37t37 -54.5t13.5 -66v-458q0 -35 -13.5 -66.5t-37 -54.5t-54.5 -36.5t-66 -13.5h-1447q-35 0 -66.5 13.5t-54.5 36.5t-36.5 54.5t-13.5 66.5v458q0 35 13.5 66t36.5 54.5t54.5 37t66.5 13.5h1447zM441 591h-80v-243q0 -41 -18 -63t-62 -22 q-12 0 -22.5 1.5t-23.5 4.5l-9 -65q15 -3 29 -4.5t31 -1.5q33 0 61.5 9t49.5 27t32.5 46t11.5 67v244zM596 198q30 0 56.5 8t46.5 23.5t31.5 37t11.5 48.5q0 38 -24.5 67t-79.5 57q-18 9 -29.5 16t-18 14t-8.5 14t-2 16q0 14 12.5 23.5t32.5 9.5t41 -3.5t41 -10.5l8 65 q-17 8 -40 11t-45 3q-65 0 -100 -28.5t-35 -76.5q0 -42 26.5 -69.5t81.5 -54.5q32 -17 42.5 -30t10.5 -30q0 -20 -14.5 -32.5t-42.5 -12.5q-29 0 -50 3t-45 11l-9 -65q22 -7 49.5 -10.5t51.5 -3.5zM979 198q45 0 81.5 16t63 43t40.5 63.5t14 77.5t-14 77t-40.5 63t-63 43 t-81.5 16t-82 -16t-63 -43t-40.5 -63t-14.5 -77t14.5 -77.5t40.5 -63.5t63 -43t82 -16zM1564 591h-76v-197v-49q0 -26 2 -72h-1q-17 46 -28 72l-21 49l-93 197h-112v-387h76v204v26q0 14 -1 30v31q-1 15 -1 26h1l14 -39l12 -29q5 -13 10 -23l10 -22l96 -204h112v387z M979 532q48 0 81 -35.5t33 -98.5q0 -32 -9 -57t-24.5 -42t-36 -26.5t-44.5 -9.5t-44.5 9.5t-36 26.5t-24.5 42t-9 57q0 63 33 98.5t81 35.5z" />
<glyph unicode="]" d="M401 800h1h7h1h1h1h2l-2 -45q-3 0 -6 0.5t-6 0.5q-74 0 -144 -31l-18 41l8 4l9 3h1l1 1h1h1v1h1h1h1v1h1q23 8 47.5 14t50.5 8h1h1h1h1v1h7h1h1h1h1h1h1h1h1v1h1h1h1h3h1h1h1h1h1h1h1h1h1h1h1h1h1h1h1zM192 688q-30 -21 -55 -49t-44 -60l-38 23q8 15 19 29l21 28h1v1l3 3 v1h1v1h1v1h1v1h1v1l1 1q0 1 1 1v1h1v1h1v1h1l1 1v1h1v1h1v1h1v1l3 3h1v1h1v1q2 2 4 3q10 10 20 19t21 17h1v1h1q1 0 1 1h1zM62 512q-8 -27 -13 -55t-5 -57q0 -8 0.5 -17t1.5 -17l-44 -4q-1 3 -1 10v1v1v1v1q0 3 -0.5 6t-0.5 6v4v1v1v1v1v1v1v1v1v1v1v1v1v1v1v1v1v1v1v1v1v1 v1v1v1v1v1v1v1q1 0 1 1v1v2v1v1v1v2q3 37 12 71v1v1v1l1 1v1v1v1h1v1q1 5 2 9t3 9zM61 294q22 -72 72 -129l-34 -29q-56 63 -81 144zM187 115q61 -46 134 -62l-10 -43h-1h-1l-1 1h-1q-2 0 -3 1h-1h-1h-1l-1 1h-1h-1q-1 0 -1.5 0.5t-1.5 0.5h-1h-1v1h-1h-1h-1h-1v1h-1h-2v1 h-1h-1h-1q0 1 -1 1h-1h-1q-1 0 -1 1h-1h-1h-1v1h-1h-1h-1v1h-1h-1h-1q0 1 -2 1q-1 0 -1 1h-1h-1q0 1 -1 1h-1h-1l-4 2h-1l-1 1q-41 16 -80 42h-1l-1 1h-1v1h-1q0 1 -1 1l-1 1h-1v1h-1l-1 1h-1v1q-4 2 -5 4zM556 31q-5 -2 -10 -3.5t-10 -3.5q-61 -22 -131 -24h-5h-1h-1h-5 l1 44h6q71 0 138 28zM742 192q-9 -14 -20 -29v-1h-1v-1h-1v-1q-1 -1 -1 -1.5t-1 -1.5l-1 -1v-1h-1v-1h-1v-1l-1 -1q-1 0 -1 -1v-1h-1v-1h-1v-1h-1v-1h-1v-1v-1h-1v-1h-1v-1h-1v-1h-1v-1h-1v-1v-1h-1v-1h-1v-1h-1v-1h-1q0 -2 -2 -2v-1q-1 0 -1 -1l-1 -1l-1 -1l-2 -2v-1h-1v-1 h-1v-1h-1l-3 -3v-1h-1v-1q-1 0 -1 -1q-2 -2 -4 -3v-1h-1v-1q-1 0 -1 -1l-2 -2h-1v-1h-1v-1h-1v-1h-1l-2 -2v-1h-1v-1h-1l-1 -1l-1 -1q-1 0 -1 -1h-1v-1h-1v-1h-1v-1h-1v-1h-1q0 -1 -1 -1h-1v-1h-1v-1h-1v-1h-1v-1h-1l-1 -1l-1 -1q-1 0 -1 -1h-1v-1q-13 -10 -23 -16l-25 36 q61 43 101 107zM799 431q0 -5 0.5 -10.5t0.5 -11.5v-1v-1v-1v-1v-1v-1v-1v-1v-1v-1v-1v-1v-1v-1v-1v-1v-1v-1v-1v-1v-1v-1v-1v-1v-1v-1v-1v-1v-1l-1 -1v-1v-1v-1v-1v-1v-2v-1v-1v-2v-1q0 -1 -1 -2v-1q-4 -50 -21 -97l-41 15q20 58 20 118q0 7 -0.5 14t-1.5 14zM705 659 q2 -3 4.5 -5.5t4.5 -5.5v-1h1v-1h1v-1q1 0 1 -1l1 -1q22 -29 38.5 -61.5t27.5 -68.5l-43 -12q-11 35 -28 67.5t-42 61.5zM496 788q42 -10 79 -28t70 -44l-27 -35q-59 46 -133 64z" />
<glyph unicode="^" d="M616 756h-133v44h133v-44zM394 756h-134v44h134v-44zM175 755q-52 -3 -90 -41l-32 31q20 20 46 34l4 2h1v1h1h1v1h1q1 0 1 1h1h1v1h1h1q28 12 60 15zM50 656q-6 -20 -6 -40v-79h-44v79v1v1v1v1v1v1v1v1v1v1v1v1v1v1h1v1v1v1v1v1v1v2q2 8 3.5 15.5t3.5 15.5zM44 315h-44 v133h44v-133zM44 184q0 -35 17 -66l-39 -22v1v1q-1 0 -1 1q-6 11 -10 22.5t-7 24.5v1q0 1 -1 1v1v1v1v1v1v1h-1v1v1v1v1v1v1l-1 1v1v1v1v1v1v1v1v1v1h-1v1v1v1v1v1v1v1v1v1v1v1v1v1v1v42h44v-42zM107 68q17 -11 36.5 -17.5t40.5 -6.5h25v-44h-25h-1h-1h-1h-1h-1h-1h-1h-1h-1 h-1h-1h-1h-1h-1v1h-1h-1h-1h-1h-1h-1h-1h-1h-1q-1 0 -1 1h-1h-1h-1h-1h-1h-1v1h-1h-1h-1h-1h-1l-1 1h-1h-1h-2l-1 1q-20 4 -41 14l-1 1q-1 0 -1 1h-1h-1v1h-1h-1v1h-1q-1 0 -1 1h-1v1h-1h-1v1h-1q-2 2 -4 2.5t-4 2.5zM431 0h-133v44h133v-44zM653 4h-1v-1h-1h-1h-1h-1h-1 q-1 0 -1 -1h-1h-1h-1h-1h-1h-1l-1 -1h-1h-1h-1h-1h-1h-1h-1h-1h-1v-1h-1h-1h-1h-1h-1h-1h-1h-1h-1h-1h-1h-1h-1h-1h-96v44h96q14 0 28 3zM798 155l-2 -10q-1 -5 -3 -10v-1v-1v-1h-1v-1v-1v-1h-1v-1v-1v-1h-1v-1v-1q-6 -17 -15.5 -33t-21.5 -30h-1v-1h-1l-3 -3v-1l-1 -1 q-1 0 -1 -1h-1v-1l-1 -1h-1v-1h-1v-1h-1v-1h-1v-1h-1q0 -1 -1 -1v-1h-1v-1h-1l-1 -1l-1 -1q-1 0 -1 -0.5t-1 -0.5l-28 34q41 33 50 86zM800 244h-44v133h44v-133zM800 466h-44v133h44v-133zM697 781q6 -3 12 -6.5t12 -7.5l1 -1h1v-1h1v-1h1l2 -2h1v-1h1h1v-1h1v-1h1v-1h1v-1 h1l1 -1h1v-1h1v-1h1v-1h1v-1h1v-1h1v-1h1v-1h1v-1h1v-1h1q0 -1 1 -1v-1h1v-1h1v-1h1v-1h1v-1h1v-1h1v-1h1v-1h1v-1h1v-1h1v-1l1 -1l1 -1v-1h1v-1h1v-1q1 0 1 -1v-1l3 -3v-1h1v-1q13 -16 21 -37l-41 -17q-20 49 -68 72z" />
<glyph unicode="_" d="M399 266q25 0 42.5 -17t17.5 -42t-17.5 -42t-42.5 -17t-42 17t-17 42t17 42t42 17zM329 647h141l-29 -343h-84zM44 537h-44v79v1v1v1v1v1v1v1v1v1v1v1v1v1v1h1v1v1v1v1v1v1v2q2 8 3.5 15.5t3.5 15.5l42 -13q-6 -20 -6 -40v-79zM44 315h-44v133h44v-133zM800 599v-133h-44 v133h44zM44 184q0 -35 17 -66l-39 -22v1v1q-1 0 -1 1q-6 11 -10 22.5t-7 24.5v1q0 1 -1 1v1v1v1v1v1v1h-1v1v1v1v1v1v1l-1 1v1v1v1v1v1v1v1v1v1h-1v1v1v1v1v1v1v1v1v1v1v1v1v1v1v42h44v-42zM394 756h-134v44h134v-44zM745 669q-20 49 -68 72l20 40q6 -3 12 -6.5t12 -7.5 l1 -1h1v-1h1v-1h1l2 -2h1v-1h1h1v-1h1v-1h1v-1h1v-1h1l1 -1h1v-1h1v-1h1v-1h1v-1h1v-1h1v-1h1v-1h1v-1h1v-1h1q0 -1 1 -1v-1h1v-1h1v-1h1v-1h1v-1h1v-1h1v-1h1v-1h1v-1h1v-1h1v-1l1 -1l1 -1v-1h1v-1h1v-1q1 0 1 -1v-1l3 -3v-1h1v-1q13 -16 21 -37zM704 76q41 33 50 86l44 -7 l-2 -10q-1 -5 -3 -10v-1v-1v-1h-1v-1v-1v-1h-1v-1v-1v-1h-1v-1v-1q-6 -17 -15.5 -33t-21.5 -30h-1v-1h-1l-3 -3v-1l-1 -1q-1 0 -1 -1h-1v-1l-1 -1h-1v-1h-1v-1h-1v-1h-1v-1h-1q0 -1 -1 -1v-1h-1v-1h-1l-1 -1l-1 -1q-1 0 -1 -0.5t-1 -0.5zM298 44h133v-44h-133v44zM756 377 h44v-133h-44v133zM616 756h-133v44h133v-44zM616 44q14 0 28 3l9 -43h-1v-1h-1h-1h-1h-1h-1q-1 0 -1 -1h-1h-1h-1h-1h-1h-1l-1 -1h-1h-1h-1h-1h-1h-1h-1h-1h-1v-1h-1h-1h-1h-1h-1h-1h-1h-1h-1h-1h-1h-1h-1h-1h-96v44h96zM175 755q-52 -3 -90 -41l-32 31q20 20 46 34l4 2h1v1 h1h1v1h1q1 0 1 1h1h1v1h1h1q28 12 60 15zM107 68q17 -11 36.5 -17.5t40.5 -6.5h25v-44h-25h-1h-1h-1h-1h-1h-1h-1h-1h-1h-1h-1h-1h-1h-1v1h-1h-1h-1h-1h-1h-1h-1h-1h-1q-1 0 -1 1h-1h-1h-1h-1h-1h-1v1h-1h-1h-1h-1h-1l-1 1h-1h-1h-2l-1 1q-20 4 -41 14l-1 1q-1 0 -1 1h-1h-1 v1h-1h-1v1h-1q-1 0 -1 1h-1v1h-1h-1v1h-1q-2 2 -4 2.5t-4 2.5z" />
<glyph unicode="`" horiz-adv-x="940" d="M873 162q19 -33 21 -62q1 -5 1 -10q0 -24 -11 -42q-12 -22 -38.5 -35t-65.5 -13h-665q-39 0 -65.5 13t-39.5 35q-10 19 -10 44v8q2 29 22 62l332 571q19 33 44 50t50.5 17t50 -17t43.5 -50zM451 101q24 0 40.5 16.5t16.5 40.5t-16.5 40.5t-40.5 16.5t-40.5 -16.5 t-16.5 -40.5t16.5 -40.5t40.5 -16.5zM519 581h-136l28 -330h81z" />
<glyph unicode="a" horiz-adv-x="724" d="M399 344l-7 48l84 42h30v-276h-59v205zM346 242q0 -44 -33.5 -66t-82.5 -22q-18 0 -36 3.5t-32 8.5l7 48q17 -6 32.5 -9t34.5 -3q23 0 36 10.5t13 25.5q0 20 -15 30t-57 12v48q29 2 44.5 10.5t15.5 25.5q0 12 -8 19t-31 7q-29 0 -57 -14l-7 48q18 8 38.5 11.5t40.5 3.5 q42 0 65.5 -17.5t23.5 -42.5q0 -47 -59 -67v-1q32 -10 49.5 -26t17.5 -43zM689 689v-689h-689v689h82v43q0 32 19 50t53 18q33 0 52 -18t19 -50v-43h49v43q0 32 18.5 50t52.5 18t53 -18t19 -50v-43h48v43q0 32 19 50t53 18q33 0 52 -18t19 -50v-43h81zM503 617q0 -29 34 -29 q33 0 33 29v115q0 30 -33 30q-34 0 -34 -30v-115zM312 617q0 -16 7.5 -22.5t25.5 -6.5t25.5 6.5t7.5 22.5v115q0 16 -7.5 23t-25.5 7t-25.5 -7t-7.5 -23v-115zM120 617q0 -29 34 -29q33 0 33 29v115q0 30 -33 30q-34 0 -34 -30v-115zM632 536h-575v-479h575v479z" />
<glyph unicode="b" horiz-adv-x="724" d="M198 259q-11 0 -18 7t-7 18v28q0 11 7 18t18 7h82q11 0 18 7t7 18v82q0 11 7.5 18t17.5 7h28q11 0 18 -7t7 -18v-82q0 -11 7 -18t18 -7h82q11 0 18 -7t7 -18v-28q0 -11 -7 -18t-18 -7h-82q-11 0 -18 -7t-7 -18v-82q0 -11 -7 -18t-18 -7h-28q-10 0 -17.5 7t-7.5 18v82 q0 11 -7 18t-18 7h-82zM689 689v-689h-689v689h82v43q0 32 19 50t53 18q33 0 52 -18t19 -50v-43h49v43q0 32 18.5 50t52.5 18t53 -18t19 -50v-43h48v43q0 32 19 50t53 18q33 0 52 -18t19 -50v-43h81zM503 617q0 -29 34 -29q33 0 33 29v115q0 30 -33 30q-34 0 -34 -30v-115z M312 617q0 -16 7.5 -22.5t25.5 -6.5t25.5 6.5t7.5 22.5v115q0 16 -7.5 23t-25.5 7t-25.5 -7t-7.5 -23v-115zM120 617q0 -29 34 -29q33 0 33 29v115q0 30 -33 30q-34 0 -34 -30v-115zM632 536h-575v-479h575v479z" />
<glyph unicode="c" horiz-adv-x="724" d="M136 267q-5 5 -5 12t5 12l43 43q5 5 12 5t12 -5l70 -69q5 -5 12 -5t12 5l191 191q5 5 12 5t12 -5l43 -42q5 -5 5 -12.5t-5 -12.5l-232 -231q-5 -5 -13.5 -9t-15.5 -4h-20q-7 0 -15.5 4t-13.5 9zM689 689v-689h-689v689h82v43q0 32 19 50t53 18q33 0 52 -18t19 -50v-43h49 v43q0 32 18.5 50t52.5 18t53 -18t19 -50v-43h48v43q0 32 19 50t53 18q33 0 52 -18t19 -50v-43h81zM503 617q0 -29 34 -29q33 0 33 29v115q0 30 -33 30q-34 0 -34 -30v-115zM312 617q0 -16 7.5 -22.5t25.5 -6.5t25.5 6.5t7.5 22.5v115q0 16 -7.5 23t-25.5 7t-25.5 -7 t-7.5 -23v-115zM120 617q0 -29 34 -29q33 0 33 29v115q0 30 -33 30q-34 0 -34 -30v-115zM632 536h-575v-479h575v479z" />
<glyph unicode="d" horiz-adv-x="724" d="M689 689v-689h-689v689h82v43q0 32 19 50t53 18q33 0 52 -18t19 -50v-43h49v43q0 32 18.5 50t52.5 18t53 -18t19 -50v-43h48v43q0 32 19 50t53 18q33 0 52 -18t19 -50v-43h81zM57 177h124v106h-124v-106zM632 417h-124v-115h124v115zM489 417h-135v-115h135v115zM335 417 h-135v-115h135v115zM181 417h-124v-115h124v115zM200 177h135v106h-135v-106zM200 158v-101h135v101h-135zM354 57h135v101h-135v-101zM489 177v106h-135v-106h135zM508 177h124v106h-124v-106zM508 536v-100h124v100h-124zM503 617q0 -29 34 -29q33 0 33 29v115 q0 30 -33 30q-34 0 -34 -30v-115zM354 536v-100h135v100h-135zM312 617q0 -16 7.5 -22.5t25.5 -6.5t25.5 6.5t7.5 22.5v115q0 16 -7.5 23t-25.5 7t-25.5 -7t-7.5 -23v-115zM200 536v-100h135v100h-135zM120 617q0 -29 34 -29q33 0 33 29v115q0 30 -33 30q-34 0 -34 -30v-115 zM57 536v-100h124v100h-124zM57 57h124v101h-124v-101zM632 57v101h-124v-101h124z" />
<glyph unicode="e" horiz-adv-x="724" d="M689 689v-689h-689v689h82v43q0 32 19 50t53 18q33 0 52 -18t19 -50v-43h49v43q0 32 18.5 50t52.5 18t53 -18t19 -50v-43h48v43q0 32 19 50t53 18q33 0 52 -18t19 -50v-43h81zM57 283v-106h95v106h-95zM152 302v115h-95v-115h95zM172 177h460v106h-460v-106zM632 302v115 h-460v-115h460zM503 617q0 -29 34 -29q33 0 33 29v115q0 30 -33 30q-34 0 -34 -30v-115zM312 617q0 -16 7.5 -22.5t25.5 -6.5t25.5 6.5t7.5 22.5v115q0 16 -7.5 23t-25.5 7t-25.5 -7t-7.5 -23v-115zM172 536v-100h460v100h-460zM120 617q0 -29 34 -29q33 0 33 29v115 q0 30 -33 30q-34 0 -34 -30v-115zM57 536v-100h95v100h-95zM57 57h95v101h-95v-101zM632 57v101h-460v-101h460z" />
<glyph unicode="f" d="M400 800q83 0 156 -31.5t127 -85.5t85.5 -127t31.5 -156t-31.5 -156t-85.5 -127t-127 -85.5t-156 -31.5t-156 31.5t-127 85.5t-85.5 127t-31.5 156t31.5 156t85.5 127t127 85.5t156 31.5zM428 101q54 5 101 28t83 59t59 83.5t28 101.5h-128v53h128q-5 54 -27.5 101.5 t-58.5 84t-83.5 59.5t-101.5 28v-130h-53v130q-54 -5 -102 -27.5t-85 -59t-60 -84.5t-27 -102h130v-53h-130q5 -54 28 -102t59.5 -84t84.5 -59t102 -27v128h53v-128z" />
<glyph unicode="g" horiz-adv-x="1437" d="M1344 518q24 -48 24 -98q0 -24 -5 -48v-1v-1l-3 -15l-4 -16q-2 -10 -3 -14l-1 -3v-1q-1 -3 -2 -5.5t-2 -5.5v-1l-1 -3q-4 -8 -6 -13q0 -1 -0.5 -1.5t-0.5 -1.5l-1 -2q-1 -2 -2 -4.5t-2 -4.5q-2 -4 -4 -6q-1 -2 -2 -4.5t-2 -4.5q-2 -2 -4 -6q-2 -2 -2.5 -4t-2.5 -4 t-2.5 -3t-2.5 -3q-2 -4 -4 -6q-4 -6 -8 -11l-8 -10l-1 -1l-1 -1q-4 -5 -9 -9l-9 -10l-1 -1l-3 -3q-5 -5 -11 -10l-11 -10l-2 -2l-1 -1q-6 -5 -11.5 -9t-11.5 -9l-1 -1l-3 -2q-10 -8 -20 -14l-1 -1l-10 -7l-12 -6l-4 -2l-2 -2q-4 -2 -7.5 -4t-7.5 -4l-19 -10q-9 -5 -20 -10 q-3 -2 -5.5 -2.5t-5.5 -2.5l-3 -1q-8 -4 -16 -7.5t-16 -6.5q-5 -2 -8.5 -3t-8.5 -3q-8 -3 -17 -6t-19 -7l-6 -2q-2 0 -8 -2l-26 -8q-13 -4 -27 -7h-2h-1q-29 -8 -58 -12l-5 -1q-29 -6 -61 -9h-3q-31 -4 -64 -6h-1q-8 0 -16.5 -0.5t-17.5 -0.5h-1q-8 0 -17 -0.5t-17 -0.5 q-17 0 -33.5 0.5t-33.5 1.5h-3q-32 1 -64 6h-3l-15 2l-16 2q0 1 -2 1q-8 1 -15 2t-15 2h-1q-15 2 -30 5.5t-30 7.5h-3l-28 8q-13 3 -26 7l-2 1h-2l-26 8l-25 10l-2 1h-1l-24 10l-23 10l-2 1h-1q-12 5 -23 11l-22 12q-2 1 -2.5 1.5t-2.5 1.5l-3 2h-1q-4 2 -10 6 q-9 5 -17.5 11t-17.5 11l-1 1l-2 2q-8 5 -15 11t-15 12l-2 1l-2 2q-12 9 -25 24q-2 1 -4 3q-6 6 -11 12l-11 13l-2 2l-1 1l-10 12l-8 13l-1 2l-1 1q-8 12 -15 26l-1 2v1q-4 7 -6.5 13.5t-4.5 12.5l-1 1v1q-2 8 -4 15l-4 13l-4 16l-3 16q-5 23 -5 46q0 51 24 101 q32 68 109 126q65 51 158 87q85 33 187 51q99 18 206 18q106 0 207 -18q50 -9 96.5 -21.5t89.5 -29.5q46 -18 86 -40t73 -47q37 -29 64 -60t44 -66zM380 463h24h-24zM968 464v-1v1zM741 188h5h-5zM633 201l-1 -13zM986 540h-25h25zM960 540v1h1h182l-4 6q-2 3 -5 5l-1 2 l-1 1l-2 2q-2 2 -2.5 3t-2.5 3l-2 2q-2 2 -3 2q-6 7 -15 15l-1 1q-3 2 -7 6l-2 2q-1 0 -1 0.5t-1 0.5l-9 7l-8 6l-2 2q-1 0 -1 0.5t-1 0.5l-1 1q-7 4 -13.5 8.5t-14.5 9.5q-3 0 -5 2l-4 2l-12 6l-10 6q-1 0 -2 1q-1 0 -2 1l-4 2q-2 0 -2.5 0.5t-1.5 0.5l-4 3q-3 1 -7 3 q-2 1 -3 1t-3 1l-4 2q-4 1 -12 5l-12 4l-12 4l-4 2q-2 0 -2.5 0.5t-2.5 0.5l-2 1l-3 1h-1h-1l-2 1l-3 1l-6 2l-6 2q-8 2 -14 4l-12 3q-4 0 -10 2q-3 1 -5.5 1.5t-5.5 0.5q-2 1 -5 1.5t-5 1.5q-3 0 -5.5 0.5t-5.5 1.5q-2 0 -4.5 0.5t-4.5 0.5l-2 1h-1h-2h-1l-4 1q-2 1 -4.5 1 t-5.5 1q-2 0 -4.5 0.5t-4.5 0.5t-4.5 0.5t-4.5 0.5h-1l-8 1q-4 1 -10 1l-9 1q-3 1 -9 1l-9 1h-9l-10 1h-1h-1h-2h-1h-1l2 -57v-1v-1v-28l-1 -1h-78h-1v1v28v1v1l2 57h-9q-6 0 -10 -1h-10l-6 -1h-2h-2q-3 0 -6.5 -0.5t-6.5 -0.5q-3 -1 -6.5 -1t-6.5 -1h-3h-2h-1l-1 -1h-3h-3 q-3 -1 -6 -1t-7 -1q-2 0 -4 -0.5t-4 -0.5l-3 -1l-7 -1l-3 -1h-2l-12 -2q-6 -1 -11 -2l-2 -1h-2l-2 -1h-2l-2 -1q-4 -1 -7 -1t-6 -1q-4 -2 -7 -2l-3 -1q-2 -1 -3.5 -1t-3.5 -1h-2l-3 -1q-4 -2 -8 -2.5t-8 -2.5l-3 -1l-3 -1l-4 -1l-3 -1l-3 -1q-5 -1 -15 -5l-4 -1l-2 -1 q-2 -1 -2.5 -1t-2.5 -1h-1l-3 -2q-5 -2 -10.5 -4t-10.5 -4l-2 -1l-2 -1h-2l-2 -2q-3 -1 -5.5 -2t-5.5 -2l-6 -3l-2 -2h-2q-1 -1 -5 -3l-2 -1l-2 -1q-5 -2 -9 -5l-9 -5h-1l-1 -1l-1 -1h-1l-6 -3l-9 -6q-2 -2 -4 -3t-4 -3h-1l-1 -1l-9 -6q-2 -2 -3.5 -3t-3.5 -3q-4 -2 -6 -4 v-1h-1q-2 -2 -3.5 -3t-3.5 -3q-4 -4 -7 -5q-1 -2 -5 -6l-1 -1l-1 -1q-1 -1 -2 -1.5t-2 -1.5q-2 -2 -2.5 -3t-2.5 -2q-4 -4 -5 -6q-3 -3 -5 -6q-2 -1 -4 -5q-2 -1 -2.5 -2t-2.5 -3l-1 -2h186h1v-1l-7 -77v-1h-1h-215q-1 -2 -1 -3.5t-1 -3.5v-6v-1q-1 -3 -1 -8v-2v-2v-1v-1v-1 v-6v-2v-1q4 -14 11 -31q26 -51 83 -94q60 -45 149 -74q95 -30 202 -36l5 158v1h1h98h1v-1l5 -158q54 3 104 12.5t97 24.5q88 29 148 74q57 44 81 94q4 7 6.5 14.5t4.5 15.5q0 2 0.5 4.5t0.5 3.5q0 2 -1 3v14q-1 3 -1 6t-1 7h-212h-1v1zM411 540l-2 -8zM986 540h-25h25z M409 532l2 8zM380 463h24h-24zM632 188l1 13zM968 464v-1v1zM746 188h-5h5z" />
<glyph unicode="h" horiz-adv-x="422" d="M235 70q49 -2 81.5 -12t32.5 -22q0 -8 -11.5 -14.5t-31.5 -11t-47 -7.5t-58 -3t-58 3t-47.5 7.5t-32 11t-11.5 14.5q0 12 32 21.5t81 12.5l-18 336q-32 9 -59 27t-46.5 43.5t-30.5 56.5t-11 66q0 42 16 78.5t43 63.5t63.5 43t78.5 16t78.5 -16t63.5 -43t43 -63.5 t16 -78.5q0 -35 -11.5 -66.5t-31.5 -57t-47.5 -43.5t-59.5 -27zM173 643q5 12 5 24t-4 23q-9 22 -30 30q-9 3 -18 3q-13 0 -25 -7q-21 -11 -30 -35q-5 -12 -5 -23.5t5 -23.5q9 -22 30 -30q9 -3 17 -3l25 7q21 11 30 35z" />
<glyph unicode="i" horiz-adv-x="719" d="M673 260q12 -24 12 -50q0 -12 -2 -24v-1l-2 -7l-2 -8q0 -3 -2 -7v-2q-1 -2 -1 -3t-1 -3l-1 -2q0 -2 -2 -6q-1 -1 -1 -2v-1q-1 -1 -1.5 -2t-1.5 -2q0 -1 -0.5 -1.5t-0.5 -1.5q-1 -2 -1.5 -2.5t-1.5 -2.5q0 -1 -2 -3l-2 -4q-1 -1 -1 -1.5t-1 -1.5q-2 -2 -2 -3q-3 -4 -9 -10 v-1q-6 -6 -9 -10h-1l-1 -2q-3 -2 -6 -5l-5 -5l-1 -1h-1l-12 -9v-1l-1 -1q-3 -2 -5.5 -3.5t-5.5 -3.5q-6 -5 -11 -7l-2 -1l-1 -1l-4 -2l-4 -2q-5 -2 -9.5 -5t-9.5 -5q-4 -2 -6 -2l-1 -1l-9 -3q-3 -2 -7 -4l-9 -3q-8 -3 -18 -6l-3 -1q-1 -1 -4 -1l-13 -4l-13 -4h-1h-1 q-7 -2 -14 -3t-15 -3l-2 -1l-16 -2l-15 -2h-1l-33 -3h-9q-3 0 -8 -1h-17h-17q-9 0 -17 1h-2q-8 1 -15.5 1.5t-15.5 1.5h-2q-4 1 -7.5 1t-7.5 1h-1q-4 1 -8 1.5t-8 1.5q-15 1 -30 6h-2l-14 4l-13 4h-1h-1q-6 2 -12.5 4.5t-12.5 4.5h-1l-1 1q-6 2 -11.5 4.5t-11.5 4.5l-1 1h-1 l-11 6q-6 3 -11 5q-2 2 -3 2l-1 1h-1q-2 1 -2.5 1.5t-2.5 1.5q-5 3 -8.5 5.5t-8.5 5.5l-1 1l-1 1q-4 2 -7.5 5t-7.5 6l-1 1l-1 1q-8 6 -13 11q0 1 -1 2l-6 6q-3 3 -5 7l-1 1h-1l-4 7l-5 6l-1 1l-4 7q-1 3 -3 6l-1 1v1q-2 3 -3 6.5t-3 6.5v1q-2 6 -4 14l-2 8l-2 8h1 q-3 13 -3 25q0 25 12 49q17 34 54 63q35 26 80 43q43 17 93 26q19 3 37.5 5t37.5 3l-6 127q-45 12 -73.5 49t-28.5 85q0 29 11 54.5t29.5 44t44 29.5t54.5 11t54.5 -11t44 -29.5t29.5 -44t11 -54.5q0 -49 -29 -86t-74 -49l-7 -126q19 -2 37 -3.5t35 -4.5q49 -9 94 -26 q44 -18 79 -43q36 -28 54 -63zM275 664q15 -5 29.5 2.5t20.5 24.5q3 9 3 17t-3 16q-6 15 -20 20q-6 2 -12 2q-9 0 -17 -4q-15 -8 -21 -25q-3 -9 -3 -17t3 -16q6 -15 20 -20zM317 101v-7v7zM592 218v7q0 2 -0.5 3t-0.5 3h-106h-1v1l-3 39h91q-2 4 -4 6h-1v1l-1 1l-3 3l-1 1 l-1 1l-7 7l-1 1q-1 1 -2 1.5t-2 1.5l-1 1l-1 1q-2 2 -8 6q-1 0 -1 1q-1 0 -1 1h-1l-6 5l-8 4q-1 0 -1 0.5t-1 0.5l-2 1q-8 4 -11 6q-1 0 -1 1h-1q-1 0 -2 1q-2 0 -2 1l-2 1q-2 0 -2.5 0.5t-1.5 0.5q-1 1 -1.5 1t-1.5 1h-2l-6 3l-6 2l-6 2q-1 0 -1 0.5t-1 0.5t-2 1h-1h-2v1 h-1h-1l-1 1q-2 0 -3 0.5t-3 0.5q-6 2 -7 2q-2 1 -3 1t-3 1q-2 0 -3 0.5t-2 0.5q-2 0 -3 0.5t-3 0.5q-1 1 -5 1q-2 1 -5 1q-2 1 -5 1h-1h-1v1h-1h-2q-1 0 -2 0.5t-3 0.5q-3 0 -4 1h-5h-1l-4 1h-4l-5 1h-4h-5l-3 1l-6 -111h-44l-5 111h-2q-3 0 -5 -1h-3h-1h-1q-4 0 -7 -1h-6 l-2 -1h-1h-1h-1h-2q-2 0 -3 -0.5t-3 -0.5q-3 0 -4 -1h-2l-3 -1h-1h-2q-3 0 -5.5 -0.5t-5.5 -1.5h-1h-1l-1 -1h-1h-1q-2 -1 -3.5 -1t-3.5 -1q-2 0 -3 -1h-1q-2 0 -2.5 -0.5t-1.5 -0.5h-1l-2 -1q-2 0 -8 -2h-1l-2 -1h-2l-1 -1h-2q-2 -1 -3.5 -1.5t-3.5 -1.5l-2 -1h-1 q-1 0 -2 -1h-1l-2 -1q-2 -1 -5 -1.5t-5 -2.5h-1l-1 -1h-1l-1 -1q-2 -1 -3 -1t-3 -1q-1 -1 -1.5 -1t-1.5 -1h-1l-1 -1l-2 -1h-1l-1 -1q-3 -1 -9 -5h-1l-1 -1l-3 -2q-2 -1 -2.5 -1.5t-2.5 -1.5l-4 -2v-1h-1q-1 -1 -2 -1.5t-2 -1.5t-2 -1.5t-2 -1.5t-1.5 -1t-1.5 -1v-1 q-2 0 -4 -2l-3 -3l-3 -3l-1 -1l-2 -2l-2 -2l-3 -3q-1 -1 -1 -1.5t-1 -1.5l-2 -2l-3 -3v-1h93l-3 -39v-1h-1h-108v-3q0 -2 -1 -3v-1v-3v-2v-1v-1v-3v-1q2 -5 3 -8.5t3 -7.5q12 -26 41 -47q31 -23 75 -37q23 -8 48.5 -12.5t52.5 -6.5l3 80h49h1l2 -79q55 3 101 18q46 16 74 37 q28 22 40 47q4 7 6 15v6zM202 232h-12h12zM206 271l-1 -5zM494 271h-13h13z" />
<glyph unicode="j" horiz-adv-x="466" d="M226 800q45 0 84.5 -17.5t69.5 -47t47 -69t17 -84.5q0 -23 -9.5 -59.5t-25.5 -81.5l-35 -95l-41 -100q-49 -115 -111 -246q-63 131 -111 246l-41 100q-20 50 -35.5 95t-25 81.5t-9.5 59.5q0 45 17 84.5t47 69t69.5 47t84.5 17.5h4h4zM221 501q21 0 39 8t31.5 21.5 t21.5 31.5t8 39t-8 39t-21.5 31.5t-31.5 21.5t-39 8q-42 0 -70.5 -29t-28.5 -71t28.5 -71t70.5 -29z" />
<glyph unicode="k" horiz-adv-x="837" d="M266 789l267 -67v-711l-267 67v711zM797 89l-225 -75v697v14l225 75v-711zM227 89v-13l-227 -76v711l227 76v-698z" />
<glyph unicode="l" d="M478 322l-78 -322l-78 322l-322 78l322 78l78 322l78 -322l322 -78zM439 400q0 16 -11.5 27.5t-27.5 11.5q-17 0 -28 -11.5t-11 -27.5q0 -17 11 -28t28 -11q16 0 27.5 11t11.5 28zM507 507l-11 43l138 84l-84 -138zM507 293l43 11l84 -138l-138 84zM293 507l-44 -11 l-83 138l137 -84zM293 293l10 -44l-137 -83l83 138z" />
<glyph unicode="m" d="M701 396l-243 -59l-59 -243l-60 243l-243 59l243 59l60 244l59 -244zM399 367q12 0 20.5 8.5t8.5 20.5t-8.5 21t-20.5 9q-13 0 -21.5 -9t-8.5 -21t8.5 -20.5t21.5 -8.5zM480 477l-8 33l104 63l-64 -104zM512 323l64 -104l-104 64l8 32zM285 469l-63 104l104 -63l-8 -33z M318 315l8 -32l-104 -64l63 104zM400 800q83 0 156 -31.5t127 -85.5t85.5 -127t31.5 -156t-31.5 -156t-85.5 -127t-127 -85.5t-156 -31.5t-156 31.5t-127 85.5t-85.5 127t-31.5 156t31.5 156t85.5 127t127 85.5t156 31.5zM400 67q69 0 129.5 26t106 71.5t71.5 106t26 129.5 t-26 129.5t-71.5 106t-106 71.5t-129.5 26t-129.5 -26t-106 -71.5t-71.5 -106t-26 -129.5t26 -129.5t71.5 -106t106 -71.5t129.5 -26z" />
<glyph unicode="n" horiz-adv-x="853" d="M105 546q11 -115 48 -200.5t101 -138.5q49 -40 90 -66.5t61 -35.5q20 9 62 36t90 67q64 53 102 138.5t48 200.5zM405 800q27 -11 58 -19q26 -8 59 -13.5t67 -5.5t69.5 4.5t65.5 9.5q34 6 68 15q6 -20 10 -45q4 -21 7 -51t3 -66q0 -95 -14.5 -172t-40 -138.5t-60 -108.5 t-75.5 -81l-56 -43q-30 -23 -60.5 -42t-57.5 -31.5t-43 -12.5q-17 0 -43.5 12.5t-56.5 31.5t-60.5 42t-54.5 43q-41 33 -75.5 80t-60 109t-40 139t-14.5 172q0 37 3 67t7 51q4 25 10 44q33 -9 67 -15q29 -5 65 -9.5t71 -4.5t67 5.5t58 13.5q30 8 57 19z" />
<glyph unicode="o" horiz-adv-x="853" d="M792 791q6 -20 10 -45q4 -21 7 -51t3 -66q0 -95 -14.5 -172t-40 -138.5t-60 -108.5t-75.5 -81l-56 -43q-30 -23 -60.5 -42t-57.5 -31.5t-43 -12.5q-17 0 -43.5 12.5t-56.5 31.5t-60.5 42t-54.5 43q-41 33 -75.5 80t-60 109t-40 139t-14.5 172q0 37 3 67t7 51q4 25 10 44 q33 -9 67 -15q29 -5 65 -9.5t71 -4.5t67 5.5t58 13.5q30 8 57 19q27 -11 58 -19q26 -8 59 -13.5t67 -5.5t69.5 4.5t65.5 9.5q34 6 68 15z" />
<glyph unicode="p" horiz-adv-x="630" d="M600 451v-451h-600v451h77v131q0 45 17 84.5t47 69.5t69.5 47t84.5 17h4h4q45 0 84.5 -17t69.5 -47t47 -69.5t17 -84.5v-131h79zM186 451h226v131q0 22 -8.5 42t-23.5 35t-35 23.5t-42 8.5h-3h-5q-23 0 -42.5 -8.5t-34.5 -23.5t-23.5 -35t-8.5 -42v-131z" />
<glyph unicode="q" horiz-adv-x="899" d="M638 800q45 0 84.5 -17t69.5 -47t47 -69.5t17 -84.5v-131h-109v30l36 34v14h-36v53q0 22 -8.5 42t-23.5 35t-35 23.5t-42 8.5h-3h-5q-23 0 -42.5 -8.5t-34.5 -23.5t-23.5 -35t-8.5 -42v-131h79v-451h-600v451h412v131q0 45 17 84.5t47 69.5t69.5 47t84.5 17h4h4z" />
<glyph unicode="r" d="M400 800q83 0 156 -31.5t127 -85.5t85.5 -127t31.5 -156t-31.5 -156t-85.5 -127t-127 -85.5t-156 -31.5t-156 31.5t-127 85.5t-85.5 127t-31.5 156t31.5 156t85.5 127t127 85.5t156 31.5zM699 422q-5 56 -27 104h-133q3 -24 4.5 -50t2.5 -54h153zM254 422q1 28 3 54t5 50 h-134q-22 -48 -27 -104h153zM307 526q-3 -23 -5 -49t-3 -55h203q-1 29 -3 54.5t-5 49.5h-187zM101 377q2 -28 9.5 -54.5t18.5 -51.5h133q-3 24 -5 50.5t-3 55.5h-153zM299 377q1 -29 3 -55.5t5 -50.5h186q8 48 9 106h-203zM546 377q-1 -29 -2.5 -55.5t-5.5 -50.5h133 q11 25 18.5 51.5t9.5 54.5h-153zM646 572q-27 38 -64.5 66.5t-82.5 44.5q19 -49 32 -111h115zM445 697q-23 3 -45 3q-23 0 -44 -3q-11 -24 -22 -55t-19 -70h171q-8 39 -19 70t-22 55zM302 683q-45 -16 -83 -44.5t-65 -66.5h116q12 62 32 111zM155 227q27 -38 64 -66t82 -44 q-9 23 -17 50.5t-14 59.5h-115zM356 103q21 -3 44 -3q22 0 45 3q11 24 22 54.5t19 69.5h-171q8 -39 19 -70t22 -54zM500 117q45 16 81.5 44t63.5 66h-114q-6 -32 -14 -59.5t-17 -50.5z" />
<glyph unicode="s" horiz-adv-x="609" d="M116 684h-116l116 115v-115zM580 0h-580v632h116h52v52v115v1h412v-800z" />
<glyph unicode="t" horiz-adv-x="1159" d="M0 0v569h1h159h71v71v160h873v-800h-1104zM1 640l159 160v-160h-159z" />
<glyph unicode="u" horiz-adv-x="653" d="M528 800l6 -7l81 -80l7 -7h-94v94zM528 665h94v-510h-468v645h333v-94v-41h41zM154 108h303v-108h-457v638h107v-483v-47h47z" />
<glyph unicode="v" horiz-adv-x="609" d="M513 733h-279v-167h-167v-499h446v666zM580 800v-800h-580v632l167 167v1h413z" />
<glyph unicode="w" horiz-adv-x="600" d="M572 138h-92v-138h-480v523l92 92v46l139 139h341v-662zM425 138h-333v330h-37v-413h370v83zM517 745h-231v-139h-139v-413h370v552z" />
<glyph unicode="x" horiz-adv-x="836" d="M617 322h179v-142h-179v-179h-142v179h-179v142h179v179h142v-179zM408 1v-1h-408v632l167 167v1h413v-232h-67v165h-279v-167h-167v-499h341v-66z" />
<glyph unicode="y" horiz-adv-x="811" d="M546 151l-127 -127l-100 100l127 127l-127 127l100 100l127 -127l127 127l100 -100l-127 -127l127 -127l-100 -100zM282 67l67 -67h-349v632l167 167v1h413v-321l-34 -34l-33 33v255h-279v-167h-167v-499h215zM546 57l34 -34v-23h-91z" />
<glyph unicode="z" horiz-adv-x="843" d="M803 250l-289 -250v188h-277v125h277v188zM447 67v-67h-447v632l167 167v1h413v-268l-23 19l-44 38v144h-279v-167h-167v-499h380z" />
<glyph unicode="{" horiz-adv-x="780" d="M297 354l325 324l121 -120l-325 -325l-179 -58zM322 339l-40 -121l121 39zM513 232l67 67v-299h-580v632l167 167v1h413v-70l-5 -5l-62 -62v70h-279v-167h-167v-499h446v165z" />
<glyph unicode="|" horiz-adv-x="908" d="M865 678l-80 -80l-122 121l80 80zM622 678l121 -121l-364 -365l-180 -58l59 180zM321 314l20 -20l301 301l-20 20zM513 232l67 67v-299h-580v632l167 167v1h413v-70l-5 -5l-62 -62v70h-279v-167h-167v-499h446v165z" />
<glyph unicode="}" horiz-adv-x="465" d="M222 0l-198 229h148v218h99v-218h148zM24 280h-24v392l128 128h315v-520h-24h-27v469h-213v-128h-128v-341h-27z" />
<glyph unicode="~" horiz-adv-x="453" d="M401 205h-139v-205h-93v205h-139l185 215zM50 304l-50 -57v428l124 125h307v-554l-50 58v446h-207v-124h-124v-322z" />
<glyph unicode="&#xaa;" horiz-adv-x="724" d="M399 344l-7 48l84 42h30v-276h-59v205zM346 242q0 -44 -33.5 -66t-82.5 -22q-18 0 -36 3.5t-32 8.5l7 48q17 -6 32.5 -9t34.5 -3q23 0 36 10.5t13 25.5q0 20 -15 30t-57 12v48q29 2 44.5 10.5t15.5 25.5q0 12 -8 19t-31 7q-29 0 -57 -14l-7 48q18 8 38.5 11.5t40.5 3.5 q42 0 65.5 -17.5t23.5 -42.5q0 -47 -59 -67v-1q32 -10 49.5 -26t17.5 -43zM689 689v-689h-689v689h82v43q0 32 19 50t53 18q33 0 52 -18t19 -50v-43h49v43q0 32 18.5 50t52.5 18t53 -18t19 -50v-43h48v43q0 32 19 50t53 18q33 0 52 -18t19 -50v-43h81zM503 617q0 -29 34 -29 q33 0 33 29v115q0 30 -33 30q-34 0 -34 -30v-115zM312 617q0 -16 7.5 -22.5t25.5 -6.5t25.5 6.5t7.5 22.5v115q0 16 -7.5 23t-25.5 7t-25.5 -7t-7.5 -23v-115zM120 617q0 -29 34 -29q33 0 33 29v115q0 30 -33 30q-34 0 -34 -30v-115zM632 536h-575v-479h575v479z" />
<glyph unicode="&#xad;" horiz-adv-x="1470" d="M800 399l-200 -100l-600 -299v800l600 -300zM600 0v299l200 100l-200 101v300l800 -401z" />
<glyph unicode="&#xb2;" d="M800 513v-226h-287v-287h-226v287h-287v226h287v287h226v-287h287z" />
<glyph unicode="&#xb3;" horiz-adv-x="2970" d="M0 0v800h2828v-800h-2828z" />
<glyph unicode="&#xb9;" d="M407 604q42 0 78.5 -16t63.5 -43t42.5 -63.5t15.5 -77.5q0 -42 -15.5 -78.5t-42.5 -63.5t-63.5 -42.5t-78.5 -15.5q-41 0 -77.5 15.5t-63.5 42.5t-43 63.5t-16 78.5q0 41 16 77.5t43 63.5t63.5 43t77.5 16zM400 800q83 0 156 -31.5t127 -85.5t85.5 -127t31.5 -156 t-31.5 -156t-85.5 -127t-127 -85.5t-156 -31.5t-156 31.5t-127 85.5t-85.5 127t-31.5 156t31.5 156t85.5 127t127 85.5t156 31.5zM400 100q62 0 116.5 23.5t95.5 64.5t64.5 95.5t23.5 116.5t-23.5 116.5t-64.5 95.5t-95.5 64.5t-116.5 23.5t-116.5 -23.5t-95.5 -64.5 t-64.5 -95.5t-23.5 -116.5t23.5 -116.5t64.5 -95.5t95.5 -64.5t116.5 -23.5z" />
<glyph unicode="&#xba;" horiz-adv-x="853" d="M792 791q6 -20 10 -45q4 -21 7 -51t3 -66q0 -95 -14.5 -172t-40 -138.5t-60 -108.5t-75.5 -81l-56 -43q-30 -23 -60.5 -42t-57.5 -31.5t-43 -12.5q-17 0 -43.5 12.5t-56.5 31.5t-60.5 42t-54.5 43q-41 33 -75.5 80t-60 109t-40 139t-14.5 172q0 37 3 67t7 51q4 25 10 44 q33 -9 67 -15q29 -5 65 -9.5t71 -4.5t67 5.5t58 13.5q30 8 57 19q27 -11 58 -19q26 -8 59 -13.5t67 -5.5t69.5 4.5t65.5 9.5q34 6 68 15z" />
<glyph unicode="&#xc0;" horiz-adv-x="1141" d="M1400 1022q19 -33 21 -62q1 -5 1 -10q0 -24 -11 -42q-12 -22 -38.5 -35t-65.5 -13h-665q-39 0 -65.5 13t-39.5 35q-10 19 -10 44v8q2 29 22 62l332 571q19 33 44 50t50.5 17t50 -17t43.5 -50zM978 961q24 0 40.5 16.5t16.5 40.5t-16.5 40.5t-40.5 16.5t-40.5 -16.5 t-16.5 -40.5t16.5 -40.5t40.5 -16.5zM1046 1441h-136l28 -330h81zM13 308q-13 13 -13 31t13 31l108 108q13 13 31 13t31 -12l176 -177q13 -12 31 -12t31 13l483 484q13 13 31 13t31 -13l108 -107q13 -13 13 -30.5t-13 -30.5l-586 -588q-13 -13 -34.5 -22t-39.5 -9h-51 q-18 0 -39.5 9t-34.5 22z" />
<glyph unicode="&#xc2;" horiz-adv-x="1141" d="M1398 1616h-133v44h133v-44zM1176 1616h-134v44h134v-44zM957 1615q-52 -3 -90 -41l-32 31q20 20 46 34l4 2h1v1h1h1v1h1q1 0 1 1h1h1v1h1h1q28 12 60 15zM832 1516q-6 -20 -6 -40v-79h-44v79v1v1v1v1v1v1v1v1v1v1v1v1v1v1h1v1v1v1v1v1v1v2q2 8 3.5 15.5t3.5 15.5z M826 1175h-44v133h44v-133zM826 1044q0 -35 17 -66l-39 -22v1v1q-1 0 -1 1q-6 11 -10 22.5t-7 24.5v1q0 1 -1 1v1v1v1v1v1v1h-1v1v1v1v1v1v1l-1 1v1v1v1v1v1v1v1v1v1h-1v1v1v1v1v1v1v1v1v1v1v1v1v1v1v42h44v-42zM889 928q17 -11 36.5 -17.5t40.5 -6.5h25v-44h-25h-1h-1h-1 h-1h-1h-1h-1h-1h-1h-1h-1h-1h-1h-1v1h-1h-1h-1h-1h-1h-1h-1h-1h-1q-1 0 -1 1h-1h-1h-1h-1h-1h-1v1h-1h-1h-1h-1h-1l-1 1h-1h-1h-2l-1 1q-20 4 -41 14l-1 1q-1 0 -1 1h-1h-1v1h-1h-1v1h-1q-1 0 -1 1h-1v1h-1h-1v1h-1q-2 2 -4 2.5t-4 2.5zM1213 860h-133v44h133v-44zM1435 864 h-1v-1h-1h-1h-1h-1h-1q-1 0 -1 -1h-1h-1h-1h-1h-1h-1l-1 -1h-1h-1h-1h-1h-1h-1h-1h-1h-1v-1h-1h-1h-1h-1h-1h-1h-1h-1h-1h-1h-1h-1h-1h-1h-96v44h96q14 0 28 3zM1580 1015l-2 -10q-1 -5 -3 -10v-1v-1v-1h-1v-1v-1v-1h-1v-1v-1v-1h-1v-1v-1q-6 -17 -15.5 -33t-21.5 -30h-1v-1 h-1l-3 -3v-1l-1 -1q-1 0 -1 -1h-1v-1l-1 -1h-1v-1h-1v-1h-1v-1h-1v-1h-1q0 -1 -1 -1v-1h-1v-1h-1l-1 -1l-1 -1q-1 0 -1 -0.5t-1 -0.5l-28 34q41 33 50 86zM1582 1104h-44v133h44v-133zM1582 1326h-44v133h44v-133zM1479 1641q6 -3 12 -6.5t12 -7.5l1 -1h1v-1h1v-1h1l2 -2h1 v-1h1h1v-1h1v-1h1v-1h1v-1h1l1 -1h1v-1h1v-1h1v-1h1v-1h1v-1h1v-1h1v-1h1v-1h1v-1h1q0 -1 1 -1v-1h1v-1h1v-1h1v-1h1v-1h1v-1h1v-1h1v-1h1v-1h1v-1h1v-1l1 -1l1 -1v-1h1v-1h1v-1q1 0 1 -1v-1l3 -3v-1h1v-1q13 -16 21 -37l-41 -17q-20 49 -68 72zM13 308q-13 13 -13 31t13 31 l108 108q13 13 31 13t31 -12l176 -177q13 -12 31 -12t31 13l483 484q13 13 31 13t31 -13l108 -107q13 -13 13 -30.5t-13 -30.5l-586 -588q-13 -13 -34.5 -22t-39.5 -9h-51q-18 0 -39.5 9t-34.5 22z" />
<glyph unicode="&#xc3;" horiz-adv-x="1141" d="M1402 1065h-139v-205h-93v205h-139l185 215zM1051 1164l-50 -57v428l124 125h307v-554l-50 58v446h-207v-124h-124v-322zM13 308q-13 13 -13 31t13 31l108 108q13 13 31 13t31 -12l176 -177q13 -12 31 -12t31 13l483 484q13 13 31 13t31 -13l108 -107q13 -13 13 -30.5 t-13 -30.5l-586 -588q-13 -13 -34.5 -22t-39.5 -9h-51q-18 0 -39.5 9t-34.5 22z" />
<glyph unicode="&#xc8;" horiz-adv-x="839" d="M764 1022q19 -33 21 -62q1 -5 1 -10q0 -24 -11 -42q-12 -22 -38.5 -35t-65.5 -13h-665q-39 0 -65.5 13t-39.5 35q-10 19 -10 44v8q2 29 22 62l332 571q19 33 44 50t50.5 17t50 -17t43.5 -50zM342 961q24 0 40.5 16.5t16.5 40.5t-16.5 40.5t-40.5 16.5t-40.5 -16.5 t-16.5 -40.5t16.5 -40.5t40.5 -16.5zM410 1441h-136l28 -330h81zM674 0l-235 236q-32 -17 -67 -26t-73 -9q-62 0 -116.5 23.5t-95 64t-64 95.5t-23.5 117t23.5 116.5t64 95t95 64t116.5 23.5t117 -23.5t95.5 -64t64 -95t23.5 -116.5q0 -38 -9.5 -73.5t-26.5 -67.5l236 -236z M100 501q0 -41 15.5 -77.5t42.5 -63.5t63.5 -43t77.5 -16t77.5 16t63.5 43t43 63.5t16 77.5t-16 77.5t-43 63.5t-63.5 42.5t-77.5 15.5t-77.5 -15.5t-63.5 -42.5t-42.5 -63.5t-15.5 -77.5z" />
<glyph unicode="&#xca;" horiz-adv-x="839" d="M762 1616h-133v44h133v-44zM540 1616h-134v44h134v-44zM321 1615q-52 -3 -90 -41l-32 31q20 20 46 34l4 2h1v1h1h1v1h1q1 0 1 1h1h1v1h1h1q28 12 60 15zM196 1516q-6 -20 -6 -40v-79h-44v79v1v1v1v1v1v1v1v1v1v1v1v1v1v1h1v1v1v1v1v1v1v2q2 8 3.5 15.5t3.5 15.5z M190 1175h-44v133h44v-133zM190 1044q0 -35 17 -66l-39 -22v1v1q-1 0 -1 1q-6 11 -10 22.5t-7 24.5v1q0 1 -1 1v1v1v1v1v1v1h-1v1v1v1v1v1v1l-1 1v1v1v1v1v1v1v1v1v1h-1v1v1v1v1v1v1v1v1v1v1v1v1v1v1v42h44v-42zM253 928q17 -11 36.5 -17.5t40.5 -6.5h25v-44h-25h-1h-1h-1 h-1h-1h-1h-1h-1h-1h-1h-1h-1h-1h-1v1h-1h-1h-1h-1h-1h-1h-1h-1h-1q-1 0 -1 1h-1h-1h-1h-1h-1h-1v1h-1h-1h-1h-1h-1l-1 1h-1h-1h-2l-1 1q-20 4 -41 14l-1 1q-1 0 -1 1h-1h-1v1h-1h-1v1h-1q-1 0 -1 1h-1v1h-1h-1v1h-1q-2 2 -4 2.5t-4 2.5zM577 860h-133v44h133v-44zM799 864 h-1v-1h-1h-1h-1h-1h-1q-1 0 -1 -1h-1h-1h-1h-1h-1h-1l-1 -1h-1h-1h-1h-1h-1h-1h-1h-1h-1v-1h-1h-1h-1h-1h-1h-1h-1h-1h-1h-1h-1h-1h-1h-1h-96v44h96q14 0 28 3zM944 1015l-2 -10q-1 -5 -3 -10v-1v-1v-1h-1v-1v-1v-1h-1v-1v-1v-1h-1v-1v-1q-6 -17 -15.5 -33t-21.5 -30h-1v-1 h-1l-3 -3v-1l-1 -1q-1 0 -1 -1h-1v-1l-1 -1h-1v-1h-1v-1h-1v-1h-1v-1h-1q0 -1 -1 -1v-1h-1v-1h-1l-1 -1l-1 -1q-1 0 -1 -0.5t-1 -0.5l-28 34q41 33 50 86zM946 1104h-44v133h44v-133zM946 1326h-44v133h44v-133zM843 1641q6 -3 12 -6.5t12 -7.5l1 -1h1v-1h1v-1h1l2 -2h1v-1 h1h1v-1h1v-1h1v-1h1v-1h1l1 -1h1v-1h1v-1h1v-1h1v-1h1v-1h1v-1h1v-1h1v-1h1v-1h1q0 -1 1 -1v-1h1v-1h1v-1h1v-1h1v-1h1v-1h1v-1h1v-1h1v-1h1v-1h1v-1l1 -1l1 -1v-1h1v-1h1v-1q1 0 1 -1v-1l3 -3v-1h1v-1q13 -16 21 -37l-41 -17q-20 49 -68 72zM674 0l-235 236 q-32 -17 -67 -26t-73 -9q-62 0 -116.5 23.5t-95 64t-64 95.5t-23.5 117t23.5 116.5t64 95t95 64t116.5 23.5t117 -23.5t95.5 -64t64 -95t23.5 -116.5q0 -38 -9.5 -73.5t-26.5 -67.5l236 -236zM100 501q0 -41 15.5 -77.5t42.5 -63.5t63.5 -43t77.5 -16t77.5 16t63.5 43 t43 63.5t16 77.5t-16 77.5t-43 63.5t-63.5 42.5t-77.5 15.5t-77.5 -15.5t-63.5 -42.5t-42.5 -63.5t-15.5 -77.5z" />
<glyph unicode="&#xcc;" horiz-adv-x="486" d="M702 1022q19 -33 21 -62q1 -5 1 -10q0 -24 -11 -42q-12 -22 -38.5 -35t-65.5 -13h-665q-39 0 -65.5 13t-39.5 35q-10 19 -10 44v8q2 29 22 62l332 571q19 33 44 50t50.5 17t50 -17t43.5 -50zM280 961q24 0 40.5 16.5t16.5 40.5t-16.5 40.5t-40.5 16.5t-40.5 -16.5 t-16.5 -40.5t16.5 -40.5t40.5 -16.5zM348 1441h-136l28 -330h81zM401 749q61 -51 61 -136v-5q0 -28 -3.5 -51t-11.5 -43q-15 -39 -38 -64q-20 -24 -48 -46q-12 -8 -22.5 -17.5t-20.5 -20.5q-20 -20 -33 -45q-12 -23 -12 -63v-18h-133h-16l-2 16q-1 10 -1 19v17q0 37 7 62 q13 43 31 71q19 28 45 51l22 20q10 9 21 18q9 9 17 18t14 18q10 14 10 39q0 29 -15 46q-6 6 -20.5 11t-38.5 5q-17 0 -32 -4q-16 -3 -35 -9q-9 -4 -17.5 -7t-16.5 -8t-15 -8.5t-13 -8.5l-17 -11l-68 131l13 9q42 28 95 46q54 19 129 19q104 0 164 -51zM202 194q47 0 74 -26 q15 -14 22 -32t7 -38q0 -43 -28 -71q-29 -27 -75 -27q-44 0 -72 27t-28 71q0 43 28 70q29 26 72 26z" />
<glyph unicode="&#xce;" horiz-adv-x="486" d="M700 1616h-133v44h133v-44zM478 1616h-134v44h134v-44zM259 1615q-52 -3 -90 -41l-32 31q20 20 46 34l4 2h1v1h1h1v1h1q1 0 1 1h1h1v1h1h1q28 12 60 15zM134 1516q-6 -20 -6 -40v-79h-44v79v1v1v1v1v1v1v1v1v1v1v1v1v1v1h1v1v1v1v1v1v1v2q2 8 3.5 15.5t3.5 15.5z M128 1175h-44v133h44v-133zM128 1044q0 -35 17 -66l-39 -22v1v1q-1 0 -1 1q-6 11 -10 22.5t-7 24.5v1q0 1 -1 1v1v1v1v1v1v1h-1v1v1v1v1v1v1l-1 1v1v1v1v1v1v1v1v1v1h-1v1v1v1v1v1v1v1v1v1v1v1v1v1v1v42h44v-42zM191 928q17 -11 36.5 -17.5t40.5 -6.5h25v-44h-25h-1h-1h-1 h-1h-1h-1h-1h-1h-1h-1h-1h-1h-1h-1v1h-1h-1h-1h-1h-1h-1h-1h-1h-1q-1 0 -1 1h-1h-1h-1h-1h-1h-1v1h-1h-1h-1h-1h-1l-1 1h-1h-1h-2l-1 1q-20 4 -41 14l-1 1q-1 0 -1 1h-1h-1v1h-1h-1v1h-1q-1 0 -1 1h-1v1h-1h-1v1h-1q-2 2 -4 2.5t-4 2.5zM515 860h-133v44h133v-44zM737 864 h-1v-1h-1h-1h-1h-1h-1q-1 0 -1 -1h-1h-1h-1h-1h-1h-1l-1 -1h-1h-1h-1h-1h-1h-1h-1h-1h-1v-1h-1h-1h-1h-1h-1h-1h-1h-1h-1h-1h-1h-1h-1h-1h-96v44h96q14 0 28 3zM882 1015l-2 -10q-1 -5 -3 -10v-1v-1v-1h-1v-1v-1v-1h-1v-1v-1v-1h-1v-1v-1q-6 -17 -15.5 -33t-21.5 -30h-1v-1 h-1l-3 -3v-1l-1 -1q-1 0 -1 -1h-1v-1l-1 -1h-1v-1h-1v-1h-1v-1h-1v-1h-1q0 -1 -1 -1v-1h-1v-1h-1l-1 -1l-1 -1q-1 0 -1 -0.5t-1 -0.5l-28 34q41 33 50 86zM884 1104h-44v133h44v-133zM884 1326h-44v133h44v-133zM781 1641q6 -3 12 -6.5t12 -7.5l1 -1h1v-1h1v-1h1l2 -2h1v-1 h1h1v-1h1v-1h1v-1h1v-1h1l1 -1h1v-1h1v-1h1v-1h1v-1h1v-1h1v-1h1v-1h1v-1h1v-1h1q0 -1 1 -1v-1h1v-1h1v-1h1v-1h1v-1h1v-1h1v-1h1v-1h1v-1h1v-1h1v-1l1 -1l1 -1v-1h1v-1h1v-1q1 0 1 -1v-1l3 -3v-1h1v-1q13 -16 21 -37l-41 -17q-20 49 -68 72zM401 749q61 -51 61 -136v-5 q0 -28 -3.5 -51t-11.5 -43q-15 -39 -38 -64q-20 -24 -48 -46q-12 -8 -22.5 -17.5t-20.5 -20.5q-20 -20 -33 -45q-12 -23 -12 -63v-18h-133h-16l-2 16q-1 10 -1 19v17q0 37 7 62q13 43 31 71q19 28 45 51l22 20q10 9 21 18q9 9 17 18t14 18q10 14 10 39q0 29 -15 46 q-6 6 -20.5 11t-38.5 5q-17 0 -32 -4q-16 -3 -35 -9q-9 -4 -17.5 -7t-16.5 -8t-15 -8.5t-13 -8.5l-17 -11l-68 131l13 9q42 28 95 46q54 19 129 19q104 0 164 -51zM202 194q47 0 74 -26q15 -14 22 -32t7 -38q0 -43 -28 -71q-29 -27 -75 -27q-44 0 -72 27t-28 71q0 43 28 70 q29 26 72 26z" />
<glyph unicode="&#xd1;" d="M867 1065h-139v-205h-93v205h-139l185 215zM516 1164l-50 -57v428l124 125h307v-554l-50 58v446h-207v-124h-124v-322zM400 800q83 0 156 -31.5t127 -85.5t85.5 -127t31.5 -156t-31.5 -156t-85.5 -127t-127 -85.5t-156 -31.5t-156 31.5t-127 85.5t-85.5 127t-31.5 156 t31.5 156t85.5 127t127 85.5t156 31.5zM396 667q-23 0 -40 -16t-17 -40q0 -23 16.5 -39.5t39.5 -16.5q25 0 41.5 16.5t16.5 39.5q0 24 -16.5 40t-40.5 16zM505 165q-18 3 -28.5 5.5t-15.5 9.5t-6.5 18.5t-1.5 32.5v284q-34 -10 -72 -17t-74 -12v-34q14 -3 23 -5.5t13.5 -8.5 t6 -17t1.5 -31v-159q0 -21 -1.5 -33.5t-7 -19t-15.5 -9t-27 -4.5v-37h205v37z" />
<glyph unicode="&#xd2;" horiz-adv-x="1485" d="M1172 1022q19 -33 21 -62q1 -5 1 -10q0 -24 -11 -42q-12 -22 -38.5 -35t-65.5 -13h-665q-39 0 -65.5 13t-39.5 35q-10 19 -10 44v8q2 29 22 62l332 571q19 33 44 50t50.5 17t50 -17t43.5 -50zM750 961q24 0 40.5 16.5t16.5 40.5t-16.5 40.5t-40.5 16.5t-40.5 -16.5 t-16.5 -40.5t16.5 -40.5t40.5 -16.5zM818 1441h-136l28 -330h81zM1 799h1412l-706 -520zM975 379l439 323v-646zM439 379l-439 -323v647zM754 216l155 114l448 -330h-1300l448 330l156 -114l46 -34zM1 799l-1 1h1414l-1 -1h-1412z" />
<glyph unicode="&#xd4;" horiz-adv-x="1485" d="M1170 1616h-133v44h133v-44zM948 1616h-134v44h134v-44zM729 1615q-52 -3 -90 -41l-32 31q20 20 46 34l4 2h1v1h1h1v1h1q1 0 1 1h1h1v1h1h1q28 12 60 15zM604 1516q-6 -20 -6 -40v-79h-44v79v1v1v1v1v1v1v1v1v1v1v1v1v1v1h1v1v1v1v1v1v1v2q2 8 3.5 15.5t3.5 15.5z M598 1175h-44v133h44v-133zM598 1044q0 -35 17 -66l-39 -22v1v1q-1 0 -1 1q-6 11 -10 22.5t-7 24.5v1q0 1 -1 1v1v1v1v1v1v1h-1v1v1v1v1v1v1l-1 1v1v1v1v1v1v1v1v1v1h-1v1v1v1v1v1v1v1v1v1v1v1v1v1v1v42h44v-42zM661 928q17 -11 36.5 -17.5t40.5 -6.5h25v-44h-25h-1h-1h-1 h-1h-1h-1h-1h-1h-1h-1h-1h-1h-1h-1v1h-1h-1h-1h-1h-1h-1h-1h-1h-1q-1 0 -1 1h-1h-1h-1h-1h-1h-1v1h-1h-1h-1h-1h-1l-1 1h-1h-1h-2l-1 1q-20 4 -41 14l-1 1q-1 0 -1 1h-1h-1v1h-1h-1v1h-1q-1 0 -1 1h-1v1h-1h-1v1h-1q-2 2 -4 2.5t-4 2.5zM985 860h-133v44h133v-44zM1207 864 h-1v-1h-1h-1h-1h-1h-1q-1 0 -1 -1h-1h-1h-1h-1h-1h-1l-1 -1h-1h-1h-1h-1h-1h-1h-1h-1h-1v-1h-1h-1h-1h-1h-1h-1h-1h-1h-1h-1h-1h-1h-1h-1h-96v44h96q14 0 28 3zM1352 1015l-2 -10q-1 -5 -3 -10v-1v-1v-1h-1v-1v-1v-1h-1v-1v-1v-1h-1v-1v-1q-6 -17 -15.5 -33t-21.5 -30h-1v-1 h-1l-3 -3v-1l-1 -1q-1 0 -1 -1h-1v-1l-1 -1h-1v-1h-1v-1h-1v-1h-1v-1h-1q0 -1 -1 -1v-1h-1v-1h-1l-1 -1l-1 -1q-1 0 -1 -0.5t-1 -0.5l-28 34q41 33 50 86zM1354 1104h-44v133h44v-133zM1354 1326h-44v133h44v-133zM1251 1641q6 -3 12 -6.5t12 -7.5l1 -1h1v-1h1v-1h1l2 -2h1 v-1h1h1v-1h1v-1h1v-1h1v-1h1l1 -1h1v-1h1v-1h1v-1h1v-1h1v-1h1v-1h1v-1h1v-1h1v-1h1q0 -1 1 -1v-1h1v-1h1v-1h1v-1h1v-1h1v-1h1v-1h1v-1h1v-1h1v-1h1v-1l1 -1l1 -1v-1h1v-1h1v-1q1 0 1 -1v-1l3 -3v-1h1v-1q13 -16 21 -37l-41 -17q-20 49 -68 72zM1 799h1412l-706 -520z M975 379l439 323v-646zM439 379l-439 -323v647zM754 216l155 114l448 -330h-1300l448 330l156 -114l46 -34zM1 799l-1 1h1414l-1 -1h-1412z" />
<glyph unicode="&#xd5;" horiz-adv-x="1485" d="M1174 1065h-139v-205h-93v205h-139l185 215zM823 1164l-50 -57v428l124 125h307v-554l-50 58v446h-207v-124h-124v-322zM1 799h1412l-706 -520zM975 379l439 323v-646zM439 379l-439 -323v647zM754 216l155 114l448 -330h-1300l448 330l156 -114l46 -34zM1 799l-1 1h1414 l-1 -1h-1412z" />
<glyph unicode="&#xd9;" horiz-adv-x="841" d="M465 1022q19 -33 21 -62q1 -5 1 -10q0 -24 -11 -42q-12 -22 -38.5 -35t-65.5 -13h-665q-39 0 -65.5 13t-39.5 35q-10 19 -10 44v8q2 29 22 62l332 571q19 33 44 50t50.5 17t50 -17t43.5 -50zM43 961q24 0 40.5 16.5t16.5 40.5t-16.5 40.5t-40.5 16.5t-40.5 -16.5 t-16.5 -40.5t16.5 -40.5t40.5 -16.5zM111 1441h-136l28 -330h81zM107 214q22 0 41.5 -8.5t34 -23t23 -34t8.5 -41.5t-8.5 -41.5t-23 -34t-34 -23t-41.5 -8.5t-41.5 8.5t-34 23t-23 34t-8.5 41.5t8.5 41.5t23 34t34 23t41.5 8.5zM0 800q110 0 212 -28.5t191 -80.5t162 -125 t125.5 -162t81 -191.5t29.5 -212.5h-154q-1 134 -52.5 251.5t-139 205.5t-205 138.5t-250.5 50.5v154zM0 527q109 0 204.5 -41.5t167.5 -113t114 -167.5t43 -205h-155q-1 75 -28.5 142t-80.5 121q-54 54 -122 82t-143 28v154z" />
<glyph unicode="&#xdb;" horiz-adv-x="841" d="M463 1616h-133v44h133v-44zM241 1616h-134v44h134v-44zM22 1615q-52 -3 -90 -41l-32 31q20 20 46 34l4 2h1v1h1h1v1h1q1 0 1 1h1h1v1h1h1q28 12 60 15zM-103 1516q-6 -20 -6 -40v-79h-44v79v1v1v1v1v1v1v1v1v1v1v1v1v1v1h1v1v1v1v1v1v1v2q2 8 3.5 15.5t3.5 15.5z M-109 1175h-44v133h44v-133zM-109 1044q0 -35 17 -66l-39 -22v1v1q-1 0 -1 1q-6 11 -10 22.5t-7 24.5v1q0 1 -1 1v1v1v1v1v1v1h-1v1v1v1v1v1v1l-1 1v1v1v1v1v1v1v1v1v1h-1v1v1v1v1v1v1v1v1v1v1v1v1v1v1v42h44v-42zM-46 928q17 -11 36.5 -17.5t40.5 -6.5h25v-44h-25h-1h-1h-1 h-1h-1h-1h-1h-1h-1h-1h-1h-1h-1h-1v1h-1h-1h-1h-1h-1h-1h-1h-1h-1q-1 0 -1 1h-1h-1h-1h-1h-1h-1v1h-1h-1h-1h-1h-1l-1 1h-1h-1h-2l-1 1q-20 4 -41 14l-1 1q-1 0 -1 1h-1h-1v1h-1h-1v1h-1q-1 0 -1 1h-1v1h-1h-1v1h-1q-2 2 -4 2.5t-4 2.5zM278 860h-133v44h133v-44zM500 864 h-1v-1h-1h-1h-1h-1h-1q-1 0 -1 -1h-1h-1h-1h-1h-1h-1l-1 -1h-1h-1h-1h-1h-1h-1h-1h-1h-1v-1h-1h-1h-1h-1h-1h-1h-1h-1h-1h-1h-1h-1h-1h-1h-96v44h96q14 0 28 3zM645 1015l-2 -10q-1 -5 -3 -10v-1v-1v-1h-1v-1v-1v-1h-1v-1v-1v-1h-1v-1v-1q-6 -17 -15.5 -33t-21.5 -30h-1v-1 h-1l-3 -3v-1l-1 -1q-1 0 -1 -1h-1v-1l-1 -1h-1v-1h-1v-1h-1v-1h-1v-1h-1q0 -1 -1 -1v-1h-1v-1h-1l-1 -1l-1 -1q-1 0 -1 -0.5t-1 -0.5l-28 34q41 33 50 86zM647 1104h-44v133h44v-133zM647 1326h-44v133h44v-133zM544 1641q6 -3 12 -6.5t12 -7.5l1 -1h1v-1h1v-1h1l2 -2h1v-1 h1h1v-1h1v-1h1v-1h1v-1h1l1 -1h1v-1h1v-1h1v-1h1v-1h1v-1h1v-1h1v-1h1v-1h1v-1h1q0 -1 1 -1v-1h1v-1h1v-1h1v-1h1v-1h1v-1h1v-1h1v-1h1v-1h1v-1h1v-1l1 -1l1 -1v-1h1v-1h1v-1q1 0 1 -1v-1l3 -3v-1h1v-1q13 -16 21 -37l-41 -17q-20 49 -68 72zM107 214q22 0 41.5 -8.5t34 -23 t23 -34t8.5 -41.5t-8.5 -41.5t-23 -34t-34 -23t-41.5 -8.5t-41.5 8.5t-34 23t-23 34t-8.5 41.5t8.5 41.5t23 34t34 23t41.5 8.5zM0 800q110 0 212 -28.5t191 -80.5t162 -125t125.5 -162t81 -191.5t29.5 -212.5h-154q-1 134 -52.5 251.5t-139 205.5t-205 138.5t-250.5 50.5 v154zM0 527q109 0 204.5 -41.5t167.5 -113t114 -167.5t43 -205h-155q-1 75 -28.5 142t-80.5 121q-54 54 -122 82t-143 28v154z" />
<glyph unicode="&#xe0;" horiz-adv-x="724" d="M811 1022q19 -33 21 -62q1 -5 1 -10q0 -24 -11 -42q-12 -22 -38.5 -35t-65.5 -13h-665q-39 0 -65.5 13t-39.5 35q-10 19 -10 44v8q2 29 22 62l332 571q19 33 44 50t50.5 17t50 -17t43.5 -50zM389 961q24 0 40.5 16.5t16.5 40.5t-16.5 40.5t-40.5 16.5t-40.5 -16.5 t-16.5 -40.5t16.5 -40.5t40.5 -16.5zM457 1441h-136l28 -330h81zM399 344l-7 48l84 42h30v-276h-59v205zM346 242q0 -44 -33.5 -66t-82.5 -22q-18 0 -36 3.5t-32 8.5l7 48q17 -6 32.5 -9t34.5 -3q23 0 36 10.5t13 25.5q0 20 -15 30t-57 12v48q29 2 44.5 10.5t15.5 25.5 q0 12 -8 19t-31 7q-29 0 -57 -14l-7 48q18 8 38.5 11.5t40.5 3.5q42 0 65.5 -17.5t23.5 -42.5q0 -47 -59 -67v-1q32 -10 49.5 -26t17.5 -43zM689 689v-689h-689v689h82v43q0 32 19 50t53 18q33 0 52 -18t19 -50v-43h49v43q0 32 18.5 50t52.5 18t53 -18t19 -50v-43h48v43 q0 32 19 50t53 18q33 0 52 -18t19 -50v-43h81zM503 617q0 -29 34 -29q33 0 33 29v115q0 30 -33 30q-34 0 -34 -30v-115zM312 617q0 -16 7.5 -22.5t25.5 -6.5t25.5 6.5t7.5 22.5v115q0 16 -7.5 23t-25.5 7t-25.5 -7t-7.5 -23v-115zM120 617q0 -29 34 -29q33 0 33 29v115 q0 30 -33 30q-34 0 -34 -30v-115zM632 536h-575v-479h575v479z" />
<glyph unicode="&#xe2;" horiz-adv-x="724" d="M808 1616h-133v44h133v-44zM586 1616h-134v44h134v-44zM367 1615q-52 -3 -90 -41l-32 31q20 20 46 34l4 2h1v1h1h1v1h1q1 0 1 1h1h1v1h1h1q28 12 60 15zM242 1516q-6 -20 -6 -40v-79h-44v79v1v1v1v1v1v1v1v1v1v1v1v1v1v1h1v1v1v1v1v1v1v2q2 8 3.5 15.5t3.5 15.5z M236 1175h-44v133h44v-133zM236 1044q0 -35 17 -66l-39 -22v1v1q-1 0 -1 1q-6 11 -10 22.5t-7 24.5v1q0 1 -1 1v1v1v1v1v1v1h-1v1v1v1v1v1v1l-1 1v1v1v1v1v1v1v1v1v1h-1v1v1v1v1v1v1v1v1v1v1v1v1v1v1v42h44v-42zM299 928q17 -11 36.5 -17.5t40.5 -6.5h25v-44h-25h-1h-1h-1 h-1h-1h-1h-1h-1h-1h-1h-1h-1h-1h-1v1h-1h-1h-1h-1h-1h-1h-1h-1h-1q-1 0 -1 1h-1h-1h-1h-1h-1h-1v1h-1h-1h-1h-1h-1l-1 1h-1h-1h-2l-1 1q-20 4 -41 14l-1 1q-1 0 -1 1h-1h-1v1h-1h-1v1h-1q-1 0 -1 1h-1v1h-1h-1v1h-1q-2 2 -4 2.5t-4 2.5zM623 860h-133v44h133v-44zM845 864 h-1v-1h-1h-1h-1h-1h-1q-1 0 -1 -1h-1h-1h-1h-1h-1h-1l-1 -1h-1h-1h-1h-1h-1h-1h-1h-1h-1v-1h-1h-1h-1h-1h-1h-1h-1h-1h-1h-1h-1h-1h-1h-1h-96v44h96q14 0 28 3zM990 1015l-2 -10q-1 -5 -3 -10v-1v-1v-1h-1v-1v-1v-1h-1v-1v-1v-1h-1v-1v-1q-6 -17 -15.5 -33t-21.5 -30h-1v-1 h-1l-3 -3v-1l-1 -1q-1 0 -1 -1h-1v-1l-1 -1h-1v-1h-1v-1h-1v-1h-1v-1h-1q0 -1 -1 -1v-1h-1v-1h-1l-1 -1l-1 -1q-1 0 -1 -0.5t-1 -0.5l-28 34q41 33 50 86zM992 1104h-44v133h44v-133zM992 1326h-44v133h44v-133zM889 1641q6 -3 12 -6.5t12 -7.5l1 -1h1v-1h1v-1h1l2 -2h1v-1 h1h1v-1h1v-1h1v-1h1v-1h1l1 -1h1v-1h1v-1h1v-1h1v-1h1v-1h1v-1h1v-1h1v-1h1v-1h1q0 -1 1 -1v-1h1v-1h1v-1h1v-1h1v-1h1v-1h1v-1h1v-1h1v-1h1v-1h1v-1l1 -1l1 -1v-1h1v-1h1v-1q1 0 1 -1v-1l3 -3v-1h1v-1q13 -16 21 -37l-41 -17q-20 49 -68 72zM399 344l-7 48l84 42h30v-276 h-59v205zM346 242q0 -44 -33.5 -66t-82.5 -22q-18 0 -36 3.5t-32 8.5l7 48q17 -6 32.5 -9t34.5 -3q23 0 36 10.5t13 25.5q0 20 -15 30t-57 12v48q29 2 44.5 10.5t15.5 25.5q0 12 -8 19t-31 7q-29 0 -57 -14l-7 48q18 8 38.5 11.5t40.5 3.5q42 0 65.5 -17.5t23.5 -42.5 q0 -47 -59 -67v-1q32 -10 49.5 -26t17.5 -43zM689 689v-689h-689v689h82v43q0 32 19 50t53 18q33 0 52 -18t19 -50v-43h49v43q0 32 18.5 50t52.5 18t53 -18t19 -50v-43h48v43q0 32 19 50t53 18q33 0 52 -18t19 -50v-43h81zM503 617q0 -29 34 -29q33 0 33 29v115q0 30 -33 30 q-34 0 -34 -30v-115zM312 617q0 -16 7.5 -22.5t25.5 -6.5t25.5 6.5t7.5 22.5v115q0 16 -7.5 23t-25.5 7t-25.5 -7t-7.5 -23v-115zM120 617q0 -29 34 -29q33 0 33 29v115q0 30 -33 30q-34 0 -34 -30v-115zM632 536h-575v-479h575v479z" />
<glyph unicode="&#xe3;" horiz-adv-x="724" d="M813 1065h-139v-205h-93v205h-139l185 215zM462 1164l-50 -57v428l124 125h307v-554l-50 58v446h-207v-124h-124v-322zM399 344l-7 48l84 42h30v-276h-59v205zM346 242q0 -44 -33.5 -66t-82.5 -22q-18 0 -36 3.5t-32 8.5l7 48q17 -6 32.5 -9t34.5 -3q23 0 36 10.5 t13 25.5q0 20 -15 30t-57 12v48q29 2 44.5 10.5t15.5 25.5q0 12 -8 19t-31 7q-29 0 -57 -14l-7 48q18 8 38.5 11.5t40.5 3.5q42 0 65.5 -17.5t23.5 -42.5q0 -47 -59 -67v-1q32 -10 49.5 -26t17.5 -43zM689 689v-689h-689v689h82v43q0 32 19 50t53 18q33 0 52 -18t19 -50v-43 h49v43q0 32 18.5 50t52.5 18t53 -18t19 -50v-43h48v43q0 32 19 50t53 18q33 0 52 -18t19 -50v-43h81zM503 617q0 -29 34 -29q33 0 33 29v115q0 30 -33 30q-34 0 -34 -30v-115zM312 617q0 -16 7.5 -22.5t25.5 -6.5t25.5 6.5t7.5 22.5v115q0 16 -7.5 23t-25.5 7t-25.5 -7 t-7.5 -23v-115zM120 617q0 -29 34 -29q33 0 33 29v115q0 30 -33 30q-34 0 -34 -30v-115zM632 536h-575v-479h575v479z" />
<glyph unicode="&#xe8;" horiz-adv-x="724" d="M811 1022q19 -33 21 -62q1 -5 1 -10q0 -24 -11 -42q-12 -22 -38.5 -35t-65.5 -13h-665q-39 0 -65.5 13t-39.5 35q-10 19 -10 44v8q2 29 22 62l332 571q19 33 44 50t50.5 17t50 -17t43.5 -50zM389 961q24 0 40.5 16.5t16.5 40.5t-16.5 40.5t-40.5 16.5t-40.5 -16.5 t-16.5 -40.5t16.5 -40.5t40.5 -16.5zM457 1441h-136l28 -330h81zM689 689v-689h-689v689h82v43q0 32 19 50t53 18q33 0 52 -18t19 -50v-43h49v43q0 32 18.5 50t52.5 18t53 -18t19 -50v-43h48v43q0 32 19 50t53 18q33 0 52 -18t19 -50v-43h81zM57 283v-106h95v106h-95z M152 302v115h-95v-115h95zM172 177h460v106h-460v-106zM632 302v115h-460v-115h460zM503 617q0 -29 34 -29q33 0 33 29v115q0 30 -33 30q-34 0 -34 -30v-115zM312 617q0 -16 7.5 -22.5t25.5 -6.5t25.5 6.5t7.5 22.5v115q0 16 -7.5 23t-25.5 7t-25.5 -7t-7.5 -23v-115z M172 536v-100h460v100h-460zM120 617q0 -29 34 -29q33 0 33 29v115q0 30 -33 30q-34 0 -34 -30v-115zM57 536v-100h95v100h-95zM57 57h95v101h-95v-101zM632 57v101h-460v-101h460z" />
<glyph unicode="&#xea;" horiz-adv-x="724" d="M808 1616h-133v44h133v-44zM586 1616h-134v44h134v-44zM367 1615q-52 -3 -90 -41l-32 31q20 20 46 34l4 2h1v1h1h1v1h1q1 0 1 1h1h1v1h1h1q28 12 60 15zM242 1516q-6 -20 -6 -40v-79h-44v79v1v1v1v1v1v1v1v1v1v1v1v1v1v1h1v1v1v1v1v1v1v2q2 8 3.5 15.5t3.5 15.5z M236 1175h-44v133h44v-133zM236 1044q0 -35 17 -66l-39 -22v1v1q-1 0 -1 1q-6 11 -10 22.5t-7 24.5v1q0 1 -1 1v1v1v1v1v1v1h-1v1v1v1v1v1v1l-1 1v1v1v1v1v1v1v1v1v1h-1v1v1v1v1v1v1v1v1v1v1v1v1v1v1v42h44v-42zM299 928q17 -11 36.5 -17.5t40.5 -6.5h25v-44h-25h-1h-1h-1 h-1h-1h-1h-1h-1h-1h-1h-1h-1h-1h-1v1h-1h-1h-1h-1h-1h-1h-1h-1h-1q-1 0 -1 1h-1h-1h-1h-1h-1h-1v1h-1h-1h-1h-1h-1l-1 1h-1h-1h-2l-1 1q-20 4 -41 14l-1 1q-1 0 -1 1h-1h-1v1h-1h-1v1h-1q-1 0 -1 1h-1v1h-1h-1v1h-1q-2 2 -4 2.5t-4 2.5zM623 860h-133v44h133v-44zM845 864 h-1v-1h-1h-1h-1h-1h-1q-1 0 -1 -1h-1h-1h-1h-1h-1h-1l-1 -1h-1h-1h-1h-1h-1h-1h-1h-1h-1v-1h-1h-1h-1h-1h-1h-1h-1h-1h-1h-1h-1h-1h-1h-1h-96v44h96q14 0 28 3zM990 1015l-2 -10q-1 -5 -3 -10v-1v-1v-1h-1v-1v-1v-1h-1v-1v-1v-1h-1v-1v-1q-6 -17 -15.5 -33t-21.5 -30h-1v-1 h-1l-3 -3v-1l-1 -1q-1 0 -1 -1h-1v-1l-1 -1h-1v-1h-1v-1h-1v-1h-1v-1h-1q0 -1 -1 -1v-1h-1v-1h-1l-1 -1l-1 -1q-1 0 -1 -0.5t-1 -0.5l-28 34q41 33 50 86zM992 1104h-44v133h44v-133zM992 1326h-44v133h44v-133zM889 1641q6 -3 12 -6.5t12 -7.5l1 -1h1v-1h1v-1h1l2 -2h1v-1 h1h1v-1h1v-1h1v-1h1v-1h1l1 -1h1v-1h1v-1h1v-1h1v-1h1v-1h1v-1h1v-1h1v-1h1v-1h1q0 -1 1 -1v-1h1v-1h1v-1h1v-1h1v-1h1v-1h1v-1h1v-1h1v-1h1v-1h1v-1l1 -1l1 -1v-1h1v-1h1v-1q1 0 1 -1v-1l3 -3v-1h1v-1q13 -16 21 -37l-41 -17q-20 49 -68 72zM689 689v-689h-689v689h82v43 q0 32 19 50t53 18q33 0 52 -18t19 -50v-43h49v43q0 32 18.5 50t52.5 18t53 -18t19 -50v-43h48v43q0 32 19 50t53 18q33 0 52 -18t19 -50v-43h81zM57 283v-106h95v106h-95zM152 302v115h-95v-115h95zM172 177h460v106h-460v-106zM632 302v115h-460v-115h460zM503 617 q0 -29 34 -29q33 0 33 29v115q0 30 -33 30q-34 0 -34 -30v-115zM312 617q0 -16 7.5 -22.5t25.5 -6.5t25.5 6.5t7.5 22.5v115q0 16 -7.5 23t-25.5 7t-25.5 -7t-7.5 -23v-115zM172 536v-100h460v100h-460zM120 617q0 -29 34 -29q33 0 33 29v115q0 30 -33 30q-34 0 -34 -30 v-115zM57 536v-100h95v100h-95zM57 57h95v101h-95v-101zM632 57v101h-460v-101h460z" />
<glyph unicode="&#xec;" horiz-adv-x="719" d="M810 1022q19 -33 21 -62q1 -5 1 -10q0 -24 -11 -42q-12 -22 -38.5 -35t-65.5 -13h-665q-39 0 -65.5 13t-39.5 35q-10 19 -10 44v8q2 29 22 62l332 571q19 33 44 50t50.5 17t50 -17t43.5 -50zM388 961q24 0 40.5 16.5t16.5 40.5t-16.5 40.5t-40.5 16.5t-40.5 -16.5 t-16.5 -40.5t16.5 -40.5t40.5 -16.5zM456 1441h-136l28 -330h81zM673 260q12 -24 12 -50q0 -12 -2 -24v-1l-2 -7l-2 -8q0 -3 -2 -7v-2q-1 -2 -1 -3t-1 -3l-1 -2q0 -2 -2 -6q-1 -1 -1 -2v-1q-1 -1 -1.5 -2t-1.5 -2q0 -1 -0.5 -1.5t-0.5 -1.5q-1 -2 -1.5 -2.5t-1.5 -2.5 q0 -1 -2 -3l-2 -4q-1 -1 -1 -1.5t-1 -1.5q-2 -2 -2 -3q-3 -4 -9 -10v-1q-6 -6 -9 -10h-1l-1 -2q-3 -2 -6 -5l-5 -5l-1 -1h-1l-12 -9v-1l-1 -1q-3 -2 -5.5 -3.5t-5.5 -3.5q-6 -5 -11 -7l-2 -1l-1 -1l-4 -2l-4 -2q-5 -2 -9.5 -5t-9.5 -5q-4 -2 -6 -2l-1 -1l-9 -3q-3 -2 -7 -4 l-9 -3q-8 -3 -18 -6l-3 -1q-1 -1 -4 -1l-13 -4l-13 -4h-1h-1q-7 -2 -14 -3t-15 -3l-2 -1l-16 -2l-15 -2h-1l-33 -3h-9q-3 0 -8 -1h-17h-17q-9 0 -17 1h-2q-8 1 -15.5 1.5t-15.5 1.5h-2q-4 1 -7.5 1t-7.5 1h-1q-4 1 -8 1.5t-8 1.5q-15 1 -30 6h-2l-14 4l-13 4h-1h-1 q-6 2 -12.5 4.5t-12.5 4.5h-1l-1 1q-6 2 -11.5 4.5t-11.5 4.5l-1 1h-1l-11 6q-6 3 -11 5q-2 2 -3 2l-1 1h-1q-2 1 -2.5 1.5t-2.5 1.5q-5 3 -8.5 5.5t-8.5 5.5l-1 1l-1 1q-4 2 -7.5 5t-7.5 6l-1 1l-1 1q-8 6 -13 11q0 1 -1 2l-6 6q-3 3 -5 7l-1 1h-1l-4 7l-5 6l-1 1l-4 7 q-1 3 -3 6l-1 1v1q-2 3 -3 6.5t-3 6.5v1q-2 6 -4 14l-2 8l-2 8h1q-3 13 -3 25q0 25 12 49q17 34 54 63q35 26 80 43q43 17 93 26q19 3 37.5 5t37.5 3l-6 127q-45 12 -73.5 49t-28.5 85q0 29 11 54.5t29.5 44t44 29.5t54.5 11t54.5 -11t44 -29.5t29.5 -44t11 -54.5 q0 -49 -29 -86t-74 -49l-7 -126q19 -2 37 -3.5t35 -4.5q49 -9 94 -26q44 -18 79 -43q36 -28 54 -63zM275 664q15 -5 29.5 2.5t20.5 24.5q3 9 3 17t-3 16q-6 15 -20 20q-6 2 -12 2q-9 0 -17 -4q-15 -8 -21 -25q-3 -9 -3 -17t3 -16q6 -15 20 -20zM317 101v-7v7zM592 218v7 q0 2 -0.5 3t-0.5 3h-106h-1v1l-3 39h91q-2 4 -4 6h-1v1l-1 1l-3 3l-1 1l-1 1l-7 7l-1 1q-1 1 -2 1.5t-2 1.5l-1 1l-1 1q-2 2 -8 6q-1 0 -1 1q-1 0 -1 1h-1l-6 5l-8 4q-1 0 -1 0.5t-1 0.5l-2 1q-8 4 -11 6q-1 0 -1 1h-1q-1 0 -2 1q-2 0 -2 1l-2 1q-2 0 -2.5 0.5t-1.5 0.5 q-1 1 -1.5 1t-1.5 1h-2l-6 3l-6 2l-6 2q-1 0 -1 0.5t-1 0.5t-2 1h-1h-2v1h-1h-1l-1 1q-2 0 -3 0.5t-3 0.5q-6 2 -7 2q-2 1 -3 1t-3 1q-2 0 -3 0.5t-2 0.5q-2 0 -3 0.5t-3 0.5q-1 1 -5 1q-2 1 -5 1q-2 1 -5 1h-1h-1v1h-1h-2q-1 0 -2 0.5t-3 0.5q-3 0 -4 1h-5h-1l-4 1h-4l-5 1 h-4h-5l-3 1l-6 -111h-44l-5 111h-2q-3 0 -5 -1h-3h-1h-1q-4 0 -7 -1h-6l-2 -1h-1h-1h-1h-2q-2 0 -3 -0.5t-3 -0.5q-3 0 -4 -1h-2l-3 -1h-1h-2q-3 0 -5.5 -0.5t-5.5 -1.5h-1h-1l-1 -1h-1h-1q-2 -1 -3.5 -1t-3.5 -1q-2 0 -3 -1h-1q-2 0 -2.5 -0.5t-1.5 -0.5h-1l-2 -1 q-2 0 -8 -2h-1l-2 -1h-2l-1 -1h-2q-2 -1 -3.5 -1.5t-3.5 -1.5l-2 -1h-1q-1 0 -2 -1h-1l-2 -1q-2 -1 -5 -1.5t-5 -2.5h-1l-1 -1h-1l-1 -1q-2 -1 -3 -1t-3 -1q-1 -1 -1.5 -1t-1.5 -1h-1l-1 -1l-2 -1h-1l-1 -1q-3 -1 -9 -5h-1l-1 -1l-3 -2q-2 -1 -2.5 -1.5t-2.5 -1.5l-4 -2v-1 h-1q-1 -1 -2 -1.5t-2 -1.5t-2 -1.5t-2 -1.5t-1.5 -1t-1.5 -1v-1q-2 0 -4 -2l-3 -3l-3 -3l-1 -1l-2 -2l-2 -2l-3 -3q-1 -1 -1 -1.5t-1 -1.5l-2 -2l-3 -3v-1h93l-3 -39v-1h-1h-108v-3q0 -2 -1 -3v-1v-3v-2v-1v-1v-3v-1q2 -5 3 -8.5t3 -7.5q12 -26 41 -47q31 -23 75 -37 q23 -8 48.5 -12.5t52.5 -6.5l3 80h49h1l2 -79q55 3 101 18q46 16 74 37q28 22 40 47q4 7 6 15v6zM202 232h-12h12zM206 271l-1 -5zM494 271h-13h13z" />
<glyph unicode="&#xee;" horiz-adv-x="719" d="M808 1616h-133v44h133v-44zM586 1616h-134v44h134v-44zM367 1615q-52 -3 -90 -41l-32 31q20 20 46 34l4 2h1v1h1h1v1h1q1 0 1 1h1h1v1h1h1q28 12 60 15zM242 1516q-6 -20 -6 -40v-79h-44v79v1v1v1v1v1v1v1v1v1v1v1v1v1v1h1v1v1v1v1v1v1v2q2 8 3.5 15.5t3.5 15.5z M236 1175h-44v133h44v-133zM236 1044q0 -35 17 -66l-39 -22v1v1q-1 0 -1 1q-6 11 -10 22.5t-7 24.5v1q0 1 -1 1v1v1v1v1v1v1h-1v1v1v1v1v1v1l-1 1v1v1v1v1v1v1v1v1v1h-1v1v1v1v1v1v1v1v1v1v1v1v1v1v1v42h44v-42zM299 928q17 -11 36.5 -17.5t40.5 -6.5h25v-44h-25h-1h-1h-1 h-1h-1h-1h-1h-1h-1h-1h-1h-1h-1h-1v1h-1h-1h-1h-1h-1h-1h-1h-1h-1q-1 0 -1 1h-1h-1h-1h-1h-1h-1v1h-1h-1h-1h-1h-1l-1 1h-1h-1h-2l-1 1q-20 4 -41 14l-1 1q-1 0 -1 1h-1h-1v1h-1h-1v1h-1q-1 0 -1 1h-1v1h-1h-1v1h-1q-2 2 -4 2.5t-4 2.5zM623 860h-133v44h133v-44zM845 864 h-1v-1h-1h-1h-1h-1h-1q-1 0 -1 -1h-1h-1h-1h-1h-1h-1l-1 -1h-1h-1h-1h-1h-1h-1h-1h-1h-1v-1h-1h-1h-1h-1h-1h-1h-1h-1h-1h-1h-1h-1h-1h-1h-96v44h96q14 0 28 3zM990 1015l-2 -10q-1 -5 -3 -10v-1v-1v-1h-1v-1v-1v-1h-1v-1v-1v-1h-1v-1v-1q-6 -17 -15.5 -33t-21.5 -30h-1v-1 h-1l-3 -3v-1l-1 -1q-1 0 -1 -1h-1v-1l-1 -1h-1v-1h-1v-1h-1v-1h-1v-1h-1q0 -1 -1 -1v-1h-1v-1h-1l-1 -1l-1 -1q-1 0 -1 -0.5t-1 -0.5l-28 34q41 33 50 86zM992 1104h-44v133h44v-133zM992 1326h-44v133h44v-133zM889 1641q6 -3 12 -6.5t12 -7.5l1 -1h1v-1h1v-1h1l2 -2h1v-1 h1h1v-1h1v-1h1v-1h1v-1h1l1 -1h1v-1h1v-1h1v-1h1v-1h1v-1h1v-1h1v-1h1v-1h1v-1h1q0 -1 1 -1v-1h1v-1h1v-1h1v-1h1v-1h1v-1h1v-1h1v-1h1v-1h1v-1h1v-1l1 -1l1 -1v-1h1v-1h1v-1q1 0 1 -1v-1l3 -3v-1h1v-1q13 -16 21 -37l-41 -17q-20 49 -68 72zM673 260q12 -24 12 -50 q0 -12 -2 -24v-1l-2 -7l-2 -8q0 -3 -2 -7v-2q-1 -2 -1 -3t-1 -3l-1 -2q0 -2 -2 -6q-1 -1 -1 -2v-1q-1 -1 -1.5 -2t-1.5 -2q0 -1 -0.5 -1.5t-0.5 -1.5q-1 -2 -1.5 -2.5t-1.5 -2.5q0 -1 -2 -3l-2 -4q-1 -1 -1 -1.5t-1 -1.5q-2 -2 -2 -3q-3 -4 -9 -10v-1q-6 -6 -9 -10h-1l-1 -2 q-3 -2 -6 -5l-5 -5l-1 -1h-1l-12 -9v-1l-1 -1q-3 -2 -5.5 -3.5t-5.5 -3.5q-6 -5 -11 -7l-2 -1l-1 -1l-4 -2l-4 -2q-5 -2 -9.5 -5t-9.5 -5q-4 -2 -6 -2l-1 -1l-9 -3q-3 -2 -7 -4l-9 -3q-8 -3 -18 -6l-3 -1q-1 -1 -4 -1l-13 -4l-13 -4h-1h-1q-7 -2 -14 -3t-15 -3l-2 -1l-16 -2 l-15 -2h-1l-33 -3h-9q-3 0 -8 -1h-17h-17q-9 0 -17 1h-2q-8 1 -15.5 1.5t-15.5 1.5h-2q-4 1 -7.5 1t-7.5 1h-1q-4 1 -8 1.5t-8 1.5q-15 1 -30 6h-2l-14 4l-13 4h-1h-1q-6 2 -12.5 4.5t-12.5 4.5h-1l-1 1q-6 2 -11.5 4.5t-11.5 4.5l-1 1h-1l-11 6q-6 3 -11 5q-2 2 -3 2l-1 1 h-1q-2 1 -2.5 1.5t-2.5 1.5q-5 3 -8.5 5.5t-8.5 5.5l-1 1l-1 1q-4 2 -7.5 5t-7.5 6l-1 1l-1 1q-8 6 -13 11q0 1 -1 2l-6 6q-3 3 -5 7l-1 1h-1l-4 7l-5 6l-1 1l-4 7q-1 3 -3 6l-1 1v1q-2 3 -3 6.5t-3 6.5v1q-2 6 -4 14l-2 8l-2 8h1q-3 13 -3 25q0 25 12 49q17 34 54 63 q35 26 80 43q43 17 93 26q19 3 37.5 5t37.5 3l-6 127q-45 12 -73.5 49t-28.5 85q0 29 11 54.5t29.5 44t44 29.5t54.5 11t54.5 -11t44 -29.5t29.5 -44t11 -54.5q0 -49 -29 -86t-74 -49l-7 -126q19 -2 37 -3.5t35 -4.5q49 -9 94 -26q44 -18 79 -43q36 -28 54 -63zM275 664 q15 -5 29.5 2.5t20.5 24.5q3 9 3 17t-3 16q-6 15 -20 20q-6 2 -12 2q-9 0 -17 -4q-15 -8 -21 -25q-3 -9 -3 -17t3 -16q6 -15 20 -20zM317 101v-7v7zM592 218v7q0 2 -0.5 3t-0.5 3h-106h-1v1l-3 39h91q-2 4 -4 6h-1v1l-1 1l-3 3l-1 1l-1 1l-7 7l-1 1q-1 1 -2 1.5t-2 1.5l-1 1 l-1 1q-2 2 -8 6q-1 0 -1 1q-1 0 -1 1h-1l-6 5l-8 4q-1 0 -1 0.5t-1 0.5l-2 1q-8 4 -11 6q-1 0 -1 1h-1q-1 0 -2 1q-2 0 -2 1l-2 1q-2 0 -2.5 0.5t-1.5 0.5q-1 1 -1.5 1t-1.5 1h-2l-6 3l-6 2l-6 2q-1 0 -1 0.5t-1 0.5t-2 1h-1h-2v1h-1h-1l-1 1q-2 0 -3 0.5t-3 0.5q-6 2 -7 2 q-2 1 -3 1t-3 1q-2 0 -3 0.5t-2 0.5q-2 0 -3 0.5t-3 0.5q-1 1 -5 1q-2 1 -5 1q-2 1 -5 1h-1h-1v1h-1h-2q-1 0 -2 0.5t-3 0.5q-3 0 -4 1h-5h-1l-4 1h-4l-5 1h-4h-5l-3 1l-6 -111h-44l-5 111h-2q-3 0 -5 -1h-3h-1h-1q-4 0 -7 -1h-6l-2 -1h-1h-1h-1h-2q-2 0 -3 -0.5t-3 -0.5 q-3 0 -4 -1h-2l-3 -1h-1h-2q-3 0 -5.5 -0.5t-5.5 -1.5h-1h-1l-1 -1h-1h-1q-2 -1 -3.5 -1t-3.5 -1q-2 0 -3 -1h-1q-2 0 -2.5 -0.5t-1.5 -0.5h-1l-2 -1q-2 0 -8 -2h-1l-2 -1h-2l-1 -1h-2q-2 -1 -3.5 -1.5t-3.5 -1.5l-2 -1h-1q-1 0 -2 -1h-1l-2 -1q-2 -1 -5 -1.5t-5 -2.5h-1 l-1 -1h-1l-1 -1q-2 -1 -3 -1t-3 -1q-1 -1 -1.5 -1t-1.5 -1h-1l-1 -1l-2 -1h-1l-1 -1q-3 -1 -9 -5h-1l-1 -1l-3 -2q-2 -1 -2.5 -1.5t-2.5 -1.5l-4 -2v-1h-1q-1 -1 -2 -1.5t-2 -1.5t-2 -1.5t-2 -1.5t-1.5 -1t-1.5 -1v-1q-2 0 -4 -2l-3 -3l-3 -3l-1 -1l-2 -2l-2 -2l-3 -3 q-1 -1 -1 -1.5t-1 -1.5l-2 -2l-3 -3v-1h93l-3 -39v-1h-1h-108v-3q0 -2 -1 -3v-1v-3v-2v-1v-1v-3v-1q2 -5 3 -8.5t3 -7.5q12 -26 41 -47q31 -23 75 -37q23 -8 48.5 -12.5t52.5 -6.5l3 80h49h1l2 -79q55 3 101 18q46 16 74 37q28 22 40 47q4 7 6 15v6zM202 232h-12h12z M206 271l-1 -5zM494 271h-13h13z" />
<glyph unicode="&#xf1;" horiz-adv-x="853" d="M988 1065h-139v-205h-93v205h-139l185 215zM637 1164l-50 -57v428l124 125h307v-554l-50 58v446h-207v-124h-124v-322zM105 546q11 -115 48 -200.5t101 -138.5q49 -40 90 -66.5t61 -35.5q20 9 62 36t90 67q64 53 102 138.5t48 200.5zM405 800q27 -11 58 -19 q26 -8 59 -13.5t67 -5.5t69.5 4.5t65.5 9.5q34 6 68 15q6 -20 10 -45q4 -21 7 -51t3 -66q0 -95 -14.5 -172t-40 -138.5t-60 -108.5t-75.5 -81l-56 -43q-30 -23 -60.5 -42t-57.5 -31.5t-43 -12.5q-17 0 -43.5 12.5t-56.5 31.5t-60.5 42t-54.5 43q-41 33 -75.5 80t-60 109 t-40 139t-14.5 172q0 37 3 67t7 51q4 25 10 44q33 -9 67 -15q29 -5 65 -9.5t71 -4.5t67 5.5t58 13.5q30 8 57 19z" />
<glyph unicode="&#xf2;" horiz-adv-x="853" d="M870 1022q19 -33 21 -62q1 -5 1 -10q0 -24 -11 -42q-12 -22 -38.5 -35t-65.5 -13h-665q-39 0 -65.5 13t-39.5 35q-10 19 -10 44v8q2 29 22 62l332 571q19 33 44 50t50.5 17t50 -17t43.5 -50zM448 961q24 0 40.5 16.5t16.5 40.5t-16.5 40.5t-40.5 16.5t-40.5 -16.5 t-16.5 -40.5t16.5 -40.5t40.5 -16.5zM516 1441h-136l28 -330h81zM792 791q6 -20 10 -45q4 -21 7 -51t3 -66q0 -95 -14.5 -172t-40 -138.5t-60 -108.5t-75.5 -81l-56 -43q-30 -23 -60.5 -42t-57.5 -31.5t-43 -12.5q-17 0 -43.5 12.5t-56.5 31.5t-60.5 42t-54.5 43 q-41 33 -75.5 80t-60 109t-40 139t-14.5 172q0 37 3 67t7 51q4 25 10 44q33 -9 67 -15q29 -5 65 -9.5t71 -4.5t67 5.5t58 13.5q30 8 57 19q27 -11 58 -19q26 -8 59 -13.5t67 -5.5t69.5 4.5t65.5 9.5q34 6 68 15z" />
<glyph unicode="&#xf4;" horiz-adv-x="853" d="M868 1616h-133v44h133v-44zM646 1616h-134v44h134v-44zM427 1615q-52 -3 -90 -41l-32 31q20 20 46 34l4 2h1v1h1h1v1h1q1 0 1 1h1h1v1h1h1q28 12 60 15zM302 1516q-6 -20 -6 -40v-79h-44v79v1v1v1v1v1v1v1v1v1v1v1v1v1v1h1v1v1v1v1v1v1v2q2 8 3.5 15.5t3.5 15.5z M296 1175h-44v133h44v-133zM296 1044q0 -35 17 -66l-39 -22v1v1q-1 0 -1 1q-6 11 -10 22.5t-7 24.5v1q0 1 -1 1v1v1v1v1v1v1h-1v1v1v1v1v1v1l-1 1v1v1v1v1v1v1v1v1v1h-1v1v1v1v1v1v1v1v1v1v1v1v1v1v1v42h44v-42zM359 928q17 -11 36.5 -17.5t40.5 -6.5h25v-44h-25h-1h-1h-1 h-1h-1h-1h-1h-1h-1h-1h-1h-1h-1h-1v1h-1h-1h-1h-1h-1h-1h-1h-1h-1q-1 0 -1 1h-1h-1h-1h-1h-1h-1v1h-1h-1h-1h-1h-1l-1 1h-1h-1h-2l-1 1q-20 4 -41 14l-1 1q-1 0 -1 1h-1h-1v1h-1h-1v1h-1q-1 0 -1 1h-1v1h-1h-1v1h-1q-2 2 -4 2.5t-4 2.5zM683 860h-133v44h133v-44zM905 864 h-1v-1h-1h-1h-1h-1h-1q-1 0 -1 -1h-1h-1h-1h-1h-1h-1l-1 -1h-1h-1h-1h-1h-1h-1h-1h-1h-1v-1h-1h-1h-1h-1h-1h-1h-1h-1h-1h-1h-1h-1h-1h-1h-96v44h96q14 0 28 3zM1050 1015l-2 -10q-1 -5 -3 -10v-1v-1v-1h-1v-1v-1v-1h-1v-1v-1v-1h-1v-1v-1q-6 -17 -15.5 -33t-21.5 -30h-1v-1 h-1l-3 -3v-1l-1 -1q-1 0 -1 -1h-1v-1l-1 -1h-1v-1h-1v-1h-1v-1h-1v-1h-1q0 -1 -1 -1v-1h-1v-1h-1l-1 -1l-1 -1q-1 0 -1 -0.5t-1 -0.5l-28 34q41 33 50 86zM1052 1104h-44v133h44v-133zM1052 1326h-44v133h44v-133zM949 1641q6 -3 12 -6.5t12 -7.5l1 -1h1v-1h1v-1h1l2 -2h1 v-1h1h1v-1h1v-1h1v-1h1v-1h1l1 -1h1v-1h1v-1h1v-1h1v-1h1v-1h1v-1h1v-1h1v-1h1v-1h1q0 -1 1 -1v-1h1v-1h1v-1h1v-1h1v-1h1v-1h1v-1h1v-1h1v-1h1v-1h1v-1l1 -1l1 -1v-1h1v-1h1v-1q1 0 1 -1v-1l3 -3v-1h1v-1q13 -16 21 -37l-41 -17q-20 49 -68 72zM792 791q6 -20 10 -45 q4 -21 7 -51t3 -66q0 -95 -14.5 -172t-40 -138.5t-60 -108.5t-75.5 -81l-56 -43q-30 -23 -60.5 -42t-57.5 -31.5t-43 -12.5q-17 0 -43.5 12.5t-56.5 31.5t-60.5 42t-54.5 43q-41 33 -75.5 80t-60 109t-40 139t-14.5 172q0 37 3 67t7 51q4 25 10 44q33 -9 67 -15 q29 -5 65 -9.5t71 -4.5t67 5.5t58 13.5q30 8 57 19q27 -11 58 -19q26 -8 59 -13.5t67 -5.5t69.5 4.5t65.5 9.5q34 6 68 15z" />
<glyph unicode="&#xf5;" horiz-adv-x="853" d="M872 1065h-139v-205h-93v205h-139l185 215zM521 1164l-50 -57v428l124 125h307v-554l-50 58v446h-207v-124h-124v-322zM792 791q6 -20 10 -45q4 -21 7 -51t3 -66q0 -95 -14.5 -172t-40 -138.5t-60 -108.5t-75.5 -81l-56 -43q-30 -23 -60.5 -42t-57.5 -31.5t-43 -12.5 q-17 0 -43.5 12.5t-56.5 31.5t-60.5 42t-54.5 43q-41 33 -75.5 80t-60 109t-40 139t-14.5 172q0 37 3 67t7 51q4 25 10 44q33 -9 67 -15q29 -5 65 -9.5t71 -4.5t67 5.5t58 13.5q30 8 57 19q27 -11 58 -19q26 -8 59 -13.5t67 -5.5t69.5 4.5t65.5 9.5q34 6 68 15z" />
<glyph unicode="&#xf9;" horiz-adv-x="653" d="M806 1022q19 -33 21 -62q1 -5 1 -10q0 -24 -11 -42q-12 -22 -38.5 -35t-65.5 -13h-665q-39 0 -65.5 13t-39.5 35q-10 19 -10 44v8q2 29 22 62l332 571q19 33 44 50t50.5 17t50 -17t43.5 -50zM384 961q24 0 40.5 16.5t16.5 40.5t-16.5 40.5t-40.5 16.5t-40.5 -16.5 t-16.5 -40.5t16.5 -40.5t40.5 -16.5zM452 1441h-136l28 -330h81zM528 800l6 -7l81 -80l7 -7h-94v94zM528 665h94v-510h-468v645h333v-94v-41h41zM154 108h303v-108h-457v638h107v-483v-47h47z" />
<glyph unicode="&#xfb;" horiz-adv-x="653" d="M804 1616h-133v44h133v-44zM582 1616h-134v44h134v-44zM363 1615q-52 -3 -90 -41l-32 31q20 20 46 34l4 2h1v1h1h1v1h1q1 0 1 1h1h1v1h1h1q28 12 60 15zM238 1516q-6 -20 -6 -40v-79h-44v79v1v1v1v1v1v1v1v1v1v1v1v1v1v1h1v1v1v1v1v1v1v2q2 8 3.5 15.5t3.5 15.5z M232 1175h-44v133h44v-133zM232 1044q0 -35 17 -66l-39 -22v1v1q-1 0 -1 1q-6 11 -10 22.5t-7 24.5v1q0 1 -1 1v1v1v1v1v1v1h-1v1v1v1v1v1v1l-1 1v1v1v1v1v1v1v1v1v1h-1v1v1v1v1v1v1v1v1v1v1v1v1v1v1v42h44v-42zM295 928q17 -11 36.5 -17.5t40.5 -6.5h25v-44h-25h-1h-1h-1 h-1h-1h-1h-1h-1h-1h-1h-1h-1h-1h-1v1h-1h-1h-1h-1h-1h-1h-1h-1h-1q-1 0 -1 1h-1h-1h-1h-1h-1h-1v1h-1h-1h-1h-1h-1l-1 1h-1h-1h-2l-1 1q-20 4 -41 14l-1 1q-1 0 -1 1h-1h-1v1h-1h-1v1h-1q-1 0 -1 1h-1v1h-1h-1v1h-1q-2 2 -4 2.5t-4 2.5zM619 860h-133v44h133v-44zM841 864 h-1v-1h-1h-1h-1h-1h-1q-1 0 -1 -1h-1h-1h-1h-1h-1h-1l-1 -1h-1h-1h-1h-1h-1h-1h-1h-1h-1v-1h-1h-1h-1h-1h-1h-1h-1h-1h-1h-1h-1h-1h-1h-1h-96v44h96q14 0 28 3zM986 1015l-2 -10q-1 -5 -3 -10v-1v-1v-1h-1v-1v-1v-1h-1v-1v-1v-1h-1v-1v-1q-6 -17 -15.5 -33t-21.5 -30h-1v-1 h-1l-3 -3v-1l-1 -1q-1 0 -1 -1h-1v-1l-1 -1h-1v-1h-1v-1h-1v-1h-1v-1h-1q0 -1 -1 -1v-1h-1v-1h-1l-1 -1l-1 -1q-1 0 -1 -0.5t-1 -0.5l-28 34q41 33 50 86zM988 1104h-44v133h44v-133zM988 1326h-44v133h44v-133zM885 1641q6 -3 12 -6.5t12 -7.5l1 -1h1v-1h1v-1h1l2 -2h1v-1 h1h1v-1h1v-1h1v-1h1v-1h1l1 -1h1v-1h1v-1h1v-1h1v-1h1v-1h1v-1h1v-1h1v-1h1v-1h1q0 -1 1 -1v-1h1v-1h1v-1h1v-1h1v-1h1v-1h1v-1h1v-1h1v-1h1v-1h1v-1l1 -1l1 -1v-1h1v-1h1v-1q1 0 1 -1v-1l3 -3v-1h1v-1q13 -16 21 -37l-41 -17q-20 49 -68 72zM528 800l6 -7l81 -80l7 -7h-94 v94zM528 665h94v-510h-468v645h333v-94v-41h41zM154 108h303v-108h-457v638h107v-483v-47h47z" />
<glyph unicode="&#x152;" horiz-adv-x="2324" d="M2159 0l-235 236q-32 -17 -67 -26t-73 -9q-62 0 -116.5 23.5t-95 64t-64 95.5t-23.5 117t23.5 116.5t64 95t95 64t116.5 23.5t117 -23.5t95.5 -64t64 -95t23.5 -116.5q0 -38 -9.5 -73.5t-26.5 -67.5l236 -236zM1585 501q0 -41 15.5 -77.5t42.5 -63.5t63.5 -43t77.5 -16 t77.5 16t63.5 43t43 63.5t16 77.5t-16 77.5t-43 63.5t-63.5 42.5t-77.5 15.5t-77.5 -15.5t-63.5 -42.5t-42.5 -63.5t-15.5 -77.5zM1 799h1412l-706 -520zM975 379l439 323v-646zM439 379l-439 -323v647zM754 216l155 114l448 -330h-1300l448 330l156 -114l46 -34zM1 799 l-1 1h1414l-1 -1h-1412z" />
<glyph unicode="&#x153;" horiz-adv-x="1577" d="M1542 689v-689h-689v689h82v43q0 32 19 50t53 18q33 0 52 -18t19 -50v-43h49v43q0 32 18.5 50t52.5 18t53 -18t19 -50v-43h48v43q0 32 19 50t53 18q33 0 52 -18t19 -50v-43h81zM910 283v-106h95v106h-95zM1005 302v115h-95v-115h95zM1025 177h460v106h-460v-106z M1485 302v115h-460v-115h460zM1356 617q0 -29 34 -29q33 0 33 29v115q0 30 -33 30q-34 0 -34 -30v-115zM1165 617q0 -16 7.5 -22.5t25.5 -6.5t25.5 6.5t7.5 22.5v115q0 16 -7.5 23t-25.5 7t-25.5 -7t-7.5 -23v-115zM1025 536v-100h460v100h-460zM973 617q0 -29 34 -29 q33 0 33 29v115q0 30 -33 30q-34 0 -34 -30v-115zM910 536v-100h95v100h-95zM910 57h95v101h-95v-101zM1485 57v101h-460v-101h460zM792 791q6 -20 10 -45q4 -21 7 -51t3 -66q0 -95 -14.5 -172t-40 -138.5t-60 -108.5t-75.5 -81l-56 -43q-30 -23 -60.5 -42t-57.5 -31.5 t-43 -12.5q-17 0 -43.5 12.5t-56.5 31.5t-60.5 42t-54.5 43q-41 33 -75.5 80t-60 109t-40 139t-14.5 172q0 37 3 67t7 51q4 25 10 44q33 -9 67 -15q29 -5 65 -9.5t71 -4.5t67 5.5t58 13.5q30 8 57 19q27 -11 58 -19q26 -8 59 -13.5t67 -5.5t69.5 4.5t65.5 9.5q34 6 68 15z " />
<glyph unicode="&#x2c6;" d="M616 756h-133v44h133v-44zM394 756h-134v44h134v-44zM175 755q-52 -3 -90 -41l-32 31q20 20 46 34l4 2h1v1h1h1v1h1q1 0 1 1h1h1v1h1h1q28 12 60 15zM50 656q-6 -20 -6 -40v-79h-44v79v1v1v1v1v1v1v1v1v1v1v1v1v1v1h1v1v1v1v1v1v1v2q2 8 3.5 15.5t3.5 15.5zM44 315h-44 v133h44v-133zM44 184q0 -35 17 -66l-39 -22v1v1q-1 0 -1 1q-6 11 -10 22.5t-7 24.5v1q0 1 -1 1v1v1v1v1v1v1h-1v1v1v1v1v1v1l-1 1v1v1v1v1v1v1v1v1v1h-1v1v1v1v1v1v1v1v1v1v1v1v1v1v1v42h44v-42zM107 68q17 -11 36.5 -17.5t40.5 -6.5h25v-44h-25h-1h-1h-1h-1h-1h-1h-1h-1h-1 h-1h-1h-1h-1h-1v1h-1h-1h-1h-1h-1h-1h-1h-1h-1q-1 0 -1 1h-1h-1h-1h-1h-1h-1v1h-1h-1h-1h-1h-1l-1 1h-1h-1h-2l-1 1q-20 4 -41 14l-1 1q-1 0 -1 1h-1h-1v1h-1h-1v1h-1q-1 0 -1 1h-1v1h-1h-1v1h-1q-2 2 -4 2.5t-4 2.5zM431 0h-133v44h133v-44zM653 4h-1v-1h-1h-1h-1h-1h-1 q-1 0 -1 -1h-1h-1h-1h-1h-1h-1l-1 -1h-1h-1h-1h-1h-1h-1h-1h-1h-1v-1h-1h-1h-1h-1h-1h-1h-1h-1h-1h-1h-1h-1h-1h-1h-96v44h96q14 0 28 3zM798 155l-2 -10q-1 -5 -3 -10v-1v-1v-1h-1v-1v-1v-1h-1v-1v-1v-1h-1v-1v-1q-6 -17 -15.5 -33t-21.5 -30h-1v-1h-1l-3 -3v-1l-1 -1 q-1 0 -1 -1h-1v-1l-1 -1h-1v-1h-1v-1h-1v-1h-1v-1h-1q0 -1 -1 -1v-1h-1v-1h-1l-1 -1l-1 -1q-1 0 -1 -0.5t-1 -0.5l-28 34q41 33 50 86zM800 244h-44v133h44v-133zM800 466h-44v133h44v-133zM697 781q6 -3 12 -6.5t12 -7.5l1 -1h1v-1h1v-1h1l2 -2h1v-1h1h1v-1h1v-1h1v-1h1v-1 h1l1 -1h1v-1h1v-1h1v-1h1v-1h1v-1h1v-1h1v-1h1v-1h1v-1h1q0 -1 1 -1v-1h1v-1h1v-1h1v-1h1v-1h1v-1h1v-1h1v-1h1v-1h1v-1h1v-1l1 -1l1 -1v-1h1v-1h1v-1q1 0 1 -1v-1l3 -3v-1h1v-1q13 -16 21 -37l-41 -17q-20 49 -68 72z" />
<glyph unicode="&#x2dc;" horiz-adv-x="250" d="M467 265h-139v-205h-93v205h-139l185 215zM116 364l-50 -57v428l124 125h307v-554l-50 58v446h-207v-124h-124v-322z" />
<glyph unicode="&#x2000;" horiz-adv-x="830" />
<glyph unicode="&#x2001;" horiz-adv-x="1660" />
<glyph unicode="&#x2002;" horiz-adv-x="830" />
<glyph unicode="&#x2003;" horiz-adv-x="1660" />
<glyph unicode="&#x2004;" horiz-adv-x="553" />
<glyph unicode="&#x2005;" horiz-adv-x="415" />
<glyph unicode="&#x2006;" horiz-adv-x="276" />
<glyph unicode="&#x2007;" horiz-adv-x="276" />
<glyph unicode="&#x2008;" horiz-adv-x="207" />
<glyph unicode="&#x2009;" horiz-adv-x="332" />
<glyph unicode="&#x200a;" horiz-adv-x="92" />
<glyph unicode="&#x2010;" horiz-adv-x="1470" d="M800 399l-200 -100l-600 -299v800l600 -300zM600 0v299l200 100l-200 101v300l800 -401z" />
<glyph unicode="&#x2011;" horiz-adv-x="1470" d="M800 399l-200 -100l-600 -299v800l600 -300zM600 0v299l200 100l-200 101v300l800 -401z" />
<glyph unicode="&#x2013;" horiz-adv-x="500" d="M0 0v800h430v-800h-430z" />
<glyph unicode="&#x2014;" horiz-adv-x="1000" d="M0 0v800h930v-800h-930z" />
<glyph unicode="&#x2018;" horiz-adv-x="940" d="M873 162q19 -33 21 -62q1 -5 1 -10q0 -24 -11 -42q-12 -22 -38.5 -35t-65.5 -13h-665q-39 0 -65.5 13t-39.5 35q-10 19 -10 44v8q2 29 22 62l332 571q19 33 44 50t50.5 17t50 -17t43.5 -50zM451 101q24 0 40.5 16.5t16.5 40.5t-16.5 40.5t-40.5 16.5t-40.5 -16.5 t-16.5 -40.5t16.5 -40.5t40.5 -16.5zM519 581h-136l28 -330h81z" />
<glyph unicode="&#x2019;" horiz-adv-x="717" d="M671 433q12 -14 12 -25q0 -4 -1 -8q-7 -13 -32 -13h-153h-61v-327q0 -25 -17.5 -42.5t-42.5 -17.5h-70q-25 0 -42.5 17.5t-17.5 42.5v327h-60h-153q-25 0 -31 13q-2 4 -2 8q0 11 11 25l292 348q16 19 38.5 19t38.5 -19z" />
<glyph unicode="&#x201c;" horiz-adv-x="842" d="M611 276v-120h-271v-38v-97q0 -16 -9 -20q-3 -1 -5 -1q-7 0 -16 7l-220 185q-12 10 -12 24t12 25l220 184q12 10 21 6t9 -20v-97v-38h271zM763 276q16 0 27.5 -11t11.5 -27v-44q0 -16 -11.5 -27t-27.5 -11h-74v120h74zM110 524h-72q-16 0 -27 11t-11 27v44q0 16 11 27 t27 11h72v-120zM188 524v120h274v38v97q0 16 8 20q3 1 6 1q6 0 15 -7l221 -185q12 -10 12 -24t-12 -25l-221 -184q-9 -7 -15 -7q-3 0 -6 1q-8 4 -8 20v97v38h-274z" />
<glyph unicode="&#x201d;" horiz-adv-x="842" d="M611 276v-120h-271v-38v-97q0 -16 -9 -20q-3 -1 -5 -1q-7 0 -16 7l-220 185q-12 10 -12 24t12 25l220 184q12 10 21 6t9 -20v-97v-38h271zM763 276q16 0 27.5 -11t11.5 -27v-44q0 -16 -11.5 -27t-27.5 -11h-74v120h74zM110 524h-72q-16 0 -27 11t-11 27v44q0 16 11 27 t27 11h72v-120zM188 524v120h274v38v97q0 16 8 20q3 1 6 1q6 0 15 -7l221 -185q12 -10 12 -24t-12 -25l-221 -184q-9 -7 -15 -7q-3 0 -6 1q-8 4 -8 20v97v38h-274z" />
<glyph unicode="&#x2026;" horiz-adv-x="2520" d="M2480 800v-800h-300v800h300zM1680 800h300v-800h-300v800zM1640 800v-800h-300v800h300zM840 800h300v-800h-300v800zM800 800v-800h-300v800h300zM0 800h300v-800h-300v800z" />
<glyph unicode="&#x202f;" horiz-adv-x="332" />
<glyph unicode="&#x2039;" d="M400 800q83 0 156 -31.5t127 -85.5t85.5 -127t31.5 -156t-31.5 -156t-85.5 -127t-127 -85.5t-156 -31.5t-156 31.5t-127 85.5t-85.5 127t-31.5 156t31.5 156t85.5 127t127 85.5t156 31.5zM700 400q0 62 -23.5 116.5t-64.5 95.5t-95.5 64.5t-116.5 23.5q-49 0 -93 -15 t-81 -41l418 -418q26 37 41 81t15 93zM100 400q0 -62 23.5 -116.5t64.5 -95.5t95.5 -64.5t116.5 -23.5q49 0 93 15t82 41l-419 419q-26 -38 -41 -82t-15 -93z" />
<glyph unicode="&#x203a;" d="M800 571v-342l-229 -229h-342l-229 229v342l228 229h343zM498 401l126 125l-99 99l-126 -125l-125 125l-99 -99l125 -125l-125 -126l99 -99l125 126l126 -126l99 99z" />
<glyph unicode="&#x205f;" horiz-adv-x="415" />
<glyph unicode="&#x2122;" horiz-adv-x="1565" d="M1472 152q0 -31 2 -48.5t10 -27.5t23 -14t42 -7v-55h-305v55q26 3 41 6.5t23 13.5t10 27.5t2 49.5v237q0 29 -2 45.5t-9 25.5t-20 13t-34 7v51q54 7 110 18t107 25v-422zM1386 633q-17 0 -32 6.5t-26.5 18t-18.5 27t-7 32.5q0 18 7 33t18.5 26t27 17.5t32.5 6.5 q36 0 60.5 -24t24.5 -59t-24.5 -59.5t-61.5 -24.5zM439 464l-388 333q9 3 20 3h1043q9 0 20 -3l-388 -332l-52 -42l-102 -83l-101 83zM1181 751q2 -5 3 -10.5t1 -11.5v-658q0 -10 -5 -22q-7 -21 -25.5 -35t-41.5 -14h-1042q-26 0 -45.5 17t-24.5 42q0 3 -0.5 6t-0.5 6v658 q0 6 1 11.5t3 10.5l364 -313l224 -183l226 185z" />
</font>
</defs>
</svg>
